<svg id="visual" viewBox="0 0 900 600" width="900" height="600" xmlns="http://www.w3.org/2000/svg" xmlns:xlink="http://www.w3.org/1999/xlink" version="1.1"><rect x="0" y="0" width="900" height="600" fill="#2a4950"></rect><path d="M0 447L5.3 412C10.7 377 21.3 307 32 266.3C42.7 225.7 53.3 214.3 64 226.8C74.7 239.3 85.3 275.7 96.2 291.5C107 307.3 118 302.7 128.8 323.2C139.7 343.7 150.3 389.3 161 364.8C171.7 340.3 182.3 245.7 193 199C203.7 152.3 214.3 153.7 225 192.8C235.7 232 246.3 309 257 340.5C267.7 372 278.3 358 289 358.2C299.7 358.3 310.3 372.7 321.2 344.5C332 316.3 343 245.7 353.8 251.2C364.7 256.7 375.3 338.3 386 353.5C396.7 368.7 407.3 317.3 418 277C428.7 236.7 439.3 207.3 450 188.5C460.7 169.7 471.3 161.3 482 159.8C492.7 158.3 503.3 163.7 514 176.8C524.7 190 535.3 211 546.2 248C557 285 568 338 578.8 335.8C589.7 333.7 600.3 276.3 611 256C621.7 235.7 632.3 252.3 643 244.8C653.7 237.3 664.3 205.7 675 201.8C685.7 198 696.3 222 707 261.2C717.7 300.3 728.3 354.7 739 360.8C749.7 367 760.3 325 771.2 323.7C782 322.3 793 361.7 803.8 368.2C814.7 374.7 825.3 348.3 836 317.8C846.7 287.3 857.3 252.7 868 255.8C878.7 259 889.3 300 894.7 320.5L900 341L900 0L894.7 0C889.3 0 878.7 0 868 0C857.3 0 846.7 0 836 0C825.3 0 814.7 0 803.8 0C793 0 782 0 771.2 0C760.3 0 749.7 0 739 0C728.3 0 717.7 0 707 0C696.3 0 685.7 0 675 0C664.3 0 653.7 0 643 0C632.3 0 621.7 0 611 0C600.3 0 589.7 0 578.8 0C568 0 557 0 546.2 0C535.3 0 524.7 0 514 0C503.3 0 492.7 0 482 0C471.3 0 460.7 0 450 0C439.3 0 428.7 0 418 0C407.3 0 396.7 0 386 0C375.3 0 364.7 0 353.8 0C343 0 332 0 321.2 0C310.3 0 299.7 0 289 0C278.3 0 267.7 0 257 0C246.3 0 235.7 0 225 0C214.3 0 203.7 0 193 0C182.3 0 171.7 0 161 0C150.3 0 139.7 0 128.8 0C118 0 107 0 96.2 0C85.3 0 74.7 0 64 0C53.3 0 42.7 0 32 0C21.3 0 10.7 0 5.3 0L0 0Z" fill="#feca77" stroke-linecap="round" stroke-linejoin="miter"></path></svg>