<?xml version="1.0" standalone="no"?><svg xmlns:xlink="http://www.w3.org/1999/xlink" xmlns="http://www.w3.org/2000/svg" viewBox="0 0 1000 600" preserveAspectRatio="xMaxYMax slice"><g transform="scale(0.8928571428571429)"><rect x="0" y="0" width="1120" height="672" fill="#feca77"/><g transform="translate(0,0) scale(3.7335000000000003) rotate(0)"><path d="M10 0L20 10L10 20L0 10L10 0Z" fill="#d7b270"/></g><g transform="translate(74.67,0) scale(3.7335000000000003) rotate(0)"><path d="M10 0L20 10L10 20L0 10L10 0Z" fill="#f9c36d"/></g><g transform="translate(149.33,0) scale(3.7335000000000003) rotate(0)"><path d="M10 0L20 10L10 20L0 10L10 0Z" fill="#e09b37"/></g><g transform="translate(224,0) scale(3.7335000000000003) rotate(0)"><path d="M10 0L20 10L10 20L0 10L10 0Z" fill="#ebac4e"/></g><g transform="translate(298.67,0) scale(3.7335000000000003) rotate(0)"><path d="M10 0L20 10L10 20L0 10L10 0Z" fill="#f8c16a"/></g><g transform="translate(373.33,0) scale(3.7335000000000003) rotate(0)"><path d="M10 0L20 10L10 20L0 10L10 0Z" fill="#616b5a"/></g><g transform="translate(448,0) scale(3.7335000000000003) rotate(0)"><path d="M10 0L20 10L10 20L0 10L10 0Z" fill="#636c5b"/></g><g transform="translate(522.67,0) scale(3.7335000000000003) rotate(0)"><path d="M10 0L20 10L10 20L0 10L10 0Z" fill="#c3a66c"/></g><g transform="translate(597.33,0) scale(3.7335000000000003) rotate(0)"><path d="M10 0L20 10L10 20L0 10L10 0Z" fill="#ebad4f"/></g><g transform="translate(672,0) scale(3.7335000000000003) rotate(0)"><path d="M10 0L20 10L10 20L0 10L10 0Z" fill="#e6bb73"/></g><g transform="translate(746.67,0) scale(3.7335000000000003) rotate(0)"><path d="M10 0L20 10L10 20L0 10L10 0Z" fill="#da912a"/></g><g transform="translate(821.33,0) scale(3.7335000000000003) rotate(0)"><path d="M10 0L20 10L10 20L0 10L10 0Z" fill="#dc942e"/></g><g transform="translate(896,0) scale(3.7335000000000003) rotate(0)"><path d="M10 0L20 10L10 20L0 10L10 0Z" fill="#ad9868"/></g><g transform="translate(970.67,0) scale(3.7335000000000003) rotate(0)"><path d="M10 0L20 10L10 20L0 10L10 0Z" fill="#656d5b"/></g><g transform="translate(1045.33,0) scale(3.7335000000000003) rotate(0)"><path d="M10 0L20 10L10 20L0 10L10 0Z" fill="#d68b22"/></g><g transform="translate(0,74.67) scale(3.7335000000000003) rotate(0)"><path d="M10 0L20 10L10 20L0 10L10 0Z" fill="#db932c"/></g><g transform="translate(74.67,74.67) scale(3.7335000000000003) rotate(0)"><path d="M10 0L20 10L10 20L0 10L10 0Z" fill="#fec976"/></g><g transform="translate(149.33,74.67) scale(3.7335000000000003) rotate(0)"><path d="M10 0L20 10L10 20L0 10L10 0Z" fill="#8f8763"/></g><g transform="translate(224,74.67) scale(3.7335000000000003) rotate(0)"><path d="M10 0L20 10L10 20L0 10L10 0Z" fill="#da912a"/></g><g transform="translate(298.67,74.67) scale(3.7335000000000003) rotate(0)"><path d="M10 0L20 10L10 20L0 10L10 0Z" fill="#a99667"/></g><g transform="translate(373.33,74.67) scale(3.7335000000000003) rotate(0)"><path d="M10 0L20 10L10 20L0 10L10 0Z" fill="#3d5554"/></g><g transform="translate(448,74.67) scale(3.7335000000000003) rotate(0)"><path d="M10 0L20 10L10 20L0 10L10 0Z" fill="#efb257"/></g><g transform="translate(522.67,74.67) scale(3.7335000000000003) rotate(0)"><path d="M10 0L20 10L10 20L0 10L10 0Z" fill="#d88e26"/></g><g transform="translate(597.33,74.67) scale(3.7335000000000003) rotate(0)"><path d="M10 0L20 10L10 20L0 10L10 0Z" fill="#fac36e"/></g><g transform="translate(672,74.67) scale(3.7335000000000003) rotate(0)"><path d="M10 0L20 10L10 20L0 10L10 0Z" fill="#c7a86d"/></g><g transform="translate(746.67,74.67) scale(3.7335000000000003) rotate(0)"><path d="M10 0L20 10L10 20L0 10L10 0Z" fill="#aa9767"/></g><g transform="translate(821.33,74.67) scale(3.7335000000000003) rotate(0)"><path d="M10 0L20 10L10 20L0 10L10 0Z" fill="#334f52"/></g><g transform="translate(896,74.67) scale(3.7335000000000003) rotate(0)"><path d="M10 0L20 10L10 20L0 10L10 0Z" fill="#d3871b"/></g><g transform="translate(970.67,74.67) scale(3.7335000000000003) rotate(0)"><path d="M10 0L20 10L10 20L0 10L10 0Z" fill="#968b64"/></g><g transform="translate(1045.33,74.67) scale(3.7335000000000003) rotate(0)"><path d="M10 0L20 10L10 20L0 10L10 0Z" fill="#e9a94a"/></g><g transform="translate(0,149.33) scale(3.7335000000000003) rotate(0)"><path d="M10 0L20 10L10 20L0 10L10 0Z" fill="#f5c475"/></g><g transform="translate(74.67,149.33) scale(3.7335000000000003) rotate(0)"><path d="M10 0L20 10L10 20L0 10L10 0Z" fill="#79795e"/></g><g transform="translate(149.33,149.33) scale(3.7335000000000003) rotate(0)"><path d="M10 0L20 10L10 20L0 10L10 0Z" fill="#d58a20"/></g><g transform="translate(224,149.33) scale(3.7335000000000003) rotate(0)"><path d="M10 0L20 10L10 20L0 10L10 0Z" fill="#d3871c"/></g><g transform="translate(298.67,149.33) scale(3.7335000000000003) rotate(0)"><path d="M10 0L20 10L10 20L0 10L10 0Z" fill="#fdc975"/></g><g transform="translate(373.33,149.33) scale(3.7335000000000003) rotate(0)"><path d="M10 0L20 10L10 20L0 10L10 0Z" fill="#495c56"/></g><g transform="translate(448,149.33) scale(3.7335000000000003) rotate(0)"><path d="M10 0L20 10L10 20L0 10L10 0Z" fill="#fdc875"/></g><g transform="translate(522.67,149.33) scale(3.7335000000000003) rotate(0)"><path d="M10 0L20 10L10 20L0 10L10 0Z" fill="#ecae51"/></g><g transform="translate(597.33,149.33) scale(3.7335000000000003) rotate(0)"><path d="M10 0L20 10L10 20L0 10L10 0Z" fill="#ebac4e"/></g><g transform="translate(672,149.33) scale(3.7335000000000003) rotate(0)"><path d="M10 0L20 10L10 20L0 10L10 0Z" fill="#f7bf68"/></g><g transform="translate(746.67,149.33) scale(3.7335000000000003) rotate(0)"><path d="M10 0L20 10L10 20L0 10L10 0Z" fill="#e9a94a"/></g><g transform="translate(821.33,149.33) scale(3.7335000000000003) rotate(0)"><path d="M10 0L20 10L10 20L0 10L10 0Z" fill="#9a8d65"/></g><g transform="translate(896,149.33) scale(3.7335000000000003) rotate(0)"><path d="M10 0L20 10L10 20L0 10L10 0Z" fill="#f9c16b"/></g><g transform="translate(970.67,149.33) scale(3.7335000000000003) rotate(0)"><path d="M10 0L20 10L10 20L0 10L10 0Z" fill="#cbab6e"/></g><g transform="translate(1045.33,149.33) scale(3.7335000000000003) rotate(0)"><path d="M10 0L20 10L10 20L0 10L10 0Z" fill="#d28519"/></g><g transform="translate(0,224) scale(3.7335000000000003) rotate(0)"><path d="M10 0L20 10L10 20L0 10L10 0Z" fill="#e5a241"/></g><g transform="translate(74.67,224) scale(3.7335000000000003) rotate(0)"><path d="M10 0L20 10L10 20L0 10L10 0Z" fill="#ecae51"/></g><g transform="translate(149.33,224) scale(3.7335000000000003) rotate(0)"><path d="M10 0L20 10L10 20L0 10L10 0Z" fill="#fbc571"/></g><g transform="translate(224,224) scale(3.7335000000000003) rotate(0)"><path d="M10 0L20 10L10 20L0 10L10 0Z" fill="#435855"/></g><g transform="translate(298.67,224) scale(3.7335000000000003) rotate(0)"><path d="M10 0L20 10L10 20L0 10L10 0Z" fill="#6d725c"/></g><g transform="translate(373.33,224) scale(3.7335000000000003) rotate(0)"><path d="M10 0L20 10L10 20L0 10L10 0Z" fill="#f8c069"/></g><g transform="translate(448,224) scale(3.7335000000000003) rotate(0)"><path d="M10 0L20 10L10 20L0 10L10 0Z" fill="#c8a96d"/></g><g transform="translate(522.67,224) scale(3.7335000000000003) rotate(0)"><path d="M10 0L20 10L10 20L0 10L10 0Z" fill="#e8a747"/></g><g transform="translate(597.33,224) scale(3.7335000000000003) rotate(0)"><path d="M10 0L20 10L10 20L0 10L10 0Z" fill="#666e5b"/></g><g transform="translate(672,224) scale(3.7335000000000003) rotate(0)"><path d="M10 0L20 10L10 20L0 10L10 0Z" fill="#f5bb63"/></g><g transform="translate(746.67,224) scale(3.7335000000000003) rotate(0)"><path d="M10 0L20 10L10 20L0 10L10 0Z" fill="#a59467"/></g><g transform="translate(821.33,224) scale(3.7335000000000003) rotate(0)"><path d="M10 0L20 10L10 20L0 10L10 0Z" fill="#676e5b"/></g><g transform="translate(896,224) scale(3.7335000000000003) rotate(0)"><path d="M10 0L20 10L10 20L0 10L10 0Z" fill="#e6a443"/></g><g transform="translate(970.67,224) scale(3.7335000000000003) rotate(0)"><path d="M10 0L20 10L10 20L0 10L10 0Z" fill="#9c8e65"/></g><g transform="translate(1045.33,224) scale(3.7335000000000003) rotate(0)"><path d="M10 0L20 10L10 20L0 10L10 0Z" fill="#bca26b"/></g><g transform="translate(0,298.67) scale(3.7335000000000003) rotate(0)"><path d="M10 0L20 10L10 20L0 10L10 0Z" fill="#b8a06a"/></g><g transform="translate(74.67,298.67) scale(3.7335000000000003) rotate(0)"><path d="M10 0L20 10L10 20L0 10L10 0Z" fill="#77785e"/></g><g transform="translate(149.33,298.67) scale(3.7335000000000003) rotate(0)"><path d="M10 0L20 10L10 20L0 10L10 0Z" fill="#d4891e"/></g><g transform="translate(224,298.67) scale(3.7335000000000003) rotate(0)"><path d="M10 0L20 10L10 20L0 10L10 0Z" fill="#d3871c"/></g><g transform="translate(298.67,298.67) scale(3.7335000000000003) rotate(0)"><path d="M10 0L20 10L10 20L0 10L10 0Z" fill="#827f60"/></g><g transform="translate(373.33,298.67) scale(3.7335000000000003) rotate(0)"><path d="M10 0L20 10L10 20L0 10L10 0Z" fill="#5b6759"/></g><g transform="translate(448,298.67) scale(3.7335000000000003) rotate(0)"><path d="M10 0L20 10L10 20L0 10L10 0Z" fill="#f7bf68"/></g><g transform="translate(522.67,298.67) scale(3.7335000000000003) rotate(0)"><path d="M10 0L20 10L10 20L0 10L10 0Z" fill="#dab470"/></g><g transform="translate(597.33,298.67) scale(3.7335000000000003) rotate(0)"><path d="M10 0L20 10L10 20L0 10L10 0Z" fill="#bea36b"/></g><g transform="translate(672,298.67) scale(3.7335000000000003) rotate(0)"><path d="M10 0L20 10L10 20L0 10L10 0Z" fill="#e6a443"/></g><g transform="translate(746.67,298.67) scale(3.7335000000000003) rotate(0)"><path d="M10 0L20 10L10 20L0 10L10 0Z" fill="#fdc975"/></g><g transform="translate(821.33,298.67) scale(3.7335000000000003) rotate(0)"><path d="M10 0L20 10L10 20L0 10L10 0Z" fill="#e6a443"/></g><g transform="translate(896,298.67) scale(3.7335000000000003) rotate(0)"><path d="M10 0L20 10L10 20L0 10L10 0Z" fill="#c5a76d"/></g><g transform="translate(970.67,298.67) scale(3.7335000000000003) rotate(0)"><path d="M10 0L20 10L10 20L0 10L10 0Z" fill="#d3861a"/></g><g transform="translate(1045.33,298.67) scale(3.7335000000000003) rotate(0)"><path d="M10 0L20 10L10 20L0 10L10 0Z" fill="#e09b37"/></g><g transform="translate(0,373.33) scale(3.7335000000000003) rotate(0)"><path d="M10 0L20 10L10 20L0 10L10 0Z" fill="#a39366"/></g><g transform="translate(74.67,373.33) scale(3.7335000000000003) rotate(0)"><path d="M10 0L20 10L10 20L0 10L10 0Z" fill="#f1b65c"/></g><g transform="translate(149.33,373.33) scale(3.7335000000000003) rotate(0)"><path d="M10 0L20 10L10 20L0 10L10 0Z" fill="#d99028"/></g><g transform="translate(224,373.33) scale(3.7335000000000003) rotate(0)"><path d="M10 0L20 10L10 20L0 10L10 0Z" fill="#f4ba61"/></g><g transform="translate(298.67,373.33) scale(3.7335000000000003) rotate(0)"><path d="M10 0L20 10L10 20L0 10L10 0Z" fill="#bfa46b"/></g><g transform="translate(373.33,373.33) scale(3.7335000000000003) rotate(0)"><path d="M10 0L20 10L10 20L0 10L10 0Z" fill="#485b56"/></g><g transform="translate(448,373.33) scale(3.7335000000000003) rotate(0)"><path d="M10 0L20 10L10 20L0 10L10 0Z" fill="#f0b459"/></g><g transform="translate(522.67,373.33) scale(3.7335000000000003) rotate(0)"><path d="M10 0L20 10L10 20L0 10L10 0Z" fill="#e0b871"/></g><g transform="translate(597.33,373.33) scale(3.7335000000000003) rotate(0)"><path d="M10 0L20 10L10 20L0 10L10 0Z" fill="#bca26b"/></g><g transform="translate(672,373.33) scale(3.7335000000000003) rotate(0)"><path d="M10 0L20 10L10 20L0 10L10 0Z" fill="#db932b"/></g><g transform="translate(746.67,373.33) scale(3.7335000000000003) rotate(0)"><path d="M10 0L20 10L10 20L0 10L10 0Z" fill="#f3b960"/></g><g transform="translate(821.33,373.33) scale(3.7335000000000003) rotate(0)"><path d="M10 0L20 10L10 20L0 10L10 0Z" fill="#fbc671"/></g><g transform="translate(896,373.33) scale(3.7335000000000003) rotate(0)"><path d="M10 0L20 10L10 20L0 10L10 0Z" fill="#df9935"/></g><g transform="translate(970.67,373.33) scale(3.7335000000000003) rotate(0)"><path d="M10 0L20 10L10 20L0 10L10 0Z" fill="#fac36e"/></g><g transform="translate(1045.33,373.33) scale(3.7335000000000003) rotate(0)"><path d="M10 0L20 10L10 20L0 10L10 0Z" fill="#e29e3b"/></g><g transform="translate(0,448) scale(3.7335000000000003) rotate(0)"><path d="M10 0L20 10L10 20L0 10L10 0Z" fill="#d78c23"/></g><g transform="translate(74.67,448) scale(3.7335000000000003) rotate(0)"><path d="M10 0L20 10L10 20L0 10L10 0Z" fill="#4a5d56"/></g><g transform="translate(149.33,448) scale(3.7335000000000003) rotate(0)"><path d="M10 0L20 10L10 20L0 10L10 0Z" fill="#fdc875"/></g><g transform="translate(224,448) scale(3.7335000000000003) rotate(0)"><path d="M10 0L20 10L10 20L0 10L10 0Z" fill="#e9a849"/></g><g transform="translate(298.67,448) scale(3.7335000000000003) rotate(0)"><path d="M10 0L20 10L10 20L0 10L10 0Z" fill="#c5a76d"/></g><g transform="translate(373.33,448) scale(3.7335000000000003) rotate(0)"><path d="M10 0L20 10L10 20L0 10L10 0Z" fill="#b8a06a"/></g><g transform="translate(448,448) scale(3.7335000000000003) rotate(0)"><path d="M10 0L20 10L10 20L0 10L10 0Z" fill="#dd9631"/></g><g transform="translate(522.67,448) scale(3.7335000000000003) rotate(0)"><path d="M10 0L20 10L10 20L0 10L10 0Z" fill="#78795e"/></g><g transform="translate(597.33,448) scale(3.7335000000000003) rotate(0)"><path d="M10 0L20 10L10 20L0 10L10 0Z" fill="#dc942d"/></g><g transform="translate(672,448) scale(3.7335000000000003) rotate(0)"><path d="M10 0L20 10L10 20L0 10L10 0Z" fill="#a89667"/></g><g transform="translate(746.67,448) scale(3.7335000000000003) rotate(0)"><path d="M10 0L20 10L10 20L0 10L10 0Z" fill="#d7b270"/></g><g transform="translate(821.33,448) scale(3.7335000000000003) rotate(0)"><path d="M10 0L20 10L10 20L0 10L10 0Z" fill="#d78e25"/></g><g transform="translate(896,448) scale(3.7335000000000003) rotate(0)"><path d="M10 0L20 10L10 20L0 10L10 0Z" fill="#eaaa4c"/></g><g transform="translate(970.67,448) scale(3.7335000000000003) rotate(0)"><path d="M10 0L20 10L10 20L0 10L10 0Z" fill="#caaa6d"/></g><g transform="translate(1045.33,448) scale(3.7335000000000003) rotate(0)"><path d="M10 0L20 10L10 20L0 10L10 0Z" fill="#e6a545"/></g><g transform="translate(0,522.67) scale(3.7335000000000003) rotate(0)"><path d="M10 0L20 10L10 20L0 10L10 0Z" fill="#d68c22"/></g><g transform="translate(74.67,522.67) scale(3.7335000000000003) rotate(0)"><path d="M10 0L20 10L10 20L0 10L10 0Z" fill="#998d64"/></g><g transform="translate(149.33,522.67) scale(3.7335000000000003) rotate(0)"><path d="M10 0L20 10L10 20L0 10L10 0Z" fill="#8d8562"/></g><g transform="translate(224,522.67) scale(3.7335000000000003) rotate(0)"><path d="M10 0L20 10L10 20L0 10L10 0Z" fill="#f5bc63"/></g><g transform="translate(298.67,522.67) scale(3.7335000000000003) rotate(0)"><path d="M10 0L20 10L10 20L0 10L10 0Z" fill="#ccac6e"/></g><g transform="translate(373.33,522.67) scale(3.7335000000000003) rotate(0)"><path d="M10 0L20 10L10 20L0 10L10 0Z" fill="#375152"/></g><g transform="translate(448,522.67) scale(3.7335000000000003) rotate(0)"><path d="M10 0L20 10L10 20L0 10L10 0Z" fill="#4a5d56"/></g><g transform="translate(522.67,522.67) scale(3.7335000000000003) rotate(0)"><path d="M10 0L20 10L10 20L0 10L10 0Z" fill="#e39f3d"/></g><g transform="translate(597.33,522.67) scale(3.7335000000000003) rotate(0)"><path d="M10 0L20 10L10 20L0 10L10 0Z" fill="#334e52"/></g><g transform="translate(672,522.67) scale(3.7335000000000003) rotate(0)"><path d="M10 0L20 10L10 20L0 10L10 0Z" fill="#edb053"/></g><g transform="translate(746.67,522.67) scale(3.7335000000000003) rotate(0)"><path d="M10 0L20 10L10 20L0 10L10 0Z" fill="#f7c069"/></g><g transform="translate(821.33,522.67) scale(3.7335000000000003) rotate(0)"><path d="M10 0L20 10L10 20L0 10L10 0Z" fill="#5d6859"/></g><g transform="translate(896,522.67) scale(3.7335000000000003) rotate(0)"><path d="M10 0L20 10L10 20L0 10L10 0Z" fill="#425854"/></g><g transform="translate(970.67,522.67) scale(3.7335000000000003) rotate(0)"><path d="M10 0L20 10L10 20L0 10L10 0Z" fill="#516157"/></g><g transform="translate(1045.33,522.67) scale(3.7335000000000003) rotate(0)"><path d="M10 0L20 10L10 20L0 10L10 0Z" fill="#fac46e"/></g><g transform="translate(0,597.33) scale(3.7335000000000003) rotate(0)"><path d="M10 0L20 10L10 20L0 10L10 0Z" fill="#526157"/></g><g transform="translate(74.67,597.33) scale(3.7335000000000003) rotate(0)"><path d="M10 0L20 10L10 20L0 10L10 0Z" fill="#d5b170"/></g><g transform="translate(149.33,597.33) scale(3.7335000000000003) rotate(0)"><path d="M10 0L20 10L10 20L0 10L10 0Z" fill="#dd9630"/></g><g transform="translate(224,597.33) scale(3.7335000000000003) rotate(0)"><path d="M10 0L20 10L10 20L0 10L10 0Z" fill="#8a8462"/></g><g transform="translate(298.67,597.33) scale(3.7335000000000003) rotate(0)"><path d="M10 0L20 10L10 20L0 10L10 0Z" fill="#de9934"/></g><g transform="translate(373.33,597.33) scale(3.7335000000000003) rotate(0)"><path d="M10 0L20 10L10 20L0 10L10 0Z" fill="#817e60"/></g><g transform="translate(448,597.33) scale(3.7335000000000003) rotate(0)"><path d="M10 0L20 10L10 20L0 10L10 0Z" fill="#988c64"/></g><g transform="translate(522.67,597.33) scale(3.7335000000000003) rotate(0)"><path d="M10 0L20 10L10 20L0 10L10 0Z" fill="#a69567"/></g><g transform="translate(597.33,597.33) scale(3.7335000000000003) rotate(0)"><path d="M10 0L20 10L10 20L0 10L10 0Z" fill="#e8bc73"/></g><g transform="translate(672,597.33) scale(3.7335000000000003) rotate(0)"><path d="M10 0L20 10L10 20L0 10L10 0Z" fill="#dc952f"/></g><g transform="translate(746.67,597.33) scale(3.7335000000000003) rotate(0)"><path d="M10 0L20 10L10 20L0 10L10 0Z" fill="#f8c16b"/></g><g transform="translate(821.33,597.33) scale(3.7335000000000003) rotate(0)"><path d="M10 0L20 10L10 20L0 10L10 0Z" fill="#858161"/></g><g transform="translate(896,597.33) scale(3.7335000000000003) rotate(0)"><path d="M10 0L20 10L10 20L0 10L10 0Z" fill="#ebac4e"/></g><g transform="translate(970.67,597.33) scale(3.7335000000000003) rotate(0)"><path d="M10 0L20 10L10 20L0 10L10 0Z" fill="#d4881e"/></g><g transform="translate(1045.33,597.33) scale(3.7335000000000003) rotate(0)"><path d="M10 0L20 10L10 20L0 10L10 0Z" fill="#f1b55b"/></g></g></svg>