<svg id="visual" viewBox="0 0 900 600" width="900" height="600" xmlns="http://www.w3.org/2000/svg" xmlns:xlink="http://www.w3.org/1999/xlink" version="1.1"><rect x="0" y="0" width="900" height="600" fill="#944d1f"></rect><g transform="translate(-40.614455521683226 14.211120929897618)"><path d="M227.6 -374.2C293.5 -265.3 344.6 -196.9 434.9 -98.8C525.3 -0.7 655 127.1 667.2 256.1C679.4 385.2 574.2 515.4 443.5 576.7C312.7 638.1 156.4 630.5 8.1 619.3C-140.1 608.1 -280.2 593.3 -348.5 511.7C-416.8 430 -413.4 281.6 -458.9 147.7C-504.4 13.7 -598.8 -105.8 -585.7 -203.9C-572.5 -302 -451.7 -378.7 -336.2 -471.5C-220.6 -564.3 -110.3 -673.2 -14.7 -652.9C80.8 -632.6 161.6 -483.2 227.6 -374.2" fill="none" stroke="#001122" stroke-width="6"></path></g></svg>