<svg id="visual" viewBox="0 0 900 600" width="900" height="600" xmlns="http://www.w3.org/2000/svg" xmlns:xlink="http://www.w3.org/1999/xlink" version="1.1"><rect width="900" height="600" fill="#944d1f"></rect><g><g transform="translate(764 366)"><path d="M62.9 -21.3C71.5 6 61.6 38.5 40.3 53.4C19.1 68.3 -13.3 65.6 -37.9 48.6C-62.6 31.6 -79.4 0.2 -71.7 -25.8C-64.1 -51.8 -32.1 -72.3 -2.4 -71.5C27.2 -70.7 54.3 -48.6 62.9 -21.3Z" fill="#060405"></path></g><g transform="translate(110 549)"><path d="M34.6 -11.8C38.7 1.5 31.8 17.9 19.1 27.4C6.4 36.9 -12.1 39.5 -23.9 31.3C-35.6 23.2 -40.6 4.2 -35.5 -10.5C-30.4 -25.1 -15.2 -35.4 0 -35.4C15.2 -35.4 30.4 -25.1 34.6 -11.8Z" fill="#060405"></path></g><g transform="translate(324 382)"><path d="M64.8 -21.1C73.6 5.8 63 39 41.4 53.9C19.9 68.8 -12.7 65.5 -33 49.7C-53.4 33.9 -61.7 5.6 -54.1 -19.7C-46.6 -45 -23.3 -67.3 2.4 -68.1C28.1 -68.9 56.1 -48.1 64.8 -21.1Z" fill="#060405"></path></g><g transform="translate(898 582)"><path d="M30.7 -8C35.5 5 32.3 22.6 21.6 30.5C10.9 38.5 -7.3 36.8 -19.8 27.7C-32.3 18.5 -39 1.8 -34.7 -10.4C-30.5 -22.6 -15.2 -30.3 -1.2 -29.9C12.9 -29.5 25.8 -21.1 30.7 -8Z" fill="#060405"></path></g><g transform="translate(603 13)"><path d="M56.9 -18.4C65 6.4 56.8 36.6 36.2 52.1C15.7 67.5 -17.2 68.3 -40.2 52.3C-63.1 36.3 -76.1 3.7 -67.7 -21.5C-59.4 -46.6 -29.7 -64.3 -2.6 -63.4C24.4 -62.6 48.8 -43.2 56.9 -18.4Z" fill="#060405"></path></g><g transform="translate(352 12)"><path d="M34.6 -12.9C39.2 2.9 33.4 20.4 20.8 29.8C8.2 39.2 -11 40.5 -24.4 31.3C-37.7 22.1 -45.1 2.5 -40 -13.8C-35 -30.2 -17.5 -43.4 -1.2 -43C15 -42.6 30 -28.6 34.6 -12.9Z" fill="#060405"></path></g><g transform="translate(181 177)"><path d="M38.5 -13.1C43.5 2.7 36.6 21.8 23.5 31.1C10.3 40.4 -9.2 39.9 -23 30.2C-36.8 20.6 -44.9 1.7 -40.1 -13.9C-35.3 -29.6 -17.7 -41.9 -0.4 -41.8C16.8 -41.6 33.6 -29 38.5 -13.1Z" fill="#060405"></path></g><g transform="translate(660 580)"><path d="M30.6 -9.2C35.3 4.6 31.7 21.7 20.8 30C9.9 38.2 -8.5 37.6 -19.6 29C-30.7 20.5 -34.6 4 -30.2 -9.4C-25.7 -22.8 -12.8 -33.1 0 -33.1C12.9 -33.2 25.9 -22.9 30.6 -9.2Z" fill="#060405"></path></g><g transform="translate(818 164)"><path d="M54.9 -19.4C61.9 3.8 52 30.9 32.3 45.4C12.5 60 -17 62.1 -35.1 48.8C-53.2 35.6 -59.8 7 -52 -17.2C-44.3 -41.4 -22.1 -61.2 0.9 -61.4C23.9 -61.7 47.9 -42.5 54.9 -19.4Z" fill="#060405"></path></g><g transform="translate(16 33)"><path d="M39.9 -12.2C45.3 3.7 38.9 24.1 25 34.2C11.1 44.2 -10.2 43.8 -25.2 33.2C-40.2 22.6 -49 1.9 -43.7 -13.7C-38.5 -29.4 -19.2 -40.1 -1 -39.8C17.3 -39.5 34.5 -28.1 39.9 -12.2Z" fill="#060405"></path></g><g transform="translate(548 320)"><path d="M34.7 -11.7C39.6 3.8 34.5 22.1 21.4 32.4C8.2 42.7 -13.1 45 -26.6 35.4C-40.2 25.8 -46.2 4.4 -40.5 -12.2C-34.8 -28.9 -17.4 -40.9 -1.2 -40.5C14.9 -40.1 29.8 -27.3 34.7 -11.7Z" fill="#060405"></path></g><g transform="translate(445 556)"><path d="M23.9 -8.7C27 2 23 14 14.4 20.4C5.8 26.8 -7.3 27.4 -15.8 21.4C-24.3 15.3 -28.1 2.4 -24.7 -8.6C-21.3 -19.6 -10.7 -28.7 -0.1 -28.7C10.4 -28.6 20.7 -19.4 23.9 -8.7Z" fill="#060405"></path></g><g transform="translate(8 350)"><path d="M61.1 -19.2C68.7 3.4 57.1 33 35.2 49C13.3 65 -18.8 67.5 -40.1 52.6C-61.4 37.8 -71.9 5.5 -63.4 -18.4C-55 -42.2 -27.5 -57.6 -0.4 -57.5C26.8 -57.4 53.6 -41.8 61.1 -19.2Z" fill="#060405"></path></g></g></svg>