<svg id="visual" viewBox="0 0 900 600" width="900" height="600" xmlns="http://www.w3.org/2000/svg" xmlns:xlink="http://www.w3.org/1999/xlink" version="1.1"><rect x="0" y="0" width="900" height="600" fill="#eecfa1"></rect><defs><linearGradient id="grad1_0" x1="33.3%" y1="0%" x2="100%" y2="100%"><stop offset="20%" stop-color="#eecfa1" stop-opacity="1"></stop><stop offset="80%" stop-color="#eecfa1" stop-opacity="1"></stop></linearGradient></defs><defs><linearGradient id="grad2_0" x1="0%" y1="0%" x2="66.7%" y2="100%"><stop offset="20%" stop-color="#eecfa1" stop-opacity="1"></stop><stop offset="80%" stop-color="#eecfa1" stop-opacity="1"></stop></linearGradient></defs><g transform="translate(900, 0)"><path d="M0 324.5C-21.1 307.5 -42.2 290.4 -65 284.7C-87.8 278.9 -112.4 284.5 -134.5 279.3C-156.6 274.1 -176.3 258.2 -190.8 239.2C-205.3 220.3 -214.6 198.3 -224.4 178.9C-234.2 159.6 -244.5 142.8 -262.2 126.3C-279.8 109.7 -304.8 93.2 -316.4 72.2C-328 51.2 -326.2 25.6 -324.5 0L0 0Z" fill="#f9dfb7"></path></g><g transform="translate(0, 600)"><path d="M0 -324.5C24.5 -323.5 49 -322.6 72.2 -316.4C95.4 -310.1 117.4 -298.7 136.7 -283.8C155.9 -268.9 172.4 -250.7 183.9 -230.6C195.5 -210.6 202.1 -188.8 215 -171.5C227.9 -154.1 247.2 -141.1 256.8 -123.7C266.4 -106.2 266.2 -84.3 275.9 -63C285.6 -41.6 305 -20.8 324.5 0L0 0Z" fill="#f9dfb7"></path></g></svg>