<svg id="visual" viewBox="0 0 900 600" width="900" height="600" xmlns="http://www.w3.org/2000/svg" xmlns:xlink="http://www.w3.org/1999/xlink" version="1.1"><rect x="0" y="0" width="900" height="600" fill="#FBAE3C"></rect><defs><linearGradient id="grad1_0" x1="33.3%" y1="100%" x2="100%" y2="0%"><stop offset="20%" stop-color="#0a0854" stop-opacity="1"></stop><stop offset="80%" stop-color="#0a0854" stop-opacity="1"></stop></linearGradient></defs><defs><linearGradient id="grad1_1" x1="33.3%" y1="100%" x2="100%" y2="0%"><stop offset="20%" stop-color="#0a0854" stop-opacity="1"></stop><stop offset="80%" stop-color="#64005e" stop-opacity="1"></stop></linearGradient></defs><defs><linearGradient id="grad1_2" x1="33.3%" y1="100%" x2="100%" y2="0%"><stop offset="20%" stop-color="#a20d5b" stop-opacity="1"></stop><stop offset="80%" stop-color="#64005e" stop-opacity="1"></stop></linearGradient></defs><defs><linearGradient id="grad1_3" x1="33.3%" y1="100%" x2="100%" y2="0%"><stop offset="20%" stop-color="#a20d5b" stop-opacity="1"></stop><stop offset="80%" stop-color="#d13f50" stop-opacity="1"></stop></linearGradient></defs><defs><linearGradient id="grad1_4" x1="33.3%" y1="100%" x2="100%" y2="0%"><stop offset="20%" stop-color="#f07542" stop-opacity="1"></stop><stop offset="80%" stop-color="#d13f50" stop-opacity="1"></stop></linearGradient></defs><defs><linearGradient id="grad1_5" x1="33.3%" y1="100%" x2="100%" y2="0%"><stop offset="20%" stop-color="#f07542" stop-opacity="1"></stop><stop offset="80%" stop-color="#fbae3c" stop-opacity="1"></stop></linearGradient></defs><defs><linearGradient id="grad2_0" x1="0%" y1="100%" x2="66.7%" y2="0%"><stop offset="20%" stop-color="#0a0854" stop-opacity="1"></stop><stop offset="80%" stop-color="#0a0854" stop-opacity="1"></stop></linearGradient></defs><defs><linearGradient id="grad2_1" x1="0%" y1="100%" x2="66.7%" y2="0%"><stop offset="20%" stop-color="#64005e" stop-opacity="1"></stop><stop offset="80%" stop-color="#0a0854" stop-opacity="1"></stop></linearGradient></defs><defs><linearGradient id="grad2_2" x1="0%" y1="100%" x2="66.7%" y2="0%"><stop offset="20%" stop-color="#64005e" stop-opacity="1"></stop><stop offset="80%" stop-color="#a20d5b" stop-opacity="1"></stop></linearGradient></defs><defs><linearGradient id="grad2_3" x1="0%" y1="100%" x2="66.7%" y2="0%"><stop offset="20%" stop-color="#d13f50" stop-opacity="1"></stop><stop offset="80%" stop-color="#a20d5b" stop-opacity="1"></stop></linearGradient></defs><defs><linearGradient id="grad2_4" x1="0%" y1="100%" x2="66.7%" y2="0%"><stop offset="20%" stop-color="#d13f50" stop-opacity="1"></stop><stop offset="80%" stop-color="#f07542" stop-opacity="1"></stop></linearGradient></defs><defs><linearGradient id="grad2_5" x1="0%" y1="100%" x2="66.7%" y2="0%"><stop offset="20%" stop-color="#fbae3c" stop-opacity="1"></stop><stop offset="80%" stop-color="#f07542" stop-opacity="1"></stop></linearGradient></defs><g transform="translate(900, 600)"><path d="M-432.7 0C-421 -44.3 -409.4 -88.6 -387.1 -125.8C-364.8 -162.9 -331.8 -193 -302.6 -219.8C-273.3 -246.7 -247.8 -270.4 -222.2 -305.8C-196.5 -341.2 -170.8 -388.4 -133.7 -411.5C-96.6 -434.6 -48.3 -433.6 0 -432.7L0 0Z" fill="#f8913d"></path><path d="M-360.6 0C-350.9 -36.9 -341.2 -73.8 -322.6 -104.8C-304 -135.8 -276.5 -160.8 -252.1 -183.2C-227.8 -205.6 -206.5 -225.3 -185.2 -254.8C-163.8 -284.4 -142.3 -323.7 -111.4 -342.9C-80.5 -362.2 -40.3 -361.4 0 -360.6L0 0Z" fill="#e35a49"></path><path d="M-288.4 0C-280.7 -29.5 -272.9 -59.1 -258.1 -83.8C-243.2 -108.6 -221.2 -128.6 -201.7 -146.6C-182.2 -164.5 -165.2 -180.3 -148.1 -203.9C-131 -227.5 -113.8 -258.9 -89.1 -274.3C-64.4 -289.7 -32.2 -289.1 0 -288.4L0 0Z" fill="#bc2656"></path><path d="M-216.3 0C-210.5 -22.2 -204.7 -44.3 -193.5 -62.9C-182.4 -81.5 -165.9 -96.5 -151.3 -109.9C-136.7 -123.3 -123.9 -135.2 -111.1 -152.9C-98.3 -170.6 -85.4 -194.2 -66.9 -205.7C-48.3 -217.3 -24.2 -216.8 0 -216.3L0 0Z" fill="#85005e"></path><path d="M-144.2 0C-140.3 -14.8 -136.5 -29.5 -129 -41.9C-121.6 -54.3 -110.6 -64.3 -100.9 -73.3C-91.1 -82.2 -82.6 -90.1 -74.1 -101.9C-65.5 -113.7 -56.9 -129.5 -44.6 -137.2C-32.2 -144.9 -16.1 -144.5 0 -144.2L0 0Z" fill="#3f035b"></path><path d="M-72.1 0C-70.2 -7.4 -68.2 -14.8 -64.5 -21C-60.8 -27.2 -55.3 -32.2 -50.4 -36.6C-45.6 -41.1 -41.3 -45.1 -37 -51C-32.8 -56.9 -28.5 -64.7 -22.3 -68.6C-16.1 -72.4 -8.1 -72.3 0 -72.1L0 0Z" fill="#0a0854"></path></g><g transform="translate(0, 0)"><path d="M432.7 0C424.6 43.6 416.5 87.1 405.2 131.6C393.8 176.1 379.1 221.6 350 254.3C321 287.1 277.5 307.1 238.6 328.5C199.8 349.8 165.7 372.4 126.7 389.9C87.7 407.5 43.9 420.1 0 432.7L0 0Z" fill="#f8913d"></path><path d="M360.6 0C353.8 36.3 347.1 72.6 337.6 109.7C328.2 146.8 315.9 184.6 291.7 211.9C267.5 239.2 231.2 255.9 198.9 273.7C166.5 291.5 138.1 310.3 105.6 324.9C73.1 339.6 36.5 350.1 0 360.6L0 0Z" fill="#e35a49"></path><path d="M288.4 0C283.1 29 277.7 58.1 270.1 87.8C262.5 117.4 252.7 147.7 233.4 169.5C214 191.4 185 204.8 159.1 219C133.2 233.2 110.5 248.2 84.5 260C58.5 271.7 29.2 280.1 0 288.4L0 0Z" fill="#bc2656"></path><path d="M216.3 0C212.3 21.8 208.3 43.6 202.6 65.8C196.9 88.1 189.6 110.8 175 127.2C160.5 143.5 138.7 153.6 119.3 164.2C99.9 174.9 82.8 186.2 63.3 195C43.9 203.8 21.9 210 0 216.3L0 0Z" fill="#85005e"></path><path d="M144.2 0C141.5 14.5 138.8 29 135.1 43.9C131.3 58.7 126.4 73.9 116.7 84.8C107 95.7 92.5 102.4 79.5 109.5C66.6 116.6 55.2 124.1 42.2 130C29.2 135.8 14.6 140 0 144.2L0 0Z" fill="#3f035b"></path><path d="M72.1 0C70.8 7.3 69.4 14.5 67.5 21.9C65.6 29.4 63.2 36.9 58.3 42.4C53.5 47.8 46.2 51.2 39.8 54.7C33.3 58.3 27.6 62.1 21.1 65C14.6 67.9 7.3 70 0 72.1L0 0Z" fill="#0a0854"></path></g></svg>