<svg id="visual" viewBox="0 0 900 600" width="900" height="600" xmlns="http://www.w3.org/2000/svg" xmlns:xlink="http://www.w3.org/1999/xlink" version="1.1"><path d="M665 600L755 600L755 554L791 554L791 508L602 508L602 462L800 462L800 415L557 415L557 369L548 369L548 323L746 323L746 277L746 277L746 231L755 231L755 185L800 185L800 138L629 138L629 92L701 92L701 46L710 46L710 0L900 0L900 46L900 46L900 92L900 92L900 138L900 138L900 185L900 185L900 231L900 231L900 277L900 277L900 323L900 323L900 369L900 369L900 415L900 415L900 462L900 462L900 508L900 508L900 554L900 554L900 600L900 600Z" fill="#bf564e"></path><path d="M584 600L710 600L710 554L737 554L737 508L530 508L530 462L719 462L719 415L503 415L503 369L521 369L521 323L683 323L683 277L719 277L719 231L701 231L701 185L719 185L719 138L602 138L602 92L611 92L611 46L647 46L647 0L711 0L711 46L702 46L702 92L630 92L630 138L801 138L801 185L756 185L756 231L747 231L747 277L747 277L747 323L549 323L549 369L558 369L558 415L801 415L801 462L603 462L603 508L792 508L792 554L756 554L756 600L666 600Z" fill="#b14150"></path><path d="M503 600L593 600L593 554L656 554L656 508L422 508L422 462L683 462L683 415L458 415L458 369L413 369L413 323L611 323L611 277L584 277L584 231L602 231L602 185L638 185L638 138L521 138L521 92L557 92L557 46L593 46L593 0L648 0L648 46L612 46L612 92L603 92L603 138L720 138L720 185L702 185L702 231L720 231L720 277L684 277L684 323L522 323L522 369L504 369L504 415L720 415L720 462L531 462L531 508L738 508L738 554L711 554L711 600L585 600Z" fill="#a02d52"></path><path d="M260 600L368 600L368 554L404 554L404 508L305 508L305 462L431 462L431 415L269 415L269 369L296 369L296 323L305 323L305 277L323 277L323 231L332 231L332 185L404 185L404 138L422 138L422 92L314 92L314 46L278 46L278 0L594 0L594 46L558 46L558 92L522 92L522 138L639 138L639 185L603 185L603 231L585 231L585 277L612 277L612 323L414 323L414 369L459 369L459 415L684 415L684 462L423 462L423 508L657 508L657 554L594 554L594 600L504 600Z" fill="#8c1a55"></path><path d="M215 600L305 600L305 554L332 554L332 508L233 508L233 462L359 462L359 415L215 415L215 369L242 369L242 323L233 323L233 277L278 277L278 231L269 231L269 185L323 185L323 138L350 138L350 92L278 92L278 46L242 46L242 0L279 0L279 46L315 46L315 92L423 92L423 138L405 138L405 185L333 185L333 231L324 231L324 277L306 277L306 323L297 323L297 369L270 369L270 415L432 415L432 462L306 462L306 508L405 508L405 554L369 554L369 600L261 600Z" fill="#750a57"></path><path d="M152 600L242 600L242 554L233 554L233 508L179 508L179 462L260 462L260 415L134 415L134 369L197 369L197 323L152 323L152 277L134 277L134 231L143 231L143 185L224 185L224 138L287 138L287 92L161 92L161 46L143 46L143 0L243 0L243 46L279 46L279 92L351 92L351 138L324 138L324 185L270 185L270 231L279 231L279 277L234 277L234 323L243 323L243 369L216 369L216 415L360 415L360 462L234 462L234 508L333 508L333 554L306 554L306 600L216 600Z" fill="#5a0358"></path><path d="M53 600L53 600L53 554L62 554L62 508L89 508L89 462L71 462L71 415L35 415L35 369L98 369L98 323L80 323L80 277L53 277L53 231L71 231L71 185L98 185L98 138L80 138L80 92L62 92L62 46L53 46L53 0L144 0L144 46L162 46L162 92L288 92L288 138L225 138L225 185L144 185L144 231L135 231L135 277L153 277L153 323L198 323L198 369L135 369L135 415L261 415L261 462L180 462L180 508L234 508L234 554L243 554L243 600L153 600Z" fill="#3b0457"></path><path d="M0 600L0 600L0 554L0 554L0 508L0 508L0 462L0 462L0 415L0 415L0 369L0 369L0 323L0 323L0 277L0 277L0 231L0 231L0 185L0 185L0 138L0 138L0 92L0 92L0 46L0 46L0 0L54 0L54 46L63 46L63 92L81 92L81 138L99 138L99 185L72 185L72 231L54 231L54 277L81 277L81 323L99 323L99 369L36 369L36 415L72 415L72 462L90 462L90 508L63 508L63 554L54 554L54 600L54 600Z" fill="#0a0854"></path></svg>