<?xml version="1.0" standalone="no"?><svg xmlns:xlink="http://www.w3.org/1999/xlink" xmlns="http://www.w3.org/2000/svg" viewBox="0 0 1000 600" preserveAspectRatio="xMaxYMax slice"><g transform="scale(0.8928571428571429)"><rect x="0" y="0" width="1120" height="672" fill="#80a92d"/><rect x="0" y="0" width="74.66666666666667" height="74.66666666666667" fill="#80a92d"/><rect x="0" y="0" width="37.33" height="37.33" fill="#cf8002"/><path d="M 0 37.33 A 37.33 37.33 0 0 1 37.33 0 L 37.33 9.3325 A 27.9975 27.9975 0 0 0 9.3325 37.33" fill="#cec1a1"/><rect x="37.33" y="0" width="37.33" height="37.33" fill="#cec1a1"/><path d="M 37.33 0 A 37.33 37.33 0 0 1 74.66 37.33 L 65.3275 37.33 A 27.9975 27.9975 0 0 0 37.33 9.3325" fill="#cec1a1"/><rect x="0" y="37.33" width="37.33" height="37.33" fill="#cf8002"/><path d="M 0 37.33 A 37.33 37.33 0 0 0 37.33 74.66 L 37.33 65.3275 A 27.9975 27.9975 0 0 1 9.3325 37.33" fill="#cf8002"/><rect x="37.33" y="37.33" width="37.33" height="37.33" fill="#cf8002"/><path d="M 37.33 74.66 A 37.33 37.33 0 0 0 74.66 37.33 L 65.3275 37.33 A 27.9975 27.9975 0 0 1 37.33 65.3275" fill="#cf8002"/><rect x="74.67" y="0" width="74.67" height="74.67" fill="#cf8002"/><rect x="74.67" y="0" width="74.67" height="74.67" fill="#cf8002"/><rect x="149.33" y="0" width="74.67" height="74.67" fill="#cec1a1"/><polygon points="224,0 224,74.67 149.33,74.67" fill="#cec1a1"/><rect x="224" y="0" width="74.67" height="74.67" fill="#cec1a1"/><polygon points="224,0 298.67,0 224,74.67" fill="#cf8002"/><rect x="298.6666666666667" y="0" width="74.66666666666667" height="74.66666666666667" fill="#80a92d"/><rect x="298.67" y="0" width="37.33" height="37.33" fill="#cf8002"/><path d="M 298.67 0 A 37.33 37.33 0 0 0 336 37.33 L 336 0" fill="#cf8002"/><rect x="336" y="0" width="37.33" height="37.33" fill="#cf8002"/><path d="M 336 37.33 A 37.33 37.33 0 0 0 373.33 0 L 336 0" fill="#cf8002"/><rect x="298.67" y="37.33" width="37.33" height="37.33" fill="#cf8002"/><path d="M 298.67 74.66 A 37.33 37.33 0 0 1  336 37.33 L 336 74.66" fill="#cec1a1"/><rect x="336" y="37.33" width="37.33" height="37.33" fill="#cec1a1"/><path d="M 336 37.33 A 37.33 37.33 0 0 1 373.33 74.66 L 336 74.66" fill="#cf8002"/><rect x="373.33333333333337" y="0" width="74.66666666666667" height="74.66666666666667" fill="#80a92d"/><rect x="373.33" y="0" width="37.33" height="37.33" fill="#cf8002"/><polygon points="410.65999999999997,0 410.65999999999997,37.33 373.33,37.33" fill="#cec1a1"/><rect x="410.67" y="0" width="37.33" height="37.33" fill="#cf8002"/><polygon points="410.67,0 448,37.33 410.67,37.33" fill="#cf8002"/><rect x="373.33" y="37.33" width="37.33" height="37.33" fill="#cec1a1"/><polygon points="373.33,37.33 410.65999999999997,37.33 410.65999999999997,74.66" fill="#cf8002"/><rect x="410.67" y="37.33" width="37.33" height="37.33" fill="#cec1a1"/><polygon points="410.67,37.33 448,37.33 410.67,74.66" fill="#cf8002"/><rect x="448" y="0" width="74.66666666666667" height="74.66666666666667" fill="#80a92d"/><rect x="448" y="0" width="37.33" height="37.33" fill="#cec1a1"/><path d="M 448 37.33 A 37.33 37.33 0 0 1 485.33 0 L 485.33 9.3325 A 27.9975 27.9975 0 0 0 457.3325 37.33" fill="#cf8002"/><rect x="485.33" y="0" width="37.33" height="37.33" fill="#cec1a1"/><path d="M 485.33 0 A 37.33 37.33 0 0 1 522.66 37.33 L 513.3275 37.33 A 27.9975 27.9975 0 0 0 485.33 9.3325" fill="#cec1a1"/><rect x="448" y="37.33" width="37.33" height="37.33" fill="#cf8002"/><path d="M 448 37.33 A 37.33 37.33 0 0 0 485.33 74.66 L 485.33 65.3275 A 27.9975 27.9975 0 0 1 457.3325 37.33" fill="#cec1a1"/><rect x="485.33" y="37.33" width="37.33" height="37.33" fill="#cec1a1"/><path d="M 485.33 74.66 A 37.33 37.33 0 0 0 522.66 37.33 L 513.3275 37.33 A 27.9975 27.9975 0 0 1 485.33 65.3275" fill="#cec1a1"/><rect x="522.6666666666667" y="0" width="74.66666666666667" height="74.66666666666667" fill="#80a92d"/><rect x="522.67" y="0" width="37.33" height="37.33" fill="#cec1a1"/><circle cx="541.3349999999999" cy="18.665" r="18.665" fill="#cf8002"/><rect x="560" y="0" width="37.33" height="37.33" fill="#cec1a1"/><rect x="560" y="0" width="37.33" height="37.33" fill="#cec1a1"/><rect x="522.67" y="37.33" width="37.33" height="37.33" fill="#cec1a1"/><circle cx="541.3349999999999" cy="55.995" r="18.665" fill="#cf8002"/><rect x="560" y="37.33" width="37.33" height="37.33" fill="#cec1a1"/><rect x="560" y="37.33" width="37.33" height="37.33" fill="#cec1a1"/><rect x="597.33" y="0" width="74.67" height="74.67" fill="#cec1a1"/><path d="M 597.33 0 A 74.67 74.67 0 0 1  672 74.67 L 597.33 0 A 74.67 74.67 0 0 0 672 74.67" fill="#cec1a1"/><rect x="672" y="0" width="74.67" height="74.67" fill="#cf8002"/><path d="M 672 74.67 A 74.67 74.67 0 0 0 746.67 0 L 672 0" fill="#cf8002"/><rect x="746.6666666666667" y="0" width="74.66666666666667" height="74.66666666666667" fill="#80a92d"/><rect x="746.67" y="0" width="37.33" height="37.33" fill="#cec1a1"/><path d="M 746.67 37.33 A 37.33 37.33 0 0 1 784 0 L 784 9.3325 A 27.9975 27.9975 0 0 0 756.0024999999999 37.33" fill="#cec1a1"/><rect x="784" y="0" width="37.33" height="37.33" fill="#cf8002"/><path d="M 784 0 A 37.33 37.33 0 0 1 821.33 37.33 L 811.9975 37.33 A 27.9975 27.9975 0 0 0 784 9.3325" fill="#cec1a1"/><rect x="746.67" y="37.33" width="37.33" height="37.33" fill="#cec1a1"/><path d="M 746.67 37.33 A 37.33 37.33 0 0 0 784 74.66 L 784 65.3275 A 27.9975 27.9975 0 0 1 756.0024999999999 37.33" fill="#cf8002"/><rect x="784" y="37.33" width="37.33" height="37.33" fill="#cec1a1"/><path d="M 784 74.66 A 37.33 37.33 0 0 0 821.33 37.33 L 811.9975 37.33 A 27.9975 27.9975 0 0 1 784 65.3275" fill="#cf8002"/><rect x="821.33" y="0" width="74.67" height="74.67" fill="#cf8002"/><polygon points="821.33,0 896,0 896,74.67" fill="#cf8002"/><rect x="896" y="0" width="74.67" height="74.67" fill="#cf8002"/><rect x="896" y="0" width="74.67" height="74.67" fill="#cec1a1"/><rect x="970.6666666666667" y="0" width="74.66666666666667" height="74.66666666666667" fill="#80a92d"/><rect x="970.67" y="0" width="37.33" height="37.33" fill="#cec1a1"/><path d="M 970.67 0 A 37.33 37.33 0 0 1 1008 37.33 L 970.67 37.33" fill="#cec1a1"/><rect x="1008" y="0" width="37.33" height="37.33" fill="#cec1a1"/><path d="M 1008 37.33 A 37.33 37.33 0 0 1  1045.33 0 L 1045.33 37.33" fill="#cf8002"/><rect x="970.67" y="37.33" width="37.33" height="37.33" fill="#cf8002"/><path d="M 970.67 74.66 A 37.33 37.33 0 0 0 1008 37.33 L 970.67 37.33" fill="#cf8002"/><rect x="1008" y="37.33" width="37.33" height="37.33" fill="#cf8002"/><path d="M 1008 37.33 A 37.33 37.33 0 0 0 1045.33 74.66 L 1045.33 37.33" fill="#cf8002"/><rect x="1045.33" y="0" width="74.67" height="74.67" fill="#cf8002"/><path d="M 1045.33 0 A 74.67 74.67 0 0 1  1120 74.67 L 1045.33 0 A 74.67 74.67 0 0 0 1120 74.67" fill="#cec1a1"/><rect x="0" y="74.67" width="74.67" height="74.67" fill="#cf8002"/><path d="M 0 149.34 A 74.67 74.67 0 0 1  74.67 74.67 L 74.67 149.34" fill="#cf8002"/><rect x="74.66666666666667" y="74.66666666666667" width="74.66666666666667" height="74.66666666666667" fill="#80a92d"/><rect x="74.67" y="74.67" width="37.33" height="37.33" fill="#cf8002"/><circle cx="93.33500000000001" cy="93.33500000000001" r="18.665" fill="#cf8002"/><rect x="112" y="74.67" width="37.33" height="37.33" fill="#cf8002"/><rect x="112" y="74.67" width="37.33" height="37.33" fill="#cec1a1"/><rect x="74.67" y="112" width="37.33" height="37.33" fill="#cec1a1"/><circle cx="93.33500000000001" cy="130.665" r="18.665" fill="#cec1a1"/><rect x="112" y="112" width="37.33" height="37.33" fill="#cf8002"/><rect x="112" y="112" width="37.33" height="37.33" fill="#cec1a1"/><rect x="149.33333333333334" y="74.66666666666667" width="74.66666666666667" height="74.66666666666667" fill="#80a92d"/><rect x="149.33" y="74.67" width="37.33" height="37.33" fill="#cf8002"/><path d="M 149.33 74.67 A 37.33 37.33 0 0 1 186.66000000000003 112 L 149.33 112" fill="#cec1a1"/><rect x="186.67" y="74.67" width="37.33" height="37.33" fill="#cf8002"/><path d="M 186.67 112 A 37.33 37.33 0 0 1  224 74.67 L 224 112" fill="#cec1a1"/><rect x="149.33" y="112" width="37.33" height="37.33" fill="#cec1a1"/><path d="M 149.33 149.32999999999998 A 37.33 37.33 0 0 0 186.66000000000003 112 L 149.33 112" fill="#cf8002"/><rect x="186.67" y="112" width="37.33" height="37.33" fill="#cec1a1"/><path d="M 186.67 112 A 37.33 37.33 0 0 0 224 149.32999999999998 L 224 112" fill="#cec1a1"/><rect x="224" y="74.67" width="74.67" height="74.67" fill="#cf8002"/><rect x="224" y="74.67" width="74.67" height="74.67" fill="#cec1a1"/><rect x="298.6666666666667" y="74.66666666666667" width="74.66666666666667" height="74.66666666666667" fill="#80a92d"/><rect x="298.67" y="74.67" width="37.33" height="37.33" fill="#cf8002"/><polygon points="336,74.67 336,112 298.67,112" fill="#cec1a1"/><rect x="336" y="74.67" width="37.33" height="37.33" fill="#cec1a1"/><polygon points="336,74.67 373.33,112 336,112" fill="#cf8002"/><rect x="298.67" y="112" width="37.33" height="37.33" fill="#cf8002"/><polygon points="298.67,112 336,112 336,149.32999999999998" fill="#cf8002"/><rect x="336" y="112" width="37.33" height="37.33" fill="#cf8002"/><polygon points="336,112 373.33,112 336,149.32999999999998" fill="#cec1a1"/><rect x="373.33" y="74.67" width="74.67" height="74.67" fill="#cf8002"/><rect x="373.33" y="74.67" width="74.67" height="74.67" fill="#cec1a1"/><rect x="448" y="74.66666666666667" width="74.66666666666667" height="74.66666666666667" fill="#80a92d"/><rect x="448" y="74.67" width="37.33" height="37.33" fill="#cec1a1"/><polygon points="485.33,74.67 485.33,112 448,112" fill="#cf8002"/><rect x="485.33" y="74.67" width="37.33" height="37.33" fill="#cf8002"/><polygon points="485.33,74.67 522.66,74.67 485.33,112" fill="#cf8002"/><rect x="448" y="112" width="37.33" height="37.33" fill="#cf8002"/><polygon points="448,112 485.33,112 485.33,149.32999999999998" fill="#cf8002"/><rect x="485.33" y="112" width="37.33" height="37.33" fill="#cf8002"/><polygon points="485.33,112 522.66,149.32999999999998 485.33,149.32999999999998" fill="#cec1a1"/><rect x="522.67" y="74.67" width="74.67" height="74.67" fill="#cf8002"/><path d="M 522.67 149.34 A 74.67 74.67 0 0 0 597.3399999999999 74.67 L 522.67 74.67" fill="#cf8002"/><rect x="597.33" y="74.67" width="74.67" height="74.67" fill="#cec1a1"/><path d="M 597.33 74.67 A 74.67 74.67 0 0 0 672 149.34 L 672 74.67" fill="#cf8002"/><rect x="672" y="74.66666666666667" width="74.66666666666667" height="74.66666666666667" fill="#80a92d"/><rect x="672" y="74.67" width="37.33" height="37.33" fill="#cec1a1"/><polygon points="709.33,74.67 709.33,112 672,112" fill="#cec1a1"/><rect x="709.33" y="74.67" width="37.33" height="37.33" fill="#cec1a1"/><polygon points="709.33,74.67 746.6600000000001,112 709.33,112" fill="#cf8002"/><rect x="672" y="112" width="37.33" height="37.33" fill="#cf8002"/><polygon points="672,112 709.33,112 709.33,149.32999999999998" fill="#cec1a1"/><rect x="709.33" y="112" width="37.33" height="37.33" fill="#cec1a1"/><polygon points="709.33,112 746.6600000000001,112 709.33,149.32999999999998" fill="#cec1a1"/><rect x="746.6666666666667" y="74.66666666666667" width="74.66666666666667" height="74.66666666666667" fill="#80a92d"/><rect x="746.67" y="74.67" width="37.33" height="37.33" fill="#cf8002"/><polygon points="784,74.67 784,112 746.67,112" fill="#cf8002"/><rect x="784" y="74.67" width="37.33" height="37.33" fill="#cec1a1"/><polygon points="784,74.67 821.33,74.67 784,112" fill="#cf8002"/><rect x="746.67" y="112" width="37.33" height="37.33" fill="#cec1a1"/><polygon points="746.67,112 784,112 784,149.32999999999998" fill="#cf8002"/><rect x="784" y="112" width="37.33" height="37.33" fill="#cf8002"/><polygon points="784,112 821.33,149.32999999999998 784,149.32999999999998" fill="#cec1a1"/><rect x="821.3333333333334" y="74.66666666666667" width="74.66666666666667" height="74.66666666666667" fill="#80a92d"/><rect x="821.33" y="74.67" width="37.33" height="37.33" fill="#cec1a1"/><polygon points="858.6600000000001,74.67 858.6600000000001,112 821.33,112" fill="#cf8002"/><rect x="858.67" y="74.67" width="37.33" height="37.33" fill="#cec1a1"/><polygon points="858.67,74.67 896,74.67 858.67,112" fill="#cf8002"/><rect x="821.33" y="112" width="37.33" height="37.33" fill="#cf8002"/><polygon points="821.33,112 858.6600000000001,112 858.6600000000001,149.32999999999998" fill="#cf8002"/><rect x="858.67" y="112" width="37.33" height="37.33" fill="#cf8002"/><polygon points="858.67,112 896,149.32999999999998 858.67,149.32999999999998" fill="#cf8002"/><rect x="896" y="74.66666666666667" width="74.66666666666667" height="74.66666666666667" fill="#80a92d"/><rect x="896" y="74.67" width="37.33" height="37.33" fill="#cf8002"/><path d="M 896 112 A 37.33 37.33 0 0 1 933.33 74.67 L 933.33 84.0025 A 27.9975 27.9975 0 0 0 905.3325 112" fill="#cf8002"/><rect x="933.33" y="74.67" width="37.33" height="37.33" fill="#cf8002"/><path d="M 933.33 74.67 A 37.33 37.33 0 0 1 970.6600000000001 112 L 961.3275 112 A 27.9975 27.9975 0 0 0 933.33 84.0025" fill="#cf8002"/><rect x="896" y="112" width="37.33" height="37.33" fill="#cf8002"/><path d="M 896 112 A 37.33 37.33 0 0 0 933.33 149.32999999999998 L 933.33 139.9975 A 27.9975 27.9975 0 0 1 905.3325 112" fill="#cf8002"/><rect x="933.33" y="112" width="37.33" height="37.33" fill="#cf8002"/><path d="M 933.33 149.32999999999998 A 37.33 37.33 0 0 0 970.6600000000001 112 L 961.3275 112 A 27.9975 27.9975 0 0 1 933.33 139.9975" fill="#cf8002"/><rect x="970.6666666666667" y="74.66666666666667" width="74.66666666666667" height="74.66666666666667" fill="#80a92d"/><rect x="970.67" y="74.67" width="37.33" height="37.33" fill="#cf8002"/><path d="M 970.67 112 A 37.33 37.33 0 0 0 1008 74.67 L 970.67 74.67" fill="#cec1a1"/><rect x="1008" y="74.67" width="37.33" height="37.33" fill="#cec1a1"/><path d="M 1008 74.67 A 37.33 37.33 0 0 0 1045.33 112 L 1045.33 74.67" fill="#cec1a1"/><rect x="970.67" y="112" width="37.33" height="37.33" fill="#cf8002"/><path d="M 970.67 112 A 37.33 37.33 0 0 1 1008 149.32999999999998 L 970.67 149.32999999999998" fill="#cf8002"/><rect x="1008" y="112" width="37.33" height="37.33" fill="#cf8002"/><path d="M 1008 149.32999999999998 A 37.33 37.33 0 0 1  1045.33 112 L 1045.33 149.32999999999998" fill="#cf8002"/><rect x="1045.33" y="74.67" width="74.67" height="74.67" fill="#cec1a1"/><path d="M 1045.33 149.34 A 74.67 74.67 0 0 1  1120 74.67 L 1120 149.34" fill="#cec1a1"/><rect x="0" y="149.33333333333334" width="74.66666666666667" height="74.66666666666667" fill="#80a92d"/><rect x="0" y="149.33" width="37.33" height="37.33" fill="#cf8002"/><polygon points="37.33,149.33 37.33,186.66000000000003 0,186.66000000000003" fill="#cec1a1"/><rect x="37.33" y="149.33" width="37.33" height="37.33" fill="#cf8002"/><polygon points="37.33,149.33 74.66,186.66000000000003 37.33,186.66000000000003" fill="#cec1a1"/><rect x="0" y="186.67" width="37.33" height="37.33" fill="#cf8002"/><polygon points="0,186.67 37.33,186.67 37.33,224" fill="#cec1a1"/><rect x="37.33" y="186.67" width="37.33" height="37.33" fill="#cec1a1"/><polygon points="37.33,186.67 74.66,186.67 37.33,224" fill="#cf8002"/><rect x="74.66666666666667" y="149.33333333333334" width="74.66666666666667" height="74.66666666666667" fill="#80a92d"/><rect x="74.67" y="149.33" width="37.33" height="37.33" fill="#cf8002"/><polygon points="112,149.33 112,186.66000000000003 74.67,186.66000000000003" fill="#cec1a1"/><rect x="112" y="149.33" width="37.33" height="37.33" fill="#cf8002"/><polygon points="112,149.33 149.32999999999998,186.66000000000003 112,186.66000000000003" fill="#cf8002"/><rect x="74.67" y="186.67" width="37.33" height="37.33" fill="#cf8002"/><polygon points="74.67,186.67 112,186.67 112,224" fill="#cf8002"/><rect x="112" y="186.67" width="37.33" height="37.33" fill="#cf8002"/><polygon points="112,186.67 149.32999999999998,186.67 112,224" fill="#cf8002"/><rect x="149.33" y="149.33" width="74.67" height="74.67" fill="#cec1a1"/><rect x="149.33" y="149.33" width="74.67" height="74.67" fill="#cec1a1"/><rect x="224" y="149.33" width="74.67" height="74.67" fill="#cf8002"/><rect x="224" y="149.33" width="74.67" height="74.67" fill="#cf8002"/><rect x="298.6666666666667" y="149.33333333333334" width="74.66666666666667" height="74.66666666666667" fill="#80a92d"/><rect x="298.67" y="149.33" width="37.33" height="37.33" fill="#cec1a1"/><path d="M 298.67 186.66000000000003 A 37.33 37.33 0 0 0 336 149.33 L 298.67 149.33" fill="#cf8002"/><rect x="336" y="149.33" width="37.33" height="37.33" fill="#cec1a1"/><path d="M 336 149.33 A 37.33 37.33 0 0 0 373.33 186.66000000000003 L 373.33 149.33" fill="#cf8002"/><rect x="298.67" y="186.67" width="37.33" height="37.33" fill="#cec1a1"/><path d="M 298.67 186.67 A 37.33 37.33 0 0 1 336 224 L 298.67 224" fill="#cf8002"/><rect x="336" y="186.67" width="37.33" height="37.33" fill="#cf8002"/><path d="M 336 224 A 37.33 37.33 0 0 1  373.33 186.67 L 373.33 224" fill="#cec1a1"/><rect x="373.33333333333337" y="149.33333333333334" width="74.66666666666667" height="74.66666666666667" fill="#80a92d"/><rect x="373.33" y="149.33" width="37.33" height="37.33" fill="#cf8002"/><path d="M 373.33 149.33 A 37.33 37.33 0 0 1 410.65999999999997 186.66000000000003 L 373.33 186.66000000000003" fill="#cf8002"/><rect x="410.67" y="149.33" width="37.33" height="37.33" fill="#cec1a1"/><path d="M 410.67 186.66000000000003 A 37.33 37.33 0 0 1  448 149.33 L 448 186.66000000000003" fill="#cec1a1"/><rect x="373.33" y="186.67" width="37.33" height="37.33" fill="#cf8002"/><path d="M 373.33 224 A 37.33 37.33 0 0 0 410.65999999999997 186.67 L 373.33 186.67" fill="#cec1a1"/><rect x="410.67" y="186.67" width="37.33" height="37.33" fill="#cf8002"/><path d="M 410.67 186.67 A 37.33 37.33 0 0 0 448 224 L 448 186.67" fill="#cec1a1"/><rect x="448" y="149.33" width="74.67" height="74.67" fill="#cec1a1"/><rect x="448" y="149.33" width="74.67" height="74.67" fill="#cf8002"/><rect x="522.6666666666667" y="149.33333333333334" width="74.66666666666667" height="74.66666666666667" fill="#80a92d"/><rect x="522.67" y="149.33" width="37.33" height="37.33" fill="#cf8002"/><polygon points="560,149.33 560,186.66000000000003 522.67,186.66000000000003" fill="#cec1a1"/><rect x="560" y="149.33" width="37.33" height="37.33" fill="#cec1a1"/><polygon points="560,149.33 597.33,186.66000000000003 560,186.66000000000003" fill="#cec1a1"/><rect x="522.67" y="186.67" width="37.33" height="37.33" fill="#cf8002"/><polygon points="522.67,186.67 560,186.67 560,224" fill="#cec1a1"/><rect x="560" y="186.67" width="37.33" height="37.33" fill="#cec1a1"/><polygon points="560,186.67 597.33,186.67 560,224" fill="#cf8002"/><rect x="597.33" y="149.33" width="74.67" height="74.67" fill="#cf8002"/><rect x="597.33" y="149.33" width="74.67" height="74.67" fill="#cf8002"/><rect x="672" y="149.33333333333334" width="74.66666666666667" height="74.66666666666667" fill="#80a92d"/><rect x="672" y="149.33" width="37.33" height="37.33" fill="#cf8002"/><polygon points="709.33,149.33 709.33,186.66000000000003 672,186.66000000000003" fill="#cec1a1"/><rect x="709.33" y="149.33" width="37.33" height="37.33" fill="#cec1a1"/><polygon points="709.33,149.33 746.6600000000001,186.66000000000003 709.33,186.66000000000003" fill="#cec1a1"/><rect x="672" y="186.67" width="37.33" height="37.33" fill="#cec1a1"/><polygon points="672,186.67 709.33,186.67 672,224" fill="#cf8002"/><rect x="709.33" y="186.67" width="37.33" height="37.33" fill="#cec1a1"/><polygon points="709.33,186.67 746.6600000000001,186.67 746.6600000000001,224" fill="#cec1a1"/><rect x="746.67" y="149.33" width="74.67" height="74.67" fill="#cec1a1"/><rect x="746.67" y="149.33" width="74.67" height="74.67" fill="#cec1a1"/><rect x="821.33" y="149.33" width="74.67" height="74.67" fill="#cec1a1"/><path d="M 821.33 149.33 A 74.67 74.67 0 0 1 896 224 L 821.33 224" fill="#cec1a1"/><rect x="896" y="149.33" width="74.67" height="74.67" fill="#cec1a1"/><polygon points="896,149.33 970.67,149.33 896,224" fill="#cec1a1"/><rect x="970.67" y="149.33" width="74.67" height="74.67" fill="#cec1a1"/><polygon points="970.67,149.33 1045.34,149.33 1045.34,224" fill="#cec1a1"/><rect x="1045.3333333333335" y="149.33333333333334" width="74.66666666666667" height="74.66666666666667" fill="#80a92d"/><rect x="1045.33" y="149.33" width="37.33" height="37.33" fill="#cec1a1"/><path d="M 1045.33 186.66000000000003 A 37.33 37.33 0 0 1  1082.6599999999999 149.33 L 1082.6599999999999 186.66000000000003" fill="#cec1a1"/><rect x="1082.67" y="149.33" width="37.33" height="37.33" fill="#cf8002"/><path d="M 1082.67 149.33 A 37.33 37.33 0 0 1 1120 186.66000000000003 L 1082.67 186.66000000000003" fill="#cec1a1"/><rect x="1045.33" y="186.67" width="37.33" height="37.33" fill="#cf8002"/><path d="M 1045.33 186.67 A 37.33 37.33 0 0 0 1082.6599999999999 224 L 1082.6599999999999 186.67" fill="#cf8002"/><rect x="1082.67" y="186.67" width="37.33" height="37.33" fill="#cf8002"/><path d="M 1082.67 224 A 37.33 37.33 0 0 0 1120 186.67 L 1082.67 186.67" fill="#cec1a1"/><rect x="0" y="224" width="74.67" height="74.67" fill="#cec1a1"/><rect x="0" y="224" width="74.67" height="74.67" fill="#cec1a1"/><rect x="74.67" y="224" width="74.67" height="74.67" fill="#cf8002"/><polygon points="74.67,224 149.34,298.67 74.67,298.67" fill="#cf8002"/><rect x="149.33" y="224" width="74.67" height="74.67" fill="#cec1a1"/><polygon points="149.33,224 224,298.67 149.33,298.67" fill="#cec1a1"/><rect x="224" y="224" width="74.66666666666667" height="74.66666666666667" fill="#80a92d"/><rect x="224" y="224" width="37.33" height="37.33" fill="#cec1a1"/><circle cx="242.665" cy="242.665" r="18.665" fill="#cec1a1"/><rect x="261.33" y="224" width="37.33" height="37.33" fill="#cf8002"/><rect x="261.33" y="224" width="37.33" height="37.33" fill="#cf8002"/><rect x="224" y="261.33" width="37.33" height="37.33" fill="#cec1a1"/><circle cx="242.665" cy="279.995" r="18.665" fill="#cf8002"/><rect x="261.33" y="261.33" width="37.33" height="37.33" fill="#cec1a1"/><rect x="261.33" y="261.33" width="37.33" height="37.33" fill="#cec1a1"/><rect x="298.6666666666667" y="224" width="74.66666666666667" height="74.66666666666667" fill="#80a92d"/><rect x="298.67" y="224" width="37.33" height="37.33" fill="#cf8002"/><path d="M 298.67 261.33 A 37.33 37.33 0 0 1 336 224 L 336 233.3325 A 27.9975 27.9975 0 0 0 308.0025 261.33" fill="#cf8002"/><rect x="336" y="224" width="37.33" height="37.33" fill="#cf8002"/><path d="M 336 224 A 37.33 37.33 0 0 1 373.33 261.33 L 363.9975 261.33 A 27.9975 27.9975 0 0 0 336 233.3325" fill="#cec1a1"/><rect x="298.67" y="261.33" width="37.33" height="37.33" fill="#cec1a1"/><path d="M 298.67 261.33 A 37.33 37.33 0 0 0 336 298.65999999999997 L 336 289.3275 A 27.9975 27.9975 0 0 1 308.0025 261.33" fill="#cec1a1"/><rect x="336" y="261.33" width="37.33" height="37.33" fill="#cec1a1"/><path d="M 336 298.65999999999997 A 37.33 37.33 0 0 0 373.33 261.33 L 363.9975 261.33 A 27.9975 27.9975 0 0 1 336 289.3275" fill="#cf8002"/><rect x="373.33" y="224" width="74.67" height="74.67" fill="#cf8002"/><rect x="373.33" y="224" width="74.67" height="74.67" fill="#cec1a1"/><rect x="448" y="224" width="74.67" height="74.67" fill="#cec1a1"/><polygon points="448,224 522.67,224 448,298.67" fill="#cec1a1"/><rect x="522.6666666666667" y="224" width="74.66666666666667" height="74.66666666666667" fill="#80a92d"/><rect x="522.67" y="224" width="37.33" height="37.33" fill="#cf8002"/><path d="M 522.67 261.33 A 37.33 37.33 0 0 1 560 224 L 560 233.3325 A 27.9975 27.9975 0 0 0 532.0024999999999 261.33" fill="#cec1a1"/><rect x="560" y="224" width="37.33" height="37.33" fill="#cf8002"/><path d="M 560 224 A 37.33 37.33 0 0 1 597.33 261.33 L 587.9975 261.33 A 27.9975 27.9975 0 0 0 560 233.3325" fill="#cf8002"/><rect x="522.67" y="261.33" width="37.33" height="37.33" fill="#cf8002"/><path d="M 522.67 261.33 A 37.33 37.33 0 0 0 560 298.65999999999997 L 560 289.3275 A 27.9975 27.9975 0 0 1 532.0024999999999 261.33" fill="#cec1a1"/><rect x="560" y="261.33" width="37.33" height="37.33" fill="#cec1a1"/><path d="M 560 298.65999999999997 A 37.33 37.33 0 0 0 597.33 261.33 L 587.9975 261.33 A 27.9975 27.9975 0 0 1 560 289.3275" fill="#cec1a1"/><rect x="597.3333333333334" y="224" width="74.66666666666667" height="74.66666666666667" fill="#80a92d"/><rect x="597.33" y="224" width="37.33" height="37.33" fill="#cf8002"/><polygon points="634.6600000000001,224 634.6600000000001,261.33 597.33,261.33" fill="#cec1a1"/><rect x="634.67" y="224" width="37.33" height="37.33" fill="#cf8002"/><polygon points="634.67,224 672,261.33 634.67,261.33" fill="#cf8002"/><rect x="597.33" y="261.33" width="37.33" height="37.33" fill="#cec1a1"/><polygon points="597.33,261.33 634.6600000000001,261.33 597.33,298.65999999999997" fill="#cec1a1"/><rect x="634.67" y="261.33" width="37.33" height="37.33" fill="#cec1a1"/><polygon points="634.67,261.33 672,261.33 672,298.65999999999997" fill="#cf8002"/><rect x="672" y="224" width="74.66666666666667" height="74.66666666666667" fill="#80a92d"/><rect x="672" y="224" width="37.33" height="37.33" fill="#cec1a1"/><circle cx="690.665" cy="242.665" r="18.665" fill="#cf8002"/><rect x="709.33" y="224" width="37.33" height="37.33" fill="#cf8002"/><rect x="709.33" y="224" width="37.33" height="37.33" fill="#cec1a1"/><rect x="672" y="261.33" width="37.33" height="37.33" fill="#cec1a1"/><circle cx="690.665" cy="279.995" r="18.665" fill="#cf8002"/><rect x="709.33" y="261.33" width="37.33" height="37.33" fill="#cf8002"/><rect x="709.33" y="261.33" width="37.33" height="37.33" fill="#cec1a1"/><rect x="746.67" y="224" width="74.67" height="74.67" fill="#cec1a1"/><rect x="746.67" y="224" width="74.67" height="74.67" fill="#cf8002"/><rect x="821.3333333333334" y="224" width="74.66666666666667" height="74.66666666666667" fill="#80a92d"/><rect x="821.33" y="224" width="37.33" height="37.33" fill="#cf8002"/><path d="M 821.33 224 A 37.33 37.33 0 0 1 858.6600000000001 261.33 L 821.33 261.33" fill="#cf8002"/><rect x="858.67" y="224" width="37.33" height="37.33" fill="#cec1a1"/><path d="M 858.67 261.33 A 37.33 37.33 0 0 1  896 224 L 896 261.33" fill="#cf8002"/><rect x="821.33" y="261.33" width="37.33" height="37.33" fill="#cec1a1"/><path d="M 821.33 298.65999999999997 A 37.33 37.33 0 0 0 858.6600000000001 261.33 L 821.33 261.33" fill="#cec1a1"/><rect x="858.67" y="261.33" width="37.33" height="37.33" fill="#cf8002"/><path d="M 858.67 261.33 A 37.33 37.33 0 0 0 896 298.65999999999997 L 896 261.33" fill="#cec1a1"/><rect x="896" y="224" width="74.66666666666667" height="74.66666666666667" fill="#80a92d"/><rect x="896" y="224" width="37.33" height="37.33" fill="#cec1a1"/><polygon points="933.33,224 933.33,261.33 896,261.33" fill="#cec1a1"/><rect x="933.33" y="224" width="37.33" height="37.33" fill="#cec1a1"/><polygon points="933.33,224 970.6600000000001,261.33 933.33,261.33" fill="#cf8002"/><rect x="896" y="261.33" width="37.33" height="37.33" fill="#cf8002"/><polygon points="896,261.33 933.33,261.33 933.33,298.65999999999997" fill="#cec1a1"/><rect x="933.33" y="261.33" width="37.33" height="37.33" fill="#cec1a1"/><polygon points="933.33,261.33 970.6600000000001,261.33 933.33,298.65999999999997" fill="#cec1a1"/><rect x="970.6666666666667" y="224" width="74.66666666666667" height="74.66666666666667" fill="#80a92d"/><rect x="970.67" y="224" width="37.33" height="37.33" fill="#cec1a1"/><polygon points="1008,224 1008,261.33 970.67,261.33" fill="#cf8002"/><rect x="1008" y="224" width="37.33" height="37.33" fill="#cec1a1"/><polygon points="1008,224 1045.33,261.33 1008,261.33" fill="#cec1a1"/><rect x="970.67" y="261.33" width="37.33" height="37.33" fill="#cf8002"/><polygon points="970.67,261.33 1008,261.33 1008,298.65999999999997" fill="#cf8002"/><rect x="1008" y="261.33" width="37.33" height="37.33" fill="#cec1a1"/><polygon points="1008,261.33 1045.33,261.33 1008,298.65999999999997" fill="#cec1a1"/><rect x="1045.3333333333335" y="224" width="74.66666666666667" height="74.66666666666667" fill="#80a92d"/><rect x="1045.33" y="224" width="37.33" height="37.33" fill="#cec1a1"/><path d="M 1045.33 261.33 A 37.33 37.33 0 0 0 1082.6599999999999 224 L 1045.33 224" fill="#cf8002"/><rect x="1082.67" y="224" width="37.33" height="37.33" fill="#cec1a1"/><path d="M 1082.67 224 A 37.33 37.33 0 0 0 1120 261.33 L 1120 224" fill="#cec1a1"/><rect x="1045.33" y="261.33" width="37.33" height="37.33" fill="#cf8002"/><path d="M 1045.33 261.33 A 37.33 37.33 0 0 1 1082.6599999999999 298.65999999999997 L 1045.33 298.65999999999997" fill="#cec1a1"/><rect x="1082.67" y="261.33" width="37.33" height="37.33" fill="#cf8002"/><path d="M 1082.67 298.65999999999997 A 37.33 37.33 0 0 1  1120 261.33 L 1120 298.65999999999997" fill="#cec1a1"/><rect x="0" y="298.67" width="74.67" height="74.67" fill="#cec1a1"/><polygon points="0,298.67 74.67,373.34000000000003 0,373.34000000000003" fill="#cec1a1"/><rect x="74.66666666666667" y="298.6666666666667" width="74.66666666666667" height="74.66666666666667" fill="#80a92d"/><rect x="74.67" y="298.67" width="37.33" height="37.33" fill="#cf8002"/><path d="M 74.67 298.67 A 37.33 37.33 0 0 0 112 336 L 112 298.67" fill="#cec1a1"/><rect x="112" y="298.67" width="37.33" height="37.33" fill="#cf8002"/><path d="M 112 336 A 37.33 37.33 0 0 0 149.32999999999998 298.67 L 112 298.67" fill="#cec1a1"/><rect x="74.67" y="336" width="37.33" height="37.33" fill="#cf8002"/><path d="M 74.67 373.33 A 37.33 37.33 0 0 1  112 336 L 112 373.33" fill="#cf8002"/><rect x="112" y="336" width="37.33" height="37.33" fill="#cec1a1"/><path d="M 112 336 A 37.33 37.33 0 0 1 149.32999999999998 373.33 L 112 373.33" fill="#cf8002"/><rect x="149.33" y="298.67" width="74.67" height="74.67" fill="#cf8002"/><rect x="149.33" y="298.67" width="74.67" height="74.67" fill="#cec1a1"/><rect x="224" y="298.67" width="74.67" height="74.67" fill="#cec1a1"/><rect x="224" y="298.67" width="74.67" height="74.67" fill="#cf8002"/><rect x="298.67" y="298.67" width="74.67" height="74.67" fill="#cf8002"/><path d="M 298.67 298.67 A 74.67 74.67 0 0 1  373.34000000000003 373.34000000000003 L 298.67 298.67 A 74.67 74.67 0 0 0 373.34000000000003 373.34000000000003" fill="#cec1a1"/><rect x="373.33" y="298.67" width="74.67" height="74.67" fill="#cf8002"/><path d="M 373.33 373.34000000000003 A 74.67 74.67 0 0 1  448 298.67 L 373.33 373.34000000000003 A 74.67 74.67 0 0 0 448 298.67" fill="#cf8002"/><rect x="448" y="298.67" width="74.67" height="74.67" fill="#cf8002"/><polygon points="522.67,298.67 522.67,373.34000000000003 448,373.34000000000003" fill="#cf8002"/><rect x="522.67" y="298.67" width="74.67" height="74.67" fill="#cec1a1"/><path d="M 522.67 373.34000000000003 A 74.67 74.67 0 0 1  597.3399999999999 298.67 L 597.3399999999999 373.34000000000003" fill="#cf8002"/><rect x="597.33" y="298.67" width="74.67" height="74.67" fill="#cec1a1"/><polygon points="597.33,298.67 672,298.67 597.33,373.34000000000003" fill="#cf8002"/><rect x="672" y="298.6666666666667" width="74.66666666666667" height="74.66666666666667" fill="#80a92d"/><rect x="672" y="298.67" width="37.33" height="37.33" fill="#cec1a1"/><path d="M 672 336 A 37.33 37.33 0 0 0 709.33 298.67 L 672 298.67" fill="#cec1a1"/><rect x="709.33" y="298.67" width="37.33" height="37.33" fill="#cec1a1"/><path d="M 709.33 298.67 A 37.33 37.33 0 0 0 746.6600000000001 336 L 746.6600000000001 298.67" fill="#cf8002"/><rect x="672" y="336" width="37.33" height="37.33" fill="#cf8002"/><path d="M 672 336 A 37.33 37.33 0 0 1 709.33 373.33 L 672 373.33" fill="#cec1a1"/><rect x="709.33" y="336" width="37.33" height="37.33" fill="#cec1a1"/><path d="M 709.33 373.33 A 37.33 37.33 0 0 1  746.6600000000001 336 L 746.6600000000001 373.33" fill="#cec1a1"/><rect x="746.6666666666667" y="298.6666666666667" width="74.66666666666667" height="74.66666666666667" fill="#80a92d"/><rect x="746.67" y="298.67" width="37.33" height="37.33" fill="#cf8002"/><polygon points="784,298.67 784,336 746.67,336" fill="#cf8002"/><rect x="784" y="298.67" width="37.33" height="37.33" fill="#cec1a1"/><polygon points="784,298.67 821.33,336 784,336" fill="#cf8002"/><rect x="746.67" y="336" width="37.33" height="37.33" fill="#cec1a1"/><polygon points="746.67,336 784,336 746.67,373.33" fill="#cf8002"/><rect x="784" y="336" width="37.33" height="37.33" fill="#cf8002"/><polygon points="784,336 821.33,336 821.33,373.33" fill="#cec1a1"/><rect x="821.3333333333334" y="298.6666666666667" width="74.66666666666667" height="74.66666666666667" fill="#80a92d"/><rect x="821.33" y="298.67" width="37.33" height="37.33" fill="#cec1a1"/><path d="M 821.33 336 A 37.33 37.33 0 0 0 858.6600000000001 298.67 L 821.33 298.67" fill="#cec1a1"/><rect x="858.67" y="298.67" width="37.33" height="37.33" fill="#cf8002"/><path d="M 858.67 298.67 A 37.33 37.33 0 0 0 896 336 L 896 298.67" fill="#cec1a1"/><rect x="821.33" y="336" width="37.33" height="37.33" fill="#cec1a1"/><path d="M 821.33 336 A 37.33 37.33 0 0 1 858.6600000000001 373.33 L 821.33 373.33" fill="#cec1a1"/><rect x="858.67" y="336" width="37.33" height="37.33" fill="#cf8002"/><path d="M 858.67 373.33 A 37.33 37.33 0 0 1  896 336 L 896 373.33" fill="#cf8002"/><rect x="896" y="298.6666666666667" width="74.66666666666667" height="74.66666666666667" fill="#80a92d"/><rect x="896" y="298.67" width="37.33" height="37.33" fill="#cf8002"/><path d="M 896 336 A 37.33 37.33 0 0 1 933.33 298.67 L 933.33 308.0025 A 27.9975 27.9975 0 0 0 905.3325 336" fill="#cec1a1"/><rect x="933.33" y="298.67" width="37.33" height="37.33" fill="#cec1a1"/><path d="M 933.33 298.67 A 37.33 37.33 0 0 1 970.6600000000001 336 L 961.3275 336 A 27.9975 27.9975 0 0 0 933.33 308.0025" fill="#cec1a1"/><rect x="896" y="336" width="37.33" height="37.33" fill="#cf8002"/><path d="M 896 336 A 37.33 37.33 0 0 0 933.33 373.33 L 933.33 363.9975 A 27.9975 27.9975 0 0 1 905.3325 336" fill="#cec1a1"/><rect x="933.33" y="336" width="37.33" height="37.33" fill="#cf8002"/><path d="M 933.33 373.33 A 37.33 37.33 0 0 0 970.6600000000001 336 L 961.3275 336 A 27.9975 27.9975 0 0 1 933.33 363.9975" fill="#cec1a1"/><rect x="970.6666666666667" y="298.6666666666667" width="74.66666666666667" height="74.66666666666667" fill="#80a92d"/><rect x="970.67" y="298.67" width="37.33" height="37.33" fill="#cec1a1"/><path d="M 970.67 336 A 37.33 37.33 0 0 0 1008 298.67 L 970.67 298.67" fill="#cec1a1"/><rect x="1008" y="298.67" width="37.33" height="37.33" fill="#cf8002"/><path d="M 1008 298.67 A 37.33 37.33 0 0 0 1045.33 336 L 1045.33 298.67" fill="#cec1a1"/><rect x="970.67" y="336" width="37.33" height="37.33" fill="#cec1a1"/><path d="M 970.67 336 A 37.33 37.33 0 0 1 1008 373.33 L 970.67 373.33" fill="#cf8002"/><rect x="1008" y="336" width="37.33" height="37.33" fill="#cec1a1"/><path d="M 1008 373.33 A 37.33 37.33 0 0 1  1045.33 336 L 1045.33 373.33" fill="#cec1a1"/><rect x="1045.3333333333335" y="298.6666666666667" width="74.66666666666667" height="74.66666666666667" fill="#80a92d"/><rect x="1045.33" y="298.67" width="37.33" height="37.33" fill="#cf8002"/><path d="M 1045.33 336 A 37.33 37.33 0 0 0 1082.6599999999999 298.67 L 1045.33 298.67" fill="#cf8002"/><rect x="1082.67" y="298.67" width="37.33" height="37.33" fill="#cf8002"/><path d="M 1082.67 298.67 A 37.33 37.33 0 0 0 1120 336 L 1120 298.67" fill="#cf8002"/><rect x="1045.33" y="336" width="37.33" height="37.33" fill="#cf8002"/><path d="M 1045.33 336 A 37.33 37.33 0 0 1 1082.6599999999999 373.33 L 1045.33 373.33" fill="#cec1a1"/><rect x="1082.67" y="336" width="37.33" height="37.33" fill="#cf8002"/><path d="M 1082.67 373.33 A 37.33 37.33 0 0 1  1120 336 L 1120 373.33" fill="#cf8002"/><rect x="0" y="373.33" width="74.67" height="74.67" fill="#cf8002"/><rect x="0" y="373.33" width="74.67" height="74.67" fill="#cf8002"/><rect x="74.67" y="373.33" width="74.67" height="74.67" fill="#cec1a1"/><polygon points="74.67,373.33 149.34,373.33 74.67,448" fill="#cec1a1"/><rect x="149.33" y="373.33" width="74.67" height="74.67" fill="#cec1a1"/><rect x="149.33" y="373.33" width="74.67" height="74.67" fill="#cf8002"/><rect x="224" y="373.33" width="74.67" height="74.67" fill="#cf8002"/><path d="M 224 373.33 A 74.67 74.67 0 0 1 298.67 448 L 224 448" fill="#cf8002"/><rect x="298.67" y="373.33" width="74.67" height="74.67" fill="#cf8002"/><rect x="298.67" y="373.33" width="74.67" height="74.67" fill="#cec1a1"/><rect x="373.33333333333337" y="373.33333333333337" width="74.66666666666667" height="74.66666666666667" fill="#80a92d"/><rect x="373.33" y="373.33" width="37.33" height="37.33" fill="#cec1a1"/><path d="M 373.33 410.65999999999997 A 37.33 37.33 0 0 1 410.65999999999997 373.33 L 410.65999999999997 382.66249999999997 A 27.9975 27.9975 0 0 0 382.66249999999997 410.65999999999997" fill="#cf8002"/><rect x="410.67" y="373.33" width="37.33" height="37.33" fill="#cf8002"/><path d="M 410.67 373.33 A 37.33 37.33 0 0 1 448 410.65999999999997 L 438.6675 410.65999999999997 A 27.9975 27.9975 0 0 0 410.67 382.66249999999997" fill="#cf8002"/><rect x="373.33" y="410.67" width="37.33" height="37.33" fill="#cec1a1"/><path d="M 373.33 410.67 A 37.33 37.33 0 0 0 410.65999999999997 448 L 410.65999999999997 438.6675 A 27.9975 27.9975 0 0 1 382.66249999999997 410.67" fill="#cf8002"/><rect x="410.67" y="410.67" width="37.33" height="37.33" fill="#cec1a1"/><path d="M 410.67 448 A 37.33 37.33 0 0 0 448 410.67 L 438.6675 410.67 A 27.9975 27.9975 0 0 1 410.67 438.6675" fill="#cec1a1"/><rect x="448" y="373.33" width="74.67" height="74.67" fill="#cec1a1"/><rect x="448" y="373.33" width="74.67" height="74.67" fill="#cf8002"/><rect x="522.67" y="373.33" width="74.67" height="74.67" fill="#cf8002"/><rect x="522.67" y="373.33" width="74.67" height="74.67" fill="#cec1a1"/><rect x="597.3333333333334" y="373.33333333333337" width="74.66666666666667" height="74.66666666666667" fill="#80a92d"/><rect x="597.33" y="373.33" width="37.33" height="37.33" fill="#cf8002"/><circle cx="615.995" cy="391.995" r="18.665" fill="#cec1a1"/><rect x="634.67" y="373.33" width="37.33" height="37.33" fill="#cec1a1"/><rect x="634.67" y="373.33" width="37.33" height="37.33" fill="#cf8002"/><rect x="597.33" y="410.67" width="37.33" height="37.33" fill="#cec1a1"/><circle cx="615.995" cy="429.33500000000004" r="18.665" fill="#cec1a1"/><rect x="634.67" y="410.67" width="37.33" height="37.33" fill="#cec1a1"/><rect x="634.67" y="410.67" width="37.33" height="37.33" fill="#cf8002"/><rect x="672" y="373.33333333333337" width="74.66666666666667" height="74.66666666666667" fill="#80a92d"/><rect x="672" y="373.33" width="37.33" height="37.33" fill="#cec1a1"/><path d="M 672 373.33 A 37.33 37.33 0 0 1 709.33 410.65999999999997 L 672 410.65999999999997" fill="#cf8002"/><rect x="709.33" y="373.33" width="37.33" height="37.33" fill="#cf8002"/><path d="M 709.33 410.65999999999997 A 37.33 37.33 0 0 1  746.6600000000001 373.33 L 746.6600000000001 410.65999999999997" fill="#cf8002"/><rect x="672" y="410.67" width="37.33" height="37.33" fill="#cf8002"/><path d="M 672 448 A 37.33 37.33 0 0 0 709.33 410.67 L 672 410.67" fill="#cf8002"/><rect x="709.33" y="410.67" width="37.33" height="37.33" fill="#cec1a1"/><path d="M 709.33 410.67 A 37.33 37.33 0 0 0 746.6600000000001 448 L 746.6600000000001 410.67" fill="#cf8002"/><rect x="746.67" y="373.33" width="74.67" height="74.67" fill="#cec1a1"/><path d="M 746.67 448 A 74.67 74.67 0 0 1  821.3399999999999 373.33 L 821.3399999999999 448" fill="#cec1a1"/><rect x="821.3333333333334" y="373.33333333333337" width="74.66666666666667" height="74.66666666666667" fill="#80a92d"/><rect x="821.33" y="373.33" width="37.33" height="37.33" fill="#cec1a1"/><path d="M 821.33 410.65999999999997 A 37.33 37.33 0 0 1  858.6600000000001 373.33 L 858.6600000000001 410.65999999999997" fill="#cec1a1"/><rect x="858.67" y="373.33" width="37.33" height="37.33" fill="#cec1a1"/><path d="M 858.67 373.33 A 37.33 37.33 0 0 1 896 410.65999999999997 L 858.67 410.65999999999997" fill="#cf8002"/><rect x="821.33" y="410.67" width="37.33" height="37.33" fill="#cf8002"/><path d="M 821.33 410.67 A 37.33 37.33 0 0 0 858.6600000000001 448 L 858.6600000000001 410.67" fill="#cec1a1"/><rect x="858.67" y="410.67" width="37.33" height="37.33" fill="#cec1a1"/><path d="M 858.67 448 A 37.33 37.33 0 0 0 896 410.67 L 858.67 410.67" fill="#cf8002"/><rect x="896" y="373.33333333333337" width="74.66666666666667" height="74.66666666666667" fill="#80a92d"/><rect x="896" y="373.33" width="37.33" height="37.33" fill="#cf8002"/><path d="M 896 410.65999999999997 A 37.33 37.33 0 0 1  933.33 373.33 L 933.33 410.65999999999997" fill="#cec1a1"/><rect x="933.33" y="373.33" width="37.33" height="37.33" fill="#cf8002"/><path d="M 933.33 373.33 A 37.33 37.33 0 0 1 970.6600000000001 410.65999999999997 L 933.33 410.65999999999997" fill="#cf8002"/><rect x="896" y="410.67" width="37.33" height="37.33" fill="#cf8002"/><path d="M 896 410.67 A 37.33 37.33 0 0 0 933.33 448 L 933.33 410.67" fill="#cec1a1"/><rect x="933.33" y="410.67" width="37.33" height="37.33" fill="#cf8002"/><path d="M 933.33 448 A 37.33 37.33 0 0 0 970.6600000000001 410.67 L 933.33 410.67" fill="#cec1a1"/><rect x="970.67" y="373.33" width="74.67" height="74.67" fill="#cec1a1"/><polygon points="1045.34,373.33 1045.34,448 970.67,448" fill="#cec1a1"/><rect x="1045.3333333333335" y="373.33333333333337" width="74.66666666666667" height="74.66666666666667" fill="#80a92d"/><rect x="1045.33" y="373.33" width="37.33" height="37.33" fill="#cec1a1"/><path d="M 1045.33 410.65999999999997 A 37.33 37.33 0 0 0 1082.6599999999999 373.33 L 1045.33 373.33" fill="#cf8002"/><rect x="1082.67" y="373.33" width="37.33" height="37.33" fill="#cec1a1"/><path d="M 1082.67 373.33 A 37.33 37.33 0 0 0 1120 410.65999999999997 L 1120 373.33" fill="#cf8002"/><rect x="1045.33" y="410.67" width="37.33" height="37.33" fill="#cf8002"/><path d="M 1045.33 410.67 A 37.33 37.33 0 0 1 1082.6599999999999 448 L 1045.33 448" fill="#cf8002"/><rect x="1082.67" y="410.67" width="37.33" height="37.33" fill="#cf8002"/><path d="M 1082.67 448 A 37.33 37.33 0 0 1  1120 410.67 L 1120 448" fill="#cec1a1"/><rect x="0" y="448" width="74.67" height="74.67" fill="#cec1a1"/><path d="M 0 448 A 74.67 74.67 0 0 1 74.67 522.67 L 0 522.67" fill="#cec1a1"/><rect x="74.67" y="448" width="74.67" height="74.67" fill="#cf8002"/><path d="M 74.67 522.67 A 74.67 74.67 0 0 1  149.34 448 L 149.34 522.67" fill="#cf8002"/><rect x="149.33" y="448" width="74.67" height="74.67" fill="#cf8002"/><path d="M 149.33 448 A 74.67 74.67 0 0 1  224 522.67 L 149.33 448 A 74.67 74.67 0 0 0 224 522.67" fill="#cf8002"/><rect x="224" y="448" width="74.66666666666667" height="74.66666666666667" fill="#80a92d"/><rect x="224" y="448" width="37.33" height="37.33" fill="#cec1a1"/><polygon points="261.33,448 261.33,485.33 224,485.33" fill="#cec1a1"/><rect x="261.33" y="448" width="37.33" height="37.33" fill="#cf8002"/><polygon points="261.33,448 298.65999999999997,448 261.33,485.33" fill="#cec1a1"/><rect x="224" y="485.33" width="37.33" height="37.33" fill="#cf8002"/><polygon points="224,485.33 261.33,485.33 261.33,522.66" fill="#cec1a1"/><rect x="261.33" y="485.33" width="37.33" height="37.33" fill="#cf8002"/><polygon points="261.33,485.33 298.65999999999997,522.66 261.33,522.66" fill="#cec1a1"/><rect x="298.6666666666667" y="448" width="74.66666666666667" height="74.66666666666667" fill="#80a92d"/><rect x="298.67" y="448" width="37.33" height="37.33" fill="#cf8002"/><path d="M 298.67 485.33 A 37.33 37.33 0 0 1  336 448 L 336 485.33" fill="#cec1a1"/><rect x="336" y="448" width="37.33" height="37.33" fill="#cec1a1"/><path d="M 336 448 A 37.33 37.33 0 0 1 373.33 485.33 L 336 485.33" fill="#cf8002"/><rect x="298.67" y="485.33" width="37.33" height="37.33" fill="#cf8002"/><path d="M 298.67 485.33 A 37.33 37.33 0 0 0 336 522.66 L 336 485.33" fill="#cec1a1"/><rect x="336" y="485.33" width="37.33" height="37.33" fill="#cf8002"/><path d="M 336 522.66 A 37.33 37.33 0 0 0 373.33 485.33 L 336 485.33" fill="#cf8002"/><rect x="373.33333333333337" y="448" width="74.66666666666667" height="74.66666666666667" fill="#80a92d"/><rect x="373.33" y="448" width="37.33" height="37.33" fill="#cf8002"/><polygon points="410.65999999999997,448 410.65999999999997,485.33 373.33,485.33" fill="#cec1a1"/><rect x="410.67" y="448" width="37.33" height="37.33" fill="#cec1a1"/><polygon points="410.67,448 448,448 410.67,485.33" fill="#cec1a1"/><rect x="373.33" y="485.33" width="37.33" height="37.33" fill="#cf8002"/><polygon points="373.33,485.33 410.65999999999997,485.33 410.65999999999997,522.66" fill="#cf8002"/><rect x="410.67" y="485.33" width="37.33" height="37.33" fill="#cec1a1"/><polygon points="410.67,485.33 448,522.66 410.67,522.66" fill="#cec1a1"/><rect x="448" y="448" width="74.66666666666667" height="74.66666666666667" fill="#80a92d"/><rect x="448" y="448" width="37.33" height="37.33" fill="#cf8002"/><path d="M 448 485.33 A 37.33 37.33 0 0 1  485.33 448 L 485.33 485.33" fill="#cec1a1"/><rect x="485.33" y="448" width="37.33" height="37.33" fill="#cf8002"/><path d="M 485.33 448 A 37.33 37.33 0 0 1 522.66 485.33 L 485.33 485.33" fill="#cec1a1"/><rect x="448" y="485.33" width="37.33" height="37.33" fill="#cec1a1"/><path d="M 448 485.33 A 37.33 37.33 0 0 0 485.33 522.66 L 485.33 485.33" fill="#cf8002"/><rect x="485.33" y="485.33" width="37.33" height="37.33" fill="#cec1a1"/><path d="M 485.33 522.66 A 37.33 37.33 0 0 0 522.66 485.33 L 485.33 485.33" fill="#cec1a1"/><rect x="522.67" y="448" width="74.67" height="74.67" fill="#cf8002"/><path d="M 522.67 448 A 74.67 74.67 0 0 1  597.3399999999999 522.67 L 522.67 448 A 74.67 74.67 0 0 0 597.3399999999999 522.67" fill="#cec1a1"/><rect x="597.3333333333334" y="448" width="74.66666666666667" height="74.66666666666667" fill="#80a92d"/><rect x="597.33" y="448" width="37.33" height="37.33" fill="#cf8002"/><polygon points="634.6600000000001,448 634.6600000000001,485.33 597.33,485.33" fill="#cec1a1"/><rect x="634.67" y="448" width="37.33" height="37.33" fill="#cec1a1"/><polygon points="634.67,448 672,485.33 634.67,485.33" fill="#cf8002"/><rect x="597.33" y="485.33" width="37.33" height="37.33" fill="#cf8002"/><polygon points="597.33,485.33 634.6600000000001,485.33 634.6600000000001,522.66" fill="#cec1a1"/><rect x="634.67" y="485.33" width="37.33" height="37.33" fill="#cec1a1"/><polygon points="634.67,485.33 672,485.33 634.67,522.66" fill="#cec1a1"/><rect x="672" y="448" width="74.67" height="74.67" fill="#cf8002"/><path d="M 672 522.67 A 74.67 74.67 0 0 1  746.67 448 L 746.67 522.67" fill="#cf8002"/><rect x="746.67" y="448" width="74.67" height="74.67" fill="#cec1a1"/><path d="M 746.67 522.67 A 74.67 74.67 0 0 0 821.3399999999999 448 L 746.67 448" fill="#cf8002"/><rect x="821.33" y="448" width="74.67" height="74.67" fill="#cf8002"/><polygon points="821.33,448 896,448 896,522.67" fill="#cf8002"/><rect x="896" y="448" width="74.66666666666667" height="74.66666666666667" fill="#80a92d"/><rect x="896" y="448" width="37.33" height="37.33" fill="#cf8002"/><path d="M 896 448 A 37.33 37.33 0 0 1 933.33 485.33 L 896 485.33" fill="#cec1a1"/><rect x="933.33" y="448" width="37.33" height="37.33" fill="#cec1a1"/><path d="M 933.33 485.33 A 37.33 37.33 0 0 1  970.6600000000001 448 L 970.6600000000001 485.33" fill="#cf8002"/><rect x="896" y="485.33" width="37.33" height="37.33" fill="#cec1a1"/><path d="M 896 522.66 A 37.33 37.33 0 0 0 933.33 485.33 L 896 485.33" fill="#cec1a1"/><rect x="933.33" y="485.33" width="37.33" height="37.33" fill="#cec1a1"/><path d="M 933.33 485.33 A 37.33 37.33 0 0 0 970.6600000000001 522.66 L 970.6600000000001 485.33" fill="#cec1a1"/><rect x="970.67" y="448" width="74.67" height="74.67" fill="#cec1a1"/><path d="M 970.67 522.67 A 74.67 74.67 0 0 1  1045.34 448 L 1045.34 522.67" fill="#cf8002"/><rect x="1045.33" y="448" width="74.67" height="74.67" fill="#cf8002"/><path d="M 1045.33 448 A 74.67 74.67 0 0 0 1120 522.67 L 1120 448" fill="#cec1a1"/><rect x="0" y="522.67" width="74.67" height="74.67" fill="#cec1a1"/><polygon points="74.67,522.67 74.67,597.3399999999999 0,597.3399999999999" fill="#cf8002"/><rect x="74.66666666666667" y="522.6666666666667" width="74.66666666666667" height="74.66666666666667" fill="#80a92d"/><rect x="74.67" y="522.67" width="37.33" height="37.33" fill="#cf8002"/><polygon points="112,522.67 112,560 74.67,560" fill="#cec1a1"/><rect x="112" y="522.67" width="37.33" height="37.33" fill="#cec1a1"/><polygon points="112,522.67 149.32999999999998,560 112,560" fill="#cf8002"/><rect x="74.67" y="560" width="37.33" height="37.33" fill="#cec1a1"/><polygon points="74.67,560 112,560 112,597.33" fill="#cf8002"/><rect x="112" y="560" width="37.33" height="37.33" fill="#cec1a1"/><polygon points="112,560 149.32999999999998,560 112,597.33" fill="#cf8002"/><rect x="149.33" y="522.67" width="74.67" height="74.67" fill="#cec1a1"/><path d="M 149.33 522.67 A 74.67 74.67 0 0 0 224 597.3399999999999 L 224 522.67" fill="#cf8002"/><rect x="224" y="522.6666666666667" width="74.66666666666667" height="74.66666666666667" fill="#80a92d"/><rect x="224" y="522.67" width="37.33" height="37.33" fill="#cf8002"/><polygon points="261.33,522.67 261.33,560 224,560" fill="#cf8002"/><rect x="261.33" y="522.67" width="37.33" height="37.33" fill="#cf8002"/><polygon points="261.33,522.67 298.65999999999997,522.67 261.33,560" fill="#cec1a1"/><rect x="224" y="560" width="37.33" height="37.33" fill="#cec1a1"/><polygon points="224,560 261.33,560 261.33,597.33" fill="#cec1a1"/><rect x="261.33" y="560" width="37.33" height="37.33" fill="#cec1a1"/><polygon points="261.33,560 298.65999999999997,597.33 261.33,597.33" fill="#cec1a1"/><rect x="298.67" y="522.67" width="74.67" height="74.67" fill="#cec1a1"/><polygon points="298.67,522.67 373.34000000000003,522.67 373.34000000000003,597.3399999999999" fill="#cec1a1"/><rect x="373.33333333333337" y="522.6666666666667" width="74.66666666666667" height="74.66666666666667" fill="#80a92d"/><rect x="373.33" y="522.67" width="37.33" height="37.33" fill="#cec1a1"/><polygon points="410.65999999999997,522.67 410.65999999999997,560 373.33,560" fill="#cec1a1"/><rect x="410.67" y="522.67" width="37.33" height="37.33" fill="#cec1a1"/><polygon points="410.67,522.67 448,522.67 410.67,560" fill="#cf8002"/><rect x="373.33" y="560" width="37.33" height="37.33" fill="#cf8002"/><polygon points="373.33,560 410.65999999999997,560 410.65999999999997,597.33" fill="#cec1a1"/><rect x="410.67" y="560" width="37.33" height="37.33" fill="#cec1a1"/><polygon points="410.67,560 448,597.33 410.67,597.33" fill="#cec1a1"/><rect x="448" y="522.6666666666667" width="74.66666666666667" height="74.66666666666667" fill="#80a92d"/><rect x="448" y="522.67" width="37.33" height="37.33" fill="#cec1a1"/><path d="M 448 522.67 A 37.33 37.33 0 0 0 485.33 560 L 485.33 522.67" fill="#cf8002"/><rect x="485.33" y="522.67" width="37.33" height="37.33" fill="#cec1a1"/><path d="M 485.33 560 A 37.33 37.33 0 0 0 522.66 522.67 L 485.33 522.67" fill="#cf8002"/><rect x="448" y="560" width="37.33" height="37.33" fill="#cf8002"/><path d="M 448 597.33 A 37.33 37.33 0 0 1  485.33 560 L 485.33 597.33" fill="#cf8002"/><rect x="485.33" y="560" width="37.33" height="37.33" fill="#cec1a1"/><path d="M 485.33 560 A 37.33 37.33 0 0 1 522.66 597.33 L 485.33 597.33" fill="#cf8002"/><rect x="522.67" y="522.67" width="74.67" height="74.67" fill="#cec1a1"/><path d="M 522.67 597.3399999999999 A 74.67 74.67 0 0 1  597.3399999999999 522.67 L 597.3399999999999 597.3399999999999" fill="#cf8002"/><rect x="597.33" y="522.67" width="74.67" height="74.67" fill="#cf8002"/><path d="M 597.33 522.67 A 74.67 74.67 0 0 1 672 597.3399999999999 L 597.33 597.3399999999999" fill="#cec1a1"/><rect x="672" y="522.67" width="74.67" height="74.67" fill="#cec1a1"/><rect x="672" y="522.67" width="74.67" height="74.67" fill="#cf8002"/><rect x="746.6666666666667" y="522.6666666666667" width="74.66666666666667" height="74.66666666666667" fill="#80a92d"/><rect x="746.67" y="522.67" width="37.33" height="37.33" fill="#cec1a1"/><path d="M 746.67 560 A 37.33 37.33 0 0 1  784 522.67 L 784 560" fill="#cf8002"/><rect x="784" y="522.67" width="37.33" height="37.33" fill="#cec1a1"/><path d="M 784 522.67 A 37.33 37.33 0 0 1 821.33 560 L 784 560" fill="#cf8002"/><rect x="746.67" y="560" width="37.33" height="37.33" fill="#cf8002"/><path d="M 746.67 560 A 37.33 37.33 0 0 0 784 597.33 L 784 560" fill="#cec1a1"/><rect x="784" y="560" width="37.33" height="37.33" fill="#cf8002"/><path d="M 784 597.33 A 37.33 37.33 0 0 0 821.33 560 L 784 560" fill="#cec1a1"/><rect x="821.3333333333334" y="522.6666666666667" width="74.66666666666667" height="74.66666666666667" fill="#80a92d"/><rect x="821.33" y="522.67" width="37.33" height="37.33" fill="#cf8002"/><path d="M 821.33 560 A 37.33 37.33 0 0 1  858.6600000000001 522.67 L 858.6600000000001 560" fill="#cec1a1"/><rect x="858.67" y="522.67" width="37.33" height="37.33" fill="#cec1a1"/><path d="M 858.67 522.67 A 37.33 37.33 0 0 1 896 560 L 858.67 560" fill="#cec1a1"/><rect x="821.33" y="560" width="37.33" height="37.33" fill="#cec1a1"/><path d="M 821.33 560 A 37.33 37.33 0 0 0 858.6600000000001 597.33 L 858.6600000000001 560" fill="#cf8002"/><rect x="858.67" y="560" width="37.33" height="37.33" fill="#cec1a1"/><path d="M 858.67 597.33 A 37.33 37.33 0 0 0 896 560 L 858.67 560" fill="#cf8002"/><rect x="896" y="522.6666666666667" width="74.66666666666667" height="74.66666666666667" fill="#80a92d"/><rect x="896" y="522.67" width="37.33" height="37.33" fill="#cec1a1"/><polygon points="933.33,522.67 933.33,560 896,560" fill="#cec1a1"/><rect x="933.33" y="522.67" width="37.33" height="37.33" fill="#cf8002"/><polygon points="933.33,522.67 970.6600000000001,522.67 933.33,560" fill="#cf8002"/><rect x="896" y="560" width="37.33" height="37.33" fill="#cec1a1"/><polygon points="896,560 933.33,560 933.33,597.33" fill="#cf8002"/><rect x="933.33" y="560" width="37.33" height="37.33" fill="#cf8002"/><polygon points="933.33,560 970.6600000000001,597.33 933.33,597.33" fill="#cec1a1"/><rect x="970.67" y="522.67" width="74.67" height="74.67" fill="#cec1a1"/><rect x="970.67" y="522.67" width="74.67" height="74.67" fill="#cec1a1"/><rect x="1045.3333333333335" y="522.6666666666667" width="74.66666666666667" height="74.66666666666667" fill="#80a92d"/><rect x="1045.33" y="522.67" width="37.33" height="37.33" fill="#cec1a1"/><polygon points="1082.6599999999999,522.67 1082.6599999999999,560 1045.33,560" fill="#cec1a1"/><rect x="1082.67" y="522.67" width="37.33" height="37.33" fill="#cec1a1"/><polygon points="1082.67,522.67 1120,560 1082.67,560" fill="#cec1a1"/><rect x="1045.33" y="560" width="37.33" height="37.33" fill="#cf8002"/><polygon points="1045.33,560 1082.6599999999999,560 1082.6599999999999,597.33" fill="#cf8002"/><rect x="1082.67" y="560" width="37.33" height="37.33" fill="#cf8002"/><polygon points="1082.67,560 1120,560 1082.67,597.33" fill="#cf8002"/><rect x="0" y="597.3333333333334" width="74.66666666666667" height="74.66666666666667" fill="#80a92d"/><rect x="0" y="597.33" width="37.33" height="37.33" fill="#cec1a1"/><polygon points="37.33,597.33 37.33,634.6600000000001 0,634.6600000000001" fill="#cec1a1"/><rect x="37.33" y="597.33" width="37.33" height="37.33" fill="#cf8002"/><polygon points="37.33,597.33 74.66,597.33 37.33,634.6600000000001" fill="#cf8002"/><rect x="0" y="634.67" width="37.33" height="37.33" fill="#cec1a1"/><polygon points="0,634.67 37.33,634.67 37.33,672" fill="#cf8002"/><rect x="37.33" y="634.67" width="37.33" height="37.33" fill="#cf8002"/><polygon points="37.33,634.67 74.66,672 37.33,672" fill="#cf8002"/><rect x="74.66666666666667" y="597.3333333333334" width="74.66666666666667" height="74.66666666666667" fill="#80a92d"/><rect x="74.67" y="597.33" width="37.33" height="37.33" fill="#cec1a1"/><polygon points="112,597.33 112,634.6600000000001 74.67,634.6600000000001" fill="#cf8002"/><rect x="112" y="597.33" width="37.33" height="37.33" fill="#cec1a1"/><polygon points="112,597.33 149.32999999999998,634.6600000000001 112,634.6600000000001" fill="#cf8002"/><rect x="74.67" y="634.67" width="37.33" height="37.33" fill="#cf8002"/><polygon points="74.67,634.67 112,634.67 74.67,672" fill="#cf8002"/><rect x="112" y="634.67" width="37.33" height="37.33" fill="#cec1a1"/><polygon points="112,634.67 149.32999999999998,634.67 149.32999999999998,672" fill="#cec1a1"/><rect x="149.33" y="597.33" width="74.67" height="74.67" fill="#cec1a1"/><path d="M 149.33 597.33 A 74.67 74.67 0 0 1 224 672 L 149.33 672" fill="#cec1a1"/><rect x="224" y="597.33" width="74.67" height="74.67" fill="#cec1a1"/><path d="M 224 672 A 74.67 74.67 0 0 0 298.67 597.33 L 224 597.33" fill="#cf8002"/><rect x="298.67" y="597.33" width="74.67" height="74.67" fill="#cf8002"/><polygon points="298.67,597.33 373.34000000000003,597.33 373.34000000000003,672" fill="#cec1a1"/><rect x="373.33" y="597.33" width="74.67" height="74.67" fill="#cec1a1"/><rect x="373.33" y="597.33" width="74.67" height="74.67" fill="#cf8002"/><rect x="448" y="597.33" width="74.67" height="74.67" fill="#cf8002"/><rect x="448" y="597.33" width="74.67" height="74.67" fill="#cec1a1"/><rect x="522.6666666666667" y="597.3333333333334" width="74.66666666666667" height="74.66666666666667" fill="#80a92d"/><rect x="522.67" y="597.33" width="37.33" height="37.33" fill="#cec1a1"/><polygon points="560,597.33 560,634.6600000000001 522.67,634.6600000000001" fill="#cf8002"/><rect x="560" y="597.33" width="37.33" height="37.33" fill="#cf8002"/><polygon points="560,597.33 597.33,634.6600000000001 560,634.6600000000001" fill="#cec1a1"/><rect x="522.67" y="634.67" width="37.33" height="37.33" fill="#cec1a1"/><polygon points="522.67,634.67 560,634.67 560,672" fill="#cec1a1"/><rect x="560" y="634.67" width="37.33" height="37.33" fill="#cec1a1"/><polygon points="560,634.67 597.33,634.67 560,672" fill="#cec1a1"/><rect x="597.33" y="597.33" width="74.67" height="74.67" fill="#cec1a1"/><rect x="597.33" y="597.33" width="74.67" height="74.67" fill="#cec1a1"/><rect x="672" y="597.33" width="74.67" height="74.67" fill="#cec1a1"/><polygon points="672,597.33 746.67,597.33 672,672" fill="#cf8002"/><rect x="746.6666666666667" y="597.3333333333334" width="74.66666666666667" height="74.66666666666667" fill="#80a92d"/><rect x="746.67" y="597.33" width="37.33" height="37.33" fill="#cec1a1"/><path d="M 746.67 634.6600000000001 A 37.33 37.33 0 0 1 784 597.33 L 784 606.6625 A 27.9975 27.9975 0 0 0 756.0024999999999 634.6600000000001" fill="#cec1a1"/><rect x="784" y="597.33" width="37.33" height="37.33" fill="#cf8002"/><path d="M 784 597.33 A 37.33 37.33 0 0 1 821.33 634.6600000000001 L 811.9975 634.6600000000001 A 27.9975 27.9975 0 0 0 784 606.6625" fill="#cf8002"/><rect x="746.67" y="634.67" width="37.33" height="37.33" fill="#cf8002"/><path d="M 746.67 634.67 A 37.33 37.33 0 0 0 784 672 L 784 662.6674999999999 A 27.9975 27.9975 0 0 1 756.0024999999999 634.67" fill="#cec1a1"/><rect x="784" y="634.67" width="37.33" height="37.33" fill="#cec1a1"/><path d="M 784 672 A 37.33 37.33 0 0 0 821.33 634.67 L 811.9975 634.67 A 27.9975 27.9975 0 0 1 784 662.6674999999999" fill="#cf8002"/><rect x="821.3333333333334" y="597.3333333333334" width="74.66666666666667" height="74.66666666666667" fill="#80a92d"/><rect x="821.33" y="597.33" width="37.33" height="37.33" fill="#cf8002"/><path d="M 821.33 634.6600000000001 A 37.33 37.33 0 0 0 858.6600000000001 597.33 L 821.33 597.33" fill="#cf8002"/><rect x="858.67" y="597.33" width="37.33" height="37.33" fill="#cf8002"/><path d="M 858.67 597.33 A 37.33 37.33 0 0 0 896 634.6600000000001 L 896 597.33" fill="#cf8002"/><rect x="821.33" y="634.67" width="37.33" height="37.33" fill="#cf8002"/><path d="M 821.33 634.67 A 37.33 37.33 0 0 1 858.6600000000001 672 L 821.33 672" fill="#cec1a1"/><rect x="858.67" y="634.67" width="37.33" height="37.33" fill="#cf8002"/><path d="M 858.67 672 A 37.33 37.33 0 0 1  896 634.67 L 896 672" fill="#cf8002"/><rect x="896" y="597.33" width="74.67" height="74.67" fill="#cf8002"/><rect x="896" y="597.33" width="74.67" height="74.67" fill="#cec1a1"/><rect x="970.6666666666667" y="597.3333333333334" width="74.66666666666667" height="74.66666666666667" fill="#80a92d"/><rect x="970.67" y="597.33" width="37.33" height="37.33" fill="#cf8002"/><polygon points="1008,597.33 1008,634.6600000000001 970.67,634.6600000000001" fill="#cec1a1"/><rect x="1008" y="597.33" width="37.33" height="37.33" fill="#cf8002"/><polygon points="1008,597.33 1045.33,634.6600000000001 1008,634.6600000000001" fill="#cf8002"/><rect x="970.67" y="634.67" width="37.33" height="37.33" fill="#cec1a1"/><polygon points="970.67,634.67 1008,634.67 1008,672" fill="#cf8002"/><rect x="1008" y="634.67" width="37.33" height="37.33" fill="#cec1a1"/><polygon points="1008,634.67 1045.33,634.67 1008,672" fill="#cec1a1"/><rect x="1045.33" y="597.33" width="74.67" height="74.67" fill="#cec1a1"/><rect x="1045.33" y="597.33" width="74.67" height="74.67" fill="#cec1a1"/></g></svg>