<svg id="visual" viewBox="0 0 900 600" width="900" height="600" xmlns="http://www.w3.org/2000/svg" xmlns:xlink="http://www.w3.org/1999/xlink" version="1.1"><path d="M0 169L25 143C50 117 100 65 150 57C200 49 250 85 300 87C350 89 400 57 450 36.8C500 16.7 550 8.3 600 9.3C650 10.3 700 20.7 750 42.8C800 65 850 99 875 116L900 133L900 0L875 0C850 0 800 0 750 0C700 0 650 0 600 0C550 0 500 0 450 0C400 0 350 0 300 0C250 0 200 0 150 0C100 0 50 0 25 0L0 0Z" fill="#cec1a1"></path><path d="M0 253L25 240C50 227 100 201 150 181C200 161 250 147 300 150C350 153 400 173 450 201C500 229 550 265 600 309C650 353 700 405 750 380C800 355 850 253 875 202L900 151L900 131L875 114C850 97 800 63 750 41.2C700 19.3 650 9.7 600 8.7C550 7.7 500 15.3 450 35.2C400 55 350 87 300 85C250 83 200 47 150 55C100 63 50 115 25 141L0 167Z" fill="#ccaf72"></path><path d="M0 451L25 447C50 443 100 435 150 397C200 359 250 291 300 287C350 283 400 343 450 362C500 381 550 359 600 385C650 411 700 485 750 488C800 491 850 423 875 389L900 355L900 149L875 200C850 251 800 353 750 378C700 403 650 351 600 307C550 263 500 227 450 199C400 171 350 151 300 148C250 145 200 159 150 179C100 199 50 225 25 238L0 251Z" fill="#cb9b44"></path><path d="M0 601L25 601C50 601 100 601 150 601C200 601 250 601 300 601C350 601 400 601 450 601C500 601 550 601 600 601C650 601 700 601 750 601C800 601 850 601 875 601L900 601L900 353L875 387C850 421 800 489 750 486C700 483 650 409 600 383C550 357 500 379 450 360C400 341 350 281 300 285C250 289 200 357 150 395C100 433 50 441 25 445L0 449Z" fill="#cb8404"></path></svg>