<svg id="visual" viewBox="0 0 900 600" width="900" height="600" xmlns="http://www.w3.org/2000/svg" xmlns:xlink="http://www.w3.org/1999/xlink" version="1.1"><rect x="0" y="0" width="900" height="600" fill="#211900"></rect><path d="M0 262L13.7 261C27.3 260 54.7 258 82 262.7C109.3 267.3 136.7 278.7 163.8 277.2C191 275.7 218 261.3 245.2 249C272.3 236.7 299.7 226.3 327 234.2C354.3 242 381.7 268 409 263.3C436.3 258.7 463.7 223.3 491 224.5C518.3 225.7 545.7 263.3 573 269.7C600.3 276 627.7 251 654.8 237.3C682 223.7 709 221.3 736.2 231.2C763.3 241 790.7 263 818 266.5C845.3 270 872.7 255 886.3 247.5L900 240L900 0L886.3 0C872.7 0 845.3 0 818 0C790.7 0 763.3 0 736.2 0C709 0 682 0 654.8 0C627.7 0 600.3 0 573 0C545.7 0 518.3 0 491 0C463.7 0 436.3 0 409 0C381.7 0 354.3 0 327 0C299.7 0 272.3 0 245.2 0C218 0 191 0 163.8 0C136.7 0 109.3 0 82 0C54.7 0 27.3 0 13.7 0L0 0Z" fill="#967a0f"></path><path d="M0 253L13.7 243.7C27.3 234.3 54.7 215.7 82 213.3C109.3 211 136.7 225 163.8 229.3C191 233.7 218 228.3 245.2 215.3C272.3 202.3 299.7 181.7 327 174C354.3 166.3 381.7 171.7 409 187C436.3 202.3 463.7 227.7 491 238.5C518.3 249.3 545.7 245.7 573 240.2C600.3 234.7 627.7 227.3 654.8 228.8C682 230.3 709 240.7 736.2 236.7C763.3 232.7 790.7 214.3 818 200.5C845.3 186.7 872.7 177.3 886.3 172.7L900 168L900 0L886.3 0C872.7 0 845.3 0 818 0C790.7 0 763.3 0 736.2 0C709 0 682 0 654.8 0C627.7 0 600.3 0 573 0C545.7 0 518.3 0 491 0C463.7 0 436.3 0 409 0C381.7 0 354.3 0 327 0C299.7 0 272.3 0 245.2 0C218 0 191 0 163.8 0C136.7 0 109.3 0 82 0C54.7 0 27.3 0 13.7 0L0 0Z" fill="#b89d39"></path><path d="M0 126L13.7 132.2C27.3 138.3 54.7 150.7 82 154.5C109.3 158.3 136.7 153.7 163.8 149C191 144.3 218 139.7 245.2 136.3C272.3 133 299.7 131 327 130.2C354.3 129.3 381.7 129.7 409 141.5C436.3 153.3 463.7 176.7 491 175.3C518.3 174 545.7 148 573 141.3C600.3 134.7 627.7 147.3 654.8 148.2C682 149 709 138 736.2 134.5C763.3 131 790.7 135 818 149C845.3 163 872.7 187 886.3 199L900 211L900 0L886.3 0C872.7 0 845.3 0 818 0C790.7 0 763.3 0 736.2 0C709 0 682 0 654.8 0C627.7 0 600.3 0 573 0C545.7 0 518.3 0 491 0C463.7 0 436.3 0 409 0C381.7 0 354.3 0 327 0C299.7 0 272.3 0 245.2 0C218 0 191 0 163.8 0C136.7 0 109.3 0 82 0C54.7 0 27.3 0 13.7 0L0 0Z" fill="#dac15d"></path><path d="M0 103L13.7 109.2C27.3 115.3 54.7 127.7 82 128.7C109.3 129.7 136.7 119.3 163.8 116.2C191 113 218 117 245.2 115.8C272.3 114.7 299.7 108.3 327 103.3C354.3 98.3 381.7 94.7 409 97.2C436.3 99.7 463.7 108.3 491 114.7C518.3 121 545.7 125 573 130.5C600.3 136 627.7 143 654.8 137.7C682 132.3 709 114.7 736.2 112C763.3 109.3 790.7 121.7 818 122.3C845.3 123 872.7 112 886.3 106.5L900 101L900 0L886.3 0C872.7 0 845.3 0 818 0C790.7 0 763.3 0 736.2 0C709 0 682 0 654.8 0C627.7 0 600.3 0 573 0C545.7 0 518.3 0 491 0C463.7 0 436.3 0 409 0C381.7 0 354.3 0 327 0C299.7 0 272.3 0 245.2 0C218 0 191 0 163.8 0C136.7 0 109.3 0 82 0C54.7 0 27.3 0 13.7 0L0 0Z" fill="#dac15d"></path><path d="M0 87L13.7 82.8C27.3 78.7 54.7 70.3 82 73.8C109.3 77.3 136.7 92.7 163.8 96.3C191 100 218 92 245.2 92.3C272.3 92.7 299.7 101.3 327 100.7C354.3 100 381.7 90 409 90C436.3 90 463.7 100 491 101.7C518.3 103.3 545.7 96.7 573 93.2C600.3 89.7 627.7 89.3 654.8 90.7C682 92 709 95 736.2 99C763.3 103 790.7 108 818 106.7C845.3 105.3 872.7 97.7 886.3 93.8L900 90L900 0L886.3 0C872.7 0 845.3 0 818 0C790.7 0 763.3 0 736.2 0C709 0 682 0 654.8 0C627.7 0 600.3 0 573 0C545.7 0 518.3 0 491 0C463.7 0 436.3 0 409 0C381.7 0 354.3 0 327 0C299.7 0 272.3 0 245.2 0C218 0 191 0 163.8 0C136.7 0 109.3 0 82 0C54.7 0 27.3 0 13.7 0L0 0Z" fill="#b89d39"></path><path d="M0 34L13.7 40.5C27.3 47 54.7 60 82 58.5C109.3 57 136.7 41 163.8 36.5C191 32 218 39 245.2 41C272.3 43 299.7 40 327 45C354.3 50 381.7 63 409 65.8C436.3 68.7 463.7 61.3 491 58.5C518.3 55.7 545.7 57.3 573 53.7C600.3 50 627.7 41 654.8 37C682 33 709 34 736.2 35.8C763.3 37.7 790.7 40.3 818 41.5C845.3 42.7 872.7 42.3 886.3 42.2L900 42L900 0L886.3 0C872.7 0 845.3 0 818 0C790.7 0 763.3 0 736.2 0C709 0 682 0 654.8 0C627.7 0 600.3 0 573 0C545.7 0 518.3 0 491 0C463.7 0 436.3 0 409 0C381.7 0 354.3 0 327 0C299.7 0 272.3 0 245.2 0C218 0 191 0 163.8 0C136.7 0 109.3 0 82 0C54.7 0 27.3 0 13.7 0L0 0Z" fill="#967a0f"></path></svg>