<svg id="visual" viewBox="0 0 900 600" width="900" height="600" xmlns="http://www.w3.org/2000/svg" xmlns:xlink="http://www.w3.org/1999/xlink" version="1.1"><g stroke-width="1" stroke-linejoin="bevel"><path d="M430 322L427 355L483.3 330Z" fill="#959eca" stroke="#959eca"></path><path d="M427 355L486.3 376L483.3 330Z" fill="#808cc0" stroke="#808cc0"></path><path d="M430 322L382.7 384L427 355Z" fill="#eaebf4" stroke="#eaebf4"></path><path d="M445 451L486.3 438L486.3 376Z" fill="#ffffff" stroke="#ffffff"></path><path d="M441 208L390.7 283L430 322Z" fill="#0f4896" stroke="#0f4896"></path><path d="M430 322L390.7 283L382.7 384Z" fill="#3858a0" stroke="#3858a0"></path><path d="M445 451L486.3 376L427 355Z" fill="#6a7ab5" stroke="#6a7ab5"></path><path d="M382.7 384L445 451L427 355Z" fill="#d4d7ea" stroke="#d4d7ea"></path><path d="M402.7 460L448 455L445 451Z" fill="#aab1d5" stroke="#aab1d5"></path><path d="M445 451L448 455L486.3 438Z" fill="#aab1d5" stroke="#aab1d5"></path><path d="M382.7 384L402.7 460L445 451Z" fill="#bfc4df" stroke="#bfc4df"></path><path d="M604.6 370L566.6 273L483.3 330Z" fill="#eaebf4" stroke="#eaebf4"></path><path d="M483.3 330L441 208L430 322Z" fill="#5269ab" stroke="#5269ab"></path><path d="M604.6 370L483.3 330L486.3 376Z" fill="#0f4896" stroke="#0f4896"></path><path d="M511.3 214L441 208L483.3 330Z" fill="#959eca" stroke="#959eca"></path><path d="M566.6 273L511.3 214L483.3 330Z" fill="#3858a0" stroke="#3858a0"></path><path d="M368.7 210L340.4 261L390.7 283Z" fill="#808cc0" stroke="#808cc0"></path><path d="M390.7 283L324.4 270L382.7 384Z" fill="#959eca" stroke="#959eca"></path><path d="M382.7 384L357.7 441L402.7 460Z" fill="#0f4896" stroke="#0f4896"></path><path d="M304.4 419L357.7 441L382.7 384Z" fill="#eaebf4" stroke="#eaebf4"></path><path d="M340.4 261L324.4 270L390.7 283Z" fill="#5269ab" stroke="#5269ab"></path><path d="M571.6 449L604.6 370L486.3 376Z" fill="#d4d7ea" stroke="#d4d7ea"></path><path d="M441 208L368.7 210L390.7 283Z" fill="#eaebf4" stroke="#eaebf4"></path><path d="M340.4 261L283.1 191L324.4 270Z" fill="#eaebf4" stroke="#eaebf4"></path><path d="M566.6 273L570.6 234L511.3 214Z" fill="#3858a0" stroke="#3858a0"></path><path d="M646.9 266L570.6 234L566.6 273Z" fill="#ffffff" stroke="#ffffff"></path><path d="M543.3 480L571.6 449L486.3 438Z" fill="#3858a0" stroke="#3858a0"></path><path d="M486.3 438L571.6 449L486.3 376Z" fill="#6a7ab5" stroke="#6a7ab5"></path><path d="M543.3 480L486.3 438L458 522Z" fill="#bfc4df" stroke="#bfc4df"></path><path d="M483.3 147L455 178L511.3 214Z" fill="#5269ab" stroke="#5269ab"></path><path d="M511.3 214L455 178L441 208Z" fill="#3858a0" stroke="#3858a0"></path><path d="M441 208L383.7 180L368.7 210Z" fill="#eaebf4" stroke="#eaebf4"></path><path d="M458 522L486.3 438L448 455Z" fill="#eaebf4" stroke="#eaebf4"></path><path d="M324.4 270L289.4 367L382.7 384Z" fill="#5269ab" stroke="#5269ab"></path><path d="M289.4 367L304.4 419L382.7 384Z" fill="#5269ab" stroke="#5269ab"></path><path d="M390.7 551L458 522L402.7 460Z" fill="#959eca" stroke="#959eca"></path><path d="M455 178L383.7 180L441 208Z" fill="#808cc0" stroke="#808cc0"></path><path d="M254.1 255L277.1 298L324.4 270Z" fill="#aab1d5" stroke="#aab1d5"></path><path d="M289.4 367L285.1 388L304.4 419Z" fill="#5269ab" stroke="#5269ab"></path><path d="M571.6 449L607.6 433L604.6 370Z" fill="#3858a0" stroke="#3858a0"></path><path d="M619.9 465L607.6 433L571.6 449Z" fill="#808cc0" stroke="#808cc0"></path><path d="M289.4 367L281.1 390L285.1 388Z" fill="#0f4896" stroke="#0f4896"></path><path d="M285.1 388L281.1 390L304.4 419Z" fill="#959eca" stroke="#959eca"></path><path d="M344.4 497L402.7 460L357.7 441Z" fill="#ffffff" stroke="#ffffff"></path><path d="M402.7 460L458 522L448 455Z" fill="#eaebf4" stroke="#eaebf4"></path><path d="M570.6 234L532.3 176L511.3 214Z" fill="#6a7ab5" stroke="#6a7ab5"></path><path d="M317.4 174L340.4 261L368.7 210Z" fill="#808cc0" stroke="#808cc0"></path><path d="M324.4 270L277.1 298L289.4 367Z" fill="#6a7ab5" stroke="#6a7ab5"></path><path d="M289.4 367L197.9 366L281.1 390Z" fill="#6a7ab5" stroke="#6a7ab5"></path><path d="M285.1 510L344.4 497L304.4 419Z" fill="#6a7ab5" stroke="#6a7ab5"></path><path d="M304.4 419L344.4 497L357.7 441Z" fill="#3858a0" stroke="#3858a0"></path><path d="M532.3 176L483.3 147L511.3 214Z" fill="#0f4896" stroke="#0f4896"></path><path d="M455 178L385.7 125L383.7 180Z" fill="#808cc0" stroke="#808cc0"></path><path d="M675.1 308L646.9 270L604.6 370Z" fill="#5269ab" stroke="#5269ab"></path><path d="M604.6 370L646.9 270L566.6 273Z" fill="#808cc0" stroke="#808cc0"></path><path d="M570.6 234L601.6 151L532.3 176Z" fill="#3858a0" stroke="#3858a0"></path><path d="M646.9 270L646.9 266L566.6 273Z" fill="#3858a0" stroke="#3858a0"></path><path d="M543.3 480L619.9 465L571.6 449Z" fill="#eaebf4" stroke="#eaebf4"></path><path d="M607.6 433L652.9 411L604.6 370Z" fill="#bfc4df" stroke="#bfc4df"></path><path d="M598.6 542L619.9 465L543.3 480Z" fill="#808cc0" stroke="#808cc0"></path><path d="M532.3 176L481 134L483.3 147Z" fill="#6a7ab5" stroke="#6a7ab5"></path><path d="M483.3 147L481 134L455 178Z" fill="#808cc0" stroke="#808cc0"></path><path d="M490.3 88L481 134L532.3 176Z" fill="#eaebf4" stroke="#eaebf4"></path><path d="M619.9 465L652.9 411L607.6 433Z" fill="#bfc4df" stroke="#bfc4df"></path><path d="M646.9 270L684.1 246L646.9 266Z" fill="#959eca" stroke="#959eca"></path><path d="M487.3 600L514.3 543L458 522Z" fill="#eaebf4" stroke="#eaebf4"></path><path d="M458 522L514.3 543L543.3 480Z" fill="#3858a0" stroke="#3858a0"></path><path d="M385.7 125L317.4 174L383.7 180Z" fill="#6a7ab5" stroke="#6a7ab5"></path><path d="M383.7 180L317.4 174L368.7 210Z" fill="#eaebf4" stroke="#eaebf4"></path><path d="M283.1 191L254.1 255L324.4 270Z" fill="#ffffff" stroke="#ffffff"></path><path d="M277.1 298L197.9 366L289.4 367Z" fill="#959eca" stroke="#959eca"></path><path d="M344.4 497L390.7 551L402.7 460Z" fill="#aab1d5" stroke="#aab1d5"></path><path d="M737.1 400L671.9 385L652.9 411Z" fill="#ffffff" stroke="#ffffff"></path><path d="M652.9 411L671.9 385L604.6 370Z" fill="#959eca" stroke="#959eca"></path><path d="M671.9 385L675.1 308L604.6 370Z" fill="#3858a0" stroke="#3858a0"></path><path d="M481 134L385.7 125L455 178Z" fill="#959eca" stroke="#959eca"></path><path d="M292.4 142L283.1 191L317.4 174Z" fill="#eaebf4" stroke="#eaebf4"></path><path d="M317.4 174L283.1 191L340.4 261Z" fill="#959eca" stroke="#959eca"></path><path d="M251.1 509L285.1 510L304.4 419Z" fill="#eaebf4" stroke="#eaebf4"></path><path d="M344.4 497L336.4 561L390.7 551Z" fill="#959eca" stroke="#959eca"></path><path d="M251.1 509L304.4 419L212.9 477Z" fill="#eaebf4" stroke="#eaebf4"></path><path d="M652.9 169L570.6 234L646.9 266Z" fill="#5269ab" stroke="#5269ab"></path><path d="M652.9 169L601.6 151L570.6 234Z" fill="#d4d7ea" stroke="#d4d7ea"></path><path d="M671.9 385L700.1 350L675.1 308Z" fill="#bfc4df" stroke="#bfc4df"></path><path d="M675.1 308L684.1 246L646.9 270Z" fill="#5269ab" stroke="#5269ab"></path><path d="M737.1 400L700.1 350L671.9 385Z" fill="#0f4896" stroke="#0f4896"></path><path d="M571.6 600L598.6 542L514.3 543Z" fill="#808cc0" stroke="#808cc0"></path><path d="M514.3 543L598.6 542L543.3 480Z" fill="#808cc0" stroke="#808cc0"></path><path d="M714.1 487L737.1 400L652.9 411Z" fill="#959eca" stroke="#959eca"></path><path d="M763.4 259L684.1 246L675.1 308Z" fill="#0f4896" stroke="#0f4896"></path><path d="M285.1 510L336.4 561L344.4 497Z" fill="#6a7ab5" stroke="#6a7ab5"></path><path d="M412.7 600L464 600L458 522Z" fill="#d4d7ea" stroke="#d4d7ea"></path><path d="M570.6 70L490.3 88L532.3 176Z" fill="#0f4896" stroke="#0f4896"></path><path d="M481 134L490.3 88L385.7 125Z" fill="#808cc0" stroke="#808cc0"></path><path d="M385.7 125L292.4 142L317.4 174Z" fill="#959eca" stroke="#959eca"></path><path d="M191.9 235L175.9 317L254.1 255Z" fill="#d4d7ea" stroke="#d4d7ea"></path><path d="M247.1 109L292.4 142L333.4 42Z" fill="#6a7ab5" stroke="#6a7ab5"></path><path d="M175.9 317L277.1 298L254.1 255Z" fill="#bfc4df" stroke="#bfc4df"></path><path d="M175.9 317L197.9 366L277.1 298Z" fill="#0f4896" stroke="#0f4896"></path><path d="M598.6 542L621.9 537L619.9 465Z" fill="#0f4896" stroke="#0f4896"></path><path d="M412.7 600L458 522L390.7 551Z" fill="#808cc0" stroke="#808cc0"></path><path d="M598.6 542L632.9 600L621.9 537Z" fill="#bfc4df" stroke="#bfc4df"></path><path d="M464 600L487.3 600L458 522Z" fill="#3858a0" stroke="#3858a0"></path><path d="M336.4 561L412.7 600L390.7 551Z" fill="#6a7ab5" stroke="#6a7ab5"></path><path d="M684.1 246L652.9 169L646.9 266Z" fill="#eaebf4" stroke="#eaebf4"></path><path d="M601.6 151L602.6 123L532.3 176Z" fill="#5269ab" stroke="#5269ab"></path><path d="M652.9 169L602.6 123L601.6 151Z" fill="#3858a0" stroke="#3858a0"></path><path d="M212.9 477L304.4 419L281.1 390Z" fill="#aab1d5" stroke="#aab1d5"></path><path d="M285.1 510L319.4 600L336.4 561Z" fill="#ffffff" stroke="#ffffff"></path><path d="M197.9 366L194.9 422L281.1 390Z" fill="#808cc0" stroke="#808cc0"></path><path d="M194.9 422L212.9 477L281.1 390Z" fill="#808cc0" stroke="#808cc0"></path><path d="M191.9 235L254.1 255L283.1 191Z" fill="#bfc4df" stroke="#bfc4df"></path><path d="M197.9 366L149.6 370L194.9 422Z" fill="#d4d7ea" stroke="#d4d7ea"></path><path d="M174.9 199L191.9 235L283.1 191Z" fill="#959eca" stroke="#959eca"></path><path d="M487.3 600L571.6 600L514.3 543Z" fill="#808cc0" stroke="#808cc0"></path><path d="M570.6 70L477 57L490.3 88Z" fill="#808cc0" stroke="#808cc0"></path><path d="M490.3 88L477 57L385.7 125Z" fill="#d4d7ea" stroke="#d4d7ea"></path><path d="M714.1 487L619.9 465L621.9 537Z" fill="#0f4896" stroke="#0f4896"></path><path d="M714.1 487L652.9 411L619.9 465Z" fill="#959eca" stroke="#959eca"></path><path d="M700.1 350L763.4 259L675.1 308Z" fill="#bfc4df" stroke="#bfc4df"></path><path d="M227.1 600L319.4 600L285.1 510Z" fill="#aab1d5" stroke="#aab1d5"></path><path d="M336.4 561L319.4 600L412.7 600Z" fill="#d4d7ea" stroke="#d4d7ea"></path><path d="M227.1 600L285.1 510L251.1 509Z" fill="#6a7ab5" stroke="#6a7ab5"></path><path d="M746.4 176L689.1 163L684.1 246Z" fill="#6a7ab5" stroke="#6a7ab5"></path><path d="M684.1 246L689.1 163L652.9 169Z" fill="#aab1d5" stroke="#aab1d5"></path><path d="M652.9 169L651.9 94L602.6 123Z" fill="#aab1d5" stroke="#aab1d5"></path><path d="M602.6 123L570.6 70L532.3 176Z" fill="#959eca" stroke="#959eca"></path><path d="M617.9 43L570.6 70L602.6 123Z" fill="#3858a0" stroke="#3858a0"></path><path d="M734.1 517L714.1 487L621.9 537Z" fill="#6a7ab5" stroke="#6a7ab5"></path><path d="M769.4 417L757.4 363L737.1 400Z" fill="#808cc0" stroke="#808cc0"></path><path d="M737.1 400L757.4 363L700.1 350Z" fill="#5269ab" stroke="#5269ab"></path><path d="M175.9 317L149.6 370L197.9 366Z" fill="#5269ab" stroke="#5269ab"></path><path d="M194.9 422L154.6 451L212.9 477Z" fill="#808cc0" stroke="#808cc0"></path><path d="M105.6 329L149.6 370L175.9 317Z" fill="#5269ab" stroke="#5269ab"></path><path d="M333.4 42L292.4 142L385.7 125Z" fill="#eaebf4" stroke="#eaebf4"></path><path d="M292.4 142L247.1 109L283.1 191Z" fill="#959eca" stroke="#959eca"></path><path d="M247.1 109L174.9 199L283.1 191Z" fill="#eaebf4" stroke="#eaebf4"></path><path d="M83.3 278L105.6 329L175.9 317Z" fill="#3858a0" stroke="#3858a0"></path><path d="M571.6 600L632.9 600L598.6 542Z" fill="#eaebf4" stroke="#eaebf4"></path><path d="M689.1 163L651.9 94L652.9 169Z" fill="#eaebf4" stroke="#eaebf4"></path><path d="M454 0L391.7 31L477 57Z" fill="#808cc0" stroke="#808cc0"></path><path d="M477 57L391.7 31L385.7 125Z" fill="#ffffff" stroke="#ffffff"></path><path d="M149.6 370L154.6 451L194.9 422Z" fill="#6a7ab5" stroke="#6a7ab5"></path><path d="M178.9 570L227.1 600L251.1 509Z" fill="#5269ab" stroke="#5269ab"></path><path d="M757.4 363L763.4 259L700.1 350Z" fill="#5269ab" stroke="#5269ab"></path><path d="M689.1 163L722.1 95L651.9 94Z" fill="#808cc0" stroke="#808cc0"></path><path d="M391.7 31L333.4 42L385.7 125Z" fill="#aab1d5" stroke="#aab1d5"></path><path d="M784.4 464L769.4 417L714.1 487Z" fill="#3858a0" stroke="#3858a0"></path><path d="M714.1 487L769.4 417L737.1 400Z" fill="#6a7ab5" stroke="#6a7ab5"></path><path d="M757.4 363L784.4 269L763.4 259Z" fill="#3858a0" stroke="#3858a0"></path><path d="M632.9 600L734.1 517L621.9 537Z" fill="#808cc0" stroke="#808cc0"></path><path d="M763.4 259L746.4 176L684.1 246Z" fill="#ffffff" stroke="#ffffff"></path><path d="M843.7 301L784.4 269L757.4 363Z" fill="#959eca" stroke="#959eca"></path><path d="M763.4 259L816.7 198L746.4 176Z" fill="#bfc4df" stroke="#bfc4df"></path><path d="M651.9 94L617.9 43L602.6 123Z" fill="#ffffff" stroke="#ffffff"></path><path d="M533.3 0L454 0L477 57Z" fill="#6a7ab5" stroke="#6a7ab5"></path><path d="M649.9 0L617.9 43L705.1 29Z" fill="#bfc4df" stroke="#bfc4df"></path><path d="M533.3 0L477 57L570.6 70Z" fill="#808cc0" stroke="#808cc0"></path><path d="M391.7 31L370.7 0L333.4 42Z" fill="#0f4896" stroke="#0f4896"></path><path d="M178.9 570L251.1 509L212.9 477Z" fill="#959eca" stroke="#959eca"></path><path d="M83.3 278L175.9 317L191.9 235Z" fill="#d4d7ea" stroke="#d4d7ea"></path><path d="M83.3 437L122.6 470L154.6 451Z" fill="#959eca" stroke="#959eca"></path><path d="M599.6 0L533.3 0L570.6 70Z" fill="#6a7ab5" stroke="#6a7ab5"></path><path d="M454 0L370.7 0L391.7 31Z" fill="#3858a0" stroke="#3858a0"></path><path d="M234.1 45L207.9 90L247.1 109Z" fill="#5269ab" stroke="#5269ab"></path><path d="M247.1 109L207.9 90L174.9 199Z" fill="#959eca" stroke="#959eca"></path><path d="M174.9 199L102.6 219L191.9 235Z" fill="#ffffff" stroke="#ffffff"></path><path d="M234.1 45L247.1 109L333.4 42Z" fill="#3858a0" stroke="#3858a0"></path><path d="M734.1 517L784.4 464L714.1 487Z" fill="#6a7ab5" stroke="#6a7ab5"></path><path d="M854.7 348L843.7 301L757.4 363Z" fill="#808cc0" stroke="#808cc0"></path><path d="M83.3 437L154.6 451L149.6 370Z" fill="#aab1d5" stroke="#aab1d5"></path><path d="M154.6 451L153.6 555L212.9 477Z" fill="#6a7ab5" stroke="#6a7ab5"></path><path d="M370.7 0L344.4 0L333.4 42Z" fill="#3858a0" stroke="#3858a0"></path><path d="M153.6 555L178.9 570L212.9 477Z" fill="#0f4896" stroke="#0f4896"></path><path d="M746.4 176L722.1 95L689.1 163Z" fill="#eaebf4" stroke="#eaebf4"></path><path d="M617.9 43L599.6 0L570.6 70Z" fill="#6a7ab5" stroke="#6a7ab5"></path><path d="M798.4 108L722.1 95L746.4 176Z" fill="#d4d7ea" stroke="#d4d7ea"></path><path d="M268.1 0L234.1 45L333.4 42Z" fill="#3858a0" stroke="#3858a0"></path><path d="M122.6 470L153.6 555L154.6 451Z" fill="#0f4896" stroke="#0f4896"></path><path d="M178.9 570L177.9 600L227.1 600Z" fill="#eaebf4" stroke="#eaebf4"></path><path d="M649.9 0L599.6 0L617.9 43Z" fill="#aab1d5" stroke="#aab1d5"></path><path d="M97.6 190L102.6 219L174.9 199Z" fill="#808cc0" stroke="#808cc0"></path><path d="M138.6 139L174.9 199L207.9 90Z" fill="#5269ab" stroke="#5269ab"></path><path d="M195.9 61L138.6 139L207.9 90Z" fill="#0f4896" stroke="#0f4896"></path><path d="M102.6 219L83.3 278L191.9 235Z" fill="#bfc4df" stroke="#bfc4df"></path><path d="M68.3 359L83.3 437L149.6 370Z" fill="#0f4896" stroke="#0f4896"></path><path d="M156.6 600L177.9 600L178.9 570Z" fill="#aab1d5" stroke="#aab1d5"></path><path d="M234.1 45L195.9 61L207.9 90Z" fill="#aab1d5" stroke="#aab1d5"></path><path d="M747.4 600L781.4 538L734.1 517Z" fill="#d4d7ea" stroke="#d4d7ea"></path><path d="M734.1 517L781.4 538L784.4 464Z" fill="#808cc0" stroke="#808cc0"></path><path d="M68.3 359L149.6 370L105.6 329Z" fill="#6a7ab5" stroke="#6a7ab5"></path><path d="M122.6 470L79.3 490L153.6 555Z" fill="#aab1d5" stroke="#aab1d5"></path><path d="M153.6 555L156.6 600L178.9 570Z" fill="#5269ab" stroke="#5269ab"></path><path d="M632.9 600L738.1 600L734.1 517Z" fill="#d4d7ea" stroke="#d4d7ea"></path><path d="M83.3 278L68.3 359L105.6 329Z" fill="#0f4896" stroke="#0f4896"></path><path d="M102.6 219L37.3 233L83.3 278Z" fill="#3858a0" stroke="#3858a0"></path><path d="M83.3 278L0 312L68.3 359Z" fill="#0f4896" stroke="#0f4896"></path><path d="M138.6 139L97.6 190L174.9 199Z" fill="#5269ab" stroke="#5269ab"></path><path d="M71.3 163L97.6 190L138.6 139Z" fill="#808cc0" stroke="#808cc0"></path><path d="M344.4 0L268.1 0L333.4 42Z" fill="#3858a0" stroke="#3858a0"></path><path d="M234.1 45L217.9 0L195.9 61Z" fill="#5269ab" stroke="#5269ab"></path><path d="M838.7 241L816.7 198L784.4 269Z" fill="#5269ab" stroke="#5269ab"></path><path d="M784.4 269L816.7 198L763.4 259Z" fill="#d4d7ea" stroke="#d4d7ea"></path><path d="M757.4 363L769.4 417L854.7 348Z" fill="#ffffff" stroke="#ffffff"></path><path d="M738.1 600L747.4 600L734.1 517Z" fill="#bfc4df" stroke="#bfc4df"></path><path d="M854.7 348L769.4 417L861.7 405Z" fill="#d4d7ea" stroke="#d4d7ea"></path><path d="M705.1 29L651.9 94L722.1 95Z" fill="#808cc0" stroke="#808cc0"></path><path d="M705.1 29L617.9 43L651.9 94Z" fill="#ffffff" stroke="#ffffff"></path><path d="M62.3 600L156.6 600L153.6 555Z" fill="#aab1d5" stroke="#aab1d5"></path><path d="M843.7 301L838.7 241L784.4 269Z" fill="#959eca" stroke="#959eca"></path><path d="M787.4 47L705.1 29L722.1 95Z" fill="#3858a0" stroke="#3858a0"></path><path d="M861.7 405L769.4 417L784.4 464Z" fill="#ffffff" stroke="#ffffff"></path><path d="M843.7 301L900 314L838.7 241Z" fill="#959eca" stroke="#959eca"></path><path d="M0 467L79.3 490L83.3 437Z" fill="#3858a0" stroke="#3858a0"></path><path d="M83.3 437L79.3 490L122.6 470Z" fill="#808cc0" stroke="#808cc0"></path><path d="M838.7 505L861.7 405L784.4 464Z" fill="#6a7ab5" stroke="#6a7ab5"></path><path d="M838.7 505L784.4 464L781.4 538Z" fill="#aab1d5" stroke="#aab1d5"></path><path d="M268.1 0L217.9 0L234.1 45Z" fill="#eaebf4" stroke="#eaebf4"></path><path d="M53.3 129L71.3 163L138.6 139Z" fill="#eaebf4" stroke="#eaebf4"></path><path d="M816.7 125L746.4 176L816.7 198Z" fill="#808cc0" stroke="#808cc0"></path><path d="M816.7 125L798.4 108L746.4 176Z" fill="#3858a0" stroke="#3858a0"></path><path d="M865.7 561L838.7 505L781.4 538Z" fill="#3858a0" stroke="#3858a0"></path><path d="M900 193L816.7 125L816.7 198Z" fill="#aab1d5" stroke="#aab1d5"></path><path d="M132.6 31L138.6 139L195.9 61Z" fill="#bfc4df" stroke="#bfc4df"></path><path d="M97.6 190L37.3 233L102.6 219Z" fill="#6a7ab5" stroke="#6a7ab5"></path><path d="M754.4 0L704.1 0L705.1 29Z" fill="#959eca" stroke="#959eca"></path><path d="M705.1 29L704.1 0L649.9 0Z" fill="#6a7ab5" stroke="#6a7ab5"></path><path d="M787.4 47L722.1 95L798.4 108Z" fill="#ffffff" stroke="#ffffff"></path><path d="M71.3 163L37.3 233L97.6 190Z" fill="#3858a0" stroke="#3858a0"></path><path d="M0 542L70.3 547L79.3 490Z" fill="#bfc4df" stroke="#bfc4df"></path><path d="M79.3 490L70.3 547L153.6 555Z" fill="#3858a0" stroke="#3858a0"></path><path d="M0 387L83.3 437L68.3 359Z" fill="#959eca" stroke="#959eca"></path><path d="M813.7 76L787.4 47L798.4 108Z" fill="#bfc4df" stroke="#bfc4df"></path><path d="M900 102L813.7 76L816.7 125Z" fill="#bfc4df" stroke="#bfc4df"></path><path d="M816.7 125L813.7 76L798.4 108Z" fill="#959eca" stroke="#959eca"></path><path d="M900 374L854.7 348L861.7 405Z" fill="#3858a0" stroke="#3858a0"></path><path d="M900 374L900 314L854.7 348Z" fill="#808cc0" stroke="#808cc0"></path><path d="M854.7 348L900 314L843.7 301Z" fill="#bfc4df" stroke="#bfc4df"></path><path d="M838.7 241L900 193L816.7 198Z" fill="#aab1d5" stroke="#aab1d5"></path><path d="M136.6 0L132.6 31L195.9 61Z" fill="#d4d7ea" stroke="#d4d7ea"></path><path d="M0 192L0 210L37.3 233Z" fill="#bfc4df" stroke="#bfc4df"></path><path d="M900 398L900 374L861.7 405Z" fill="#eaebf4" stroke="#eaebf4"></path><path d="M900 483L900 398L861.7 405Z" fill="#6a7ab5" stroke="#6a7ab5"></path><path d="M58.3 43L53.3 129L138.6 139Z" fill="#3858a0" stroke="#3858a0"></path><path d="M847.7 0L754.4 0L787.4 47Z" fill="#6a7ab5" stroke="#6a7ab5"></path><path d="M787.4 47L754.4 0L705.1 29Z" fill="#6a7ab5" stroke="#6a7ab5"></path><path d="M0 210L0 312L37.3 233Z" fill="#959eca" stroke="#959eca"></path><path d="M37.3 233L0 312L83.3 278Z" fill="#959eca" stroke="#959eca"></path><path d="M0 312L0 387L68.3 359Z" fill="#6a7ab5" stroke="#6a7ab5"></path><path d="M900 314L900 216L838.7 241Z" fill="#aab1d5" stroke="#aab1d5"></path><path d="M0 387L0 429L83.3 437Z" fill="#5269ab" stroke="#5269ab"></path><path d="M747.4 600L838.7 600L781.4 538Z" fill="#d4d7ea" stroke="#d4d7ea"></path><path d="M838.7 505L900 483L861.7 405Z" fill="#959eca" stroke="#959eca"></path><path d="M132.6 31L58.3 43L138.6 139Z" fill="#5269ab" stroke="#5269ab"></path><path d="M217.9 0L136.6 0L195.9 61Z" fill="#ffffff" stroke="#ffffff"></path><path d="M838.7 600L865.7 561L781.4 538Z" fill="#3858a0" stroke="#3858a0"></path><path d="M900 547L900 483L838.7 505Z" fill="#959eca" stroke="#959eca"></path><path d="M900 216L900 193L838.7 241Z" fill="#bfc4df" stroke="#bfc4df"></path><path d="M0 542L62.3 600L70.3 547Z" fill="#959eca" stroke="#959eca"></path><path d="M70.3 547L62.3 600L153.6 555Z" fill="#3858a0" stroke="#3858a0"></path><path d="M0 429L0 467L83.3 437Z" fill="#eaebf4" stroke="#eaebf4"></path><path d="M0 192L37.3 233L71.3 163Z" fill="#0f4896" stroke="#0f4896"></path><path d="M0 192L71.3 163L0 137Z" fill="#5269ab" stroke="#5269ab"></path><path d="M0 137L71.3 163L53.3 129Z" fill="#3858a0" stroke="#3858a0"></path><path d="M900 600L900 547L865.7 561Z" fill="#aab1d5" stroke="#aab1d5"></path><path d="M865.7 561L900 547L838.7 505Z" fill="#ffffff" stroke="#ffffff"></path><path d="M83.3 0L58.3 43L132.6 31Z" fill="#959eca" stroke="#959eca"></path><path d="M0 467L0 542L79.3 490Z" fill="#aab1d5" stroke="#aab1d5"></path><path d="M0 88L0 137L53.3 129Z" fill="#808cc0" stroke="#808cc0"></path><path d="M136.6 0L83.3 0L132.6 31Z" fill="#0f4896" stroke="#0f4896"></path><path d="M58.3 43L0 88L53.3 129Z" fill="#aab1d5" stroke="#aab1d5"></path><path d="M900 193L900 102L816.7 125Z" fill="#5269ab" stroke="#5269ab"></path><path d="M813.7 76L847.7 0L787.4 47Z" fill="#ffffff" stroke="#ffffff"></path><path d="M838.7 600L900 600L865.7 561Z" fill="#eaebf4" stroke="#eaebf4"></path><path d="M0 0L0 88L58.3 43Z" fill="#eaebf4" stroke="#eaebf4"></path><path d="M900 54L847.7 0L813.7 76Z" fill="#0f4896" stroke="#0f4896"></path><path d="M0 542L0 600L62.3 600Z" fill="#bfc4df" stroke="#bfc4df"></path><path d="M900 102L900 54L813.7 76Z" fill="#959eca" stroke="#959eca"></path><path d="M900 54L900 0L847.7 0Z" fill="#aab1d5" stroke="#aab1d5"></path><path d="M83.3 0L0 0L58.3 43Z" fill="#959eca" stroke="#959eca"></path></g></svg>