<svg id="visual" viewBox="0 0 900 600" width="900" height="600" xmlns="http://www.w3.org/2000/svg" xmlns:xlink="http://www.w3.org/1999/xlink" version="1.1"><rect x="0" y="0" width="900" height="600" fill="#eecfa1"></rect><defs><linearGradient id="grad1_0" x1="33.3%" y1="100%" x2="100%" y2="0%"><stop offset="20%" stop-color="#eecfa1" stop-opacity="1"></stop><stop offset="80%" stop-color="#eecfa1" stop-opacity="1"></stop></linearGradient></defs><defs><linearGradient id="grad2_0" x1="0%" y1="100%" x2="66.7%" y2="0%"><stop offset="20%" stop-color="#eecfa1" stop-opacity="1"></stop><stop offset="80%" stop-color="#eecfa1" stop-opacity="1"></stop></linearGradient></defs><g transform="translate(900, 600)"><path d="M-297.5 0C-260.7 -18.6 -223.9 -37.1 -209.6 -56.2C-195.3 -75.2 -203.5 -94.7 -206.1 -119C-208.7 -143.3 -205.7 -172.3 -193 -193C-180.4 -213.8 -158.2 -226.4 -135.5 -234.7C-112.8 -243 -89.7 -247 -67 -250.2C-44.4 -253.3 -22.2 -255.7 0 -258L0 0Z" fill="#f9dfb7"></path></g><g transform="translate(0, 0)"><path d="M246 0C225.1 16 204.3 32 203.8 54.6C203.4 77.2 223.3 106.4 225.2 130C227 153.6 210.7 171.5 197.3 197.3C183.9 223 173.5 256.6 148.7 257.6C124 258.6 84.9 227.1 57.7 215.4C30.5 203.7 15.3 211.9 0 220L0 0Z" fill="#f9dfb7"></path></g></svg>