<svg id="visual" viewBox="0 0 900 600" width="900" height="600" xmlns="http://www.w3.org/2000/svg" xmlns:xlink="http://www.w3.org/1999/xlink" version="1.1"><rect x="0" y="0" width="900" height="600" fill="#c78cac"></rect><path d="M0 355L113 355L113 421L225 421L225 257L338 257L338 343L450 343L450 461L563 461L563 213L675 213L675 361L788 361L788 275L900 275L900 322L900 0L900 0L788 0L788 0L675 0L675 0L563 0L563 0L450 0L450 0L338 0L338 0L225 0L225 0L113 0L113 0L0 0Z" fill="#812331"></path><path d="M0 315L113 315L113 236L225 236L225 232L338 232L338 192L450 192L450 310L563 310L563 141L675 141L675 308L788 308L788 182L900 182L900 254L900 0L900 0L788 0L788 0L675 0L675 0L563 0L563 0L450 0L450 0L338 0L338 0L225 0L225 0L113 0L113 0L0 0Z" fill="#5a1428"></path><path d="M0 89L113 89L113 96L225 96L225 190L338 190L338 204L450 204L450 172L563 172L563 111L675 111L675 140L788 140L788 168L900 168L900 137L900 0L900 0L788 0L788 0L675 0L675 0L563 0L563 0L450 0L450 0L338 0L338 0L225 0L225 0L113 0L113 0L0 0Z" fill="#35081b"></path></svg>