<svg id="visual" viewBox="0 0 960 540" width="960" height="540" xmlns="http://www.w3.org/2000/svg" xmlns:xlink="http://www.w3.org/1999/xlink" version="1.1"><rect x="0" y="0" width="960" height="540" fill="#022c22"></rect><defs><linearGradient id="grad1_0" x1="43.8%" y1="0%" x2="100%" y2="100%"><stop offset="14.444444444444446%" stop-color="#022c22" stop-opacity="1"></stop><stop offset="85.55555555555554%" stop-color="#022c22" stop-opacity="1"></stop></linearGradient></defs><defs><linearGradient id="grad2_0" x1="0%" y1="0%" x2="56.3%" y2="100%"><stop offset="14.444444444444446%" stop-color="#022c22" stop-opacity="1"></stop><stop offset="85.55555555555554%" stop-color="#022c22" stop-opacity="1"></stop></linearGradient></defs><g transform="translate(960, 0)"><path d="M0 459C-12.1 410.2 -24.3 361.5 -44.6 367.3C-64.9 373.1 -93.5 433.5 -105.5 428.2C-117.6 422.8 -113.1 351.7 -126.6 333.8C-140.1 315.9 -171.6 351.2 -181.2 345.3C-190.9 339.5 -178.6 292.5 -202.8 293.8C-227 295.1 -287.8 344.8 -301.7 340.6C-315.6 336.4 -282.7 278.3 -295.7 261.9C-308.7 245.6 -367.7 271.1 -377.7 260.7C-387.8 250.4 -349 204.3 -342.7 179.8C-336.3 155.4 -362.4 152.6 -368.4 139.7C-374.4 126.8 -360.3 103.7 -348.6 85.9C-336.9 68.1 -327.6 55.5 -346.5 42.1C-365.3 28.6 -412.1 14.3 -459 0L0 0Z" fill="#ffa318"></path></g><g transform="translate(0, 540)"><path d="M0 -459C17.9 -436.8 35.8 -414.5 47.1 -388.1C58.5 -361.8 63.4 -331.2 85.2 -345.7C107 -360.1 145.8 -419.4 155.3 -409.5C164.9 -399.7 145.2 -320.5 165.4 -315.2C185.7 -309.9 245.8 -378.3 260.7 -377.7C275.7 -377.2 245.5 -307.5 252 -284.4C258.5 -261.4 301.7 -284.9 315.1 -279.2C328.5 -273.5 312.1 -238.5 325.9 -225C339.7 -211.4 383.8 -219.2 398.5 -209.1C413.1 -199 398.5 -170.9 396.4 -150.4C394.4 -129.8 405.1 -116.7 412.7 -101.7C420.2 -86.7 424.6 -69.7 431.8 -52.4C439 -35.2 449 -17.6 459 0L0 0Z" fill="#ffa318"></path></g></svg>