<svg id="visual" viewBox="0 0 900 600" width="900" height="600" xmlns="http://www.w3.org/2000/svg" xmlns:xlink="http://www.w3.org/1999/xlink" version="1.1"><rect x="0" y="0" width="900" height="600" fill="#482108"></rect><defs><linearGradient id="grad1_0" x1="33.3%" y1="0%" x2="100%" y2="100%"><stop offset="20%" stop-color="#482108" stop-opacity="1"></stop><stop offset="80%" stop-color="#482108" stop-opacity="1"></stop></linearGradient></defs><defs><linearGradient id="grad2_0" x1="0%" y1="0%" x2="66.7%" y2="100%"><stop offset="20%" stop-color="#482108" stop-opacity="1"></stop><stop offset="80%" stop-color="#482108" stop-opacity="1"></stop></linearGradient></defs><g transform="translate(900, 0)"><path d="M0 486.7C-57.3 467 -114.7 447.3 -177.2 427.8C-239.7 408.2 -307.4 388.8 -344.2 344.2C-381 299.5 -387 229.6 -405.6 168C-424.2 106.4 -455.5 53.2 -486.7 0L0 0Z" fill="#70490e"></path></g><g transform="translate(0, 600)"><path d="M0 -486.7C55.4 -464.6 110.8 -442.4 175.7 -424.1C240.5 -405.7 314.8 -391.2 344.2 -344.2C373.5 -297.2 357.9 -217.8 374.2 -155C390.4 -92.2 438.6 -46.1 486.7 0L0 0Z" fill="#70490e"></path></g></svg>