<svg id="visual" viewBox="0 0 900 600" width="900" height="600" xmlns="http://www.w3.org/2000/svg" xmlns:xlink="http://www.w3.org/1999/xlink" version="1.1"><rect x="0" y="0" width="900" height="600" fill="#931c1c"></rect><path d="M0 253L21.5 254.5C43 256 86 259 128.8 263.3C171.7 267.7 214.3 273.3 257.2 278.5C300 283.7 343 288.3 385.8 289.7C428.7 291 471.3 289 514.2 296.2C557 303.3 600 319.7 642.8 322.5C685.7 325.3 728.3 314.7 771.2 315.2C814 315.7 857 327.3 878.5 333.2L900 339L900 601L878.5 601C857 601 814 601 771.2 601C728.3 601 685.7 601 642.8 601C600 601 557 601 514.2 601C471.3 601 428.7 601 385.8 601C343 601 300 601 257.2 601C214.3 601 171.7 601 128.8 601C86 601 43 601 21.5 601L0 601Z" fill="#871400"></path><path d="M0 342L21.5 347.5C43 353 86 364 128.8 374.3C171.7 384.7 214.3 394.3 257.2 386.3C300 378.3 343 352.7 385.8 351C428.7 349.3 471.3 371.7 514.2 388.8C557 406 600 418 642.8 414.7C685.7 411.3 728.3 392.7 771.2 389.7C814 386.7 857 399.3 878.5 405.7L900 412L900 601L878.5 601C857 601 814 601 771.2 601C728.3 601 685.7 601 642.8 601C600 601 557 601 514.2 601C471.3 601 428.7 601 385.8 601C343 601 300 601 257.2 601C214.3 601 171.7 601 128.8 601C86 601 43 601 21.5 601L0 601Z" fill="#a32d04"></path><path d="M0 466L21.5 450.3C43 434.7 86 403.3 128.8 400.5C171.7 397.7 214.3 423.3 257.2 439.5C300 455.7 343 462.3 385.8 452.3C428.7 442.3 471.3 415.7 514.2 406C557 396.3 600 403.7 642.8 411.8C685.7 420 728.3 429 771.2 426.5C814 424 857 410 878.5 403L900 396L900 601L878.5 601C857 601 814 601 771.2 601C728.3 601 685.7 601 642.8 601C600 601 557 601 514.2 601C471.3 601 428.7 601 385.8 601C343 601 300 601 257.2 601C214.3 601 171.7 601 128.8 601C86 601 43 601 21.5 601L0 601Z" fill="#be4407"></path><path d="M0 476L21.5 470.3C43 464.7 86 453.3 128.8 453C171.7 452.7 214.3 463.3 257.2 472.8C300 482.3 343 490.7 385.8 486.8C428.7 483 471.3 467 514.2 457.8C557 448.7 600 446.3 642.8 445.7C685.7 445 728.3 446 771.2 458.5C814 471 857 495 878.5 507L900 519L900 601L878.5 601C857 601 814 601 771.2 601C728.3 601 685.7 601 642.8 601C600 601 557 601 514.2 601C471.3 601 428.7 601 385.8 601C343 601 300 601 257.2 601C214.3 601 171.7 601 128.8 601C86 601 43 601 21.5 601L0 601Z" fill="#da5b09"></path><path d="M0 545L21.5 545.8C43 546.7 86 548.3 128.8 542.7C171.7 537 214.3 524 257.2 519C300 514 343 517 385.8 519.2C428.7 521.3 471.3 522.7 514.2 521.3C557 520 600 516 642.8 511.2C685.7 506.3 728.3 500.7 771.2 499.8C814 499 857 503 878.5 505L900 507L900 601L878.5 601C857 601 814 601 771.2 601C728.3 601 685.7 601 642.8 601C600 601 557 601 514.2 601C471.3 601 428.7 601 385.8 601C343 601 300 601 257.2 601C214.3 601 171.7 601 128.8 601C86 601 43 601 21.5 601L0 601Z" fill="#f5730a"></path></svg>