<svg id="visual" viewBox="0 0 900 600" width="900" height="600" xmlns="http://www.w3.org/2000/svg" xmlns:xlink="http://www.w3.org/1999/xlink" version="1.1"><rect x="0" y="0" width="900" height="600" fill="#931C1C"></rect><path d="M297 0L307 26L449 52L303 78L315 104L407 130L303 157L469 183L417 209L331 235L353 261L405 287L359 313L419 339L292 365L463 391L347 417L477 443L379 470L445 496L282 522L379 548L361 574L293 600L0 600L0 574L0 548L0 522L0 496L0 470L0 443L0 417L0 391L0 365L0 339L0 313L0 287L0 261L0 235L0 209L0 183L0 157L0 130L0 104L0 78L0 52L0 26L0 0Z" fill="#f5730a"></path><path d="M284 0L288 26L395 52L437 78L425 104L436 130L324 157L382 183L448 209L274 235L319 261L395 287L437 313L274 339L372 365L431 391L316 417L367 443L407 470L368 496L277 522L288 548L351 574L423 600L0 600L0 574L0 548L0 522L0 496L0 470L0 443L0 417L0 391L0 365L0 339L0 313L0 287L0 261L0 235L0 209L0 183L0 157L0 130L0 104L0 78L0 52L0 26L0 0Z" fill="#eb6a0a"></path><path d="M343 0L341 26L415 52L266 78L246 104L399 130L250 157L340 183L253 209L273 235L336 261L296 287L360 313L316 339L404 365L247 391L331 417L399 443L283 470L390 496L260 522L239 548L297 574L260 600L0 600L0 574L0 548L0 522L0 496L0 470L0 443L0 417L0 391L0 365L0 339L0 313L0 287L0 261L0 235L0 209L0 183L0 157L0 130L0 104L0 78L0 52L0 26L0 0Z" fill="#e16209"></path><path d="M313 0L226 26L216 52L266 78L358 104L378 130L347 157L296 183L305 209L284 235L299 261L302 287L231 313L241 339L277 365L246 391L319 417L368 443L356 470L320 496L252 522L352 548L221 574L219 600L0 600L0 574L0 548L0 522L0 496L0 470L0 443L0 417L0 391L0 365L0 339L0 313L0 287L0 261L0 235L0 209L0 183L0 157L0 130L0 104L0 78L0 52L0 26L0 0Z" fill="#d75909"></path><path d="M207 0L297 26L319 52L334 78L185 104L267 130L188 157L299 183L210 209L218 235L255 261L308 287L188 313L214 339L244 365L224 391L321 417L337 443L237 470L328 496L293 522L301 548L219 574L210 600L0 600L0 574L0 548L0 522L0 496L0 470L0 443L0 417L0 391L0 365L0 339L0 313L0 287L0 261L0 235L0 209L0 183L0 157L0 130L0 104L0 78L0 52L0 26L0 0Z" fill="#cd5108"></path><path d="M299 0L158 26L257 52L291 78L294 104L162 130L206 157L287 183L293 209L289 235L178 261L285 287L188 313L180 339L291 365L175 391L187 417L288 443L187 470L200 496L222 522L235 548L218 574L294 600L0 600L0 574L0 548L0 522L0 496L0 470L0 443L0 417L0 391L0 365L0 339L0 313L0 287L0 261L0 235L0 209L0 183L0 157L0 130L0 104L0 78L0 52L0 26L0 0Z" fill="#c34807"></path><path d="M211 0L228 26L158 52L241 78L160 104L182 130L194 157L141 183L255 209L206 235L243 261L179 287L150 313L177 339L204 365L147 391L186 417L244 443L207 470L199 496L251 522L166 548L141 574L145 600L0 600L0 574L0 548L0 522L0 496L0 470L0 443L0 417L0 391L0 365L0 339L0 313L0 287L0 261L0 235L0 209L0 183L0 157L0 130L0 104L0 78L0 52L0 26L0 0Z" fill="#b94007"></path><path d="M145 0L111 26L166 52L143 78L114 104L126 130L220 157L137 183L217 209L144 235L222 261L198 287L194 313L206 339L195 365L147 391L218 417L159 443L144 470L155 496L173 522L168 548L198 574L171 600L0 600L0 574L0 548L0 522L0 496L0 470L0 443L0 417L0 391L0 365L0 339L0 313L0 287L0 261L0 235L0 209L0 183L0 157L0 130L0 104L0 78L0 52L0 26L0 0Z" fill="#af3706"></path><path d="M88 0L126 26L158 52L163 78L167 104L161 130L113 157L143 183L129 209L172 235L152 261L144 287L99 313L178 339L102 365L120 391L163 417L125 443L90 470L113 496L140 522L98 548L158 574L132 600L0 600L0 574L0 548L0 522L0 496L0 470L0 443L0 417L0 391L0 365L0 339L0 313L0 287L0 261L0 235L0 209L0 183L0 157L0 130L0 104L0 78L0 52L0 26L0 0Z" fill="#a52f05"></path><path d="M68 0L134 26L107 52L121 78L97 104L136 130L140 157L104 183L134 209L142 235L94 261L101 287L80 313L105 339L69 365L120 391L146 417L139 443L146 470L69 496L136 522L73 548L123 574L84 600L0 600L0 574L0 548L0 522L0 496L0 470L0 443L0 417L0 391L0 365L0 339L0 313L0 287L0 261L0 235L0 209L0 183L0 157L0 130L0 104L0 78L0 52L0 26L0 0Z" fill="#9b2604"></path><path d="M64 0L110 26L93 52L62 78L52 104L93 130L45 157L89 183L58 209L39 235L102 261L90 287L110 313L89 339L96 365L107 391L100 417L58 443L100 470L88 496L91 522L40 548L38 574L48 600L0 600L0 574L0 548L0 522L0 496L0 470L0 443L0 417L0 391L0 365L0 339L0 313L0 287L0 261L0 235L0 209L0 183L0 157L0 130L0 104L0 78L0 52L0 26L0 0Z" fill="#911e02"></path><path d="M49 0L68 26L69 52L21 78L67 104L44 130L56 157L27 183L70 209L18 235L48 261L65 287L17 313L42 339L41 365L14 391L39 417L58 443L57 470L34 496L17 522L24 548L66 574L36 600L0 600L0 574L0 548L0 522L0 496L0 470L0 443L0 417L0 391L0 365L0 339L0 313L0 287L0 261L0 235L0 209L0 183L0 157L0 130L0 104L0 78L0 52L0 26L0 0Z" fill="#871400"></path></svg>