<svg id="visual" viewBox="0 0 900 600" width="900" height="600" xmlns="http://www.w3.org/2000/svg" xmlns:xlink="http://www.w3.org/1999/xlink" version="1.1"><rect x="0" y="0" width="900" height="600" fill="#1408c9"></rect><path d="M0 265L4.8 280.3C9.7 295.7 19.3 326.3 29 330.2C38.7 334 48.3 311 58 304.7C67.7 298.3 77.3 308.7 87 282.7C96.7 256.7 106.3 194.3 116 174.5C125.7 154.7 135.3 177.3 145 218.5C154.7 259.7 164.3 319.3 174 345.3C183.7 371.3 193.3 363.7 203 331.5C212.7 299.3 222.3 242.7 232 221.2C241.7 199.7 251.3 213.3 261 212.2C270.7 211 280.3 195 290 215.8C299.7 236.7 309.3 294.3 319 304.5C328.7 314.7 338.3 277.3 348 251.3C357.7 225.3 367.3 210.7 377 213C386.7 215.3 396.3 234.7 406 244.5C415.7 254.3 425.3 254.7 435.2 251.2C445 247.7 455 240.3 464.8 245.7C474.7 251 484.3 269 494 279.5C503.7 290 513.3 293 523 273.3C532.7 253.7 542.3 211.3 552 181.2C561.7 151 571.3 133 581 159.5C590.7 186 600.3 257 610 299C619.7 341 629.3 354 639 348.7C648.7 343.3 658.3 319.7 668 314.8C677.7 310 687.3 324 697 335.5C706.7 347 716.3 356 726 361.8C735.7 367.7 745.3 370.3 755 373.2C764.7 376 774.3 379 784 371.3C793.7 363.7 803.3 345.3 813 297.7C822.7 250 832.3 173 842 171.8C851.7 170.7 861.3 245.3 871 250C880.7 254.7 890.3 189.3 895.2 156.7L900 124L900 0L895.2 0C890.3 0 880.7 0 871 0C861.3 0 851.7 0 842 0C832.3 0 822.7 0 813 0C803.3 0 793.7 0 784 0C774.3 0 764.7 0 755 0C745.3 0 735.7 0 726 0C716.3 0 706.7 0 697 0C687.3 0 677.7 0 668 0C658.3 0 648.7 0 639 0C629.3 0 619.7 0 610 0C600.3 0 590.7 0 581 0C571.3 0 561.7 0 552 0C542.3 0 532.7 0 523 0C513.3 0 503.7 0 494 0C484.3 0 474.7 0 464.8 0C455 0 445 0 435.2 0C425.3 0 415.7 0 406 0C396.3 0 386.7 0 377 0C367.3 0 357.7 0 348 0C338.3 0 328.7 0 319 0C309.3 0 299.7 0 290 0C280.3 0 270.7 0 261 0C251.3 0 241.7 0 232 0C222.3 0 212.7 0 203 0C193.3 0 183.7 0 174 0C164.3 0 154.7 0 145 0C135.3 0 125.7 0 116 0C106.3 0 96.7 0 87 0C77.3 0 67.7 0 58 0C48.3 0 38.7 0 29 0C19.3 0 9.7 0 4.8 0L0 0Z" fill="#f1b6bc" stroke-linecap="round" stroke-linejoin="miter"></path></svg>