<?xml version="1.0" standalone="no"?><svg xmlns:xlink="http://www.w3.org/1999/xlink" xmlns="http://www.w3.org/2000/svg" viewBox="0 0 1000 600.0035821109379" preserveAspectRatio="xMaxYMax slice"><g transform="scale(0.8955277344939372)"><rect x="0" y="0" width="1116.6666666666667" height="670" fill="#FFFFFF"/><rect x="0" y="0" width="74.44" height="74.44" fill="#4764d6"/><path d="M 0 74.44 A 74.44 74.44 0 0 1  74.44 0 L 0 74.44 A 74.44 74.44 0 0 0 74.44 0" fill="#5c76db"/><rect x="74.44" y="0" width="74.44" height="74.44" fill="#d7ddf6"/><path d="M 74.44 74.44 A 74.44 74.44 0 0 1  148.88 0 L 148.88 74.44" fill="#748ae0"/><rect x="148.88888888888889" y="0" width="74.44444444444444" height="74.44444444444444" fill="#FFFFFF"/><rect x="148.89" y="0" width="37.22" height="37.22" fill="#e98d95"/><path d="M 148.89 37.22 A 37.22 37.22 0 0 1  186.10999999999999 0 L 186.10999999999999 37.22" fill="#6f85df"/><rect x="186.11" y="0" width="37.22" height="37.22" fill="#dd4f5d"/><path d="M 186.11 0 A 37.22 37.22 0 0 1 223.33 37.22 L 186.11 37.22" fill="#d5dcf6"/><rect x="148.89" y="37.22" width="37.22" height="37.22" fill="#b4c0ee"/><path d="M 148.89 37.22 A 37.22 37.22 0 0 0 186.10999999999999 74.44 L 186.10999999999999 37.22" fill="#c8d0f3"/><rect x="186.11" y="37.22" width="37.22" height="37.22" fill="#e47781"/><path d="M 186.11 74.44 A 37.22 37.22 0 0 1  223.33 37.22 L 186.11 74.44 A 37.22 37.22 0 0 0 223.33 37.22" fill="#d83949"/><rect x="223.33333333333331" y="0" width="74.44444444444444" height="74.44444444444444" fill="#FFFFFF"/><rect x="223.33" y="0" width="37.22" height="37.22" fill="#f4c6cb"/><path d="M 223.33 37.22 A 37.22 37.22 0 0 0 260.55 0 L 223.33 0" fill="#db4756"/><rect x="260.56" y="0" width="37.22" height="37.22" fill="#e98d96"/><path d="M 260.56 0 A 37.22 37.22 0 0 1 297.78 37.22 L 260.56 37.22" fill="#b1beee"/><rect x="223.33" y="37.22" width="37.22" height="37.22" fill="#e98e97"/><path d="M 223.33 74.44 A 37.22 37.22 0 0 0 260.55 37.22 L 223.33 37.22" fill="#d1d8f5"/><rect x="260.56" y="37.22" width="37.22" height="37.22" fill="#efacb3"/><path d="M 260.56 74.44 A 37.22 37.22 0 0 0 297.78 37.22 L 260.56 37.22" fill="#bfc9f1"/><rect x="297.77777777777777" y="0" width="74.44444444444444" height="74.44444444444444" fill="#FFFFFF"/><rect x="297.78" y="0" width="37.22" height="37.22" fill="#4d69d8"/><path d="M 297.78 37.22 A 37.22 37.22 0 0 1  335 0 L 335 37.22" fill="#dd515e"/><rect x="335" y="0" width="37.22" height="37.22" fill="#f9e1e4"/><path d="M 335 37.22 A 37.22 37.22 0 0 1  372.22 0 L 372.22 37.22" fill="#6b82de"/><rect x="297.78" y="37.22" width="37.22" height="37.22" fill="#f1b9be"/><path d="M 297.78 37.22 A 37.22 37.22 0 0 1 335 74.44 L 297.78 74.44" fill="#eff1fb"/><rect x="335" y="37.22" width="37.22" height="37.22" fill="#eb99a1"/><path d="M 335 37.22 A 37.22 37.22 0 0 1  372.22 74.44 L 335 37.22 A 37.22 37.22 0 0 0 372.22 74.44" fill="#d3daf5"/><rect x="372.22222222222223" y="0" width="74.44444444444444" height="74.44444444444444" fill="#FFFFFF"/><rect x="372.22" y="0" width="37.22" height="37.22" fill="#5670d9"/><path d="M 372.22 37.22 A 37.22 37.22 0 0 1  409.44000000000005 0 L 409.44000000000005 37.22" fill="#e0626e"/><rect x="409.44" y="0" width="37.22" height="37.22" fill="#b8c3ef"/><path d="M 409.44 37.22 A 37.22 37.22 0 0 0 446.65999999999997 0 L 409.44 0" fill="#8195e3"/><rect x="372.22" y="37.22" width="37.22" height="37.22" fill="#f3f5fc"/><path d="M 372.22 74.44 A 37.22 37.22 0 0 1  409.44000000000005 37.22 L 409.44000000000005 74.44" fill="#1d41cd"/><rect x="409.44" y="37.22" width="37.22" height="37.22" fill="#eb979f"/><path d="M 409.44 74.44 A 37.22 37.22 0 0 0 446.65999999999997 37.22 L 409.44 37.22" fill="#d52637"/><rect x="446.67" y="0" width="74.44" height="74.44" fill="#f4c7cc"/><path d="M 446.67 74.44 A 74.44 74.44 0 0 0 521.11 0 L 446.67 0" fill="#a5b3eb"/><rect x="521.11" y="0" width="74.44" height="74.44" fill="#eb99a1"/><path d="M 521.11 0 A 74.44 74.44 0 0 1 595.55 74.44 L 521.11 74.44" fill="#d21b2d"/><rect x="595.56" y="0" width="74.44" height="74.44" fill="#f8d9dc"/><path d="M 595.56 0 A 74.44 74.44 0 0 1 670 74.44 L 595.56 74.44" fill="#fafbfe"/><rect x="670" y="0" width="74.44444444444444" height="74.44444444444444" fill="#FFFFFF"/><rect x="670" y="0" width="37.22" height="37.22" fill="#9baae9"/><path d="M 670 0 A 37.22 37.22 0 0 0 707.22 37.22 L 707.22 0" fill="#fcf0f1"/><rect x="707.22" y="0" width="37.22" height="37.22" fill="#f0f3fc"/><path d="M 707.22 0 A 37.22 37.22 0 0 0 744.44 37.22 L 744.44 0" fill="#758ae0"/><rect x="670" y="37.22" width="37.22" height="37.22" fill="#e57984"/><path d="M 670 74.44 A 37.22 37.22 0 0 1  707.22 37.22 L 707.22 74.44" fill="#fbebed"/><rect x="707.22" y="37.22" width="37.22" height="37.22" fill="#e88b94"/><path d="M 707.22 37.22 A 37.22 37.22 0 0 0 744.44 74.44 L 744.44 37.22" fill="#e67d87"/><rect x="744.44" y="0" width="74.44" height="74.44" fill="#cdd5f4"/><path d="M 744.44 0 A 74.44 74.44 0 0 1  818.8800000000001 74.44 L 744.44 0 A 74.44 74.44 0 0 0 818.8800000000001 74.44" fill="#f8fafe"/><rect x="818.8888888888889" y="0" width="74.44444444444444" height="74.44444444444444" fill="#FFFFFF"/><rect x="818.89" y="0" width="37.22" height="37.22" fill="#f4c6cb"/><path d="M 818.89 0 A 37.22 37.22 0 0 1 856.11 37.22 L 818.89 37.22" fill="#f9e2e4"/><rect x="856.11" y="0" width="37.22" height="37.22" fill="#1e42cd"/><path d="M 856.11 0 A 37.22 37.22 0 0 1 893.33 37.22 L 856.11 37.22" fill="#efaeb5"/><rect x="818.89" y="37.22" width="37.22" height="37.22" fill="#e98e97"/><path d="M 818.89 37.22 A 37.22 37.22 0 0 0 856.11 74.44 L 856.11 37.22" fill="#8d9fe6"/><rect x="856.11" y="37.22" width="37.22" height="37.22" fill="#d73444"/><path d="M 856.11 74.44 A 37.22 37.22 0 0 0 893.33 37.22 L 856.11 37.22" fill="#284acf"/><rect x="893.3333333333333" y="0" width="74.44444444444444" height="74.44444444444444" fill="#FFFFFF"/><rect x="893.33" y="0" width="37.22" height="37.22" fill="#f7d7da"/><path d="M 893.33 0 A 37.22 37.22 0 0 1 930.5500000000001 37.22 L 893.33 37.22" fill="#f9e1e4"/><rect x="930.56" y="0" width="37.22" height="37.22" fill="#405ed5"/><path d="M 930.56 0 A 37.22 37.22 0 0 0 967.78 37.22 L 967.78 0" fill="#d42132"/><rect x="893.33" y="37.22" width="37.22" height="37.22" fill="#5973da"/><path d="M 893.33 37.22 A 37.22 37.22 0 0 1 930.5500000000001 74.44 L 893.33 74.44" fill="#efadb3"/><rect x="930.56" y="37.22" width="37.22" height="37.22" fill="#e88a93"/><path d="M 930.56 37.22 A 37.22 37.22 0 0 1  967.78 74.44 L 930.56 37.22 A 37.22 37.22 0 0 0 967.78 74.44" fill="#db4958"/><rect x="967.7777777777777" y="0" width="74.44444444444444" height="74.44444444444444" fill="#FFFFFF"/><rect x="967.78" y="0" width="37.22" height="37.22" fill="#2245ce"/><path d="M 967.78 37.22 A 37.22 37.22 0 0 1  1005 0 L 1005 37.22" fill="#3a59d3"/><rect x="1005" y="0" width="37.22" height="37.22" fill="#fae5e7"/><path d="M 1005 0 A 37.22 37.22 0 0 1  1042.22 37.22 L 1005 0 A 37.22 37.22 0 0 0 1042.22 37.22" fill="#e7848e"/><rect x="967.78" y="37.22" width="37.22" height="37.22" fill="#516cd8"/><path d="M 967.78 74.44 A 37.22 37.22 0 0 1  1005 37.22 L 1005 74.44" fill="#df5c69"/><rect x="1005" y="37.22" width="37.22" height="37.22" fill="#3a58d3"/><path d="M 1005 74.44 A 37.22 37.22 0 0 0 1042.22 37.22 L 1005 37.22" fill="#284acf"/><rect x="1042.22" y="0" width="74.44" height="74.44" fill="#4562d6"/><path d="M 1042.22 0 A 74.44 74.44 0 0 1 1116.66 74.44 L 1042.22 74.44" fill="#97a7e8"/><rect x="0" y="74.44" width="74.44" height="74.44" fill="#e7838c"/><path d="M 0 148.88 A 74.44 74.44 0 0 0 74.44 74.44 L 0 74.44" fill="#f8dadd"/><rect x="74.44" y="74.44" width="74.44" height="74.44" fill="#4864d6"/><path d="M 74.44 74.44 A 74.44 74.44 0 0 1  148.88 148.88 L 74.44 74.44 A 74.44 74.44 0 0 0 148.88 148.88" fill="#dae0f7"/><rect x="148.88888888888889" y="74.44444444444444" width="74.44444444444444" height="74.44444444444444" fill="#FFFFFF"/><rect x="148.89" y="74.44" width="37.22" height="37.22" fill="#d31e30"/><path d="M 148.89 74.44 A 37.22 37.22 0 0 0 186.10999999999999 111.66 L 186.10999999999999 74.44" fill="#4f6bd8"/><rect x="186.11" y="74.44" width="37.22" height="37.22" fill="#5a73da"/><path d="M 186.11 111.66 A 37.22 37.22 0 0 1  223.33 74.44 L 223.33 111.66" fill="#d52a3b"/><rect x="148.89" y="111.67" width="37.22" height="37.22" fill="#4360d5"/><path d="M 148.89 148.89 A 37.22 37.22 0 0 0 186.10999999999999 111.67 L 148.89 111.67" fill="#e3707b"/><rect x="186.11" y="111.67" width="37.22" height="37.22" fill="#f9dfe2"/><path d="M 186.11 111.67 A 37.22 37.22 0 0 1  223.33 148.89 L 186.11 111.67 A 37.22 37.22 0 0 0 223.33 148.89" fill="#95a6e8"/><rect x="223.33333333333331" y="74.44444444444444" width="74.44444444444444" height="74.44444444444444" fill="#FFFFFF"/><rect x="223.33" y="74.44" width="37.22" height="37.22" fill="#7086df"/><path d="M 223.33 111.66 A 37.22 37.22 0 0 0 260.55 74.44 L 223.33 74.44" fill="#f9e0e2"/><rect x="260.56" y="74.44" width="37.22" height="37.22" fill="#fdf4f5"/><path d="M 260.56 111.66 A 37.22 37.22 0 0 1  297.78 74.44 L 260.56 111.66 A 37.22 37.22 0 0 0 297.78 74.44" fill="#ea959d"/><rect x="223.33" y="111.67" width="37.22" height="37.22" fill="#df5d6a"/><path d="M 223.33 111.67 A 37.22 37.22 0 0 0 260.55 148.89 L 260.55 111.67" fill="#f8dadd"/><rect x="260.56" y="111.67" width="37.22" height="37.22" fill="#f7d4d7"/><path d="M 260.56 111.67 A 37.22 37.22 0 0 1  297.78 148.89 L 260.56 111.67 A 37.22 37.22 0 0 0 297.78 148.89" fill="#c9d1f3"/><rect x="297.78" y="74.44" width="74.44" height="74.44" fill="#f4f6fd"/><path d="M 297.78 148.88 A 74.44 74.44 0 0 1  372.21999999999997 74.44 L 297.78 148.88 A 74.44 74.44 0 0 0 372.21999999999997 74.44" fill="#d21a2c"/><rect x="372.22222222222223" y="74.44444444444444" width="74.44444444444444" height="74.44444444444444" fill="#FFFFFF"/><rect x="372.22" y="74.44" width="37.22" height="37.22" fill="#c7d0f3"/><path d="M 372.22 74.44 A 37.22 37.22 0 0 1 409.44000000000005 111.66 L 372.22 111.66" fill="#e47580"/><rect x="409.44" y="74.44" width="37.22" height="37.22" fill="#a6b4eb"/><path d="M 409.44 111.66 A 37.22 37.22 0 0 0 446.65999999999997 74.44 L 409.44 74.44" fill="#5b75db"/><rect x="372.22" y="111.67" width="37.22" height="37.22" fill="#adbaed"/><path d="M 372.22 111.67 A 37.22 37.22 0 0 0 409.44000000000005 148.89 L 409.44000000000005 111.67" fill="#f0b0b7"/><rect x="409.44" y="111.67" width="37.22" height="37.22" fill="#fceeef"/><path d="M 409.44 111.67 A 37.22 37.22 0 0 0 446.65999999999997 148.89 L 446.65999999999997 111.67" fill="#92a3e7"/><rect x="446.67" y="74.44" width="74.44" height="74.44" fill="#8fa1e6"/><path d="M 446.67 74.44 A 74.44 74.44 0 0 1  521.11 148.88 L 446.67 74.44 A 74.44 74.44 0 0 0 521.11 148.88" fill="#d21b2d"/><rect x="521.1111111111111" y="74.44444444444444" width="74.44444444444444" height="74.44444444444444" fill="#FFFFFF"/><rect x="521.11" y="74.44" width="37.22" height="37.22" fill="#f9e0e3"/><path d="M 521.11 111.66 A 37.22 37.22 0 0 1  558.33 74.44 L 521.11 111.66 A 37.22 37.22 0 0 0 558.33 74.44" fill="#8c9ee5"/><rect x="558.33" y="74.44" width="37.22" height="37.22" fill="#da4150"/><path d="M 558.33 74.44 A 37.22 37.22 0 0 1 595.5500000000001 111.66 L 558.33 111.66" fill="#ea949d"/><rect x="521.11" y="111.67" width="37.22" height="37.22" fill="#db4755"/><path d="M 521.11 111.67 A 37.22 37.22 0 0 1 558.33 148.89 L 521.11 148.89" fill="#284acf"/><rect x="558.33" y="111.67" width="37.22" height="37.22" fill="#f6d0d4"/><path d="M 558.33 111.67 A 37.22 37.22 0 0 1 595.5500000000001 148.89 L 558.33 148.89" fill="#6880dd"/><rect x="595.56" y="74.44" width="74.44" height="74.44" fill="#e57983"/><path d="M 595.56 74.44 A 74.44 74.44 0 0 1  670 148.88 L 595.56 74.44 A 74.44 74.44 0 0 0 670 148.88" fill="#415ed5"/><rect x="670" y="74.44" width="74.44" height="74.44" fill="#e7838d"/><path d="M 670 74.44 A 74.44 74.44 0 0 1 744.44 148.88 L 670 148.88" fill="#e1e5f8"/><rect x="744.44" y="74.44" width="74.44" height="74.44" fill="#eea9b0"/><path d="M 744.44 74.44 A 74.44 74.44 0 0 0 818.8800000000001 148.88 L 818.8800000000001 74.44" fill="#d31d2f"/><rect x="818.89" y="74.44" width="74.44" height="74.44" fill="#eb98a0"/><path d="M 818.89 74.44 A 74.44 74.44 0 0 1  893.3299999999999 148.88 L 818.89 74.44 A 74.44 74.44 0 0 0 893.3299999999999 148.88" fill="#da404f"/><rect x="893.3333333333333" y="74.44444444444444" width="74.44444444444444" height="74.44444444444444" fill="#FFFFFF"/><rect x="893.33" y="74.44" width="37.22" height="37.22" fill="#efacb2"/><path d="M 893.33 111.66 A 37.22 37.22 0 0 1  930.5500000000001 74.44 L 930.5500000000001 111.66" fill="#3e5cd4"/><rect x="930.56" y="74.44" width="37.22" height="37.22" fill="#f0b1b7"/><path d="M 930.56 111.66 A 37.22 37.22 0 0 0 967.78 74.44 L 930.56 74.44" fill="#7389e0"/><rect x="893.33" y="111.67" width="37.22" height="37.22" fill="#cbd3f3"/><path d="M 893.33 111.67 A 37.22 37.22 0 0 1  930.5500000000001 148.89 L 893.33 111.67 A 37.22 37.22 0 0 0 930.5500000000001 148.89" fill="#f4c7cb"/><rect x="930.56" y="111.67" width="37.22" height="37.22" fill="#d3daf5"/><path d="M 930.56 148.89 A 37.22 37.22 0 0 0 967.78 111.67 L 930.56 111.67" fill="#e26b77"/><rect x="967.7777777777777" y="74.44444444444444" width="74.44444444444444" height="74.44444444444444" fill="#FFFFFF"/><rect x="967.78" y="74.44" width="37.22" height="37.22" fill="#efacb2"/><path d="M 967.78 74.44 A 37.22 37.22 0 0 1  1005 111.66 L 967.78 74.44 A 37.22 37.22 0 0 0 1005 111.66" fill="#fdf4f5"/><rect x="1005" y="74.44" width="37.22" height="37.22" fill="#b3bfee"/><path d="M 1005 111.66 A 37.22 37.22 0 0 1  1042.22 74.44 L 1042.22 111.66" fill="#1d40cd"/><rect x="967.78" y="111.67" width="37.22" height="37.22" fill="#7389e0"/><path d="M 967.78 111.67 A 37.22 37.22 0 0 1 1005 148.89 L 967.78 148.89" fill="#d9dff7"/><rect x="1005" y="111.67" width="37.22" height="37.22" fill="#dd4f5d"/><path d="M 1005 111.67 A 37.22 37.22 0 0 1  1042.22 148.89 L 1005 111.67 A 37.22 37.22 0 0 0 1042.22 148.89" fill="#cfd7f4"/><rect x="1042.2222222222222" y="74.44444444444444" width="74.44444444444444" height="74.44444444444444" fill="#FFFFFF"/><rect x="1042.22" y="74.44" width="37.22" height="37.22" fill="#95a5e7"/><path d="M 1042.22 74.44 A 37.22 37.22 0 0 0 1079.44 111.66 L 1079.44 74.44" fill="#d83747"/><rect x="1079.44" y="74.44" width="37.22" height="37.22" fill="#7489e0"/><path d="M 1079.44 111.66 A 37.22 37.22 0 0 1  1116.66 74.44 L 1079.44 111.66 A 37.22 37.22 0 0 0 1116.66 74.44" fill="#d21b2d"/><rect x="1042.22" y="111.67" width="37.22" height="37.22" fill="#e4737e"/><path d="M 1042.22 111.67 A 37.22 37.22 0 0 1 1079.44 148.89 L 1042.22 148.89" fill="#768be1"/><rect x="1079.44" y="111.67" width="37.22" height="37.22" fill="#a0afea"/><path d="M 1079.44 111.67 A 37.22 37.22 0 0 0 1116.66 148.89 L 1116.66 111.67" fill="#f6d0d4"/><rect x="0" y="148.88888888888889" width="74.44444444444444" height="74.44444444444444" fill="#FFFFFF"/><rect x="0" y="148.89" width="37.22" height="37.22" fill="#e2e7f9"/><path d="M 0 186.10999999999999 A 37.22 37.22 0 0 1  37.22 148.89 L 37.22 186.10999999999999" fill="#5a74da"/><rect x="37.22" y="148.89" width="37.22" height="37.22" fill="#e0e5f8"/><path d="M 37.22 186.10999999999999 A 37.22 37.22 0 0 1  74.44 148.89 L 37.22 186.10999999999999 A 37.22 37.22 0 0 0 74.44 148.89" fill="#637bdc"/><rect x="0" y="186.11" width="37.22" height="37.22" fill="#415fd5"/><path d="M 0 186.11 A 37.22 37.22 0 0 1  37.22 223.33 L 0 186.11 A 37.22 37.22 0 0 0 37.22 223.33" fill="#7f93e3"/><rect x="37.22" y="186.11" width="37.22" height="37.22" fill="#8699e4"/><path d="M 37.22 223.33 A 37.22 37.22 0 0 1  74.44 186.11 L 37.22 223.33 A 37.22 37.22 0 0 0 74.44 186.11" fill="#1f42cd"/><rect x="74.44444444444444" y="148.88888888888889" width="74.44444444444444" height="74.44444444444444" fill="#FFFFFF"/><rect x="74.44" y="148.89" width="37.22" height="37.22" fill="#d42536"/><path d="M 74.44 148.89 A 37.22 37.22 0 0 1 111.66 186.10999999999999 L 74.44 186.10999999999999" fill="#4562d6"/><rect x="111.67" y="148.89" width="37.22" height="37.22" fill="#6880de"/><path d="M 111.67 148.89 A 37.22 37.22 0 0 1 148.89 186.10999999999999 L 111.67 186.10999999999999" fill="#eb98a0"/><rect x="74.44" y="186.11" width="37.22" height="37.22" fill="#657ddd"/><path d="M 74.44 223.33 A 37.22 37.22 0 0 0 111.66 186.11 L 74.44 186.11" fill="#eea6ad"/><rect x="111.67" y="186.11" width="37.22" height="37.22" fill="#9dace9"/><path d="M 111.67 186.11 A 37.22 37.22 0 0 1  148.89 223.33 L 111.67 186.11 A 37.22 37.22 0 0 0 148.89 223.33" fill="#98a8e8"/><rect x="148.89" y="148.89" width="74.44" height="74.44" fill="#da404f"/><path d="M 148.89 223.32999999999998 A 74.44 74.44 0 0 0 223.32999999999998 148.89 L 148.89 148.89" fill="#91a2e7"/><rect x="223.33" y="148.89" width="74.44" height="74.44" fill="#e16773"/><path d="M 223.33 148.89 A 74.44 74.44 0 0 1 297.77 223.32999999999998 L 223.33 223.32999999999998" fill="#b9c4ef"/><rect x="297.77777777777777" y="148.88888888888889" width="74.44444444444444" height="74.44444444444444" fill="#FFFFFF"/><rect x="297.78" y="148.89" width="37.22" height="37.22" fill="#c0caf1"/><path d="M 297.78 186.10999999999999 A 37.22 37.22 0 0 1  335 148.89 L 297.78 186.10999999999999 A 37.22 37.22 0 0 0 335 148.89" fill="#eda1a8"/><rect x="335" y="148.89" width="37.22" height="37.22" fill="#7389e0"/><path d="M 335 186.10999999999999 A 37.22 37.22 0 0 0 372.22 148.89 L 335 148.89" fill="#f3c1c6"/><rect x="297.78" y="186.11" width="37.22" height="37.22" fill="#2245ce"/><path d="M 297.78 186.11 A 37.22 37.22 0 0 1 335 223.33 L 297.78 223.33" fill="#95a6e8"/><rect x="335" y="186.11" width="37.22" height="37.22" fill="#d52637"/><path d="M 335 186.11 A 37.22 37.22 0 0 1  372.22 223.33 L 335 186.11 A 37.22 37.22 0 0 0 372.22 223.33" fill="#768be1"/><rect x="372.22222222222223" y="148.88888888888889" width="74.44444444444444" height="74.44444444444444" fill="#FFFFFF"/><rect x="372.22" y="148.89" width="37.22" height="37.22" fill="#d6dcf6"/><path d="M 372.22 148.89 A 37.22 37.22 0 0 0 409.44000000000005 186.10999999999999 L 409.44000000000005 148.89" fill="#c5cef2"/><rect x="409.44" y="148.89" width="37.22" height="37.22" fill="#e88790"/><path d="M 409.44 148.89 A 37.22 37.22 0 0 1 446.65999999999997 186.10999999999999 L 409.44 186.10999999999999" fill="#f8dcdf"/><rect x="372.22" y="186.11" width="37.22" height="37.22" fill="#dd515f"/><path d="M 372.22 223.33 A 37.22 37.22 0 0 1  409.44000000000005 186.11 L 409.44000000000005 223.33" fill="#98a8e8"/><rect x="409.44" y="186.11" width="37.22" height="37.22" fill="#dd5260"/><path d="M 409.44 223.33 A 37.22 37.22 0 0 0 446.65999999999997 186.11 L 409.44 186.11" fill="#bec8f1"/><rect x="446.66666666666663" y="148.88888888888889" width="74.44444444444444" height="74.44444444444444" fill="#FFFFFF"/><rect x="446.67" y="148.89" width="37.22" height="37.22" fill="#e26c77"/><path d="M 446.67 186.10999999999999 A 37.22 37.22 0 0 0 483.89 148.89 L 446.67 148.89" fill="#3857d3"/><rect x="483.89" y="148.89" width="37.22" height="37.22" fill="#ea939b"/><path d="M 483.89 148.89 A 37.22 37.22 0 0 1  521.11 186.10999999999999 L 483.89 148.89 A 37.22 37.22 0 0 0 521.11 186.10999999999999" fill="#e47781"/><rect x="446.67" y="186.11" width="37.22" height="37.22" fill="#7389e0"/><path d="M 446.67 223.33 A 37.22 37.22 0 0 1  483.89 186.11 L 446.67 223.33 A 37.22 37.22 0 0 0 483.89 186.11" fill="#db4856"/><rect x="483.89" y="186.11" width="37.22" height="37.22" fill="#d52737"/><path d="M 483.89 186.11 A 37.22 37.22 0 0 1  521.11 223.33 L 483.89 186.11 A 37.22 37.22 0 0 0 521.11 223.33" fill="#405ed5"/><rect x="521.1111111111111" y="148.88888888888889" width="74.44444444444444" height="74.44444444444444" fill="#FFFFFF"/><rect x="521.11" y="148.89" width="37.22" height="37.22" fill="#d1d9f5"/><path d="M 521.11 186.10999999999999 A 37.22 37.22 0 0 0 558.33 148.89 L 521.11 148.89" fill="#de5764"/><rect x="558.33" y="148.89" width="37.22" height="37.22" fill="#fae3e5"/><path d="M 558.33 148.89 A 37.22 37.22 0 0 0 595.5500000000001 186.10999999999999 L 595.5500000000001 148.89" fill="#f4c6ca"/><rect x="521.11" y="186.11" width="37.22" height="37.22" fill="#f2bcc1"/><path d="M 521.11 186.11 A 37.22 37.22 0 0 1 558.33 223.33 L 521.11 223.33" fill="#2c4dd0"/><rect x="558.33" y="186.11" width="37.22" height="37.22" fill="#f0f2fc"/><path d="M 558.33 186.11 A 37.22 37.22 0 0 1  595.5500000000001 223.33 L 558.33 186.11 A 37.22 37.22 0 0 0 595.5500000000001 223.33" fill="#d83545"/><rect x="595.5555555555555" y="148.88888888888889" width="74.44444444444444" height="74.44444444444444" fill="#FFFFFF"/><rect x="595.56" y="148.89" width="37.22" height="37.22" fill="#617adc"/><path d="M 595.56 148.89 A 37.22 37.22 0 0 1 632.78 186.10999999999999 L 595.56 186.10999999999999" fill="#ccd4f4"/><rect x="632.78" y="148.89" width="37.22" height="37.22" fill="#ea929a"/><path d="M 632.78 148.89 A 37.22 37.22 0 0 0 670 186.10999999999999 L 670 148.89" fill="#a2b1ea"/><rect x="595.56" y="186.11" width="37.22" height="37.22" fill="#ea929a"/><path d="M 595.56 223.33 A 37.22 37.22 0 0 1  632.78 186.11 L 595.56 223.33 A 37.22 37.22 0 0 0 632.78 186.11" fill="#fafbfe"/><rect x="632.78" y="186.11" width="37.22" height="37.22" fill="#f4c4c9"/><path d="M 632.78 186.11 A 37.22 37.22 0 0 1 670 223.33 L 632.78 223.33" fill="#fbe9eb"/><rect x="670" y="148.89" width="74.44" height="74.44" fill="#b9c4f0"/><path d="M 670 148.89 A 74.44 74.44 0 0 0 744.44 223.32999999999998 L 744.44 148.89" fill="#de5562"/><rect x="744.44" y="148.89" width="74.44" height="74.44" fill="#f2bbc0"/><path d="M 744.44 223.32999999999998 A 74.44 74.44 0 0 1  818.8800000000001 148.89 L 818.8800000000001 223.32999999999998" fill="#d73443"/><rect x="818.89" y="148.89" width="74.44" height="74.44" fill="#e26874"/><path d="M 818.89 148.89 A 74.44 74.44 0 0 1  893.3299999999999 223.32999999999998 L 818.89 148.89 A 74.44 74.44 0 0 0 893.3299999999999 223.32999999999998" fill="#b6c1ef"/><rect x="893.3333333333333" y="148.88888888888889" width="74.44444444444444" height="74.44444444444444" fill="#FFFFFF"/><rect x="893.33" y="148.89" width="37.22" height="37.22" fill="#cfd6f4"/><path d="M 893.33 148.89 A 37.22 37.22 0 0 1  930.5500000000001 186.10999999999999 L 893.33 148.89 A 37.22 37.22 0 0 0 930.5500000000001 186.10999999999999" fill="#1d40cd"/><rect x="930.56" y="148.89" width="37.22" height="37.22" fill="#fcedef"/><path d="M 930.56 186.10999999999999 A 37.22 37.22 0 0 1  967.78 148.89 L 930.56 186.10999999999999 A 37.22 37.22 0 0 0 967.78 148.89" fill="#5c76db"/><rect x="893.33" y="186.11" width="37.22" height="37.22" fill="#8195e3"/><path d="M 893.33 223.33 A 37.22 37.22 0 0 1  930.5500000000001 186.11 L 893.33 223.33 A 37.22 37.22 0 0 0 930.5500000000001 186.11" fill="#7c90e2"/><rect x="930.56" y="186.11" width="37.22" height="37.22" fill="#98a8e8"/><path d="M 930.56 223.33 A 37.22 37.22 0 0 1  967.78 186.11 L 967.78 223.33" fill="#9faeea"/><rect x="967.7777777777777" y="148.88888888888889" width="74.44444444444444" height="74.44444444444444" fill="#FFFFFF"/><rect x="967.78" y="148.89" width="37.22" height="37.22" fill="#93a4e7"/><path d="M 967.78 186.10999999999999 A 37.22 37.22 0 0 1  1005 148.89 L 967.78 186.10999999999999 A 37.22 37.22 0 0 0 1005 148.89" fill="#eeaab1"/><rect x="1005" y="148.89" width="37.22" height="37.22" fill="#e7838d"/><path d="M 1005 186.10999999999999 A 37.22 37.22 0 0 1  1042.22 148.89 L 1042.22 186.10999999999999" fill="#90a2e6"/><rect x="967.78" y="186.11" width="37.22" height="37.22" fill="#efaeb4"/><path d="M 967.78 186.11 A 37.22 37.22 0 0 0 1005 223.33 L 1005 186.11" fill="#3c5ad4"/><rect x="1005" y="186.11" width="37.22" height="37.22" fill="#d42233"/><path d="M 1005 223.33 A 37.22 37.22 0 0 1  1042.22 186.11 L 1005 223.33 A 37.22 37.22 0 0 0 1042.22 186.11" fill="#eb99a1"/><rect x="1042.22" y="148.89" width="74.44" height="74.44" fill="#7187df"/><path d="M 1042.22 148.89 A 74.44 74.44 0 0 0 1116.66 223.32999999999998 L 1116.66 148.89" fill="#d93c4b"/><rect x="0" y="223.33333333333331" width="74.44444444444444" height="74.44444444444444" fill="#FFFFFF"/><rect x="0" y="223.33" width="37.22" height="37.22" fill="#91a3e7"/><path d="M 0 260.55 A 37.22 37.22 0 0 0 37.22 223.33 L 0 223.33" fill="#e4e8f9"/><rect x="37.22" y="223.33" width="37.22" height="37.22" fill="#d3daf5"/><path d="M 37.22 223.33 A 37.22 37.22 0 0 1 74.44 260.55 L 37.22 260.55" fill="#e57882"/><rect x="0" y="260.56" width="37.22" height="37.22" fill="#3655d2"/><path d="M 0 297.78 A 37.22 37.22 0 0 1  37.22 260.56 L 37.22 297.78" fill="#dd4f5d"/><rect x="37.22" y="260.56" width="37.22" height="37.22" fill="#8497e4"/><path d="M 37.22 260.56 A 37.22 37.22 0 0 1  74.44 297.78 L 37.22 260.56 A 37.22 37.22 0 0 0 74.44 297.78" fill="#cfd6f4"/><rect x="74.44444444444444" y="223.33333333333331" width="74.44444444444444" height="74.44444444444444" fill="#FFFFFF"/><rect x="74.44" y="223.33" width="37.22" height="37.22" fill="#f3c0c5"/><path d="M 74.44 223.33 A 37.22 37.22 0 0 0 111.66 260.55 L 111.66 223.33" fill="#d31f30"/><rect x="111.67" y="223.33" width="37.22" height="37.22" fill="#3151d1"/><path d="M 111.67 260.55 A 37.22 37.22 0 0 0 148.89 223.33 L 111.67 223.33" fill="#abb9ec"/><rect x="74.44" y="260.56" width="37.22" height="37.22" fill="#6079dc"/><path d="M 74.44 260.56 A 37.22 37.22 0 0 0 111.66 297.78 L 111.66 260.56" fill="#8b9de5"/><rect x="111.67" y="260.56" width="37.22" height="37.22" fill="#6b82de"/><path d="M 111.67 297.78 A 37.22 37.22 0 0 0 148.89 260.56 L 111.67 260.56" fill="#2648cf"/><rect x="148.88888888888889" y="223.33333333333331" width="74.44444444444444" height="74.44444444444444" fill="#FFFFFF"/><rect x="148.89" y="223.33" width="37.22" height="37.22" fill="#fdf6f6"/><path d="M 148.89 223.33 A 37.22 37.22 0 0 1 186.10999999999999 260.55 L 148.89 260.55" fill="#1a3ecc"/><rect x="186.11" y="223.33" width="37.22" height="37.22" fill="#e57a84"/><path d="M 186.11 223.33 A 37.22 37.22 0 0 1  223.33 260.55 L 186.11 223.33 A 37.22 37.22 0 0 0 223.33 260.55" fill="#f0b5bb"/><rect x="148.89" y="260.56" width="37.22" height="37.22" fill="#3a59d3"/><path d="M 148.89 260.56 A 37.22 37.22 0 0 1  186.10999999999999 297.78 L 148.89 260.56 A 37.22 37.22 0 0 0 186.10999999999999 297.78" fill="#fef8f9"/><rect x="186.11" y="260.56" width="37.22" height="37.22" fill="#e99098"/><path d="M 186.11 297.78 A 37.22 37.22 0 0 1  223.33 260.56 L 186.11 297.78 A 37.22 37.22 0 0 0 223.33 260.56" fill="#f5ced2"/><rect x="223.33" y="223.33" width="74.44" height="74.44" fill="#eb9ba2"/><path d="M 223.33 297.77 A 74.44 74.44 0 0 1  297.77 223.33 L 297.77 297.77" fill="#eb98a0"/><rect x="297.77777777777777" y="223.33333333333331" width="74.44444444444444" height="74.44444444444444" fill="#FFFFFF"/><rect x="297.78" y="223.33" width="37.22" height="37.22" fill="#f1f3fc"/><path d="M 297.78 260.55 A 37.22 37.22 0 0 1  335 223.33 L 297.78 260.55 A 37.22 37.22 0 0 0 335 223.33" fill="#f1b6bc"/><rect x="335" y="223.33" width="37.22" height="37.22" fill="#f4c4c9"/><path d="M 335 260.55 A 37.22 37.22 0 0 1  372.22 223.33 L 372.22 260.55" fill="#bbc5f0"/><rect x="297.78" y="260.56" width="37.22" height="37.22" fill="#92a3e7"/><path d="M 297.78 297.78 A 37.22 37.22 0 0 1  335 260.56 L 335 297.78" fill="#dc4e5c"/><rect x="335" y="260.56" width="37.22" height="37.22" fill="#efadb4"/><path d="M 335 297.78 A 37.22 37.22 0 0 1  372.22 260.56 L 372.22 297.78" fill="#f7d6d9"/><rect x="372.22" y="223.33" width="74.44" height="74.44" fill="#8fa1e6"/><path d="M 372.22 297.77 A 74.44 74.44 0 0 1  446.66 223.33 L 372.22 297.77 A 74.44 74.44 0 0 0 446.66 223.33" fill="#9faeea"/><rect x="446.66666666666663" y="223.33333333333331" width="74.44444444444444" height="74.44444444444444" fill="#FFFFFF"/><rect x="446.67" y="223.33" width="37.22" height="37.22" fill="#526dd9"/><path d="M 446.67 223.33 A 37.22 37.22 0 0 0 483.89 260.55 L 483.89 223.33" fill="#a1b0ea"/><rect x="483.89" y="223.33" width="37.22" height="37.22" fill="#fffcfd"/><path d="M 483.89 223.33 A 37.22 37.22 0 0 0 521.11 260.55 L 521.11 223.33" fill="#3b5ad4"/><rect x="446.67" y="260.56" width="37.22" height="37.22" fill="#efafb5"/><path d="M 446.67 260.56 A 37.22 37.22 0 0 1 483.89 297.78 L 446.67 297.78" fill="#db4755"/><rect x="483.89" y="260.56" width="37.22" height="37.22" fill="#fef8f9"/><path d="M 483.89 297.78 A 37.22 37.22 0 0 0 521.11 260.56 L 483.89 260.56" fill="#b4c0ee"/><rect x="521.11" y="223.33" width="74.44" height="74.44" fill="#cad2f3"/><path d="M 521.11 297.77 A 74.44 74.44 0 0 0 595.55 223.33 L 521.11 223.33" fill="#1c3fcd"/><rect x="595.5555555555555" y="223.33333333333331" width="74.44444444444444" height="74.44444444444444" fill="#FFFFFF"/><rect x="595.56" y="223.33" width="37.22" height="37.22" fill="#dce1f7"/><path d="M 595.56 260.55 A 37.22 37.22 0 0 0 632.78 223.33 L 595.56 223.33" fill="#e9edfa"/><rect x="632.78" y="223.33" width="37.22" height="37.22" fill="#3353d2"/><path d="M 632.78 223.33 A 37.22 37.22 0 0 0 670 260.55 L 670 223.33" fill="#fbedee"/><rect x="595.56" y="260.56" width="37.22" height="37.22" fill="#dc4f5c"/><path d="M 595.56 260.56 A 37.22 37.22 0 0 1 632.78 297.78 L 595.56 297.78" fill="#e88b94"/><rect x="632.78" y="260.56" width="37.22" height="37.22" fill="#879ae4"/><path d="M 632.78 260.56 A 37.22 37.22 0 0 1  670 297.78 L 632.78 260.56 A 37.22 37.22 0 0 0 670 297.78" fill="#f7d4d7"/><rect x="670" y="223.33" width="74.44" height="74.44" fill="#d62b3c"/><path d="M 670 223.33 A 74.44 74.44 0 0 0 744.44 297.77 L 744.44 223.33" fill="#e6eafa"/><rect x="744.44" y="223.33" width="74.44" height="74.44" fill="#e7ebfa"/><path d="M 744.44 223.33 A 74.44 74.44 0 0 1 818.8800000000001 297.77 L 744.44 297.77" fill="#e0616d"/><rect x="818.8888888888889" y="223.33333333333331" width="74.44444444444444" height="74.44444444444444" fill="#FFFFFF"/><rect x="818.89" y="223.33" width="37.22" height="37.22" fill="#f4c4c9"/><path d="M 818.89 260.55 A 37.22 37.22 0 0 0 856.11 223.33 L 818.89 223.33" fill="#f0b2b8"/><rect x="856.11" y="223.33" width="37.22" height="37.22" fill="#f2bbc0"/><path d="M 856.11 260.55 A 37.22 37.22 0 0 1  893.33 223.33 L 893.33 260.55" fill="#f1b5bb"/><rect x="818.89" y="260.56" width="37.22" height="37.22" fill="#7489e0"/><path d="M 818.89 260.56 A 37.22 37.22 0 0 0 856.11 297.78 L 856.11 260.56" fill="#f0b3b9"/><rect x="856.11" y="260.56" width="37.22" height="37.22" fill="#b1beee"/><path d="M 856.11 297.78 A 37.22 37.22 0 0 0 893.33 260.56 L 856.11 260.56" fill="#d9dff7"/><rect x="893.3333333333333" y="223.33333333333331" width="74.44444444444444" height="74.44444444444444" fill="#FFFFFF"/><rect x="893.33" y="223.33" width="37.22" height="37.22" fill="#f5ccd0"/><path d="M 893.33 260.55 A 37.22 37.22 0 0 0 930.5500000000001 223.33 L 893.33 223.33" fill="#abb8ec"/><rect x="930.56" y="223.33" width="37.22" height="37.22" fill="#3555d2"/><path d="M 930.56 260.55 A 37.22 37.22 0 0 1  967.78 223.33 L 967.78 260.55" fill="#3050d1"/><rect x="893.33" y="260.56" width="37.22" height="37.22" fill="#637cdc"/><path d="M 893.33 297.78 A 37.22 37.22 0 0 1  930.5500000000001 260.56 L 893.33 297.78 A 37.22 37.22 0 0 0 930.5500000000001 260.56" fill="#d7ddf6"/><rect x="930.56" y="260.56" width="37.22" height="37.22" fill="#5e77db"/><path d="M 930.56 297.78 A 37.22 37.22 0 0 0 967.78 260.56 L 930.56 260.56" fill="#e2e7f9"/><rect x="967.78" y="223.33" width="74.44" height="74.44" fill="#e7838c"/><path d="M 967.78 223.33 A 74.44 74.44 0 0 1 1042.22 297.77 L 967.78 297.77" fill="#d62b3c"/><rect x="1042.2222222222222" y="223.33333333333331" width="74.44444444444444" height="74.44444444444444" fill="#FFFFFF"/><rect x="1042.22" y="223.33" width="37.22" height="37.22" fill="#3655d2"/><path d="M 1042.22 260.55 A 37.22 37.22 0 0 1  1079.44 223.33 L 1042.22 260.55 A 37.22 37.22 0 0 0 1079.44 223.33" fill="#7a8ee1"/><rect x="1079.44" y="223.33" width="37.22" height="37.22" fill="#f8d9dc"/><path d="M 1079.44 223.33 A 37.22 37.22 0 0 0 1116.66 260.55 L 1116.66 223.33" fill="#f0b1b7"/><rect x="1042.22" y="260.56" width="37.22" height="37.22" fill="#f2bcc1"/><path d="M 1042.22 297.78 A 37.22 37.22 0 0 1  1079.44 260.56 L 1042.22 297.78 A 37.22 37.22 0 0 0 1079.44 260.56" fill="#d31e30"/><rect x="1079.44" y="260.56" width="37.22" height="37.22" fill="#94a5e7"/><path d="M 1079.44 297.78 A 37.22 37.22 0 0 0 1116.66 260.56 L 1079.44 260.56" fill="#e4737e"/><rect x="0" y="297.77777777777777" width="74.44444444444444" height="74.44444444444444" fill="#FFFFFF"/><rect x="0" y="297.78" width="37.22" height="37.22" fill="#afbbed"/><path d="M 0 297.78 A 37.22 37.22 0 0 1  37.22 335 L 0 297.78 A 37.22 37.22 0 0 0 37.22 335" fill="#aab8ec"/><rect x="37.22" y="297.78" width="37.22" height="37.22" fill="#95a6e8"/><path d="M 37.22 335 A 37.22 37.22 0 0 1  74.44 297.78 L 37.22 335 A 37.22 37.22 0 0 0 74.44 297.78" fill="#f6d2d5"/><rect x="0" y="335" width="37.22" height="37.22" fill="#c4cdf2"/><path d="M 0 335 A 37.22 37.22 0 0 1 37.22 372.22 L 0 372.22" fill="#b2beee"/><rect x="37.22" y="335" width="37.22" height="37.22" fill="#f3c1c6"/><path d="M 37.22 335 A 37.22 37.22 0 0 0 74.44 372.22 L 74.44 335" fill="#1f42cd"/><rect x="74.44444444444444" y="297.77777777777777" width="74.44444444444444" height="74.44444444444444" fill="#FFFFFF"/><rect x="74.44" y="297.78" width="37.22" height="37.22" fill="#96a6e8"/><path d="M 74.44 297.78 A 37.22 37.22 0 0 1 111.66 335 L 74.44 335" fill="#3252d2"/><rect x="111.67" y="297.78" width="37.22" height="37.22" fill="#df5966"/><path d="M 111.67 335 A 37.22 37.22 0 0 1  148.89 297.78 L 148.89 335" fill="#415fd5"/><rect x="74.44" y="335" width="37.22" height="37.22" fill="#da4352"/><path d="M 74.44 372.22 A 37.22 37.22 0 0 1  111.66 335 L 74.44 372.22 A 37.22 37.22 0 0 0 111.66 335" fill="#e36f7a"/><rect x="111.67" y="335" width="37.22" height="37.22" fill="#f4f6fd"/><path d="M 111.67 372.22 A 37.22 37.22 0 0 0 148.89 335 L 111.67 335" fill="#f9e2e4"/><rect x="148.89" y="297.78" width="74.44" height="74.44" fill="#d5dcf6"/><path d="M 148.89 297.78 A 74.44 74.44 0 0 0 223.32999999999998 372.21999999999997 L 223.32999999999998 297.78" fill="#7c91e2"/><rect x="223.33333333333331" y="297.77777777777777" width="74.44444444444444" height="74.44444444444444" fill="#FFFFFF"/><rect x="223.33" y="297.78" width="37.22" height="37.22" fill="#e9ecfa"/><path d="M 223.33 297.78 A 37.22 37.22 0 0 1  260.55 335 L 223.33 297.78 A 37.22 37.22 0 0 0 260.55 335" fill="#dd515e"/><rect x="260.56" y="297.78" width="37.22" height="37.22" fill="#617adc"/><path d="M 260.56 297.78 A 37.22 37.22 0 0 1 297.78 335 L 260.56 335" fill="#96a6e8"/><rect x="223.33" y="335" width="37.22" height="37.22" fill="#acb9ed"/><path d="M 223.33 335 A 37.22 37.22 0 0 0 260.55 372.22 L 260.55 335" fill="#3655d2"/><rect x="260.56" y="335" width="37.22" height="37.22" fill="#da4150"/><path d="M 260.56 335 A 37.22 37.22 0 0 1 297.78 372.22 L 260.56 372.22" fill="#d73444"/><rect x="297.78" y="297.78" width="74.44" height="74.44" fill="#8799e4"/><path d="M 297.78 372.21999999999997 A 74.44 74.44 0 0 0 372.21999999999997 297.78 L 297.78 297.78" fill="#f2bec3"/><rect x="372.22" y="297.78" width="74.44" height="74.44" fill="#e6eaf9"/><path d="M 372.22 372.21999999999997 A 74.44 74.44 0 0 1  446.66 297.78 L 372.22 372.21999999999997 A 74.44 74.44 0 0 0 446.66 297.78" fill="#a6b4eb"/><rect x="446.66666666666663" y="297.77777777777777" width="74.44444444444444" height="74.44444444444444" fill="#FFFFFF"/><rect x="446.67" y="297.78" width="37.22" height="37.22" fill="#2447cf"/><path d="M 446.67 335 A 37.22 37.22 0 0 1  483.89 297.78 L 446.67 335 A 37.22 37.22 0 0 0 483.89 297.78" fill="#d42536"/><rect x="483.89" y="297.78" width="37.22" height="37.22" fill="#758be0"/><path d="M 483.89 297.78 A 37.22 37.22 0 0 0 521.11 335 L 521.11 297.78" fill="#de5462"/><rect x="446.67" y="335" width="37.22" height="37.22" fill="#96a6e8"/><path d="M 446.67 372.22 A 37.22 37.22 0 0 1  483.89 335 L 483.89 372.22" fill="#edeffb"/><rect x="483.89" y="335" width="37.22" height="37.22" fill="#fdf7f8"/><path d="M 483.89 335 A 37.22 37.22 0 0 0 521.11 372.22 L 521.11 335" fill="#eef1fb"/><rect x="521.11" y="297.78" width="74.44" height="74.44" fill="#778ce1"/><path d="M 521.11 297.78 A 74.44 74.44 0 0 0 595.55 372.21999999999997 L 595.55 297.78" fill="#d42334"/><rect x="595.56" y="297.78" width="74.44" height="74.44" fill="#f0b0b6"/><path d="M 595.56 372.21999999999997 A 74.44 74.44 0 0 1  670 297.78 L 670 372.21999999999997" fill="#d42234"/><rect x="670" y="297.78" width="74.44" height="74.44" fill="#e36e7a"/><path d="M 670 297.78 A 74.44 74.44 0 0 1 744.44 372.21999999999997 L 670 372.21999999999997" fill="#3655d2"/><rect x="744.44" y="297.78" width="74.44" height="74.44" fill="#f5ced2"/><path d="M 744.44 297.78 A 74.44 74.44 0 0 0 818.8800000000001 372.21999999999997 L 818.8800000000001 297.78" fill="#cbd3f3"/><rect x="818.89" y="297.78" width="74.44" height="74.44" fill="#3b59d3"/><path d="M 818.89 372.21999999999997 A 74.44 74.44 0 0 0 893.3299999999999 297.78 L 818.89 297.78" fill="#cfd6f4"/><rect x="893.33" y="297.78" width="74.44" height="74.44" fill="#5e77db"/><path d="M 893.33 297.78 A 74.44 74.44 0 0 1 967.77 372.21999999999997 L 893.33 372.21999999999997" fill="#c1caf1"/><rect x="967.7777777777777" y="297.77777777777777" width="74.44444444444444" height="74.44444444444444" fill="#FFFFFF"/><rect x="967.78" y="297.78" width="37.22" height="37.22" fill="#8a9ce5"/><path d="M 967.78 297.78 A 37.22 37.22 0 0 1 1005 335 L 967.78 335" fill="#5b74db"/><rect x="1005" y="297.78" width="37.22" height="37.22" fill="#df5b68"/><path d="M 1005 335 A 37.22 37.22 0 0 0 1042.22 297.78 L 1005 297.78" fill="#f9e2e4"/><rect x="967.78" y="335" width="37.22" height="37.22" fill="#efacb2"/><path d="M 967.78 335 A 37.22 37.22 0 0 1 1005 372.22 L 967.78 372.22" fill="#db4958"/><rect x="1005" y="335" width="37.22" height="37.22" fill="#3a59d3"/><path d="M 1005 372.22 A 37.22 37.22 0 0 1  1042.22 335 L 1005 372.22 A 37.22 37.22 0 0 0 1042.22 335" fill="#8497e4"/><rect x="1042.2222222222222" y="297.77777777777777" width="74.44444444444444" height="74.44444444444444" fill="#FFFFFF"/><rect x="1042.22" y="297.78" width="37.22" height="37.22" fill="#4663d6"/><path d="M 1042.22 335 A 37.22 37.22 0 0 1  1079.44 297.78 L 1079.44 335" fill="#da414f"/><rect x="1079.44" y="297.78" width="37.22" height="37.22" fill="#eb99a1"/><path d="M 1079.44 335 A 37.22 37.22 0 0 1  1116.66 297.78 L 1116.66 335" fill="#e1e5f8"/><rect x="1042.22" y="335" width="37.22" height="37.22" fill="#ea949c"/><path d="M 1042.22 372.22 A 37.22 37.22 0 0 1  1079.44 335 L 1079.44 372.22" fill="#d21b2d"/><rect x="1079.44" y="335" width="37.22" height="37.22" fill="#fae6e8"/><path d="M 1079.44 335 A 37.22 37.22 0 0 1 1116.66 372.22 L 1079.44 372.22" fill="#a4b2eb"/><rect x="0" y="372.22" width="74.44" height="74.44" fill="#eff2fc"/><path d="M 0 446.66 A 74.44 74.44 0 0 1  74.44 372.22 L 0 446.66 A 74.44 74.44 0 0 0 74.44 372.22" fill="#d93b4a"/><rect x="74.44444444444444" y="372.22222222222223" width="74.44444444444444" height="74.44444444444444" fill="#FFFFFF"/><rect x="74.44" y="372.22" width="37.22" height="37.22" fill="#536ed9"/><path d="M 74.44 372.22 A 37.22 37.22 0 0 1  111.66 409.44000000000005 L 74.44 372.22 A 37.22 37.22 0 0 0 111.66 409.44000000000005" fill="#f6d2d6"/><rect x="111.67" y="372.22" width="37.22" height="37.22" fill="#f3f5fc"/><path d="M 111.67 372.22 A 37.22 37.22 0 0 0 148.89 409.44000000000005 L 148.89 372.22" fill="#3c5ad4"/><rect x="74.44" y="409.44" width="37.22" height="37.22" fill="#8094e3"/><path d="M 74.44 446.65999999999997 A 37.22 37.22 0 0 1  111.66 409.44 L 111.66 446.65999999999997" fill="#da4150"/><rect x="111.67" y="409.44" width="37.22" height="37.22" fill="#193dcc"/><path d="M 111.67 409.44 A 37.22 37.22 0 0 1  148.89 446.65999999999997 L 111.67 409.44 A 37.22 37.22 0 0 0 148.89 446.65999999999997" fill="#da404f"/><rect x="148.89" y="372.22" width="74.44" height="74.44" fill="#eda2a9"/><path d="M 148.89 446.66 A 74.44 74.44 0 0 1  223.32999999999998 372.22 L 223.32999999999998 446.66" fill="#6f85df"/><rect x="223.33333333333331" y="372.22222222222223" width="74.44444444444444" height="74.44444444444444" fill="#FFFFFF"/><rect x="223.33" y="372.22" width="37.22" height="37.22" fill="#f8dbdd"/><path d="M 223.33 409.44000000000005 A 37.22 37.22 0 0 1  260.55 372.22 L 223.33 409.44000000000005 A 37.22 37.22 0 0 0 260.55 372.22" fill="#4a66d7"/><rect x="260.56" y="372.22" width="37.22" height="37.22" fill="#df5966"/><path d="M 260.56 372.22 A 37.22 37.22 0 0 1 297.78 409.44000000000005 L 260.56 409.44000000000005" fill="#637bdc"/><rect x="223.33" y="409.44" width="37.22" height="37.22" fill="#fbeced"/><path d="M 223.33 446.65999999999997 A 37.22 37.22 0 0 1  260.55 409.44 L 260.55 446.65999999999997" fill="#fcf1f2"/><rect x="260.56" y="409.44" width="37.22" height="37.22" fill="#97a7e8"/><path d="M 260.56 446.65999999999997 A 37.22 37.22 0 0 1  297.78 409.44 L 297.78 446.65999999999997" fill="#98a8e8"/><rect x="297.78" y="372.22" width="74.44" height="74.44" fill="#e57c86"/><path d="M 297.78 446.66 A 74.44 74.44 0 0 0 372.21999999999997 372.22 L 297.78 372.22" fill="#677fdd"/><rect x="372.22" y="372.22" width="74.44" height="74.44" fill="#4461d6"/><path d="M 372.22 446.66 A 74.44 74.44 0 0 1  446.66 372.22 L 446.66 446.66" fill="#df5966"/><rect x="446.66666666666663" y="372.22222222222223" width="74.44444444444444" height="74.44444444444444" fill="#FFFFFF"/><rect x="446.67" y="372.22" width="37.22" height="37.22" fill="#dde2f7"/><path d="M 446.67 409.44000000000005 A 37.22 37.22 0 0 0 483.89 372.22 L 446.67 372.22" fill="#eca0a8"/><rect x="483.89" y="372.22" width="37.22" height="37.22" fill="#f4c5c9"/><path d="M 483.89 372.22 A 37.22 37.22 0 0 1  521.11 409.44000000000005 L 483.89 372.22 A 37.22 37.22 0 0 0 521.11 409.44000000000005" fill="#d9dff7"/><rect x="446.67" y="409.44" width="37.22" height="37.22" fill="#d73142"/><path d="M 446.67 446.65999999999997 A 37.22 37.22 0 0 1  483.89 409.44 L 483.89 446.65999999999997" fill="#dc4a58"/><rect x="483.89" y="409.44" width="37.22" height="37.22" fill="#abb8ec"/><path d="M 483.89 446.65999999999997 A 37.22 37.22 0 0 1  521.11 409.44 L 483.89 446.65999999999997 A 37.22 37.22 0 0 0 521.11 409.44" fill="#d93a4a"/><rect x="521.1111111111111" y="372.22222222222223" width="74.44444444444444" height="74.44444444444444" fill="#FFFFFF"/><rect x="521.11" y="372.22" width="37.22" height="37.22" fill="#b5c0ef"/><path d="M 521.11 372.22 A 37.22 37.22 0 0 1  558.33 409.44000000000005 L 521.11 372.22 A 37.22 37.22 0 0 0 558.33 409.44000000000005" fill="#5e78db"/><rect x="558.33" y="372.22" width="37.22" height="37.22" fill="#ccd4f4"/><path d="M 558.33 409.44000000000005 A 37.22 37.22 0 0 0 595.5500000000001 372.22 L 558.33 372.22" fill="#5570d9"/><rect x="521.11" y="409.44" width="37.22" height="37.22" fill="#e6eafa"/><path d="M 521.11 409.44 A 37.22 37.22 0 0 0 558.33 446.65999999999997 L 558.33 409.44" fill="#d83a49"/><rect x="558.33" y="409.44" width="37.22" height="37.22" fill="#b6c2ef"/><path d="M 558.33 409.44 A 37.22 37.22 0 0 1 595.5500000000001 446.65999999999997 L 558.33 446.65999999999997" fill="#eeabb1"/><rect x="595.56" y="372.22" width="74.44" height="74.44" fill="#4461d5"/><path d="M 595.56 446.66 A 74.44 74.44 0 0 1  670 372.22 L 670 446.66" fill="#546fd9"/><rect x="670" y="372.22222222222223" width="74.44444444444444" height="74.44444444444444" fill="#FFFFFF"/><rect x="670" y="372.22" width="37.22" height="37.22" fill="#a8b6ec"/><path d="M 670 409.44000000000005 A 37.22 37.22 0 0 1  707.22 372.22 L 670 409.44000000000005 A 37.22 37.22 0 0 0 707.22 372.22" fill="#c1cbf1"/><rect x="707.22" y="372.22" width="37.22" height="37.22" fill="#748ae0"/><path d="M 707.22 409.44000000000005 A 37.22 37.22 0 0 1  744.44 372.22 L 707.22 409.44000000000005 A 37.22 37.22 0 0 0 744.44 372.22" fill="#677fdd"/><rect x="670" y="409.44" width="37.22" height="37.22" fill="#667edd"/><path d="M 670 446.65999999999997 A 37.22 37.22 0 0 0 707.22 409.44 L 670 409.44" fill="#7086df"/><rect x="707.22" y="409.44" width="37.22" height="37.22" fill="#d73444"/><path d="M 707.22 446.65999999999997 A 37.22 37.22 0 0 1  744.44 409.44 L 707.22 446.65999999999997 A 37.22 37.22 0 0 0 744.44 409.44" fill="#df5d6a"/><rect x="744.44" y="372.22" width="74.44" height="74.44" fill="#e6eafa"/><path d="M 744.44 446.66 A 74.44 74.44 0 0 0 818.8800000000001 372.22 L 744.44 372.22" fill="#adb9ed"/><rect x="818.8888888888889" y="372.22222222222223" width="74.44444444444444" height="74.44444444444444" fill="#FFFFFF"/><rect x="818.89" y="372.22" width="37.22" height="37.22" fill="#d7ddf6"/><path d="M 818.89 372.22 A 37.22 37.22 0 0 0 856.11 409.44000000000005 L 856.11 372.22" fill="#3b59d3"/><rect x="856.11" y="372.22" width="37.22" height="37.22" fill="#f8f9fd"/><path d="M 856.11 409.44000000000005 A 37.22 37.22 0 0 1  893.33 372.22 L 893.33 409.44000000000005" fill="#dc4b59"/><rect x="818.89" y="409.44" width="37.22" height="37.22" fill="#ea959d"/><path d="M 818.89 409.44 A 37.22 37.22 0 0 1  856.11 446.65999999999997 L 818.89 409.44 A 37.22 37.22 0 0 0 856.11 446.65999999999997" fill="#526dd9"/><rect x="856.11" y="409.44" width="37.22" height="37.22" fill="#e3727d"/><path d="M 856.11 446.65999999999997 A 37.22 37.22 0 0 0 893.33 409.44 L 856.11 409.44" fill="#e47782"/><rect x="893.33" y="372.22" width="74.44" height="74.44" fill="#d52a3b"/><path d="M 893.33 446.66 A 74.44 74.44 0 0 1  967.77 372.22 L 967.77 446.66" fill="#f6d0d4"/><rect x="967.7777777777777" y="372.22222222222223" width="74.44444444444444" height="74.44444444444444" fill="#FFFFFF"/><rect x="967.78" y="372.22" width="37.22" height="37.22" fill="#7a8fe1"/><path d="M 967.78 372.22 A 37.22 37.22 0 0 1 1005 409.44000000000005 L 967.78 409.44000000000005" fill="#294bd0"/><rect x="1005" y="372.22" width="37.22" height="37.22" fill="#3656d3"/><path d="M 1005 372.22 A 37.22 37.22 0 0 1  1042.22 409.44000000000005 L 1005 372.22 A 37.22 37.22 0 0 0 1042.22 409.44000000000005" fill="#efafb5"/><rect x="967.78" y="409.44" width="37.22" height="37.22" fill="#e3e7f9"/><path d="M 967.78 409.44 A 37.22 37.22 0 0 1  1005 446.65999999999997 L 967.78 409.44 A 37.22 37.22 0 0 0 1005 446.65999999999997" fill="#5872da"/><rect x="1005" y="409.44" width="37.22" height="37.22" fill="#efadb3"/><path d="M 1005 409.44 A 37.22 37.22 0 0 0 1042.22 446.65999999999997 L 1042.22 409.44" fill="#f7d4d8"/><rect x="1042.22" y="372.22" width="74.44" height="74.44" fill="#d83746"/><path d="M 1042.22 372.22 A 74.44 74.44 0 0 0 1116.66 446.66 L 1116.66 372.22" fill="#8094e3"/><rect x="0" y="446.67" width="74.44" height="74.44" fill="#c9d1f3"/><path d="M 0 446.67 A 74.44 74.44 0 0 1 74.44 521.11 L 0 521.11" fill="#fffdfd"/><rect x="74.44444444444444" y="446.66666666666663" width="74.44444444444444" height="74.44444444444444" fill="#FFFFFF"/><rect x="74.44" y="446.67" width="37.22" height="37.22" fill="#e26975"/><path d="M 74.44 483.89 A 37.22 37.22 0 0 1  111.66 446.67 L 111.66 483.89" fill="#4965d7"/><rect x="111.67" y="446.67" width="37.22" height="37.22" fill="#637bdc"/><path d="M 111.67 446.67 A 37.22 37.22 0 0 1 148.89 483.89 L 111.67 483.89" fill="#e57984"/><rect x="74.44" y="483.89" width="37.22" height="37.22" fill="#fae8ea"/><path d="M 74.44 483.89 A 37.22 37.22 0 0 0 111.66 521.11 L 111.66 483.89" fill="#db4756"/><rect x="111.67" y="483.89" width="37.22" height="37.22" fill="#e16470"/><path d="M 111.67 483.89 A 37.22 37.22 0 0 1 148.89 521.11 L 111.67 521.11" fill="#df5a67"/><rect x="148.89" y="446.67" width="74.44" height="74.44" fill="#677fdd"/><path d="M 148.89 521.11 A 74.44 74.44 0 0 1  223.32999999999998 446.67 L 148.89 521.11 A 74.44 74.44 0 0 0 223.32999999999998 446.67" fill="#6e85df"/><rect x="223.33" y="446.67" width="74.44" height="74.44" fill="#d63040"/><path d="M 223.33 446.67 A 74.44 74.44 0 0 1  297.77 521.11 L 223.33 446.67 A 74.44 74.44 0 0 0 297.77 521.11" fill="#f6f8fd"/><rect x="297.77777777777777" y="446.66666666666663" width="74.44444444444444" height="74.44444444444444" fill="#FFFFFF"/><rect x="297.78" y="446.67" width="37.22" height="37.22" fill="#e2e6f9"/><path d="M 297.78 483.89 A 37.22 37.22 0 0 0 335 446.67 L 297.78 446.67" fill="#fdf4f5"/><rect x="335" y="446.67" width="37.22" height="37.22" fill="#7a8fe2"/><path d="M 335 483.89 A 37.22 37.22 0 0 0 372.22 446.67 L 335 446.67" fill="#4965d7"/><rect x="297.78" y="483.89" width="37.22" height="37.22" fill="#f4f5fc"/><path d="M 297.78 521.11 A 37.22 37.22 0 0 1  335 483.89 L 297.78 521.11 A 37.22 37.22 0 0 0 335 483.89" fill="#e6eaf9"/><rect x="335" y="483.89" width="37.22" height="37.22" fill="#8093e3"/><path d="M 335 521.11 A 37.22 37.22 0 0 0 372.22 483.89 L 335 483.89" fill="#3b59d3"/><rect x="372.22222222222223" y="446.66666666666663" width="74.44444444444444" height="74.44444444444444" fill="#FFFFFF"/><rect x="372.22" y="446.67" width="37.22" height="37.22" fill="#e4737e"/><path d="M 372.22 483.89 A 37.22 37.22 0 0 0 409.44000000000005 446.67 L 372.22 446.67" fill="#2f4fd1"/><rect x="409.44" y="446.67" width="37.22" height="37.22" fill="#96a7e8"/><path d="M 409.44 483.89 A 37.22 37.22 0 0 0 446.65999999999997 446.67 L 409.44 446.67" fill="#5b74db"/><rect x="372.22" y="483.89" width="37.22" height="37.22" fill="#d4dbf6"/><path d="M 372.22 483.89 A 37.22 37.22 0 0 1 409.44000000000005 521.11 L 372.22 521.11" fill="#2749cf"/><rect x="409.44" y="483.89" width="37.22" height="37.22" fill="#f3c2c6"/><path d="M 409.44 521.11 A 37.22 37.22 0 0 1  446.65999999999997 483.89 L 409.44 521.11 A 37.22 37.22 0 0 0 446.65999999999997 483.89" fill="#e7848e"/><rect x="446.67" y="446.67" width="74.44" height="74.44" fill="#bbc6f0"/><path d="M 446.67 446.67 A 74.44 74.44 0 0 1  521.11 521.11 L 446.67 446.67 A 74.44 74.44 0 0 0 521.11 521.11" fill="#f7d7da"/><rect x="521.1111111111111" y="446.66666666666663" width="74.44444444444444" height="74.44444444444444" fill="#FFFFFF"/><rect x="521.11" y="446.67" width="37.22" height="37.22" fill="#2c4dd0"/><path d="M 521.11 446.67 A 37.22 37.22 0 0 1 558.33 483.89 L 521.11 483.89" fill="#f2bfc4"/><rect x="558.33" y="446.67" width="37.22" height="37.22" fill="#e5e9f9"/><path d="M 558.33 483.89 A 37.22 37.22 0 0 0 595.5500000000001 446.67 L 558.33 446.67" fill="#4966d7"/><rect x="521.11" y="483.89" width="37.22" height="37.22" fill="#adbaed"/><path d="M 521.11 521.11 A 37.22 37.22 0 0 0 558.33 483.89 L 521.11 483.89" fill="#eeaab1"/><rect x="558.33" y="483.89" width="37.22" height="37.22" fill="#4965d7"/><path d="M 558.33 521.11 A 37.22 37.22 0 0 1  595.5500000000001 483.89 L 558.33 521.11 A 37.22 37.22 0 0 0 595.5500000000001 483.89" fill="#f2f4fc"/><rect x="595.5555555555555" y="446.66666666666663" width="74.44444444444444" height="74.44444444444444" fill="#FFFFFF"/><rect x="595.56" y="446.67" width="37.22" height="37.22" fill="#e0626e"/><path d="M 595.56 483.89 A 37.22 37.22 0 0 1  632.78 446.67 L 595.56 483.89 A 37.22 37.22 0 0 0 632.78 446.67" fill="#bcc6f0"/><rect x="632.78" y="446.67" width="37.22" height="37.22" fill="#eb979f"/><path d="M 632.78 446.67 A 37.22 37.22 0 0 0 670 483.89 L 670 446.67" fill="#d83a49"/><rect x="595.56" y="483.89" width="37.22" height="37.22" fill="#d93c4b"/><path d="M 595.56 483.89 A 37.22 37.22 0 0 0 632.78 521.11 L 632.78 483.89" fill="#d83646"/><rect x="632.78" y="483.89" width="37.22" height="37.22" fill="#df5a67"/><path d="M 632.78 483.89 A 37.22 37.22 0 0 0 670 521.11 L 670 483.89" fill="#6880de"/><rect x="670" y="446.66666666666663" width="74.44444444444444" height="74.44444444444444" fill="#FFFFFF"/><rect x="670" y="446.67" width="37.22" height="37.22" fill="#9dace9"/><path d="M 670 483.89 A 37.22 37.22 0 0 0 707.22 446.67 L 670 446.67" fill="#e26975"/><rect x="707.22" y="446.67" width="37.22" height="37.22" fill="#d62e3e"/><path d="M 707.22 483.89 A 37.22 37.22 0 0 1  744.44 446.67 L 707.22 483.89 A 37.22 37.22 0 0 0 744.44 446.67" fill="#758be0"/><rect x="670" y="483.89" width="37.22" height="37.22" fill="#ec9ba3"/><path d="M 670 483.89 A 37.22 37.22 0 0 0 707.22 521.11 L 707.22 483.89" fill="#de5764"/><rect x="707.22" y="483.89" width="37.22" height="37.22" fill="#d52637"/><path d="M 707.22 521.11 A 37.22 37.22 0 0 1  744.44 483.89 L 744.44 521.11" fill="#7d91e2"/><rect x="744.4444444444445" y="446.66666666666663" width="74.44444444444444" height="74.44444444444444" fill="#FFFFFF"/><rect x="744.44" y="446.67" width="37.22" height="37.22" fill="#a8b6ec"/><path d="M 744.44 483.89 A 37.22 37.22 0 0 1  781.6600000000001 446.67 L 781.6600000000001 483.89" fill="#f3c0c5"/><rect x="781.67" y="446.67" width="37.22" height="37.22" fill="#acb9ed"/><path d="M 781.67 446.67 A 37.22 37.22 0 0 1  818.89 483.89 L 781.67 446.67 A 37.22 37.22 0 0 0 818.89 483.89" fill="#889be5"/><rect x="744.44" y="483.89" width="37.22" height="37.22" fill="#d6dcf6"/><path d="M 744.44 521.11 A 37.22 37.22 0 0 1  781.6600000000001 483.89 L 744.44 521.11 A 37.22 37.22 0 0 0 781.6600000000001 483.89" fill="#9dace9"/><rect x="781.67" y="483.89" width="37.22" height="37.22" fill="#f8dbde"/><path d="M 781.67 521.11 A 37.22 37.22 0 0 0 818.89 483.89 L 781.67 483.89" fill="#8397e4"/><rect x="818.8888888888889" y="446.66666666666663" width="74.44444444444444" height="74.44444444444444" fill="#FFFFFF"/><rect x="818.89" y="446.67" width="37.22" height="37.22" fill="#df5e6a"/><path d="M 818.89 483.89 A 37.22 37.22 0 0 1  856.11 446.67 L 856.11 483.89" fill="#df5b68"/><rect x="856.11" y="446.67" width="37.22" height="37.22" fill="#e0616d"/><path d="M 856.11 446.67 A 37.22 37.22 0 0 0 893.33 483.89 L 893.33 446.67" fill="#93a4e7"/><rect x="818.89" y="483.89" width="37.22" height="37.22" fill="#ea959d"/><path d="M 818.89 521.11 A 37.22 37.22 0 0 1  856.11 483.89 L 818.89 521.11 A 37.22 37.22 0 0 0 856.11 483.89" fill="#cbd3f4"/><rect x="856.11" y="483.89" width="37.22" height="37.22" fill="#eea6ad"/><path d="M 856.11 483.89 A 37.22 37.22 0 0 0 893.33 521.11 L 893.33 483.89" fill="#e57c86"/><rect x="893.3333333333333" y="446.66666666666663" width="74.44444444444444" height="74.44444444444444" fill="#FFFFFF"/><rect x="893.33" y="446.67" width="37.22" height="37.22" fill="#eda1a8"/><path d="M 893.33 446.67 A 37.22 37.22 0 0 1  930.5500000000001 483.89 L 893.33 446.67 A 37.22 37.22 0 0 0 930.5500000000001 483.89" fill="#3b59d3"/><rect x="930.56" y="446.67" width="37.22" height="37.22" fill="#eca0a8"/><path d="M 930.56 483.89 A 37.22 37.22 0 0 1  967.78 446.67 L 967.78 483.89" fill="#eaedfa"/><rect x="893.33" y="483.89" width="37.22" height="37.22" fill="#f7d4d8"/><path d="M 893.33 521.11 A 37.22 37.22 0 0 0 930.5500000000001 483.89 L 893.33 483.89" fill="#d83848"/><rect x="930.56" y="483.89" width="37.22" height="37.22" fill="#94a5e7"/><path d="M 930.56 483.89 A 37.22 37.22 0 0 1 967.78 521.11 L 930.56 521.11" fill="#e26a76"/><rect x="967.7777777777777" y="446.66666666666663" width="74.44444444444444" height="74.44444444444444" fill="#FFFFFF"/><rect x="967.78" y="446.67" width="37.22" height="37.22" fill="#fcfcfe"/><path d="M 967.78 446.67 A 37.22 37.22 0 0 1 1005 483.89 L 967.78 483.89" fill="#2547cf"/><rect x="1005" y="446.67" width="37.22" height="37.22" fill="#db4654"/><path d="M 1005 483.89 A 37.22 37.22 0 0 1  1042.22 446.67 L 1042.22 483.89" fill="#d93f4e"/><rect x="967.78" y="483.89" width="37.22" height="37.22" fill="#f8dde0"/><path d="M 967.78 521.11 A 37.22 37.22 0 0 0 1005 483.89 L 967.78 483.89" fill="#2d4dd0"/><rect x="1005" y="483.89" width="37.22" height="37.22" fill="#afbced"/><path d="M 1005 483.89 A 37.22 37.22 0 0 0 1042.22 521.11 L 1042.22 483.89" fill="#4b67d7"/><rect x="1042.2222222222222" y="446.66666666666663" width="74.44444444444444" height="74.44444444444444" fill="#FFFFFF"/><rect x="1042.22" y="446.67" width="37.22" height="37.22" fill="#cbd3f4"/><path d="M 1042.22 446.67 A 37.22 37.22 0 0 0 1079.44 483.89 L 1079.44 446.67" fill="#dc4a58"/><rect x="1079.44" y="446.67" width="37.22" height="37.22" fill="#feffff"/><path d="M 1079.44 446.67 A 37.22 37.22 0 0 1 1116.66 483.89 L 1079.44 483.89" fill="#d73141"/><rect x="1042.22" y="483.89" width="37.22" height="37.22" fill="#f2bdc2"/><path d="M 1042.22 483.89 A 37.22 37.22 0 0 1 1079.44 521.11 L 1042.22 521.11" fill="#fbfcfe"/><rect x="1079.44" y="483.89" width="37.22" height="37.22" fill="#d6ddf6"/><path d="M 1079.44 521.11 A 37.22 37.22 0 0 0 1116.66 483.89 L 1079.44 483.89" fill="#cbd3f3"/><rect x="0" y="521.11" width="74.44" height="74.44" fill="#eb979f"/><path d="M 0 521.11 A 74.44 74.44 0 0 1  74.44 595.55 L 0 521.11 A 74.44 74.44 0 0 0 74.44 595.55" fill="#e98e97"/><rect x="74.44" y="521.11" width="74.44" height="74.44" fill="#d4dbf5"/><path d="M 74.44 521.11 A 74.44 74.44 0 0 1 148.88 595.55 L 74.44 595.55" fill="#eb9ba3"/><rect x="148.88888888888889" y="521.1111111111111" width="74.44444444444444" height="74.44444444444444" fill="#FFFFFF"/><rect x="148.89" y="521.11" width="37.22" height="37.22" fill="#e1e5f8"/><path d="M 148.89 521.11 A 37.22 37.22 0 0 1  186.10999999999999 558.33 L 148.89 521.11 A 37.22 37.22 0 0 0 186.10999999999999 558.33" fill="#dd4f5d"/><rect x="186.11" y="521.11" width="37.22" height="37.22" fill="#fcfdfe"/><path d="M 186.11 558.33 A 37.22 37.22 0 0 1  223.33 521.11 L 223.33 558.33" fill="#d1d9f5"/><rect x="148.89" y="558.33" width="37.22" height="37.22" fill="#3151d1"/><path d="M 148.89 595.5500000000001 A 37.22 37.22 0 0 0 186.10999999999999 558.33 L 148.89 558.33" fill="#acb9ed"/><rect x="186.11" y="558.33" width="37.22" height="37.22" fill="#8497e4"/><path d="M 186.11 558.33 A 37.22 37.22 0 0 0 223.33 595.5500000000001 L 223.33 558.33" fill="#3454d2"/><rect x="223.33" y="521.11" width="74.44" height="74.44" fill="#eda3aa"/><path d="M 223.33 521.11 A 74.44 74.44 0 0 0 297.77 595.55 L 297.77 521.11" fill="#dd5361"/><rect x="297.78" y="521.11" width="74.44" height="74.44" fill="#899be5"/><path d="M 297.78 595.55 A 74.44 74.44 0 0 1  372.21999999999997 521.11 L 372.21999999999997 595.55" fill="#637bdc"/><rect x="372.22222222222223" y="521.1111111111111" width="74.44444444444444" height="74.44444444444444" fill="#FFFFFF"/><rect x="372.22" y="521.11" width="37.22" height="37.22" fill="#f7d8db"/><path d="M 372.22 558.33 A 37.22 37.22 0 0 1  409.44000000000005 521.11 L 372.22 558.33 A 37.22 37.22 0 0 0 409.44000000000005 521.11" fill="#d1d8f5"/><rect x="409.44" y="521.11" width="37.22" height="37.22" fill="#e67d87"/><path d="M 409.44 521.11 A 37.22 37.22 0 0 1  446.65999999999997 558.33 L 409.44 521.11 A 37.22 37.22 0 0 0 446.65999999999997 558.33" fill="#eb979f"/><rect x="372.22" y="558.33" width="37.22" height="37.22" fill="#e99098"/><path d="M 372.22 558.33 A 37.22 37.22 0 0 1  409.44000000000005 595.5500000000001 L 372.22 558.33 A 37.22 37.22 0 0 0 409.44000000000005 595.5500000000001" fill="#c5cef2"/><rect x="409.44" y="558.33" width="37.22" height="37.22" fill="#da4453"/><path d="M 409.44 558.33 A 37.22 37.22 0 0 0 446.65999999999997 595.5500000000001 L 446.65999999999997 558.33" fill="#8fa0e6"/><rect x="446.67" y="521.11" width="74.44" height="74.44" fill="#9dace9"/><path d="M 446.67 595.55 A 74.44 74.44 0 0 1  521.11 521.11 L 446.67 595.55 A 74.44 74.44 0 0 0 521.11 521.11" fill="#d3daf5"/><rect x="521.1111111111111" y="521.1111111111111" width="74.44444444444444" height="74.44444444444444" fill="#FFFFFF"/><rect x="521.11" y="521.11" width="37.22" height="37.22" fill="#fae4e6"/><path d="M 521.11 558.33 A 37.22 37.22 0 0 0 558.33 521.11 L 521.11 521.11" fill="#e16571"/><rect x="558.33" y="521.11" width="37.22" height="37.22" fill="#3f5dd4"/><path d="M 558.33 558.33 A 37.22 37.22 0 0 0 595.5500000000001 521.11 L 558.33 521.11" fill="#ec9fa6"/><rect x="521.11" y="558.33" width="37.22" height="37.22" fill="#efacb2"/><path d="M 521.11 558.33 A 37.22 37.22 0 0 0 558.33 595.5500000000001 L 558.33 558.33" fill="#efadb4"/><rect x="558.33" y="558.33" width="37.22" height="37.22" fill="#e4747f"/><path d="M 558.33 558.33 A 37.22 37.22 0 0 1 595.5500000000001 595.5500000000001 L 558.33 595.5500000000001" fill="#eff2fc"/><rect x="595.5555555555555" y="521.1111111111111" width="74.44444444444444" height="74.44444444444444" fill="#FFFFFF"/><rect x="595.56" y="521.11" width="37.22" height="37.22" fill="#eb98a0"/><path d="M 595.56 558.33 A 37.22 37.22 0 0 1  632.78 521.11 L 595.56 558.33 A 37.22 37.22 0 0 0 632.78 521.11" fill="#2d4ed0"/><rect x="632.78" y="521.11" width="37.22" height="37.22" fill="#fefafb"/><path d="M 632.78 521.11 A 37.22 37.22 0 0 1 670 558.33 L 632.78 558.33" fill="#fffefe"/><rect x="595.56" y="558.33" width="37.22" height="37.22" fill="#e7838d"/><path d="M 595.56 595.5500000000001 A 37.22 37.22 0 0 1  632.78 558.33 L 595.56 595.5500000000001 A 37.22 37.22 0 0 0 632.78 558.33" fill="#8598e4"/><rect x="632.78" y="558.33" width="37.22" height="37.22" fill="#b2beee"/><path d="M 632.78 558.33 A 37.22 37.22 0 0 1  670 595.5500000000001 L 632.78 558.33 A 37.22 37.22 0 0 0 670 595.5500000000001" fill="#dd5361"/><rect x="670" y="521.1111111111111" width="74.44444444444444" height="74.44444444444444" fill="#FFFFFF"/><rect x="670" y="521.11" width="37.22" height="37.22" fill="#e0e5f8"/><path d="M 670 558.33 A 37.22 37.22 0 0 0 707.22 521.11 L 670 521.11" fill="#506cd8"/><rect x="707.22" y="521.11" width="37.22" height="37.22" fill="#e7838d"/><path d="M 707.22 521.11 A 37.22 37.22 0 0 0 744.44 558.33 L 744.44 521.11" fill="#b8c3ef"/><rect x="670" y="558.33" width="37.22" height="37.22" fill="#546ed9"/><path d="M 670 595.5500000000001 A 37.22 37.22 0 0 1  707.22 558.33 L 707.22 595.5500000000001" fill="#ea929b"/><rect x="707.22" y="558.33" width="37.22" height="37.22" fill="#4764d6"/><path d="M 707.22 558.33 A 37.22 37.22 0 0 1 744.44 595.5500000000001 L 707.22 595.5500000000001" fill="#e7848e"/><rect x="744.4444444444445" y="521.1111111111111" width="74.44444444444444" height="74.44444444444444" fill="#FFFFFF"/><rect x="744.44" y="521.11" width="37.22" height="37.22" fill="#bac5f0"/><path d="M 744.44 558.33 A 37.22 37.22 0 0 1  781.6600000000001 521.11 L 744.44 558.33 A 37.22 37.22 0 0 0 781.6600000000001 521.11" fill="#e0e5f8"/><rect x="781.67" y="521.11" width="37.22" height="37.22" fill="#e7858f"/><path d="M 781.67 558.33 A 37.22 37.22 0 0 1  818.89 521.11 L 781.67 558.33 A 37.22 37.22 0 0 0 818.89 521.11" fill="#d62d3e"/><rect x="744.44" y="558.33" width="37.22" height="37.22" fill="#eda1a9"/><path d="M 744.44 595.5500000000001 A 37.22 37.22 0 0 0 781.6600000000001 558.33 L 744.44 558.33" fill="#95a5e7"/><rect x="781.67" y="558.33" width="37.22" height="37.22" fill="#6980de"/><path d="M 781.67 595.5500000000001 A 37.22 37.22 0 0 1  818.89 558.33 L 818.89 595.5500000000001" fill="#de5663"/><rect x="818.89" y="521.11" width="74.44" height="74.44" fill="#8fa1e6"/><path d="M 818.89 595.55 A 74.44 74.44 0 0 1  893.3299999999999 521.11 L 893.3299999999999 595.55" fill="#f4c7cb"/><rect x="893.33" y="521.11" width="74.44" height="74.44" fill="#f5ccd0"/><path d="M 893.33 521.11 A 74.44 74.44 0 0 1  967.77 595.55 L 893.33 521.11 A 74.44 74.44 0 0 0 967.77 595.55" fill="#f5cace"/><rect x="967.78" y="521.11" width="74.44" height="74.44" fill="#e3717c"/><path d="M 967.78 595.55 A 74.44 74.44 0 0 1  1042.22 521.11 L 967.78 595.55 A 74.44 74.44 0 0 0 1042.22 521.11" fill="#f2bac0"/><rect x="1042.2222222222222" y="521.1111111111111" width="74.44444444444444" height="74.44444444444444" fill="#FFFFFF"/><rect x="1042.22" y="521.11" width="37.22" height="37.22" fill="#c6cff2"/><path d="M 1042.22 521.11 A 37.22 37.22 0 0 1  1079.44 558.33 L 1042.22 521.11 A 37.22 37.22 0 0 0 1079.44 558.33" fill="#d73141"/><rect x="1079.44" y="521.11" width="37.22" height="37.22" fill="#efadb3"/><path d="M 1079.44 558.33 A 37.22 37.22 0 0 1  1116.66 521.11 L 1079.44 558.33 A 37.22 37.22 0 0 0 1116.66 521.11" fill="#2849cf"/><rect x="1042.22" y="558.33" width="37.22" height="37.22" fill="#506cd8"/><path d="M 1042.22 558.33 A 37.22 37.22 0 0 1 1079.44 595.5500000000001 L 1042.22 595.5500000000001" fill="#e6828b"/><rect x="1079.44" y="558.33" width="37.22" height="37.22" fill="#f5cace"/><path d="M 1079.44 558.33 A 37.22 37.22 0 0 1  1116.66 595.5500000000001 L 1079.44 558.33 A 37.22 37.22 0 0 0 1116.66 595.5500000000001" fill="#e5e9f9"/><rect x="0" y="595.5555555555555" width="74.44444444444444" height="74.44444444444444" fill="#FFFFFF"/><rect x="0" y="595.56" width="37.22" height="37.22" fill="#d6dcf6"/><path d="M 0 595.56 A 37.22 37.22 0 0 0 37.22 632.78 L 37.22 595.56" fill="#ea939b"/><rect x="37.22" y="595.56" width="37.22" height="37.22" fill="#f0b2b8"/><path d="M 37.22 595.56 A 37.22 37.22 0 0 0 74.44 632.78 L 74.44 595.56" fill="#fbe8ea"/><rect x="0" y="632.78" width="37.22" height="37.22" fill="#db4554"/><path d="M 0 670 A 37.22 37.22 0 0 1  37.22 632.78 L 0 670 A 37.22 37.22 0 0 0 37.22 632.78" fill="#efb0b6"/><rect x="37.22" y="632.78" width="37.22" height="37.22" fill="#e6818b"/><path d="M 37.22 632.78 A 37.22 37.22 0 0 0 74.44 670 L 74.44 632.78" fill="#e7838c"/><rect x="74.44" y="595.56" width="74.44" height="74.44" fill="#d73343"/><path d="M 74.44 670 A 74.44 74.44 0 0 0 148.88 595.56 L 74.44 595.56" fill="#d5293a"/><rect x="148.89" y="595.56" width="74.44" height="74.44" fill="#f5cbcf"/><path d="M 148.89 670 A 74.44 74.44 0 0 1  223.32999999999998 595.56 L 148.89 670 A 74.44 74.44 0 0 0 223.32999999999998 595.56" fill="#feffff"/><rect x="223.33" y="595.56" width="74.44" height="74.44" fill="#fae3e5"/><path d="M 223.33 670 A 74.44 74.44 0 0 0 297.77 595.56 L 223.33 595.56" fill="#6d84df"/><rect x="297.77777777777777" y="595.5555555555555" width="74.44444444444444" height="74.44444444444444" fill="#FFFFFF"/><rect x="297.78" y="595.56" width="37.22" height="37.22" fill="#b5c1ef"/><path d="M 297.78 632.78 A 37.22 37.22 0 0 0 335 595.56 L 297.78 595.56" fill="#e88891"/><rect x="335" y="595.56" width="37.22" height="37.22" fill="#e98e97"/><path d="M 335 632.78 A 37.22 37.22 0 0 1  372.22 595.56 L 335 632.78 A 37.22 37.22 0 0 0 372.22 595.56" fill="#fef9fa"/><rect x="297.78" y="632.78" width="37.22" height="37.22" fill="#e0e5f8"/><path d="M 297.78 670 A 37.22 37.22 0 0 1  335 632.78 L 297.78 670 A 37.22 37.22 0 0 0 335 632.78" fill="#f4c8cd"/><rect x="335" y="632.78" width="37.22" height="37.22" fill="#f6d1d4"/><path d="M 335 632.78 A 37.22 37.22 0 0 1  372.22 670 L 335 632.78 A 37.22 37.22 0 0 0 372.22 670" fill="#c2ccf1"/><rect x="372.22222222222223" y="595.5555555555555" width="74.44444444444444" height="74.44444444444444" fill="#FFFFFF"/><rect x="372.22" y="595.56" width="37.22" height="37.22" fill="#e47681"/><path d="M 372.22 595.56 A 37.22 37.22 0 0 1 409.44000000000005 632.78 L 372.22 632.78" fill="#fdf5f6"/><rect x="409.44" y="595.56" width="37.22" height="37.22" fill="#8d9fe6"/><path d="M 409.44 595.56 A 37.22 37.22 0 0 1  446.65999999999997 632.78 L 409.44 595.56 A 37.22 37.22 0 0 0 446.65999999999997 632.78" fill="#bac5f0"/><rect x="372.22" y="632.78" width="37.22" height="37.22" fill="#284acf"/><path d="M 372.22 670 A 37.22 37.22 0 0 1  409.44000000000005 632.78 L 372.22 670 A 37.22 37.22 0 0 0 409.44000000000005 632.78" fill="#db4553"/><rect x="409.44" y="632.78" width="37.22" height="37.22" fill="#2244ce"/><path d="M 409.44 632.78 A 37.22 37.22 0 0 1 446.65999999999997 670 L 409.44 670" fill="#e6808a"/><rect x="446.67" y="595.56" width="74.44" height="74.44" fill="#3655d2"/><path d="M 446.67 670 A 74.44 74.44 0 0 0 521.11 595.56 L 446.67 595.56" fill="#2345ce"/><rect x="521.11" y="595.56" width="74.44" height="74.44" fill="#8296e3"/><path d="M 521.11 670 A 74.44 74.44 0 0 0 595.55 595.56 L 521.11 595.56" fill="#f3c1c6"/><rect x="595.56" y="595.56" width="74.44" height="74.44" fill="#d42536"/><path d="M 595.56 670 A 74.44 74.44 0 0 0 670 595.56 L 595.56 595.56" fill="#f3c2c7"/><rect x="670" y="595.56" width="74.44" height="74.44" fill="#e3e8f9"/><path d="M 670 595.56 A 74.44 74.44 0 0 1  744.44 670 L 670 595.56 A 74.44 74.44 0 0 0 744.44 670" fill="#758be0"/><rect x="744.44" y="595.56" width="74.44" height="74.44" fill="#de5562"/><path d="M 744.44 595.56 A 74.44 74.44 0 0 1  818.8800000000001 670 L 744.44 595.56 A 74.44 74.44 0 0 0 818.8800000000001 670" fill="#efacb2"/><rect x="818.8888888888889" y="595.5555555555555" width="74.44444444444444" height="74.44444444444444" fill="#FFFFFF"/><rect x="818.89" y="595.56" width="37.22" height="37.22" fill="#e7838d"/><path d="M 818.89 595.56 A 37.22 37.22 0 0 1 856.11 632.78 L 818.89 632.78" fill="#4562d6"/><rect x="856.11" y="595.56" width="37.22" height="37.22" fill="#6981de"/><path d="M 856.11 595.56 A 37.22 37.22 0 0 1 893.33 632.78 L 856.11 632.78" fill="#2b4cd0"/><rect x="818.89" y="632.78" width="37.22" height="37.22" fill="#e6eaf9"/><path d="M 818.89 632.78 A 37.22 37.22 0 0 1 856.11 670 L 818.89 670" fill="#b4c0ee"/><rect x="856.11" y="632.78" width="37.22" height="37.22" fill="#d73141"/><path d="M 856.11 670 A 37.22 37.22 0 0 1  893.33 632.78 L 856.11 670 A 37.22 37.22 0 0 0 893.33 632.78" fill="#3050d1"/><rect x="893.33" y="595.56" width="74.44" height="74.44" fill="#f1f3fc"/><path d="M 893.33 670 A 74.44 74.44 0 0 0 967.77 595.56 L 893.33 595.56" fill="#f1b6bc"/><rect x="967.78" y="595.56" width="74.44" height="74.44" fill="#2d4ed1"/><path d="M 967.78 595.56 A 74.44 74.44 0 0 1 1042.22 670 L 967.78 670" fill="#e16571"/><rect x="1042.22" y="595.56" width="74.44" height="74.44" fill="#798ee1"/><path d="M 1042.22 670 A 74.44 74.44 0 0 0 1116.66 595.56 L 1042.22 595.56" fill="#c4cdf2"/></g></svg>