<?xml version="1.0" standalone="no"?><svg xmlns:xlink="http://www.w3.org/1999/xlink" xmlns="http://www.w3.org/2000/svg" viewBox="0 0 1000 600" preserveAspectRatio="xMaxYMax slice"><g transform="scale(0.8928571428571429)"><rect x="0" y="0" width="1120" height="672" fill="#80a92d"/><path d="M 896 74.67 A 74.67 74.67 0 0 1  970.67 149.34 L 896 74.67 A 74.67 74.67 0 0 0 970.67 149.34" fill="#396c3b"/><rect x="522.6666666666667" y="149.33333333333334" width="74.66666666666667" height="74.66666666666667" fill="#80a92d"/><rect x="672" y="149.33333333333334" width="74.66666666666667" height="74.66666666666667" fill="#80a92d"/><path d="M 709.33 186.66000000000003 A 37.33 37.33 0 0 1  746.6600000000001 149.33 L 709.33 186.66000000000003 A 37.33 37.33 0 0 0 746.6600000000001 149.33" fill="#6b9731"/><path d="M 672 224 A 37.33 37.33 0 0 1  709.33 186.67 L 672 224 A 37.33 37.33 0 0 0 709.33 186.67" fill="#e44e59"/><path d="M 709.33 186.67 A 37.33 37.33 0 0 1  746.6600000000001 224 L 709.33 186.67 A 37.33 37.33 0 0 0 746.6600000000001 224" fill="#447639"/><rect x="1045.3333333333335" y="149.33333333333334" width="74.66666666666667" height="74.66666666666667" fill="#80a92d"/><rect x="74.66666666666667" y="224" width="74.66666666666667" height="74.66666666666667" fill="#80a92d"/><path d="M 149.33 224 A 74.67 74.67 0 0 1  224 298.67 L 149.33 224 A 74.67 74.67 0 0 0 224 298.67" fill="#dc5556"/><rect x="224" y="224" width="74.66666666666667" height="74.66666666666667" fill="#80a92d"/><path d="M 224 261.33 A 37.33 37.33 0 0 1  261.33 298.65999999999997 L 224 261.33 A 37.33 37.33 0 0 0 261.33 298.65999999999997" fill="#457738"/><path d="M 261.33 298.65999999999997 A 37.33 37.33 0 0 1  298.65999999999997 261.33 L 261.33 298.65999999999997 A 37.33 37.33 0 0 0 298.65999999999997 261.33" fill="#78a22e"/><path d="M 373.33 298.67 A 74.67 74.67 0 0 1  448 224 L 373.33 298.67 A 74.67 74.67 0 0 0 448 224" fill="#c56a4c"/><rect x="672" y="224" width="74.66666666666667" height="74.66666666666667" fill="#80a92d"/><path d="M 672 261.33 A 37.33 37.33 0 0 1  709.33 298.65999999999997 L 672 261.33 A 37.33 37.33 0 0 0 709.33 298.65999999999997" fill="#477838"/><path d="M 709.33 298.65999999999997 A 37.33 37.33 0 0 1  746.6600000000001 261.33 L 709.33 298.65999999999997 A 37.33 37.33 0 0 0 746.6600000000001 261.33" fill="#f34060"/><path d="M 821.33 298.67 A 74.67 74.67 0 0 1  896 224 L 821.33 298.67 A 74.67 74.67 0 0 0 896 224" fill="#c36c4b"/><rect x="896" y="224" width="74.66666666666667" height="74.66666666666667" fill="#80a92d"/><path d="M 896 261.33 A 37.33 37.33 0 0 1  933.33 224 L 896 261.33 A 37.33 37.33 0 0 0 933.33 224" fill="#9e8e3a"/><path d="M 933.33 224 A 37.33 37.33 0 0 1  970.6600000000001 261.33 L 933.33 224 A 37.33 37.33 0 0 0 970.6600000000001 261.33" fill="#ec475c"/><path d="M 74.67 298.67 A 74.67 74.67 0 0 1  149.34 373.34000000000003 L 74.67 298.67 A 74.67 74.67 0 0 0 149.34 373.34000000000003" fill="#4b7b37"/><rect x="224" y="298.6666666666667" width="74.66666666666667" height="74.66666666666667" fill="#80a92d"/><path d="M 224 298.67 A 37.33 37.33 0 0 1  261.33 336 L 224 298.67 A 37.33 37.33 0 0 0 261.33 336" fill="#4b7b37"/><path d="M 261.33 298.67 A 37.33 37.33 0 0 1  298.65999999999997 336 L 261.33 298.67 A 37.33 37.33 0 0 0 298.65999999999997 336" fill="#7ca62e"/><path d="M 261.33 373.33 A 37.33 37.33 0 0 1  298.65999999999997 336 L 261.33 373.33 A 37.33 37.33 0 0 0 298.65999999999997 336" fill="#6c9731"/><rect x="597.3333333333334" y="298.6666666666667" width="74.66666666666667" height="74.66666666666667" fill="#80a92d"/><path d="M 597.33 298.67 A 37.33 37.33 0 0 1  634.6600000000001 336 L 597.33 298.67 A 37.33 37.33 0 0 0 634.6600000000001 336" fill="#ee455d"/><path d="M 634.67 298.67 A 37.33 37.33 0 0 1  672 336 L 634.67 298.67 A 37.33 37.33 0 0 0 672 336" fill="#9a9138"/><path d="M 597.33 336 A 37.33 37.33 0 0 1  634.6600000000001 373.33 L 597.33 336 A 37.33 37.33 0 0 0 634.6600000000001 373.33" fill="#3c6e3a"/><path d="M 634.67 336 A 37.33 37.33 0 0 1  672 373.33 L 634.67 336 A 37.33 37.33 0 0 0 672 373.33" fill="#417339"/><path d="M 746.67 373.34000000000003 A 74.67 74.67 0 0 1  821.3399999999999 298.67 L 746.67 373.34000000000003 A 74.67 74.67 0 0 0 821.3399999999999 298.67" fill="#bb7347"/><rect x="821.3333333333334" y="298.6666666666667" width="74.66666666666667" height="74.66666666666667" fill="#80a92d"/><path d="M 858.67 336 A 37.33 37.33 0 0 1  896 373.33 L 858.67 336 A 37.33 37.33 0 0 0 896 373.33" fill="#c6694c"/><path d="M 1045.33 298.67 A 74.67 74.67 0 0 1  1120 373.34000000000003 L 1045.33 298.67 A 74.67 74.67 0 0 0 1120 373.34000000000003" fill="#c16e4a"/><rect x="0" y="373.33333333333337" width="74.66666666666667" height="74.66666666666667" fill="#80a92d"/><path d="M 0 410.65999999999997 A 37.33 37.33 0 0 1  37.33 373.33 L 0 410.65999999999997 A 37.33 37.33 0 0 0 37.33 373.33" fill="#c9664d"/><path d="M 37.33 410.65999999999997 A 37.33 37.33 0 0 1  74.66 373.33 L 37.33 410.65999999999997 A 37.33 37.33 0 0 0 74.66 373.33" fill="#528136"/><path d="M 0 410.67 A 37.33 37.33 0 0 1  37.33 448 L 0 410.67 A 37.33 37.33 0 0 0 37.33 448" fill="#77a12f"/><path d="M 74.67 448 A 74.67 74.67 0 0 1  149.34 373.33 L 74.67 448 A 74.67 74.67 0 0 0 149.34 373.33" fill="#929835"/><rect x="149.33333333333334" y="373.33333333333337" width="74.66666666666667" height="74.66666666666667" fill="#80a92d"/><path d="M 149.33 373.33 A 37.33 37.33 0 0 1  186.66000000000003 410.65999999999997 L 149.33 373.33 A 37.33 37.33 0 0 0 186.66000000000003 410.65999999999997" fill="#8c9e32"/><path d="M 186.67 373.33 A 37.33 37.33 0 0 1  224 410.65999999999997 L 186.67 373.33 A 37.33 37.33 0 0 0 224 410.65999999999997" fill="#d75953"/><path d="M 149.33 448 A 37.33 37.33 0 0 1  186.66000000000003 410.67 L 149.33 448 A 37.33 37.33 0 0 0 186.66000000000003 410.67" fill="#427439"/><path d="M 186.67 448 A 37.33 37.33 0 0 1  224 410.67 L 186.67 448 A 37.33 37.33 0 0 0 224 410.67" fill="#79a32e"/><rect x="224" y="373.33333333333337" width="74.66666666666667" height="74.66666666666667" fill="#80a92d"/><path d="M 224 410.67 A 37.33 37.33 0 0 1  261.33 448 L 224 410.67 A 37.33 37.33 0 0 0 261.33 448" fill="#ad8041"/><path d="M 373.33 373.33 A 74.67 74.67 0 0 1  448 448 L 373.33 373.33 A 74.67 74.67 0 0 0 448 448" fill="#ef445e"/><rect x="597.3333333333334" y="373.33333333333337" width="74.66666666666667" height="74.66666666666667" fill="#80a92d"/><path d="M 597.33 410.65999999999997 A 37.33 37.33 0 0 1  634.6600000000001 373.33 L 597.33 410.65999999999997 A 37.33 37.33 0 0 0 634.6600000000001 373.33" fill="#949636"/><path d="M 634.67 410.65999999999997 A 37.33 37.33 0 0 1  672 373.33 L 634.67 410.65999999999997 A 37.33 37.33 0 0 0 672 373.33" fill="#8f9c33"/><rect x="672" y="373.33333333333337" width="74.66666666666667" height="74.66666666666667" fill="#80a92d"/><path d="M 672 373.33 A 37.33 37.33 0 0 1  709.33 410.65999999999997 L 672 373.33 A 37.33 37.33 0 0 0 709.33 410.65999999999997" fill="#85a42f"/><rect x="746.6666666666667" y="373.33333333333337" width="74.66666666666667" height="74.66666666666667" fill="#80a92d"/><path d="M 746.67 373.33 A 37.33 37.33 0 0 1  784 410.65999999999997 L 746.67 373.33 A 37.33 37.33 0 0 0 784 410.65999999999997" fill="#ec475d"/><path d="M 746.67 448 A 37.33 37.33 0 0 1  784 410.67 L 746.67 448 A 37.33 37.33 0 0 0 784 410.67" fill="#6a9631"/><path d="M 784 448 A 37.33 37.33 0 0 1  821.33 410.67 L 784 448 A 37.33 37.33 0 0 0 821.33 410.67" fill="#9e8d3a"/><rect x="821.3333333333334" y="373.33333333333337" width="74.66666666666667" height="74.66666666666667" fill="#80a92d"/><path d="M 821.33 373.33 A 37.33 37.33 0 0 1  858.6600000000001 410.65999999999997 L 821.33 373.33 A 37.33 37.33 0 0 0 858.6600000000001 410.65999999999997" fill="#528136"/><path d="M 858.67 410.65999999999997 A 37.33 37.33 0 0 1  896 373.33 L 858.67 410.65999999999997 A 37.33 37.33 0 0 0 896 373.33" fill="#518136"/><path d="M 858.67 448 A 37.33 37.33 0 0 1  896 410.67 L 858.67 448 A 37.33 37.33 0 0 0 896 410.67" fill="#4b7c37"/><path d="M 970.67 373.33 A 74.67 74.67 0 0 1  1045.34 448 L 970.67 373.33 A 74.67 74.67 0 0 0 1045.34 448" fill="#548336"/><path d="M 0 448 A 74.67 74.67 0 0 1  74.67 522.67 L 0 448 A 74.67 74.67 0 0 0 74.67 522.67" fill="#6f9a30"/><rect x="74.66666666666667" y="448" width="74.66666666666667" height="74.66666666666667" fill="#80a92d"/><path d="M 74.67 448 A 37.33 37.33 0 0 1  112 485.33 L 74.67 448 A 37.33 37.33 0 0 0 112 485.33" fill="#6e9a30"/><path d="M 74.67 522.66 A 37.33 37.33 0 0 1  112 485.33 L 74.67 522.66 A 37.33 37.33 0 0 0 112 485.33" fill="#e54c5a"/><path d="M 112 485.33 A 37.33 37.33 0 0 1  149.32999999999998 522.66 L 112 485.33 A 37.33 37.33 0 0 0 149.32999999999998 522.66" fill="#a9843f"/><rect x="149.33333333333334" y="448" width="74.66666666666667" height="74.66666666666667" fill="#80a92d"/><path d="M 186.67 448 A 37.33 37.33 0 0 1  224 485.33 L 186.67 448 A 37.33 37.33 0 0 0 224 485.33" fill="#457738"/><path d="M 149.33 485.33 A 37.33 37.33 0 0 1  186.66000000000003 522.66 L 149.33 485.33 A 37.33 37.33 0 0 0 186.66000000000003 522.66" fill="#669232"/><path d="M 186.67 485.33 A 37.33 37.33 0 0 1  224 522.66 L 186.67 485.33 A 37.33 37.33 0 0 0 224 522.66" fill="#b47944"/><path d="M 224 522.67 A 74.67 74.67 0 0 1  298.67 448 L 224 522.67 A 74.67 74.67 0 0 0 298.67 448" fill="#d95854"/><rect x="298.6666666666667" y="448" width="74.66666666666667" height="74.66666666666667" fill="#80a92d"/><path d="M 298.67 485.33 A 37.33 37.33 0 0 1  336 448 L 298.67 485.33 A 37.33 37.33 0 0 0 336 448" fill="#be7048"/><path d="M 373.33 448 A 74.67 74.67 0 0 1  448 522.67 L 373.33 448 A 74.67 74.67 0 0 0 448 522.67" fill="#5c8a34"/><rect x="522.6666666666667" y="448" width="74.66666666666667" height="74.66666666666667" fill="#80a92d"/><path d="M 522.67 485.33 A 37.33 37.33 0 0 1  560 448 L 522.67 485.33 A 37.33 37.33 0 0 0 560 448" fill="#518136"/><path d="M 560 448 A 37.33 37.33 0 0 1  597.33 485.33 L 560 448 A 37.33 37.33 0 0 0 597.33 485.33" fill="#588735"/><path d="M 522.67 485.33 A 37.33 37.33 0 0 1  560 522.66 L 522.67 485.33 A 37.33 37.33 0 0 0 560 522.66" fill="#649132"/><path d="M 560 485.33 A 37.33 37.33 0 0 1  597.33 522.66 L 560 485.33 A 37.33 37.33 0 0 0 597.33 522.66" fill="#949736"/><path d="M 597.33 522.67 A 74.67 74.67 0 0 1  672 448 L 597.33 522.67 A 74.67 74.67 0 0 0 672 448" fill="#e24f58"/><path d="M 672 522.67 A 74.67 74.67 0 0 1  746.67 448 L 672 522.67 A 74.67 74.67 0 0 0 746.67 448" fill="#df5257"/><rect x="746.6666666666667" y="448" width="74.66666666666667" height="74.66666666666667" fill="#80a92d"/><path d="M 746.67 485.33 A 37.33 37.33 0 0 1  784 448 L 746.67 485.33 A 37.33 37.33 0 0 0 784 448" fill="#d06050"/><path d="M 784 485.33 A 37.33 37.33 0 0 1  821.33 448 L 784 485.33 A 37.33 37.33 0 0 0 821.33 448" fill="#77a12f"/><path d="M 746.67 485.33 A 37.33 37.33 0 0 1  784 522.66 L 746.67 485.33 A 37.33 37.33 0 0 0 784 522.66" fill="#fb3863"/><path d="M 784 522.66 A 37.33 37.33 0 0 1  821.33 485.33 L 784 522.66 A 37.33 37.33 0 0 0 821.33 485.33" fill="#e15058"/><rect x="821.3333333333334" y="448" width="74.66666666666667" height="74.66666666666667" fill="#80a92d"/><path d="M 821.33 485.33 A 37.33 37.33 0 0 1  858.6600000000001 448 L 821.33 485.33 A 37.33 37.33 0 0 0 858.6600000000001 448" fill="#386b3b"/><path d="M 858.67 448 A 37.33 37.33 0 0 1  896 485.33 L 858.67 448 A 37.33 37.33 0 0 0 896 485.33" fill="#c56a4b"/><path d="M 821.33 522.66 A 37.33 37.33 0 0 1  858.6600000000001 485.33 L 821.33 522.66 A 37.33 37.33 0 0 0 858.6600000000001 485.33" fill="#fe3665"/><path d="M 896 448 A 74.67 74.67 0 0 1  970.67 522.67 L 896 448 A 74.67 74.67 0 0 0 970.67 522.67" fill="#ba7447"/><rect x="970.6666666666667" y="448" width="74.66666666666667" height="74.66666666666667" fill="#80a92d"/><path d="M 970.67 485.33 A 37.33 37.33 0 0 1  1008 448 L 970.67 485.33 A 37.33 37.33 0 0 0 1008 448" fill="#c06f49"/><path d="M 1008 485.33 A 37.33 37.33 0 0 1  1045.33 448 L 1008 485.33 A 37.33 37.33 0 0 0 1045.33 448" fill="#699531"/><path d="M 970.67 522.66 A 37.33 37.33 0 0 1  1008 485.33 L 970.67 522.66 A 37.33 37.33 0 0 0 1008 485.33" fill="#7aa42e"/><path d="M 1008 522.66 A 37.33 37.33 0 0 1  1045.33 485.33 L 1008 522.66 A 37.33 37.33 0 0 0 1045.33 485.33" fill="#f93a63"/><path d="M 1045.33 522.67 A 74.67 74.67 0 0 1  1120 448 L 1045.33 522.67 A 74.67 74.67 0 0 0 1120 448" fill="#ca664e"/><path d="M 74.67 522.67 A 74.67 74.67 0 0 1  149.34 597.3399999999999 L 74.67 522.67 A 74.67 74.67 0 0 0 149.34 597.3399999999999" fill="#608e33"/><rect x="149.33333333333334" y="522.6666666666667" width="74.66666666666667" height="74.66666666666667" fill="#80a92d"/><path d="M 149.33 522.67 A 37.33 37.33 0 0 1  186.66000000000003 560 L 149.33 522.67 A 37.33 37.33 0 0 0 186.66000000000003 560" fill="#4b7b37"/><path d="M 186.67 560 A 37.33 37.33 0 0 1  224 522.67 L 186.67 560 A 37.33 37.33 0 0 0 224 522.67" fill="#989337"/><path d="M 149.33 597.33 A 37.33 37.33 0 0 1  186.66000000000003 560 L 149.33 597.33 A 37.33 37.33 0 0 0 186.66000000000003 560" fill="#f83c62"/><path d="M 186.67 560 A 37.33 37.33 0 0 1  224 597.33 L 186.67 560 A 37.33 37.33 0 0 0 224 597.33" fill="#4c7c37"/><path d="M 224 597.3399999999999 A 74.67 74.67 0 0 1  298.67 522.67 L 224 597.3399999999999 A 74.67 74.67 0 0 0 298.67 522.67" fill="#cb644e"/><rect x="373.33333333333337" y="522.6666666666667" width="74.66666666666667" height="74.66666666666667" fill="#80a92d"/><path d="M 373.33 522.67 A 37.33 37.33 0 0 1  410.65999999999997 560 L 373.33 522.67 A 37.33 37.33 0 0 0 410.65999999999997 560" fill="#f43f60"/><path d="M 410.67 560 A 37.33 37.33 0 0 1  448 522.67 L 410.67 560 A 37.33 37.33 0 0 0 448 522.67" fill="#6a9631"/><path d="M 373.33 560 A 37.33 37.33 0 0 1  410.65999999999997 597.33 L 373.33 560 A 37.33 37.33 0 0 0 410.65999999999997 597.33" fill="#c7684c"/><path d="M 410.67 597.33 A 37.33 37.33 0 0 1  448 560 L 410.67 597.33 A 37.33 37.33 0 0 0 448 560" fill="#5b8934"/><path d="M 448 597.3399999999999 A 74.67 74.67 0 0 1  522.67 522.67 L 448 597.3399999999999 A 74.67 74.67 0 0 0 522.67 522.67" fill="#3d6f3a"/><rect x="522.6666666666667" y="522.6666666666667" width="74.66666666666667" height="74.66666666666667" fill="#80a92d"/><path d="M 522.67 522.67 A 37.33 37.33 0 0 1  560 560 L 522.67 522.67 A 37.33 37.33 0 0 0 560 560" fill="#f73c61"/><path d="M 560 560 A 37.33 37.33 0 0 1  597.33 522.67 L 560 560 A 37.33 37.33 0 0 0 597.33 522.67" fill="#3e713a"/><path d="M 522.67 560 A 37.33 37.33 0 0 1  560 597.33 L 522.67 560 A 37.33 37.33 0 0 0 560 597.33" fill="#d85954"/><path d="M 560 560 A 37.33 37.33 0 0 1  597.33 597.33 L 560 560 A 37.33 37.33 0 0 0 597.33 597.33" fill="#f34060"/><rect x="597.3333333333334" y="522.6666666666667" width="74.66666666666667" height="74.66666666666667" fill="#80a92d"/><path d="M 597.33 560 A 37.33 37.33 0 0 1  634.6600000000001 522.67 L 597.33 560 A 37.33 37.33 0 0 0 634.6600000000001 522.67" fill="#5e8c34"/><path d="M 634.67 522.67 A 37.33 37.33 0 0 1  672 560 L 634.67 522.67 A 37.33 37.33 0 0 0 672 560" fill="#8b9f32"/><path d="M 597.33 597.33 A 37.33 37.33 0 0 1  634.6600000000001 560 L 597.33 597.33 A 37.33 37.33 0 0 0 634.6600000000001 560" fill="#969536"/><path d="M 634.67 560 A 37.33 37.33 0 0 1  672 597.33 L 634.67 560 A 37.33 37.33 0 0 0 672 597.33" fill="#7ca62e"/><rect x="672" y="522.6666666666667" width="74.66666666666667" height="74.66666666666667" fill="#80a92d"/><path d="M 672 522.67 A 37.33 37.33 0 0 1  709.33 560 L 672 522.67 A 37.33 37.33 0 0 0 709.33 560" fill="#e84a5b"/><path d="M 709.33 522.67 A 37.33 37.33 0 0 1  746.6600000000001 560 L 709.33 522.67 A 37.33 37.33 0 0 0 746.6600000000001 560" fill="#396c3b"/><path d="M 672 560 A 37.33 37.33 0 0 1  709.33 597.33 L 672 560 A 37.33 37.33 0 0 0 709.33 597.33" fill="#fb3963"/><path d="M 709.33 597.33 A 37.33 37.33 0 0 1  746.6600000000001 560 L 709.33 597.33 A 37.33 37.33 0 0 0 746.6600000000001 560" fill="#4f7f37"/><rect x="746.6666666666667" y="522.6666666666667" width="74.66666666666667" height="74.66666666666667" fill="#80a92d"/><path d="M 746.67 522.67 A 37.33 37.33 0 0 1  784 560 L 746.67 522.67 A 37.33 37.33 0 0 0 784 560" fill="#588635"/><path d="M 784 560 A 37.33 37.33 0 0 1  821.33 522.67 L 784 560 A 37.33 37.33 0 0 0 821.33 522.67" fill="#4b7c37"/><path d="M 746.67 597.33 A 37.33 37.33 0 0 1  784 560 L 746.67 597.33 A 37.33 37.33 0 0 0 784 560" fill="#518036"/><path d="M 784 597.33 A 37.33 37.33 0 0 1  821.33 560 L 784 597.33 A 37.33 37.33 0 0 0 821.33 560" fill="#bf6f49"/><path d="M 821.33 522.67 A 74.67 74.67 0 0 1  896 597.3399999999999 L 821.33 522.67 A 74.67 74.67 0 0 0 896 597.3399999999999" fill="#8a9f32"/><path d="M 896 597.3399999999999 A 74.67 74.67 0 0 1  970.67 522.67 L 896 597.3399999999999 A 74.67 74.67 0 0 0 970.67 522.67" fill="#989337"/><path d="M 970.67 522.67 A 74.67 74.67 0 0 1  1045.34 597.3399999999999 L 970.67 522.67 A 74.67 74.67 0 0 0 1045.34 597.3399999999999" fill="#4a7a38"/><path d="M 1045.33 522.67 A 74.67 74.67 0 0 1  1120 597.3399999999999 L 1045.33 522.67 A 74.67 74.67 0 0 0 1120 597.3399999999999" fill="#f0435e"/><path d="M 0 597.33 A 74.67 74.67 0 0 1  74.67 672 L 0 597.33 A 74.67 74.67 0 0 0 74.67 672" fill="#749f2f"/><path d="M 74.67 672 A 74.67 74.67 0 0 1  149.34 597.33 L 74.67 672 A 74.67 74.67 0 0 0 149.34 597.33" fill="#fb3963"/><rect x="149.33333333333334" y="597.3333333333334" width="74.66666666666667" height="74.66666666666667" fill="#80a92d"/><path d="M 149.33 597.33 A 37.33 37.33 0 0 1  186.66000000000003 634.6600000000001 L 149.33 597.33 A 37.33 37.33 0 0 0 186.66000000000003 634.6600000000001" fill="#a4883d"/><path d="M 186.67 597.33 A 37.33 37.33 0 0 1  224 634.6600000000001 L 186.67 597.33 A 37.33 37.33 0 0 0 224 634.6600000000001" fill="#d85954"/><path d="M 149.33 672 A 37.33 37.33 0 0 1  186.66000000000003 634.67 L 149.33 672 A 37.33 37.33 0 0 0 186.66000000000003 634.67" fill="#b57845"/><path d="M 186.67 634.67 A 37.33 37.33 0 0 1  224 672 L 186.67 634.67 A 37.33 37.33 0 0 0 224 672" fill="#ce624f"/><rect x="224" y="597.3333333333334" width="74.66666666666667" height="74.66666666666667" fill="#80a92d"/><path d="M 224 597.33 A 37.33 37.33 0 0 1  261.33 634.6600000000001 L 224 597.33 A 37.33 37.33 0 0 0 261.33 634.6600000000001" fill="#3c6f3a"/><path d="M 261.33 634.6600000000001 A 37.33 37.33 0 0 1  298.65999999999997 597.33 L 261.33 634.6600000000001 A 37.33 37.33 0 0 0 298.65999999999997 597.33" fill="#80a92d"/><path d="M 224 634.67 A 37.33 37.33 0 0 1  261.33 672 L 224 634.67 A 37.33 37.33 0 0 0 261.33 672" fill="#d06050"/><path d="M 261.33 634.67 A 37.33 37.33 0 0 1  298.65999999999997 672 L 261.33 634.67 A 37.33 37.33 0 0 0 298.65999999999997 672" fill="#5e8b34"/><path d="M 298.67 597.33 A 74.67 74.67 0 0 1  373.34000000000003 672 L 298.67 597.33 A 74.67 74.67 0 0 0 373.34000000000003 672" fill="#939835"/><path d="M 373.33 597.33 A 74.67 74.67 0 0 1  448 672 L 373.33 597.33 A 74.67 74.67 0 0 0 448 672" fill="#82a72e"/><path d="M 448 597.33 A 74.67 74.67 0 0 1  522.67 672 L 448 597.33 A 74.67 74.67 0 0 0 522.67 672" fill="#3f713a"/><path d="M 522.67 597.33 A 74.67 74.67 0 0 1  597.3399999999999 672 L 522.67 597.33 A 74.67 74.67 0 0 0 597.3399999999999 672" fill="#4b7b37"/><rect x="597.3333333333334" y="597.3333333333334" width="74.66666666666667" height="74.66666666666667" fill="#80a92d"/><path d="M 597.33 597.33 A 37.33 37.33 0 0 1  634.6600000000001 634.6600000000001 L 597.33 597.33 A 37.33 37.33 0 0 0 634.6600000000001 634.6600000000001" fill="#79a32e"/><path d="M 634.67 634.6600000000001 A 37.33 37.33 0 0 1  672 597.33 L 634.67 634.6600000000001 A 37.33 37.33 0 0 0 672 597.33" fill="#de5356"/><path d="M 597.33 634.67 A 37.33 37.33 0 0 1  634.6600000000001 672 L 597.33 634.67 A 37.33 37.33 0 0 0 634.6600000000001 672" fill="#608d33"/><path d="M 634.67 672 A 37.33 37.33 0 0 1  672 634.67 L 634.67 672 A 37.33 37.33 0 0 0 672 634.67" fill="#be7048"/><rect x="672" y="597.3333333333334" width="74.66666666666667" height="74.66666666666667" fill="#80a92d"/><path d="M 672 634.6600000000001 A 37.33 37.33 0 0 1  709.33 597.33 L 672 634.6600000000001 A 37.33 37.33 0 0 0 709.33 597.33" fill="#a28a3c"/><path d="M 709.33 597.33 A 37.33 37.33 0 0 1  746.6600000000001 634.6600000000001 L 709.33 597.33 A 37.33 37.33 0 0 0 746.6600000000001 634.6600000000001" fill="#ee455d"/><path d="M 672 672 A 37.33 37.33 0 0 1  709.33 634.67 L 672 672 A 37.33 37.33 0 0 0 709.33 634.67" fill="#739e2f"/><path d="M 709.33 672 A 37.33 37.33 0 0 1  746.6600000000001 634.67 L 709.33 672 A 37.33 37.33 0 0 0 746.6600000000001 634.67" fill="#8b9f32"/><rect x="746.6666666666667" y="597.3333333333334" width="74.66666666666667" height="74.66666666666667" fill="#80a92d"/><path d="M 746.67 634.6600000000001 A 37.33 37.33 0 0 1  784 597.33 L 746.67 634.6600000000001 A 37.33 37.33 0 0 0 784 597.33" fill="#5a8834"/><path d="M 784 634.6600000000001 A 37.33 37.33 0 0 1  821.33 597.33 L 784 634.6600000000001 A 37.33 37.33 0 0 0 821.33 597.33" fill="#548336"/><path d="M 746.67 672 A 37.33 37.33 0 0 1  784 634.67 L 746.67 672 A 37.33 37.33 0 0 0 784 634.67" fill="#639033"/><path d="M 784 634.67 A 37.33 37.33 0 0 1  821.33 672 L 784 634.67 A 37.33 37.33 0 0 0 821.33 672" fill="#f63d61"/><rect x="821.3333333333334" y="597.3333333333334" width="74.66666666666667" height="74.66666666666667" fill="#80a92d"/><path d="M 821.33 634.6600000000001 A 37.33 37.33 0 0 1  858.6600000000001 597.33 L 821.33 634.6600000000001 A 37.33 37.33 0 0 0 858.6600000000001 597.33" fill="#d25e51"/><path d="M 858.67 634.6600000000001 A 37.33 37.33 0 0 1  896 597.33 L 858.67 634.6600000000001 A 37.33 37.33 0 0 0 896 597.33" fill="#c9674d"/><path d="M 821.33 672 A 37.33 37.33 0 0 1  858.6600000000001 634.67 L 821.33 672 A 37.33 37.33 0 0 0 858.6600000000001 634.67" fill="#5f8d33"/><path d="M 858.67 672 A 37.33 37.33 0 0 1  896 634.67 L 858.67 672 A 37.33 37.33 0 0 0 896 634.67" fill="#538236"/><rect x="896" y="597.3333333333334" width="74.66666666666667" height="74.66666666666667" fill="#80a92d"/><path d="M 896 634.6600000000001 A 37.33 37.33 0 0 1  933.33 597.33 L 896 634.6600000000001 A 37.33 37.33 0 0 0 933.33 597.33" fill="#709b30"/><path d="M 933.33 597.33 A 37.33 37.33 0 0 1  970.6600000000001 634.6600000000001 L 933.33 597.33 A 37.33 37.33 0 0 0 970.6600000000001 634.6600000000001" fill="#ec465d"/><path d="M 896 672 A 37.33 37.33 0 0 1  933.33 634.67 L 896 672 A 37.33 37.33 0 0 0 933.33 634.67" fill="#417339"/><path d="M 933.33 672 A 37.33 37.33 0 0 1  970.6600000000001 634.67 L 933.33 672 A 37.33 37.33 0 0 0 970.6600000000001 634.67" fill="#b27b43"/><path d="M 970.67 672 A 74.67 74.67 0 0 1  1045.34 597.33 L 970.67 672 A 74.67 74.67 0 0 0 1045.34 597.33" fill="#6b9731"/><rect x="1045.3333333333335" y="597.3333333333334" width="74.66666666666667" height="74.66666666666667" fill="#80a92d"/><path d="M 1045.33 634.6600000000001 A 37.33 37.33 0 0 1  1082.6599999999999 597.33 L 1045.33 634.6600000000001 A 37.33 37.33 0 0 0 1082.6599999999999 597.33" fill="#699531"/><path d="M 1082.67 634.6600000000001 A 37.33 37.33 0 0 1  1120 597.33 L 1082.67 634.6600000000001 A 37.33 37.33 0 0 0 1120 597.33" fill="#e84a5b"/><path d="M 1045.33 672 A 37.33 37.33 0 0 1  1082.6599999999999 634.67 L 1045.33 672 A 37.33 37.33 0 0 0 1082.6599999999999 634.67" fill="#467738"/><path d="M 1082.67 634.67 A 37.33 37.33 0 0 1  1120 672 L 1082.67 634.67 A 37.33 37.33 0 0 0 1120 672" fill="#6b9731"/></g></svg>