<?xml version="1.0" standalone="no"?><svg xmlns:xlink="http://www.w3.org/1999/xlink" xmlns="http://www.w3.org/2000/svg" viewBox="0 0 1000 600" preserveAspectRatio="xMaxYMax slice"><g transform="scale(0.8928571428571429)"><rect x="0" y="0" width="1120" height="672" fill="#ffffff"/><rect x="0" y="0" width="74.66666666666667" height="74.66666666666667" fill="#ffffff"/><rect x="0" y="0" width="37.33" height="37.33" fill="#bfcfc0"/><polygon points="37.33,0 37.33,37.33 0,37.33" fill="#ff557e"/><rect x="37.33" y="0" width="37.33" height="37.33" fill="#adc2ae"/><polygon points="37.33,0 74.66,0 37.33,37.33" fill="#dce5dd"/><rect x="0" y="37.33" width="37.33" height="37.33" fill="#d6e0d7"/><polygon points="0,37.33 37.33,37.33 37.33,74.66" fill="#ff5079"/><rect x="37.33" y="37.33" width="37.33" height="37.33" fill="#678e6a"/><polygon points="37.33,37.33 74.66,74.66 37.33,74.66" fill="#92ae94"/><rect x="74.66666666666667" y="0" width="74.66666666666667" height="74.66666666666667" fill="#ffffff"/><rect x="74.67" y="0" width="37.33" height="37.33" fill="#edf2ee"/><polygon points="112,0 112,37.33 74.67,37.33" fill="#ffeaef"/><rect x="112" y="0" width="37.33" height="37.33" fill="#cfdbcf"/><polygon points="112,0 149.32999999999998,37.33 112,37.33" fill="#ff698c"/><rect x="74.67" y="37.33" width="37.33" height="37.33" fill="#ff3968"/><polygon points="74.67,37.33 112,37.33 112,74.66" fill="#a4bca6"/><rect x="112" y="37.33" width="37.33" height="37.33" fill="#e8eee8"/><polygon points="112,37.33 149.32999999999998,37.33 112,74.66" fill="#648c66"/><rect x="149.33" y="0" width="74.67" height="74.67" fill="#ffe9ee"/><polygon points="224,0 224,74.67 149.33,74.67" fill="#f4f7f4"/><rect x="224" y="0" width="74.66666666666667" height="74.66666666666667" fill="#ffffff"/><rect x="224" y="0" width="37.33" height="37.33" fill="#ff85a2"/><circle cx="242.665" cy="18.665" r="18.665" fill="#ff7596"/><rect x="261.33" y="0" width="37.33" height="37.33" fill="#b5c8b6"/><rect x="261.33" y="0" width="37.33" height="37.33" fill="#ff4e78"/><rect x="224" y="37.33" width="37.33" height="37.33" fill="#ff658a"/><circle cx="242.665" cy="55.995" r="18.665" fill="#ff6186"/><rect x="261.33" y="37.33" width="37.33" height="37.33" fill="#ff7797"/><rect x="261.33" y="37.33" width="37.33" height="37.33" fill="#5d865f"/><rect x="298.67" y="0" width="74.67" height="74.67" fill="#ff678b"/><path d="M 298.67 0 A 74.67 74.67 0 0 1  373.34000000000003 74.67 L 298.67 0 A 74.67 74.67 0 0 0 373.34000000000003 74.67" fill="#ffc3d1"/><rect x="373.33333333333337" y="0" width="74.66666666666667" height="74.66666666666667" fill="#ffffff"/><rect x="373.33" y="0" width="37.33" height="37.33" fill="#bbcdbc"/><path d="M 373.33 37.33 A 37.33 37.33 0 0 0 410.65999999999997 0 L 373.33 0" fill="#ff6a8d"/><rect x="410.67" y="0" width="37.33" height="37.33" fill="#638b65"/><path d="M 410.67 0 A 37.33 37.33 0 0 0 448 37.33 L 448 0" fill="#48774b"/><rect x="373.33" y="37.33" width="37.33" height="37.33" fill="#ff6388"/><path d="M 373.33 37.33 A 37.33 37.33 0 0 1 410.65999999999997 74.66 L 373.33 74.66" fill="#ff6489"/><rect x="410.67" y="37.33" width="37.33" height="37.33" fill="#407143"/><path d="M 410.67 74.66 A 37.33 37.33 0 0 1  448 37.33 L 448 74.66" fill="#cad8cb"/><rect x="448" y="0" width="74.67" height="74.67" fill="#ff6d90"/><rect x="448" y="0" width="74.67" height="74.67" fill="#ffd4df"/><rect x="522.6666666666667" y="0" width="74.66666666666667" height="74.66666666666667" fill="#ffffff"/><rect x="522.67" y="0" width="37.33" height="37.33" fill="#a3bba5"/><path d="M 522.67 0 A 37.33 37.33 0 0 0 560 37.33 L 560 0" fill="#ffa0b7"/><rect x="560" y="0" width="37.33" height="37.33" fill="#fffefe"/><path d="M 560 37.33 A 37.33 37.33 0 0 0 597.33 0 L 560 0" fill="#a1b9a2"/><rect x="522.67" y="37.33" width="37.33" height="37.33" fill="#ff4571"/><path d="M 522.67 74.66 A 37.33 37.33 0 0 1  560 37.33 L 560 74.66" fill="#ff7898"/><rect x="560" y="37.33" width="37.33" height="37.33" fill="#9eb79f"/><path d="M 560 37.33 A 37.33 37.33 0 0 1 597.33 74.66 L 560 74.66" fill="#aac0ab"/><rect x="597.3333333333334" y="0" width="74.66666666666667" height="74.66666666666667" fill="#ffffff"/><rect x="597.33" y="0" width="37.33" height="37.33" fill="#407143"/><path d="M 597.33 37.33 A 37.33 37.33 0 0 1  634.6600000000001 0 L 634.6600000000001 37.33" fill="#a3bba5"/><rect x="634.67" y="0" width="37.33" height="37.33" fill="#ffd3de"/><path d="M 634.67 0 A 37.33 37.33 0 0 1 672 37.33 L 634.67 37.33" fill="#83a385"/><rect x="597.33" y="37.33" width="37.33" height="37.33" fill="#fff1f4"/><path d="M 597.33 37.33 A 37.33 37.33 0 0 0 634.6600000000001 74.66 L 634.6600000000001 37.33" fill="#ffafc2"/><rect x="634.67" y="37.33" width="37.33" height="37.33" fill="#fdfefd"/><path d="M 634.67 74.66 A 37.33 37.33 0 0 0 672 37.33 L 634.67 37.33" fill="#c2d2c3"/><rect x="672" y="0" width="74.66666666666667" height="74.66666666666667" fill="#ffffff"/><rect x="672" y="0" width="37.33" height="37.33" fill="#ff517a"/><path d="M 672 37.33 A 37.33 37.33 0 0 0 709.33 0 L 672 0" fill="#ffe4eb"/><rect x="709.33" y="0" width="37.33" height="37.33" fill="#fff4f6"/><path d="M 709.33 0 A 37.33 37.33 0 0 0 746.6600000000001 37.33 L 746.6600000000001 0" fill="#86a587"/><rect x="672" y="37.33" width="37.33" height="37.33" fill="#ffbaca"/><path d="M 672 37.33 A 37.33 37.33 0 0 1 709.33 74.66 L 672 74.66" fill="#adc2ae"/><rect x="709.33" y="37.33" width="37.33" height="37.33" fill="#ff3868"/><path d="M 709.33 74.66 A 37.33 37.33 0 0 1  746.6600000000001 37.33 L 746.6600000000001 74.66" fill="#eef3ef"/><rect x="746.67" y="0" width="74.67" height="74.67" fill="#ffcdd9"/><path d="M 746.67 0 A 74.67 74.67 0 0 1 821.3399999999999 74.67 L 746.67 74.67" fill="#ff9cb3"/><rect x="821.33" y="0" width="74.67" height="74.67" fill="#ffffff"/><path d="M 821.33 0 A 74.67 74.67 0 0 0 896 74.67 L 896 0" fill="#ff3b6a"/><rect x="896" y="0" width="74.66666666666667" height="74.66666666666667" fill="#ffffff"/><rect x="896" y="0" width="37.33" height="37.33" fill="#ff6a8e"/><path d="M 896 37.33 A 37.33 37.33 0 0 1  933.33 0 L 933.33 37.33" fill="#517e54"/><rect x="933.33" y="0" width="37.33" height="37.33" fill="#ff819f"/><path d="M 933.33 0 A 37.33 37.33 0 0 1 970.6600000000001 37.33 L 933.33 37.33" fill="#cbd8cc"/><rect x="896" y="37.33" width="37.33" height="37.33" fill="#ff7e9c"/><path d="M 896 37.33 A 37.33 37.33 0 0 0 933.33 74.66 L 933.33 37.33" fill="#ffafc2"/><rect x="933.33" y="37.33" width="37.33" height="37.33" fill="#3a6c3d"/><path d="M 933.33 74.66 A 37.33 37.33 0 0 0 970.6600000000001 37.33 L 933.33 37.33" fill="#ffe3ea"/><rect x="970.6666666666667" y="0" width="74.66666666666667" height="74.66666666666667" fill="#ffffff"/><rect x="970.67" y="0" width="37.33" height="37.33" fill="#9cb59d"/><path d="M 970.67 0 A 37.33 37.33 0 0 1 1008 37.33 L 970.67 37.33" fill="#ff82a0"/><rect x="1008" y="0" width="37.33" height="37.33" fill="#ff3867"/><path d="M 1008 37.33 A 37.33 37.33 0 0 1  1045.33 0 L 1045.33 37.33" fill="#dbe4db"/><rect x="970.67" y="37.33" width="37.33" height="37.33" fill="#ff96af"/><path d="M 970.67 74.66 A 37.33 37.33 0 0 0 1008 37.33 L 970.67 37.33" fill="#7e9f80"/><rect x="1008" y="37.33" width="37.33" height="37.33" fill="#ff819f"/><path d="M 1008 37.33 A 37.33 37.33 0 0 0 1045.33 74.66 L 1045.33 37.33" fill="#dee6de"/><rect x="1045.3333333333335" y="0" width="74.66666666666667" height="74.66666666666667" fill="#ffffff"/><rect x="1045.33" y="0" width="37.33" height="37.33" fill="#ff90ab"/><polygon points="1082.6599999999999,0 1082.6599999999999,37.33 1045.33,37.33" fill="#fbfcfb"/><rect x="1082.67" y="0" width="37.33" height="37.33" fill="#6f9472"/><polygon points="1082.67,0 1120,0 1082.67,37.33" fill="#afc4b1"/><rect x="1045.33" y="37.33" width="37.33" height="37.33" fill="#ff5c83"/><polygon points="1045.33,37.33 1082.6599999999999,37.33 1082.6599999999999,74.66" fill="#ff4572"/><rect x="1082.67" y="37.33" width="37.33" height="37.33" fill="#ffc6d3"/><polygon points="1082.67,37.33 1120,74.66 1082.67,74.66" fill="#ffd8e1"/><rect x="0" y="74.66666666666667" width="74.66666666666667" height="74.66666666666667" fill="#ffffff"/><rect x="0" y="74.67" width="37.33" height="37.33" fill="#e2eae3"/><circle cx="18.665" cy="93.33500000000001" r="18.665" fill="#729674"/><rect x="37.33" y="74.67" width="37.33" height="37.33" fill="#bccdbd"/><rect x="37.33" y="74.67" width="37.33" height="37.33" fill="#d5e0d6"/><rect x="0" y="112" width="37.33" height="37.33" fill="#779a79"/><circle cx="18.665" cy="130.665" r="18.665" fill="#ff84a1"/><rect x="37.33" y="112" width="37.33" height="37.33" fill="#92ae94"/><rect x="37.33" y="112" width="37.33" height="37.33" fill="#ff3666"/><rect x="74.67" y="74.67" width="74.67" height="74.67" fill="#a0b8a1"/><path d="M 74.67 74.67 A 74.67 74.67 0 0 1 149.34 149.34 L 74.67 149.34" fill="#ffc9d6"/><rect x="149.33" y="74.67" width="74.67" height="74.67" fill="#ff92ac"/><path d="M 149.33 74.67 A 74.67 74.67 0 0 0 224 149.34 L 224 74.67" fill="#ff5f85"/><rect x="224" y="74.67" width="74.67" height="74.67" fill="#e8eee8"/><path d="M 224 74.67 A 74.67 74.67 0 0 1 298.67 149.34 L 224 149.34" fill="#4c7a4e"/><rect x="298.67" y="74.67" width="74.67" height="74.67" fill="#ff7999"/><path d="M 298.67 74.67 A 74.67 74.67 0 0 1  373.34000000000003 149.34 L 298.67 74.67 A 74.67 74.67 0 0 0 373.34000000000003 149.34" fill="#ff8ca7"/><rect x="373.33" y="74.67" width="74.67" height="74.67" fill="#ffc9d6"/><polygon points="373.33,74.67 448,149.34 373.33,149.34" fill="#ffb7c8"/><rect x="448" y="74.67" width="74.67" height="74.67" fill="#e0e8e0"/><polygon points="522.67,74.67 522.67,149.34 448,149.34" fill="#688f6a"/><rect x="522.6666666666667" y="74.66666666666667" width="74.66666666666667" height="74.66666666666667" fill="#ffffff"/><rect x="522.67" y="74.67" width="37.33" height="37.33" fill="#a2baa3"/><path d="M 522.67 112 A 37.33 37.33 0 0 0 560 74.67 L 522.67 74.67" fill="#ff3868"/><rect x="560" y="74.67" width="37.33" height="37.33" fill="#407143"/><path d="M 560 74.67 A 37.33 37.33 0 0 0 597.33 112 L 597.33 74.67" fill="#f1f4f1"/><rect x="522.67" y="112" width="37.33" height="37.33" fill="#80a082"/><path d="M 522.67 112 A 37.33 37.33 0 0 1 560 149.32999999999998 L 522.67 149.32999999999998" fill="#ffecf1"/><rect x="560" y="112" width="37.33" height="37.33" fill="#ff5981"/><path d="M 560 149.32999999999998 A 37.33 37.33 0 0 1  597.33 112 L 597.33 149.32999999999998" fill="#d8e2d8"/><rect x="597.33" y="74.67" width="74.67" height="74.67" fill="#ff4f79"/><path d="M 597.33 74.67 A 74.67 74.67 0 0 1 672 149.34 L 597.33 149.34" fill="#ffa1b7"/><rect x="672" y="74.66666666666667" width="74.66666666666667" height="74.66666666666667" fill="#ffffff"/><rect x="672" y="74.67" width="37.33" height="37.33" fill="#e0e8e0"/><circle cx="690.665" cy="93.33500000000001" r="18.665" fill="#a3bba4"/><rect x="709.33" y="74.67" width="37.33" height="37.33" fill="#ff6186"/><rect x="709.33" y="74.67" width="37.33" height="37.33" fill="#527e54"/><rect x="672" y="112" width="37.33" height="37.33" fill="#ffafc2"/><circle cx="690.665" cy="130.665" r="18.665" fill="#ff99b2"/><rect x="709.33" y="112" width="37.33" height="37.33" fill="#407143"/><rect x="709.33" y="112" width="37.33" height="37.33" fill="#fffcfd"/><rect x="746.6666666666667" y="74.66666666666667" width="74.66666666666667" height="74.66666666666667" fill="#ffffff"/><rect x="746.67" y="74.67" width="37.33" height="37.33" fill="#ff4370"/><polygon points="784,74.67 784,112 746.67,112" fill="#ff8ca7"/><rect x="784" y="74.67" width="37.33" height="37.33" fill="#bbcdbc"/><polygon points="784,74.67 821.33,112 784,112" fill="#5f8862"/><rect x="746.67" y="112" width="37.33" height="37.33" fill="#ff4f79"/><polygon points="746.67,112 784,112 784,149.32999999999998" fill="#ff577f"/><rect x="784" y="112" width="37.33" height="37.33" fill="#c9d6c9"/><polygon points="784,112 821.33,112 784,149.32999999999998" fill="#ff92ac"/><rect x="821.33" y="74.67" width="74.67" height="74.67" fill="#ff4572"/><polygon points="821.33,74.67 896,149.34 821.33,149.34" fill="#fffbfc"/><rect x="896" y="74.67" width="74.67" height="74.67" fill="#fff6f8"/><path d="M 896 149.34 A 74.67 74.67 0 0 0 970.67 74.67 L 896 74.67" fill="#c6d5c7"/><rect x="970.67" y="74.67" width="74.67" height="74.67" fill="#fbfcfb"/><rect x="970.67" y="74.67" width="74.67" height="74.67" fill="#537f55"/><rect x="1045.33" y="74.67" width="74.67" height="74.67" fill="#ffdfe7"/><rect x="1045.33" y="74.67" width="74.67" height="74.67" fill="#cedbcf"/><rect x="0" y="149.33333333333334" width="74.66666666666667" height="74.66666666666667" fill="#ffffff"/><rect x="0" y="149.33" width="37.33" height="37.33" fill="#6e9370"/><path d="M 0 186.66000000000003 A 37.33 37.33 0 0 1  37.33 149.33 L 37.33 186.66000000000003" fill="#94af95"/><rect x="37.33" y="149.33" width="37.33" height="37.33" fill="#cbd8cc"/><path d="M 37.33 149.33 A 37.33 37.33 0 0 1 74.66 186.66000000000003 L 37.33 186.66000000000003" fill="#f3f6f3"/><rect x="0" y="186.67" width="37.33" height="37.33" fill="#ff4571"/><path d="M 0 186.67 A 37.33 37.33 0 0 0 37.33 224 L 37.33 186.67" fill="#9db69e"/><rect x="37.33" y="186.67" width="37.33" height="37.33" fill="#f8faf8"/><path d="M 37.33 224 A 37.33 37.33 0 0 0 74.66 186.67 L 37.33 186.67" fill="#467649"/><rect x="74.67" y="149.33" width="74.67" height="74.67" fill="#ecf1ec"/><rect x="74.67" y="149.33" width="74.67" height="74.67" fill="#57825a"/><rect x="149.33" y="149.33" width="74.67" height="74.67" fill="#527e54"/><rect x="149.33" y="149.33" width="74.67" height="74.67" fill="#f6f9f6"/><rect x="224" y="149.33333333333334" width="74.66666666666667" height="74.66666666666667" fill="#ffffff"/><rect x="224" y="149.33" width="37.33" height="37.33" fill="#ff4873"/><path d="M 224 186.66000000000003 A 37.33 37.33 0 0 1  261.33 149.33 L 261.33 186.66000000000003" fill="#ff7092"/><rect x="261.33" y="149.33" width="37.33" height="37.33" fill="#ff8ba7"/><path d="M 261.33 149.33 A 37.33 37.33 0 0 1 298.65999999999997 186.66000000000003 L 261.33 186.66000000000003" fill="#7c9e7e"/><rect x="224" y="186.67" width="37.33" height="37.33" fill="#c1d1c2"/><path d="M 224 186.67 A 37.33 37.33 0 0 0 261.33 224 L 261.33 186.67" fill="#a1b9a2"/><rect x="261.33" y="186.67" width="37.33" height="37.33" fill="#7fa081"/><path d="M 261.33 224 A 37.33 37.33 0 0 0 298.65999999999997 186.67 L 261.33 186.67" fill="#90ad92"/><rect x="298.6666666666667" y="149.33333333333334" width="74.66666666666667" height="74.66666666666667" fill="#ffffff"/><rect x="298.67" y="149.33" width="37.33" height="37.33" fill="#a8bea9"/><polygon points="336,149.33 336,186.66000000000003 298.67,186.66000000000003" fill="#8fac91"/><rect x="336" y="149.33" width="37.33" height="37.33" fill="#96b197"/><polygon points="336,149.33 373.33,149.33 336,186.66000000000003" fill="#668d68"/><rect x="298.67" y="186.67" width="37.33" height="37.33" fill="#ff7898"/><polygon points="298.67,186.67 336,186.67 336,224" fill="#ff9fb6"/><rect x="336" y="186.67" width="37.33" height="37.33" fill="#527e54"/><polygon points="336,186.67 373.33,224 336,224" fill="#eff3ef"/><rect x="373.33333333333337" y="149.33333333333334" width="74.66666666666667" height="74.66666666666667" fill="#ffffff"/><rect x="373.33" y="149.33" width="37.33" height="37.33" fill="#fafbfa"/><polygon points="410.65999999999997,149.33 410.65999999999997,186.66000000000003 373.33,186.66000000000003" fill="#618a64"/><rect x="410.67" y="149.33" width="37.33" height="37.33" fill="#ff4471"/><polygon points="410.67,149.33 448,186.66000000000003 410.67,186.66000000000003" fill="#6c926e"/><rect x="373.33" y="186.67" width="37.33" height="37.33" fill="#558158"/><polygon points="373.33,186.67 410.65999999999997,186.67 410.65999999999997,224" fill="#ffa8bc"/><rect x="410.67" y="186.67" width="37.33" height="37.33" fill="#e1e8e1"/><polygon points="410.67,186.67 448,186.67 410.67,224" fill="#ff416f"/><rect x="448" y="149.33333333333334" width="74.66666666666667" height="74.66666666666667" fill="#ffffff"/><rect x="448" y="149.33" width="37.33" height="37.33" fill="#fff1f4"/><polygon points="485.33,149.33 485.33,186.66000000000003 448,186.66000000000003" fill="#799b7b"/><rect x="485.33" y="149.33" width="37.33" height="37.33" fill="#709573"/><polygon points="485.33,149.33 522.66,149.33 485.33,186.66000000000003" fill="#3f7042"/><rect x="448" y="186.67" width="37.33" height="37.33" fill="#82a284"/><polygon points="448,186.67 485.33,186.67 485.33,224" fill="#ff517b"/><rect x="485.33" y="186.67" width="37.33" height="37.33" fill="#fff6f8"/><polygon points="485.33,186.67 522.66,224 485.33,224" fill="#59845c"/><rect x="522.6666666666667" y="149.33333333333334" width="74.66666666666667" height="74.66666666666667" fill="#ffffff"/><rect x="522.67" y="149.33" width="37.33" height="37.33" fill="#ffe2e9"/><path d="M 522.67 149.33 A 37.33 37.33 0 0 0 560 186.66000000000003 L 560 149.33" fill="#bccdbd"/><rect x="560" y="149.33" width="37.33" height="37.33" fill="#ffcdd9"/><path d="M 560 186.66000000000003 A 37.33 37.33 0 0 0 597.33 149.33 L 560 149.33" fill="#537f56"/><rect x="522.67" y="186.67" width="37.33" height="37.33" fill="#ff4f79"/><path d="M 522.67 224 A 37.33 37.33 0 0 1  560 186.67 L 560 224" fill="#ff6e91"/><rect x="560" y="186.67" width="37.33" height="37.33" fill="#ff3867"/><path d="M 560 186.67 A 37.33 37.33 0 0 1 597.33 224 L 560 224" fill="#ff99b2"/><rect x="597.3333333333334" y="149.33333333333334" width="74.66666666666667" height="74.66666666666667" fill="#ffffff"/><rect x="597.33" y="149.33" width="37.33" height="37.33" fill="#7c9d7e"/><polygon points="634.6600000000001,149.33 634.6600000000001,186.66000000000003 597.33,186.66000000000003" fill="#ff7193"/><rect x="634.67" y="149.33" width="37.33" height="37.33" fill="#ffa1b7"/><polygon points="634.67,149.33 672,186.66000000000003 634.67,186.66000000000003" fill="#ff90aa"/><rect x="597.33" y="186.67" width="37.33" height="37.33" fill="#568158"/><polygon points="597.33,186.67 634.6600000000001,186.67 634.6600000000001,224" fill="#ff9eb5"/><rect x="634.67" y="186.67" width="37.33" height="37.33" fill="#dae4db"/><polygon points="634.67,186.67 672,186.67 634.67,224" fill="#ffe6ec"/><rect x="672" y="149.33" width="74.67" height="74.67" fill="#8fab90"/><polygon points="672,149.33 746.67,149.33 672,224" fill="#ff97b0"/><rect x="746.6666666666667" y="149.33333333333334" width="74.66666666666667" height="74.66666666666667" fill="#ffffff"/><rect x="746.67" y="149.33" width="37.33" height="37.33" fill="#47764a"/><polygon points="784,149.33 784,186.66000000000003 746.67,186.66000000000003" fill="#709472"/><rect x="784" y="149.33" width="37.33" height="37.33" fill="#ff7898"/><polygon points="784,149.33 821.33,186.66000000000003 784,186.66000000000003" fill="#ffced9"/><rect x="746.67" y="186.67" width="37.33" height="37.33" fill="#ffc1d0"/><polygon points="746.67,186.67 784,186.67 746.67,224" fill="#ff85a2"/><rect x="784" y="186.67" width="37.33" height="37.33" fill="#ffdee6"/><polygon points="784,186.67 821.33,186.67 821.33,224" fill="#c5d4c6"/><rect x="821.33" y="149.33" width="74.67" height="74.67" fill="#ff4572"/><polygon points="821.33,149.33 896,149.33 821.33,224" fill="#e9eee9"/><rect x="896" y="149.33" width="74.67" height="74.67" fill="#b3c7b5"/><polygon points="896,149.33 970.67,149.33 970.67,224" fill="#ff4974"/><rect x="970.6666666666667" y="149.33333333333334" width="74.66666666666667" height="74.66666666666667" fill="#ffffff"/><rect x="970.67" y="149.33" width="37.33" height="37.33" fill="#baccbb"/><path d="M 970.67 149.33 A 37.33 37.33 0 0 1 1008 186.66000000000003 L 970.67 186.66000000000003" fill="#eff3ef"/><rect x="1008" y="149.33" width="37.33" height="37.33" fill="#ff527b"/><path d="M 1008 186.66000000000003 A 37.33 37.33 0 0 1  1045.33 149.33 L 1045.33 186.66000000000003" fill="#ffeaef"/><rect x="970.67" y="186.67" width="37.33" height="37.33" fill="#b7c9b8"/><path d="M 970.67 224 A 37.33 37.33 0 0 0 1008 186.67 L 970.67 186.67" fill="#dce5dd"/><rect x="1008" y="186.67" width="37.33" height="37.33" fill="#ffebf0"/><path d="M 1008 186.67 A 37.33 37.33 0 0 0 1045.33 224 L 1045.33 186.67" fill="#739776"/><rect x="1045.33" y="149.33" width="74.67" height="74.67" fill="#ff5c83"/><path d="M 1045.33 224 A 74.67 74.67 0 0 1  1120 149.33 L 1120 224" fill="#95b097"/><rect x="0" y="224" width="74.66666666666667" height="74.66666666666667" fill="#ffffff"/><rect x="0" y="224" width="37.33" height="37.33" fill="#a0b9a2"/><polygon points="37.33,224 37.33,261.33 0,261.33" fill="#ff678b"/><rect x="37.33" y="224" width="37.33" height="37.33" fill="#f2f5f2"/><polygon points="37.33,224 74.66,261.33 37.33,261.33" fill="#ff9cb4"/><rect x="0" y="261.33" width="37.33" height="37.33" fill="#b4c7b5"/><polygon points="0,261.33 37.33,261.33 37.33,298.65999999999997" fill="#ff7193"/><rect x="37.33" y="261.33" width="37.33" height="37.33" fill="#e3eae3"/><polygon points="37.33,261.33 74.66,261.33 37.33,298.65999999999997" fill="#afc3b0"/><rect x="74.67" y="224" width="74.67" height="74.67" fill="#3a6c3c"/><polygon points="149.34,224 149.34,298.67 74.67,298.67" fill="#d8e2d8"/><rect x="149.33" y="224" width="74.67" height="74.67" fill="#ffa5ba"/><path d="M 149.33 224 A 74.67 74.67 0 0 1 224 298.67 L 149.33 298.67" fill="#fff1f4"/><rect x="224" y="224" width="74.67" height="74.67" fill="#acc1ad"/><rect x="224" y="224" width="74.67" height="74.67" fill="#ff84a1"/><rect x="298.67" y="224" width="74.67" height="74.67" fill="#ffa8bd"/><rect x="298.67" y="224" width="74.67" height="74.67" fill="#eff3ef"/><rect x="373.33333333333337" y="224" width="74.66666666666667" height="74.66666666666667" fill="#ffffff"/><rect x="373.33" y="224" width="37.33" height="37.33" fill="#dee7df"/><polygon points="410.65999999999997,224 410.65999999999997,261.33 373.33,261.33" fill="#ffa9bd"/><rect x="410.67" y="224" width="37.33" height="37.33" fill="#fff1f4"/><polygon points="410.67,224 448,261.33 410.67,261.33" fill="#6d9370"/><rect x="373.33" y="261.33" width="37.33" height="37.33" fill="#638b66"/><polygon points="373.33,261.33 410.65999999999997,261.33 373.33,298.65999999999997" fill="#d3ded3"/><rect x="410.67" y="261.33" width="37.33" height="37.33" fill="#668e69"/><polygon points="410.67,261.33 448,261.33 448,298.65999999999997" fill="#81a183"/><rect x="448" y="224" width="74.67" height="74.67" fill="#ff517b"/><path d="M 448 298.67 A 74.67 74.67 0 0 0 522.67 224 L 448 224" fill="#ffb9ca"/><rect x="522.67" y="224" width="74.67" height="74.67" fill="#b9cbba"/><path d="M 522.67 224 A 74.67 74.67 0 0 1 597.3399999999999 298.67 L 522.67 298.67" fill="#ffe6ec"/><rect x="597.33" y="224" width="74.67" height="74.67" fill="#ff7798"/><polygon points="597.33,224 672,224 672,298.67" fill="#ff9db4"/><rect x="672" y="224" width="74.66666666666667" height="74.66666666666667" fill="#ffffff"/><rect x="672" y="224" width="37.33" height="37.33" fill="#ff8ca8"/><path d="M 672 261.33 A 37.33 37.33 0 0 1  709.33 224 L 709.33 261.33" fill="#ffdbe3"/><rect x="709.33" y="224" width="37.33" height="37.33" fill="#3f7042"/><path d="M 709.33 224 A 37.33 37.33 0 0 1 746.6600000000001 261.33 L 709.33 261.33" fill="#ffe3ea"/><rect x="672" y="261.33" width="37.33" height="37.33" fill="#ff688c"/><path d="M 672 261.33 A 37.33 37.33 0 0 0 709.33 298.65999999999997 L 709.33 261.33" fill="#ff7495"/><rect x="709.33" y="261.33" width="37.33" height="37.33" fill="#4a784d"/><path d="M 709.33 298.65999999999997 A 37.33 37.33 0 0 0 746.6600000000001 261.33 L 709.33 261.33" fill="#ff6086"/><rect x="746.67" y="224" width="74.67" height="74.67" fill="#adc2ae"/><path d="M 746.67 224 A 74.67 74.67 0 0 0 821.3399999999999 298.67 L 821.3399999999999 224" fill="#7a9c7c"/><rect x="821.3333333333334" y="224" width="74.66666666666667" height="74.66666666666667" fill="#ffffff"/><rect x="821.33" y="224" width="37.33" height="37.33" fill="#ffd6e0"/><polygon points="858.6600000000001,224 858.6600000000001,261.33 821.33,261.33" fill="#47764a"/><rect x="858.67" y="224" width="37.33" height="37.33" fill="#ff7898"/><polygon points="858.67,224 896,224 858.67,261.33" fill="#c2d2c3"/><rect x="821.33" y="261.33" width="37.33" height="37.33" fill="#3f7042"/><polygon points="821.33,261.33 858.6600000000001,261.33 858.6600000000001,298.65999999999997" fill="#aabfab"/><rect x="858.67" y="261.33" width="37.33" height="37.33" fill="#779a79"/><polygon points="858.67,261.33 896,298.65999999999997 858.67,298.65999999999997" fill="#afc4b0"/><rect x="896" y="224" width="74.67" height="74.67" fill="#ff678b"/><rect x="896" y="224" width="74.67" height="74.67" fill="#d4dfd5"/><rect x="970.6666666666667" y="224" width="74.66666666666667" height="74.66666666666667" fill="#ffffff"/><rect x="970.67" y="224" width="37.33" height="37.33" fill="#ff567e"/><path d="M 970.67 261.33 A 37.33 37.33 0 0 1 1008 224 L 1008 233.3325 A 27.9975 27.9975 0 0 0 980.0024999999999 261.33" fill="#ffaabe"/><rect x="1008" y="224" width="37.33" height="37.33" fill="#769978"/><path d="M 1008 224 A 37.33 37.33 0 0 1 1045.33 261.33 L 1035.9975 261.33 A 27.9975 27.9975 0 0 0 1008 233.3325" fill="#ffd8e1"/><rect x="970.67" y="261.33" width="37.33" height="37.33" fill="#3e7041"/><path d="M 970.67 261.33 A 37.33 37.33 0 0 0 1008 298.65999999999997 L 1008 289.3275 A 27.9975 27.9975 0 0 1 980.0024999999999 261.33" fill="#ff7394"/><rect x="1008" y="261.33" width="37.33" height="37.33" fill="#e5ece6"/><path d="M 1008 298.65999999999997 A 37.33 37.33 0 0 0 1045.33 261.33 L 1035.9975 261.33 A 27.9975 27.9975 0 0 1 1008 289.3275" fill="#ff6d90"/><rect x="1045.3333333333335" y="224" width="74.66666666666667" height="74.66666666666667" fill="#ffffff"/><rect x="1045.33" y="224" width="37.33" height="37.33" fill="#b4c7b5"/><path d="M 1045.33 261.33 A 37.33 37.33 0 0 0 1082.6599999999999 224 L 1045.33 224" fill="#ff6d90"/><rect x="1082.67" y="224" width="37.33" height="37.33" fill="#a2baa3"/><path d="M 1082.67 224 A 37.33 37.33 0 0 0 1120 261.33 L 1120 224" fill="#e5ece6"/><rect x="1045.33" y="261.33" width="37.33" height="37.33" fill="#ff7596"/><path d="M 1045.33 261.33 A 37.33 37.33 0 0 1 1082.6599999999999 298.65999999999997 L 1045.33 298.65999999999997" fill="#e9efea"/><rect x="1082.67" y="261.33" width="37.33" height="37.33" fill="#ffc3d1"/><path d="M 1082.67 298.65999999999997 A 37.33 37.33 0 0 1  1120 261.33 L 1120 298.65999999999997" fill="#ff547c"/><rect x="0" y="298.6666666666667" width="74.66666666666667" height="74.66666666666667" fill="#ffffff"/><rect x="0" y="298.67" width="37.33" height="37.33" fill="#ffc8d5"/><path d="M 0 298.67 A 37.33 37.33 0 0 1 37.33 336 L 0 336" fill="#b5c8b6"/><rect x="37.33" y="298.67" width="37.33" height="37.33" fill="#ff97b0"/><path d="M 37.33 336 A 37.33 37.33 0 0 1  74.66 298.67 L 74.66 336" fill="#fff4f7"/><rect x="0" y="336" width="37.33" height="37.33" fill="#ff94ae"/><path d="M 0 373.33 A 37.33 37.33 0 0 0 37.33 336 L 0 336" fill="#fff3f6"/><rect x="37.33" y="336" width="37.33" height="37.33" fill="#fff5f8"/><path d="M 37.33 336 A 37.33 37.33 0 0 0 74.66 373.33 L 74.66 336" fill="#69906b"/><rect x="74.66666666666667" y="298.6666666666667" width="74.66666666666667" height="74.66666666666667" fill="#ffffff"/><rect x="74.67" y="298.67" width="37.33" height="37.33" fill="#ff4b76"/><path d="M 74.67 298.67 A 37.33 37.33 0 0 1 112 336 L 74.67 336" fill="#3d6e40"/><rect x="112" y="298.67" width="37.33" height="37.33" fill="#417244"/><path d="M 112 336 A 37.33 37.33 0 0 1  149.32999999999998 298.67 L 149.32999999999998 336" fill="#a3bba5"/><rect x="74.67" y="336" width="37.33" height="37.33" fill="#ffb8c9"/><path d="M 74.67 373.33 A 37.33 37.33 0 0 0 112 336 L 74.67 336" fill="#b8cab9"/><rect x="112" y="336" width="37.33" height="37.33" fill="#ff85a2"/><path d="M 112 336 A 37.33 37.33 0 0 0 149.32999999999998 373.33 L 149.32999999999998 336" fill="#c8d6c9"/><rect x="149.33333333333334" y="298.6666666666667" width="74.66666666666667" height="74.66666666666667" fill="#ffffff"/><rect x="149.33" y="298.67" width="37.33" height="37.33" fill="#ff9eb5"/><polygon points="186.66000000000003,298.67 186.66000000000003,336 149.33,336" fill="#a7bea8"/><rect x="186.67" y="298.67" width="37.33" height="37.33" fill="#ffd5df"/><polygon points="186.67,298.67 224,298.67 186.67,336" fill="#fffefe"/><rect x="149.33" y="336" width="37.33" height="37.33" fill="#4b794e"/><polygon points="149.33,336 186.66000000000003,336 186.66000000000003,373.33" fill="#ff86a3"/><rect x="186.67" y="336" width="37.33" height="37.33" fill="#548056"/><polygon points="186.67,336 224,373.33 186.67,373.33" fill="#668e69"/><rect x="224" y="298.6666666666667" width="74.66666666666667" height="74.66666666666667" fill="#ffffff"/><rect x="224" y="298.67" width="37.33" height="37.33" fill="#bdcebe"/><path d="M 224 298.67 A 37.33 37.33 0 0 0 261.33 336 L 261.33 298.67" fill="#c0d0c1"/><rect x="261.33" y="298.67" width="37.33" height="37.33" fill="#ff9db4"/><path d="M 261.33 336 A 37.33 37.33 0 0 0 298.65999999999997 298.67 L 261.33 298.67" fill="#548057"/><rect x="224" y="336" width="37.33" height="37.33" fill="#d2ded3"/><path d="M 224 373.33 A 37.33 37.33 0 0 1  261.33 336 L 261.33 373.33" fill="#b0c4b1"/><rect x="261.33" y="336" width="37.33" height="37.33" fill="#ffe7ed"/><path d="M 261.33 336 A 37.33 37.33 0 0 1 298.65999999999997 373.33 L 261.33 373.33" fill="#ffdce4"/><rect x="298.67" y="298.67" width="74.67" height="74.67" fill="#fff4f7"/><rect x="298.67" y="298.67" width="74.67" height="74.67" fill="#5e8760"/><rect x="373.33" y="298.67" width="74.67" height="74.67" fill="#6c926f"/><path d="M 373.33 298.67 A 74.67 74.67 0 0 1  448 373.34000000000003 L 373.33 298.67 A 74.67 74.67 0 0 0 448 373.34000000000003" fill="#5c855e"/><rect x="448" y="298.67" width="74.67" height="74.67" fill="#90ac91"/><path d="M 448 298.67 A 74.67 74.67 0 0 0 522.67 373.34000000000003 L 522.67 298.67" fill="#ff6489"/><rect x="522.67" y="298.67" width="74.67" height="74.67" fill="#ff98b0"/><rect x="522.67" y="298.67" width="74.67" height="74.67" fill="#fdfefd"/><rect x="597.33" y="298.67" width="74.67" height="74.67" fill="#f3f6f4"/><polygon points="597.33,298.67 672,373.34000000000003 597.33,373.34000000000003" fill="#5b855e"/><rect x="672" y="298.6666666666667" width="74.66666666666667" height="74.66666666666667" fill="#ffffff"/><rect x="672" y="298.67" width="37.33" height="37.33" fill="#ff7193"/><circle cx="690.665" cy="317.33500000000004" r="18.665" fill="#e5ece6"/><rect x="709.33" y="298.67" width="37.33" height="37.33" fill="#f1f5f1"/><rect x="709.33" y="298.67" width="37.33" height="37.33" fill="#ffd4de"/><rect x="672" y="336" width="37.33" height="37.33" fill="#bbccbc"/><circle cx="690.665" cy="354.665" r="18.665" fill="#ff7596"/><rect x="709.33" y="336" width="37.33" height="37.33" fill="#ff3d6b"/><rect x="709.33" y="336" width="37.33" height="37.33" fill="#396c3c"/><rect x="746.67" y="298.67" width="74.67" height="74.67" fill="#578259"/><path d="M 746.67 298.67 A 74.67 74.67 0 0 1  821.3399999999999 373.34000000000003 L 746.67 298.67 A 74.67 74.67 0 0 0 821.3399999999999 373.34000000000003" fill="#fff4f7"/><rect x="821.3333333333334" y="298.6666666666667" width="74.66666666666667" height="74.66666666666667" fill="#ffffff"/><rect x="821.33" y="298.67" width="37.33" height="37.33" fill="#417143"/><polygon points="858.6600000000001,298.67 858.6600000000001,336 821.33,336" fill="#6c926e"/><rect x="858.67" y="298.67" width="37.33" height="37.33" fill="#e3eae4"/><polygon points="858.67,298.67 896,298.67 858.67,336" fill="#ffaec1"/><rect x="821.33" y="336" width="37.33" height="37.33" fill="#ff7394"/><polygon points="821.33,336 858.6600000000001,336 858.6600000000001,373.33" fill="#ff4873"/><rect x="858.67" y="336" width="37.33" height="37.33" fill="#fff5f8"/><polygon points="858.67,336 896,373.33 858.67,373.33" fill="#739775"/><rect x="896" y="298.6666666666667" width="74.66666666666667" height="74.66666666666667" fill="#ffffff"/><rect x="896" y="298.67" width="37.33" height="37.33" fill="#edf1ed"/><path d="M 896 336 A 37.33 37.33 0 0 0 933.33 298.67 L 896 298.67" fill="#4d7a4f"/><rect x="933.33" y="298.67" width="37.33" height="37.33" fill="#779a79"/><path d="M 933.33 298.67 A 37.33 37.33 0 0 0 970.6600000000001 336 L 970.6600000000001 298.67" fill="#ffc4d2"/><rect x="896" y="336" width="37.33" height="37.33" fill="#9ab49c"/><path d="M 896 336 A 37.33 37.33 0 0 1 933.33 373.33 L 896 373.33" fill="#ff9db4"/><rect x="933.33" y="336" width="37.33" height="37.33" fill="#ff668a"/><path d="M 933.33 373.33 A 37.33 37.33 0 0 1  970.6600000000001 336 L 970.6600000000001 373.33" fill="#ffbacb"/><rect x="970.67" y="298.67" width="74.67" height="74.67" fill="#e7ede7"/><path d="M 970.67 298.67 A 74.67 74.67 0 0 1 1045.34 373.34000000000003 L 970.67 373.34000000000003" fill="#b4c8b6"/><rect x="1045.33" y="298.67" width="74.67" height="74.67" fill="#608862"/><rect x="1045.33" y="298.67" width="74.67" height="74.67" fill="#ff3565"/><rect x="0" y="373.33333333333337" width="74.66666666666667" height="74.66666666666667" fill="#ffffff"/><rect x="0" y="373.33" width="37.33" height="37.33" fill="#95b096"/><path d="M 0 410.65999999999997 A 37.33 37.33 0 0 1  37.33 373.33 L 37.33 410.65999999999997" fill="#c7d6c8"/><rect x="37.33" y="373.33" width="37.33" height="37.33" fill="#7c9d7e"/><path d="M 37.33 373.33 A 37.33 37.33 0 0 1 74.66 410.65999999999997 L 37.33 410.65999999999997" fill="#ff6d8f"/><rect x="0" y="410.67" width="37.33" height="37.33" fill="#b5c8b7"/><path d="M 0 410.67 A 37.33 37.33 0 0 0 37.33 448 L 37.33 410.67" fill="#ff3b6a"/><rect x="37.33" y="410.67" width="37.33" height="37.33" fill="#ff5b82"/><path d="M 37.33 448 A 37.33 37.33 0 0 0 74.66 410.67 L 37.33 410.67" fill="#ff688c"/><rect x="74.66666666666667" y="373.33333333333337" width="74.66666666666667" height="74.66666666666667" fill="#ffffff"/><rect x="74.67" y="373.33" width="37.33" height="37.33" fill="#ffc6d4"/><path d="M 74.67 410.65999999999997 A 37.33 37.33 0 0 1  112 373.33 L 112 410.65999999999997" fill="#d9e3da"/><rect x="112" y="373.33" width="37.33" height="37.33" fill="#ff4471"/><path d="M 112 373.33 A 37.33 37.33 0 0 1 149.32999999999998 410.65999999999997 L 112 410.65999999999997" fill="#ff9cb4"/><rect x="74.67" y="410.67" width="37.33" height="37.33" fill="#ffeef2"/><path d="M 74.67 410.67 A 37.33 37.33 0 0 0 112 448 L 112 410.67" fill="#ffd3de"/><rect x="112" y="410.67" width="37.33" height="37.33" fill="#fffafb"/><path d="M 112 448 A 37.33 37.33 0 0 0 149.32999999999998 410.67 L 112 410.67" fill="#7fa081"/><rect x="149.33333333333334" y="373.33333333333337" width="74.66666666666667" height="74.66666666666667" fill="#ffffff"/><rect x="149.33" y="373.33" width="37.33" height="37.33" fill="#98b299"/><path d="M 149.33 410.65999999999997 A 37.33 37.33 0 0 1  186.66000000000003 373.33 L 186.66000000000003 410.65999999999997" fill="#fafbfa"/><rect x="186.67" y="373.33" width="37.33" height="37.33" fill="#f7f9f7"/><path d="M 186.67 373.33 A 37.33 37.33 0 0 1 224 410.65999999999997 L 186.67 410.65999999999997" fill="#ff9db5"/><rect x="149.33" y="410.67" width="37.33" height="37.33" fill="#507d53"/><path d="M 149.33 410.67 A 37.33 37.33 0 0 0 186.66000000000003 448 L 186.66000000000003 410.67" fill="#ff5e84"/><rect x="186.67" y="410.67" width="37.33" height="37.33" fill="#ffd8e1"/><path d="M 186.67 448 A 37.33 37.33 0 0 0 224 410.67 L 186.67 410.67" fill="#c5d4c5"/><rect x="224" y="373.33" width="74.67" height="74.67" fill="#ff5980"/><path d="M 224 448 A 74.67 74.67 0 0 0 298.67 373.33 L 224 373.33" fill="#ff84a1"/><rect x="298.67" y="373.33" width="74.67" height="74.67" fill="#ff92ac"/><rect x="298.67" y="373.33" width="74.67" height="74.67" fill="#7c9d7e"/><rect x="373.33333333333337" y="373.33333333333337" width="74.66666666666667" height="74.66666666666667" fill="#ffffff"/><rect x="373.33" y="373.33" width="37.33" height="37.33" fill="#ff8aa5"/><path d="M 373.33 373.33 A 37.33 37.33 0 0 0 410.65999999999997 410.65999999999997 L 410.65999999999997 373.33" fill="#ff6b8e"/><rect x="410.67" y="373.33" width="37.33" height="37.33" fill="#a5bca6"/><path d="M 410.67 410.65999999999997 A 37.33 37.33 0 0 0 448 373.33 L 410.67 373.33" fill="#ff9eb5"/><rect x="373.33" y="410.67" width="37.33" height="37.33" fill="#ffc3d1"/><path d="M 373.33 448 A 37.33 37.33 0 0 1  410.65999999999997 410.67 L 410.65999999999997 448" fill="#ff577f"/><rect x="410.67" y="410.67" width="37.33" height="37.33" fill="#ffafc2"/><path d="M 410.67 410.67 A 37.33 37.33 0 0 1 448 448 L 410.67 448" fill="#96b198"/><rect x="448" y="373.33" width="74.67" height="74.67" fill="#ff5f85"/><rect x="448" y="373.33" width="74.67" height="74.67" fill="#ffcbd7"/><rect x="522.67" y="373.33" width="74.67" height="74.67" fill="#6d926f"/><rect x="522.67" y="373.33" width="74.67" height="74.67" fill="#dae3da"/><rect x="597.3333333333334" y="373.33333333333337" width="74.66666666666667" height="74.66666666666667" fill="#ffffff"/><rect x="597.33" y="373.33" width="37.33" height="37.33" fill="#ff8ba7"/><path d="M 597.33 410.65999999999997 A 37.33 37.33 0 0 0 634.6600000000001 373.33 L 597.33 373.33" fill="#d3ded4"/><rect x="634.67" y="373.33" width="37.33" height="37.33" fill="#d4dfd4"/><path d="M 634.67 373.33 A 37.33 37.33 0 0 0 672 410.65999999999997 L 672 373.33" fill="#b2c6b3"/><rect x="597.33" y="410.67" width="37.33" height="37.33" fill="#ff87a4"/><path d="M 597.33 410.67 A 37.33 37.33 0 0 1 634.6600000000001 448 L 597.33 448" fill="#7b9d7d"/><rect x="634.67" y="410.67" width="37.33" height="37.33" fill="#ffe4ea"/><path d="M 634.67 448 A 37.33 37.33 0 0 1  672 410.67 L 672 448" fill="#a3bba5"/><rect x="672" y="373.33333333333337" width="74.66666666666667" height="74.66666666666667" fill="#ffffff"/><rect x="672" y="373.33" width="37.33" height="37.33" fill="#ff4974"/><path d="M 672 410.65999999999997 A 37.33 37.33 0 0 0 709.33 373.33 L 672 373.33" fill="#799b7b"/><rect x="709.33" y="373.33" width="37.33" height="37.33" fill="#e8eee8"/><path d="M 709.33 373.33 A 37.33 37.33 0 0 0 746.6600000000001 410.65999999999997 L 746.6600000000001 373.33" fill="#fefefe"/><rect x="672" y="410.67" width="37.33" height="37.33" fill="#ccd9cc"/><path d="M 672 410.67 A 37.33 37.33 0 0 1 709.33 448 L 672 448" fill="#ff3c6a"/><rect x="709.33" y="410.67" width="37.33" height="37.33" fill="#ff4d77"/><path d="M 709.33 448 A 37.33 37.33 0 0 1  746.6600000000001 410.67 L 746.6600000000001 448" fill="#ff84a1"/><rect x="746.6666666666667" y="373.33333333333337" width="74.66666666666667" height="74.66666666666667" fill="#ffffff"/><rect x="746.67" y="373.33" width="37.33" height="37.33" fill="#517d53"/><path d="M 746.67 373.33 A 37.33 37.33 0 0 1 784 410.65999999999997 L 746.67 410.65999999999997" fill="#ff95af"/><rect x="784" y="373.33" width="37.33" height="37.33" fill="#c4d3c5"/><path d="M 784 410.65999999999997 A 37.33 37.33 0 0 1  821.33 373.33 L 821.33 410.65999999999997" fill="#ffb5c7"/><rect x="746.67" y="410.67" width="37.33" height="37.33" fill="#3d6f40"/><path d="M 746.67 448 A 37.33 37.33 0 0 0 784 410.67 L 746.67 410.67" fill="#85a487"/><rect x="784" y="410.67" width="37.33" height="37.33" fill="#59835b"/><path d="M 784 410.67 A 37.33 37.33 0 0 0 821.33 448 L 821.33 410.67" fill="#ffb5c6"/><rect x="821.3333333333334" y="373.33333333333337" width="74.66666666666667" height="74.66666666666667" fill="#ffffff"/><rect x="821.33" y="373.33" width="37.33" height="37.33" fill="#759877"/><circle cx="839.995" cy="391.995" r="18.665" fill="#ff7f9d"/><rect x="858.67" y="373.33" width="37.33" height="37.33" fill="#48774b"/><rect x="858.67" y="373.33" width="37.33" height="37.33" fill="#fff7f9"/><rect x="821.33" y="410.67" width="37.33" height="37.33" fill="#396c3c"/><circle cx="839.995" cy="429.33500000000004" r="18.665" fill="#b4c7b5"/><rect x="858.67" y="410.67" width="37.33" height="37.33" fill="#ffd6e0"/><rect x="858.67" y="410.67" width="37.33" height="37.33" fill="#9fb8a1"/><rect x="896" y="373.33" width="74.67" height="74.67" fill="#ffbdcc"/><path d="M 896 373.33 A 74.67 74.67 0 0 0 970.67 448 L 970.67 373.33" fill="#d1ddd2"/><rect x="970.67" y="373.33" width="74.67" height="74.67" fill="#678e6a"/><rect x="970.67" y="373.33" width="74.67" height="74.67" fill="#ffb3c5"/><rect x="1045.33" y="373.33" width="74.67" height="74.67" fill="#ffabbf"/><path d="M 1045.33 448 A 74.67 74.67 0 0 1  1120 373.33 L 1045.33 448 A 74.67 74.67 0 0 0 1120 373.33" fill="#ffa7bc"/><rect x="0" y="448" width="74.67" height="74.67" fill="#87a689"/><rect x="0" y="448" width="74.67" height="74.67" fill="#ff416e"/><rect x="74.67" y="448" width="74.67" height="74.67" fill="#aec3af"/><polygon points="74.67,448 149.34,448 149.34,522.67" fill="#ff547c"/><rect x="149.33333333333334" y="448" width="74.66666666666667" height="74.66666666666667" fill="#ffffff"/><rect x="149.33" y="448" width="37.33" height="37.33" fill="#ffadc0"/><path d="M 149.33 448 A 37.33 37.33 0 0 1 186.66000000000003 485.33 L 149.33 485.33" fill="#ff83a0"/><rect x="186.67" y="448" width="37.33" height="37.33" fill="#d1ddd2"/><path d="M 186.67 485.33 A 37.33 37.33 0 0 1  224 448 L 224 485.33" fill="#ffb6c7"/><rect x="149.33" y="485.33" width="37.33" height="37.33" fill="#749876"/><path d="M 149.33 522.66 A 37.33 37.33 0 0 0 186.66000000000003 485.33 L 149.33 485.33" fill="#4b794e"/><rect x="186.67" y="485.33" width="37.33" height="37.33" fill="#fffafb"/><path d="M 186.67 485.33 A 37.33 37.33 0 0 0 224 522.66 L 224 485.33" fill="#cddacd"/><rect x="224" y="448" width="74.66666666666667" height="74.66666666666667" fill="#ffffff"/><rect x="224" y="448" width="37.33" height="37.33" fill="#ff86a3"/><path d="M 224 448 A 37.33 37.33 0 0 0 261.33 485.33 L 261.33 448" fill="#ff7b9b"/><rect x="261.33" y="448" width="37.33" height="37.33" fill="#678e69"/><path d="M 261.33 485.33 A 37.33 37.33 0 0 0 298.65999999999997 448 L 261.33 448" fill="#bdcebe"/><rect x="224" y="485.33" width="37.33" height="37.33" fill="#fff1f4"/><path d="M 224 522.66 A 37.33 37.33 0 0 1  261.33 485.33 L 261.33 522.66" fill="#5a845c"/><rect x="261.33" y="485.33" width="37.33" height="37.33" fill="#ffcdd9"/><path d="M 261.33 485.33 A 37.33 37.33 0 0 1 298.65999999999997 522.66 L 261.33 522.66" fill="#ff7394"/><rect x="298.6666666666667" y="448" width="74.66666666666667" height="74.66666666666667" fill="#ffffff"/><rect x="298.67" y="448" width="37.33" height="37.33" fill="#ffb0c3"/><path d="M 298.67 448 A 37.33 37.33 0 0 0 336 485.33 L 336 448" fill="#ff809e"/><rect x="336" y="448" width="37.33" height="37.33" fill="#a8bfaa"/><path d="M 336 485.33 A 37.33 37.33 0 0 0 373.33 448 L 336 448" fill="#ff4672"/><rect x="298.67" y="485.33" width="37.33" height="37.33" fill="#537f56"/><path d="M 298.67 522.66 A 37.33 37.33 0 0 1  336 485.33 L 336 522.66" fill="#ff7999"/><rect x="336" y="485.33" width="37.33" height="37.33" fill="#ccd9cd"/><path d="M 336 485.33 A 37.33 37.33 0 0 1 373.33 522.66 L 336 522.66" fill="#5b855e"/><rect x="373.33333333333337" y="448" width="74.66666666666667" height="74.66666666666667" fill="#ffffff"/><rect x="373.33" y="448" width="37.33" height="37.33" fill="#ffedf1"/><path d="M 373.33 448 A 37.33 37.33 0 0 0 410.65999999999997 485.33 L 410.65999999999997 448" fill="#93af95"/><rect x="410.67" y="448" width="37.33" height="37.33" fill="#3f7042"/><path d="M 410.67 485.33 A 37.33 37.33 0 0 0 448 448 L 410.67 448" fill="#ffd6e0"/><rect x="373.33" y="485.33" width="37.33" height="37.33" fill="#ffd9e2"/><path d="M 373.33 522.66 A 37.33 37.33 0 0 1  410.65999999999997 485.33 L 410.65999999999997 522.66" fill="#ff9db4"/><rect x="410.67" y="485.33" width="37.33" height="37.33" fill="#ff5c83"/><path d="M 410.67 485.33 A 37.33 37.33 0 0 1 448 522.66 L 410.67 522.66" fill="#ff91ab"/><rect x="448" y="448" width="74.66666666666667" height="74.66666666666667" fill="#ffffff"/><rect x="448" y="448" width="37.33" height="37.33" fill="#3c6e3f"/><polygon points="485.33,448 485.33,485.33 448,485.33" fill="#4c7a4f"/><rect x="485.33" y="448" width="37.33" height="37.33" fill="#719573"/><polygon points="485.33,448 522.66,485.33 485.33,485.33" fill="#dde6de"/><rect x="448" y="485.33" width="37.33" height="37.33" fill="#b4c7b5"/><polygon points="448,485.33 485.33,485.33 448,522.66" fill="#ffdae3"/><rect x="485.33" y="485.33" width="37.33" height="37.33" fill="#678e69"/><polygon points="485.33,485.33 522.66,485.33 522.66,522.66" fill="#a0b8a1"/><rect x="522.67" y="448" width="74.67" height="74.67" fill="#ff7999"/><rect x="522.67" y="448" width="74.67" height="74.67" fill="#dee6de"/><rect x="597.3333333333334" y="448" width="74.66666666666667" height="74.66666666666667" fill="#ffffff"/><rect x="597.33" y="448" width="37.33" height="37.33" fill="#ff6f91"/><path d="M 597.33 485.33 A 37.33 37.33 0 0 0 634.6600000000001 448 L 597.33 448" fill="#789a7a"/><rect x="634.67" y="448" width="37.33" height="37.33" fill="#c6d4c7"/><path d="M 634.67 448 A 37.33 37.33 0 0 0 672 485.33 L 672 448" fill="#a7bda8"/><rect x="597.33" y="485.33" width="37.33" height="37.33" fill="#ffedf1"/><path d="M 597.33 485.33 A 37.33 37.33 0 0 1 634.6600000000001 522.66 L 597.33 522.66" fill="#ff8da8"/><rect x="634.67" y="485.33" width="37.33" height="37.33" fill="#eaefea"/><path d="M 634.67 522.66 A 37.33 37.33 0 0 1  672 485.33 L 672 522.66" fill="#e7ede7"/><rect x="672" y="448" width="74.67" height="74.67" fill="#d4dfd4"/><path d="M 672 522.67 A 74.67 74.67 0 0 1  746.67 448 L 746.67 522.67" fill="#ff7092"/><rect x="746.67" y="448" width="74.67" height="74.67" fill="#749876"/><polygon points="746.67,448 821.3399999999999,448 821.3399999999999,522.67" fill="#d3ded3"/><rect x="821.33" y="448" width="74.67" height="74.67" fill="#ffb3c5"/><rect x="821.33" y="448" width="74.67" height="74.67" fill="#6e9370"/><rect x="896" y="448" width="74.66666666666667" height="74.66666666666667" fill="#ffffff"/><rect x="896" y="448" width="37.33" height="37.33" fill="#ffeef2"/><polygon points="933.33,448 933.33,485.33 896,485.33" fill="#a7bea9"/><rect x="933.33" y="448" width="37.33" height="37.33" fill="#c6d4c7"/><polygon points="933.33,448 970.6600000000001,485.33 933.33,485.33" fill="#ffffff"/><rect x="896" y="485.33" width="37.33" height="37.33" fill="#688f6a"/><polygon points="896,485.33 933.33,485.33 933.33,522.66" fill="#a0b9a2"/><rect x="933.33" y="485.33" width="37.33" height="37.33" fill="#ff819f"/><polygon points="933.33,485.33 970.6600000000001,485.33 933.33,522.66" fill="#ffe1e8"/><rect x="970.67" y="448" width="74.67" height="74.67" fill="#9cb69e"/><rect x="970.67" y="448" width="74.67" height="74.67" fill="#ffcad7"/><rect x="1045.33" y="448" width="74.67" height="74.67" fill="#ffa9bd"/><path d="M 1045.33 522.67 A 74.67 74.67 0 0 0 1120 448 L 1045.33 448" fill="#f8f9f8"/><rect x="0" y="522.67" width="74.67" height="74.67" fill="#dbe4db"/><rect x="0" y="522.67" width="74.67" height="74.67" fill="#457548"/><rect x="74.66666666666667" y="522.6666666666667" width="74.66666666666667" height="74.66666666666667" fill="#ffffff"/><rect x="74.67" y="522.67" width="37.33" height="37.33" fill="#ff406d"/><path d="M 74.67 522.67 A 37.33 37.33 0 0 1 112 560 L 74.67 560" fill="#ff8ba7"/><rect x="112" y="522.67" width="37.33" height="37.33" fill="#648c66"/><path d="M 112 560 A 37.33 37.33 0 0 1  149.32999999999998 522.67 L 149.32999999999998 560" fill="#ff7394"/><rect x="74.67" y="560" width="37.33" height="37.33" fill="#ff517a"/><path d="M 74.67 597.33 A 37.33 37.33 0 0 0 112 560 L 74.67 560" fill="#ffaabe"/><rect x="112" y="560" width="37.33" height="37.33" fill="#3a6c3d"/><path d="M 112 560 A 37.33 37.33 0 0 0 149.32999999999998 597.33 L 149.32999999999998 560" fill="#c1d1c2"/><rect x="149.33333333333334" y="522.6666666666667" width="74.66666666666667" height="74.66666666666667" fill="#ffffff"/><rect x="149.33" y="522.67" width="37.33" height="37.33" fill="#adc2af"/><path d="M 149.33 522.67 A 37.33 37.33 0 0 0 186.66000000000003 560 L 186.66000000000003 522.67" fill="#cfdbcf"/><rect x="186.67" y="522.67" width="37.33" height="37.33" fill="#bbcdbd"/><path d="M 186.67 560 A 37.33 37.33 0 0 0 224 522.67 L 186.67 522.67" fill="#cad8cb"/><rect x="149.33" y="560" width="37.33" height="37.33" fill="#6a906c"/><path d="M 149.33 597.33 A 37.33 37.33 0 0 1  186.66000000000003 560 L 186.66000000000003 597.33" fill="#ffabbf"/><rect x="186.67" y="560" width="37.33" height="37.33" fill="#ff6187"/><path d="M 186.67 560 A 37.33 37.33 0 0 1 224 597.33 L 186.67 597.33" fill="#ffb4c6"/><rect x="224" y="522.6666666666667" width="74.66666666666667" height="74.66666666666667" fill="#ffffff"/><rect x="224" y="522.67" width="37.33" height="37.33" fill="#cddace"/><path d="M 224 560 A 37.33 37.33 0 0 1  261.33 522.67 L 261.33 560" fill="#729775"/><rect x="261.33" y="522.67" width="37.33" height="37.33" fill="#ff537c"/><path d="M 261.33 522.67 A 37.33 37.33 0 0 1 298.65999999999997 560 L 261.33 560" fill="#ffe1e8"/><rect x="224" y="560" width="37.33" height="37.33" fill="#fffbfc"/><path d="M 224 560 A 37.33 37.33 0 0 0 261.33 597.33 L 261.33 560" fill="#ffb3c5"/><rect x="261.33" y="560" width="37.33" height="37.33" fill="#fdfdfd"/><path d="M 261.33 597.33 A 37.33 37.33 0 0 0 298.65999999999997 560 L 261.33 560" fill="#ff5d83"/><rect x="298.6666666666667" y="522.6666666666667" width="74.66666666666667" height="74.66666666666667" fill="#ffffff"/><rect x="298.67" y="522.67" width="37.33" height="37.33" fill="#d0dcd0"/><path d="M 298.67 560 A 37.33 37.33 0 0 0 336 522.67 L 298.67 522.67" fill="#85a487"/><rect x="336" y="522.67" width="37.33" height="37.33" fill="#aec3b0"/><path d="M 336 522.67 A 37.33 37.33 0 0 0 373.33 560 L 373.33 522.67" fill="#90ac92"/><rect x="298.67" y="560" width="37.33" height="37.33" fill="#5e8760"/><path d="M 298.67 560 A 37.33 37.33 0 0 1 336 597.33 L 298.67 597.33" fill="#94af95"/><rect x="336" y="560" width="37.33" height="37.33" fill="#e3eae3"/><path d="M 336 597.33 A 37.33 37.33 0 0 1  373.33 560 L 373.33 597.33" fill="#ff4a75"/><rect x="373.33333333333337" y="522.6666666666667" width="74.66666666666667" height="74.66666666666667" fill="#ffffff"/><rect x="373.33" y="522.67" width="37.33" height="37.33" fill="#658d68"/><polygon points="410.65999999999997,522.67 410.65999999999997,560 373.33,560" fill="#ffaec1"/><rect x="410.67" y="522.67" width="37.33" height="37.33" fill="#ff7596"/><polygon points="410.67,522.67 448,560 410.67,560" fill="#ff5b82"/><rect x="373.33" y="560" width="37.33" height="37.33" fill="#678e6a"/><polygon points="373.33,560 410.65999999999997,560 410.65999999999997,597.33" fill="#ff4873"/><rect x="410.67" y="560" width="37.33" height="37.33" fill="#ffecf1"/><polygon points="410.67,560 448,560 410.67,597.33" fill="#ff4d77"/><rect x="448" y="522.6666666666667" width="74.66666666666667" height="74.66666666666667" fill="#ffffff"/><rect x="448" y="522.67" width="37.33" height="37.33" fill="#ffaec1"/><path d="M 448 522.67 A 37.33 37.33 0 0 1 485.33 560 L 448 560" fill="#e3eae3"/><rect x="485.33" y="522.67" width="37.33" height="37.33" fill="#ffc3d1"/><path d="M 485.33 560 A 37.33 37.33 0 0 1  522.66 522.67 L 522.66 560" fill="#ffc3d1"/><rect x="448" y="560" width="37.33" height="37.33" fill="#a5bca6"/><path d="M 448 597.33 A 37.33 37.33 0 0 0 485.33 560 L 448 560" fill="#ffc9d6"/><rect x="485.33" y="560" width="37.33" height="37.33" fill="#eff3ef"/><path d="M 485.33 560 A 37.33 37.33 0 0 0 522.66 597.33 L 522.66 560" fill="#ffeaef"/><rect x="522.6666666666667" y="522.6666666666667" width="74.66666666666667" height="74.66666666666667" fill="#ffffff"/><rect x="522.67" y="522.67" width="37.33" height="37.33" fill="#cad8cb"/><path d="M 522.67 560 A 37.33 37.33 0 0 0 560 522.67 L 522.67 522.67" fill="#e3eae3"/><rect x="560" y="522.67" width="37.33" height="37.33" fill="#ccd9cd"/><path d="M 560 522.67 A 37.33 37.33 0 0 0 597.33 560 L 597.33 522.67" fill="#698f6b"/><rect x="522.67" y="560" width="37.33" height="37.33" fill="#ff4571"/><path d="M 522.67 560 A 37.33 37.33 0 0 1 560 597.33 L 522.67 597.33" fill="#789a7a"/><rect x="560" y="560" width="37.33" height="37.33" fill="#c5d4c6"/><path d="M 560 597.33 A 37.33 37.33 0 0 1  597.33 560 L 597.33 597.33" fill="#638b66"/><rect x="597.33" y="522.67" width="74.67" height="74.67" fill="#ff86a3"/><rect x="597.33" y="522.67" width="74.67" height="74.67" fill="#ff5981"/><rect x="672" y="522.6666666666667" width="74.66666666666667" height="74.66666666666667" fill="#ffffff"/><rect x="672" y="522.67" width="37.33" height="37.33" fill="#b1c5b2"/><path d="M 672 560 A 37.33 37.33 0 0 1 709.33 522.67 L 709.33 532.0024999999999 A 27.9975 27.9975 0 0 0 681.3325 560" fill="#719673"/><rect x="709.33" y="522.67" width="37.33" height="37.33" fill="#ff5880"/><path d="M 709.33 522.67 A 37.33 37.33 0 0 1 746.6600000000001 560 L 737.3275 560 A 27.9975 27.9975 0 0 0 709.33 532.0024999999999" fill="#ffa1b7"/><rect x="672" y="560" width="37.33" height="37.33" fill="#d6e1d7"/><path d="M 672 560 A 37.33 37.33 0 0 0 709.33 597.33 L 709.33 587.9975 A 27.9975 27.9975 0 0 1 681.3325 560" fill="#ff4874"/><rect x="709.33" y="560" width="37.33" height="37.33" fill="#6b916d"/><path d="M 709.33 597.33 A 37.33 37.33 0 0 0 746.6600000000001 560 L 737.3275 560 A 27.9975 27.9975 0 0 1 709.33 587.9975" fill="#7d9e7f"/><rect x="746.6666666666667" y="522.6666666666667" width="74.66666666666667" height="74.66666666666667" fill="#ffffff"/><rect x="746.67" y="522.67" width="37.33" height="37.33" fill="#b3c7b5"/><polygon points="784,522.67 784,560 746.67,560" fill="#5d8760"/><rect x="784" y="522.67" width="37.33" height="37.33" fill="#749876"/><polygon points="784,522.67 821.33,560 784,560" fill="#9cb59d"/><rect x="746.67" y="560" width="37.33" height="37.33" fill="#ffaec1"/><polygon points="746.67,560 784,560 784,597.33" fill="#dae4db"/><rect x="784" y="560" width="37.33" height="37.33" fill="#ffbccc"/><polygon points="784,560 821.33,560 784,597.33" fill="#97b299"/><rect x="821.33" y="522.67" width="74.67" height="74.67" fill="#cddace"/><rect x="821.33" y="522.67" width="74.67" height="74.67" fill="#4e7c51"/><rect x="896" y="522.67" width="74.67" height="74.67" fill="#5d865f"/><path d="M 896 597.3399999999999 A 74.67 74.67 0 0 1  970.67 522.67 L 970.67 597.3399999999999" fill="#baccbb"/><rect x="970.67" y="522.67" width="74.67" height="74.67" fill="#d5e0d6"/><path d="M 970.67 522.67 A 74.67 74.67 0 0 0 1045.34 597.3399999999999 L 1045.34 522.67" fill="#ff4773"/><rect x="1045.33" y="522.67" width="74.67" height="74.67" fill="#ffc6d3"/><rect x="1045.33" y="522.67" width="74.67" height="74.67" fill="#ffb5c7"/><rect x="0" y="597.33" width="74.67" height="74.67" fill="#537f56"/><path d="M 0 597.33 A 74.67 74.67 0 0 0 74.67 672 L 74.67 597.33" fill="#f4f7f4"/><rect x="74.67" y="597.33" width="74.67" height="74.67" fill="#ff86a3"/><polygon points="74.67,597.33 149.34,597.33 149.34,672" fill="#97b299"/><rect x="149.33333333333334" y="597.3333333333334" width="74.66666666666667" height="74.66666666666667" fill="#ffffff"/><rect x="149.33" y="597.33" width="37.33" height="37.33" fill="#ffb1c3"/><circle cx="167.995" cy="615.995" r="18.665" fill="#ff88a4"/><rect x="186.67" y="597.33" width="37.33" height="37.33" fill="#ff3f6c"/><rect x="186.67" y="597.33" width="37.33" height="37.33" fill="#ff7192"/><rect x="149.33" y="634.67" width="37.33" height="37.33" fill="#ffbccc"/><circle cx="167.995" cy="653.3349999999999" r="18.665" fill="#ff4873"/><rect x="186.67" y="634.67" width="37.33" height="37.33" fill="#fff4f6"/><rect x="186.67" y="634.67" width="37.33" height="37.33" fill="#8eab90"/><rect x="224" y="597.3333333333334" width="74.66666666666667" height="74.66666666666667" fill="#ffffff"/><rect x="224" y="597.33" width="37.33" height="37.33" fill="#8daa8e"/><path d="M 224 597.33 A 37.33 37.33 0 0 0 261.33 634.6600000000001 L 261.33 597.33" fill="#6c926e"/><rect x="261.33" y="597.33" width="37.33" height="37.33" fill="#8aa88c"/><path d="M 261.33 634.6600000000001 A 37.33 37.33 0 0 0 298.65999999999997 597.33 L 261.33 597.33" fill="#ff6a8e"/><rect x="224" y="634.67" width="37.33" height="37.33" fill="#baccbb"/><path d="M 224 672 A 37.33 37.33 0 0 1  261.33 634.67 L 261.33 672" fill="#c1d1c2"/><rect x="261.33" y="634.67" width="37.33" height="37.33" fill="#dae3db"/><path d="M 261.33 634.67 A 37.33 37.33 0 0 1 298.65999999999997 672 L 261.33 672" fill="#85a486"/><rect x="298.6666666666667" y="597.3333333333334" width="74.66666666666667" height="74.66666666666667" fill="#ffffff"/><rect x="298.67" y="597.33" width="37.33" height="37.33" fill="#c8d6c9"/><path d="M 298.67 634.6600000000001 A 37.33 37.33 0 0 1 336 597.33 L 336 606.6625 A 27.9975 27.9975 0 0 0 308.0025 634.6600000000001" fill="#fffbfc"/><rect x="336" y="597.33" width="37.33" height="37.33" fill="#ff7e9c"/><path d="M 336 597.33 A 37.33 37.33 0 0 1 373.33 634.6600000000001 L 363.9975 634.6600000000001 A 27.9975 27.9975 0 0 0 336 606.6625" fill="#58835a"/><rect x="298.67" y="634.67" width="37.33" height="37.33" fill="#dfe7e0"/><path d="M 298.67 634.67 A 37.33 37.33 0 0 0 336 672 L 336 662.6674999999999 A 27.9975 27.9975 0 0 1 308.0025 634.67" fill="#b0c4b1"/><rect x="336" y="634.67" width="37.33" height="37.33" fill="#ff3a69"/><path d="M 336 672 A 37.33 37.33 0 0 0 373.33 634.67 L 363.9975 634.67 A 27.9975 27.9975 0 0 1 336 662.6674999999999" fill="#ff7596"/><rect x="373.33" y="597.33" width="74.67" height="74.67" fill="#84a386"/><rect x="373.33" y="597.33" width="74.67" height="74.67" fill="#87a689"/><rect x="448" y="597.3333333333334" width="74.66666666666667" height="74.66666666666667" fill="#ffffff"/><rect x="448" y="597.33" width="37.33" height="37.33" fill="#ff6489"/><path d="M 448 634.6600000000001 A 37.33 37.33 0 0 0 485.33 597.33 L 448 597.33" fill="#ffd8e1"/><rect x="485.33" y="597.33" width="37.33" height="37.33" fill="#ffe0e8"/><path d="M 485.33 597.33 A 37.33 37.33 0 0 0 522.66 634.6600000000001 L 522.66 597.33" fill="#fff4f7"/><rect x="448" y="634.67" width="37.33" height="37.33" fill="#99b39b"/><path d="M 448 634.67 A 37.33 37.33 0 0 1 485.33 672 L 448 672" fill="#779a79"/><rect x="485.33" y="634.67" width="37.33" height="37.33" fill="#7fa081"/><path d="M 485.33 672 A 37.33 37.33 0 0 1  522.66 634.67 L 522.66 672" fill="#ffa8bd"/><rect x="522.67" y="597.33" width="74.67" height="74.67" fill="#c8d6c8"/><polygon points="522.67,597.33 597.3399999999999,597.33 597.3399999999999,672" fill="#789a7a"/><rect x="597.33" y="597.33" width="74.67" height="74.67" fill="#a9bfab"/><rect x="597.33" y="597.33" width="74.67" height="74.67" fill="#eff3ef"/><rect x="672" y="597.3333333333334" width="74.66666666666667" height="74.66666666666667" fill="#ffffff"/><rect x="672" y="597.33" width="37.33" height="37.33" fill="#fff3f6"/><path d="M 672 634.6600000000001 A 37.33 37.33 0 0 1  709.33 597.33 L 709.33 634.6600000000001" fill="#ffcdd9"/><rect x="709.33" y="597.33" width="37.33" height="37.33" fill="#ffc5d3"/><path d="M 709.33 597.33 A 37.33 37.33 0 0 1 746.6600000000001 634.6600000000001 L 709.33 634.6600000000001" fill="#e7ede7"/><rect x="672" y="634.67" width="37.33" height="37.33" fill="#ff809e"/><path d="M 672 634.67 A 37.33 37.33 0 0 0 709.33 672 L 709.33 634.67" fill="#aec3af"/><rect x="709.33" y="634.67" width="37.33" height="37.33" fill="#7b9d7d"/><path d="M 709.33 672 A 37.33 37.33 0 0 0 746.6600000000001 634.67 L 709.33 634.67" fill="#ff7f9d"/><rect x="746.67" y="597.33" width="74.67" height="74.67" fill="#638b66"/><polygon points="746.67,597.33 821.3399999999999,597.33 746.67,672" fill="#cfdbd0"/><rect x="821.33" y="597.33" width="74.67" height="74.67" fill="#85a487"/><path d="M 821.33 672 A 74.67 74.67 0 0 1  896 597.33 L 821.33 672 A 74.67 74.67 0 0 0 896 597.33" fill="#96b198"/><rect x="896" y="597.3333333333334" width="74.66666666666667" height="74.66666666666667" fill="#ffffff"/><rect x="896" y="597.33" width="37.33" height="37.33" fill="#517e54"/><circle cx="914.665" cy="615.995" r="18.665" fill="#ff94ad"/><rect x="933.33" y="597.33" width="37.33" height="37.33" fill="#ff7c9b"/><rect x="933.33" y="597.33" width="37.33" height="37.33" fill="#dbe4dc"/><rect x="896" y="634.67" width="37.33" height="37.33" fill="#fff2f5"/><circle cx="914.665" cy="653.3349999999999" r="18.665" fill="#f6f9f7"/><rect x="933.33" y="634.67" width="37.33" height="37.33" fill="#b6c9b7"/><rect x="933.33" y="634.67" width="37.33" height="37.33" fill="#ffcdd9"/><rect x="970.6666666666667" y="597.3333333333334" width="74.66666666666667" height="74.66666666666667" fill="#ffffff"/><rect x="970.67" y="597.33" width="37.33" height="37.33" fill="#ffb6c7"/><polygon points="1008,597.33 1008,634.6600000000001 970.67,634.6600000000001" fill="#ff87a3"/><rect x="1008" y="597.33" width="37.33" height="37.33" fill="#ffb1c4"/><polygon points="1008,597.33 1045.33,597.33 1008,634.6600000000001" fill="#b2c6b4"/><rect x="970.67" y="634.67" width="37.33" height="37.33" fill="#f6f8f6"/><polygon points="970.67,634.67 1008,634.67 1008,672" fill="#ff99b1"/><rect x="1008" y="634.67" width="37.33" height="37.33" fill="#dfe7df"/><polygon points="1008,634.67 1045.33,672 1008,672" fill="#d9e3d9"/><rect x="1045.3333333333335" y="597.3333333333334" width="74.66666666666667" height="74.66666666666667" fill="#ffffff"/><rect x="1045.33" y="597.33" width="37.33" height="37.33" fill="#ff89a5"/><polygon points="1082.6599999999999,597.33 1082.6599999999999,634.6600000000001 1045.33,634.6600000000001" fill="#a6bda7"/><rect x="1082.67" y="597.33" width="37.33" height="37.33" fill="#abc1ad"/><polygon points="1082.67,597.33 1120,634.6600000000001 1082.67,634.6600000000001" fill="#618963"/><rect x="1045.33" y="634.67" width="37.33" height="37.33" fill="#e9eee9"/><polygon points="1045.33,634.67 1082.6599999999999,634.67 1082.6599999999999,672" fill="#90ac92"/><rect x="1082.67" y="634.67" width="37.33" height="37.33" fill="#e3eae3"/><polygon points="1082.67,634.67 1120,634.67 1082.67,672" fill="#dce5dd"/></g></svg>