<svg id="visual" viewBox="0 0 900 600" width="900" height="600" xmlns="http://www.w3.org/2000/svg" xmlns:xlink="http://www.w3.org/1999/xlink" version="1.1"><rect x="0" y="0" width="900" height="600" fill="#f77d9a"></rect><path d="M0 211L21.5 233.3C43 255.7 86 300.3 128.8 304.7C171.7 309 214.3 273 257.2 260.7C300 248.3 343 259.7 385.8 269.3C428.7 279 471.3 287 514.2 297.8C557 308.7 600 322.3 642.8 323.7C685.7 325 728.3 314 771.2 306.3C814 298.7 857 294.3 878.5 292.2L900 290L900 0L878.5 0C857 0 814 0 771.2 0C728.3 0 685.7 0 642.8 0C600 0 557 0 514.2 0C471.3 0 428.7 0 385.8 0C343 0 300 0 257.2 0C214.3 0 171.7 0 128.8 0C86 0 43 0 21.5 0L0 0Z" fill="#628a65"></path><path d="M0 169L21.5 187.8C43 206.7 86 244.3 128.8 253.7C171.7 263 214.3 244 257.2 235C300 226 343 227 385.8 224.2C428.7 221.3 471.3 214.7 514.2 209.8C557 205 600 202 642.8 203.3C685.7 204.7 728.3 210.3 771.2 216.8C814 223.3 857 230.7 878.5 234.3L900 238L900 0L878.5 0C857 0 814 0 771.2 0C728.3 0 685.7 0 642.8 0C600 0 557 0 514.2 0C471.3 0 428.7 0 385.8 0C343 0 300 0 257.2 0C214.3 0 171.7 0 128.8 0C86 0 43 0 21.5 0L0 0Z" fill="#c57636"></path><path d="M0 199L21.5 200.5C43 202 86 205 128.8 206.7C171.7 208.3 214.3 208.7 257.2 201C300 193.3 343 177.7 385.8 170C428.7 162.3 471.3 162.7 514.2 157.2C557 151.7 600 140.3 642.8 148.5C685.7 156.7 728.3 184.3 771.2 186.7C814 189 857 166 878.5 154.5L900 143L900 0L878.5 0C857 0 814 0 771.2 0C728.3 0 685.7 0 642.8 0C600 0 557 0 514.2 0C471.3 0 428.7 0 385.8 0C343 0 300 0 257.2 0C214.3 0 171.7 0 128.8 0C86 0 43 0 21.5 0L0 0Z" fill="#fb4d78"></path><path d="M0 160L21.5 148.7C43 137.3 86 114.7 128.8 113.8C171.7 113 214.3 134 257.2 145.8C300 157.7 343 160.3 385.8 154.5C428.7 148.7 471.3 134.3 514.2 123.7C557 113 600 106 642.8 105.2C685.7 104.3 728.3 109.7 771.2 110.5C814 111.3 857 107.7 878.5 105.8L900 104L900 0L878.5 0C857 0 814 0 771.2 0C728.3 0 685.7 0 642.8 0C600 0 557 0 514.2 0C471.3 0 428.7 0 385.8 0C343 0 300 0 257.2 0C214.3 0 171.7 0 128.8 0C86 0 43 0 21.5 0L0 0Z" fill="#c57636"></path><path d="M0 65L21.5 68.2C43 71.3 86 77.7 128.8 83.7C171.7 89.7 214.3 95.3 257.2 93C300 90.7 343 80.3 385.8 72C428.7 63.7 471.3 57.3 514.2 61C557 64.7 600 78.3 642.8 87.2C685.7 96 728.3 100 771.2 100C814 100 857 96 878.5 94L900 92L900 0L878.5 0C857 0 814 0 771.2 0C728.3 0 685.7 0 642.8 0C600 0 557 0 514.2 0C471.3 0 428.7 0 385.8 0C343 0 300 0 257.2 0C214.3 0 171.7 0 128.8 0C86 0 43 0 21.5 0L0 0Z" fill="#628a65"></path></svg>