<svg id="visual" viewBox="0 0 900 600" width="900" height="600" xmlns="http://www.w3.org/2000/svg" xmlns:xlink="http://www.w3.org/1999/xlink" version="1.1"><rect x="0" y="0" width="900" height="600" fill="#540D6E"></rect><path d="M0 255L21.5 254.3C43 253.7 86 252.3 128.8 261.8C171.7 271.3 214.3 291.7 257.2 290.8C300 290 343 268 385.8 255.5C428.7 243 471.3 240 514.2 255.7C557 271.3 600 305.7 642.8 314.5C685.7 323.3 728.3 306.7 771.2 307.5C814 308.3 857 326.7 878.5 335.8L900 345L900 0L878.5 0C857 0 814 0 771.2 0C728.3 0 685.7 0 642.8 0C600 0 557 0 514.2 0C471.3 0 428.7 0 385.8 0C343 0 300 0 257.2 0C214.3 0 171.7 0 128.8 0C86 0 43 0 21.5 0L0 0Z" fill="#0ead68"></path><path d="M0 241L21.5 229.7C43 218.3 86 195.7 128.8 186.2C171.7 176.7 214.3 180.3 257.2 185.2C300 190 343 196 385.8 210.2C428.7 224.3 471.3 246.7 514.2 247.8C557 249 600 229 642.8 223.8C685.7 218.7 728.3 228.3 771.2 227.7C814 227 857 216 878.5 210.5L900 205L900 0L878.5 0C857 0 814 0 771.2 0C728.3 0 685.7 0 642.8 0C600 0 557 0 514.2 0C471.3 0 428.7 0 385.8 0C343 0 300 0 257.2 0C214.3 0 171.7 0 128.8 0C86 0 43 0 21.5 0L0 0Z" fill="#1c60ab"></path><path d="M0 189L21.5 192.7C43 196.3 86 203.7 128.8 193.7C171.7 183.7 214.3 156.3 257.2 144.2C300 132 343 135 385.8 148C428.7 161 471.3 184 514.2 191.2C557 198.3 600 189.7 642.8 185C685.7 180.3 728.3 179.7 771.2 174.2C814 168.7 857 158.3 878.5 153.2L900 148L900 0L878.5 0C857 0 814 0 771.2 0C728.3 0 685.7 0 642.8 0C600 0 557 0 514.2 0C471.3 0 428.7 0 385.8 0C343 0 300 0 257.2 0C214.3 0 171.7 0 128.8 0C86 0 43 0 21.5 0L0 0Z" fill="#540d6e"></path><path d="M0 121L21.5 124.7C43 128.3 86 135.7 128.8 130.7C171.7 125.7 214.3 108.3 257.2 107C300 105.7 343 120.3 385.8 129.8C428.7 139.3 471.3 143.7 514.2 140.5C557 137.3 600 126.7 642.8 126C685.7 125.3 728.3 134.7 771.2 132C814 129.3 857 114.7 878.5 107.3L900 100L900 0L878.5 0C857 0 814 0 771.2 0C728.3 0 685.7 0 642.8 0C600 0 557 0 514.2 0C471.3 0 428.7 0 385.8 0C343 0 300 0 257.2 0C214.3 0 171.7 0 128.8 0C86 0 43 0 21.5 0L0 0Z" fill="#1c60ab"></path><path d="M0 98L21.5 96C43 94 86 90 128.8 81.8C171.7 73.7 214.3 61.3 257.2 61.7C300 62 343 75 385.8 83.8C428.7 92.7 471.3 97.3 514.2 90.8C557 84.3 600 66.7 642.8 56.5C685.7 46.3 728.3 43.7 771.2 44.2C814 44.7 857 48.3 878.5 50.2L900 52L900 0L878.5 0C857 0 814 0 771.2 0C728.3 0 685.7 0 642.8 0C600 0 557 0 514.2 0C471.3 0 428.7 0 385.8 0C343 0 300 0 257.2 0C214.3 0 171.7 0 128.8 0C86 0 43 0 21.5 0L0 0Z" fill="#0ead68"></path></svg>