<?xml version="1.0" standalone="no"?><svg xmlns:xlink="http://www.w3.org/1999/xlink" xmlns="http://www.w3.org/2000/svg" viewBox="0 0 1000 600" preserveAspectRatio="xMaxYMax slice"><g transform="scale(0.975609756097561)"><rect x="0" y="0" width="1093.3333333333333" height="615" fill="#0EAD68"/><rect x="0" y="0" width="68.33" height="68.33" fill="#9ecdaf"/><rect x="0" y="0" width="68.33" height="68.33" fill="#5bbe8e"/><rect x="68.33" y="0" width="68.33" height="68.33" fill="#9dcdaf"/><polygon points="136.66,0 136.66,68.33 68.33,68.33" fill="#9dcdaf"/><rect x="136.67" y="0" width="68.33" height="68.33" fill="#9ccdae"/><polygon points="136.67,0 205,0 205,68.33" fill="#9ecdb0"/><rect x="205" y="0" width="68.33" height="68.33" fill="#2d666b"/><path d="M 205 0 A 68.33 68.33 0 0 1 273.33 68.33 L 205 68.33" fill="#29b375"/><rect x="273.33" y="0" width="68.33" height="68.33" fill="#5dbf8f"/><polygon points="273.33,0 341.65999999999997,0 273.33,68.33" fill="#3db87f"/><rect x="341.67" y="0" width="68.33" height="68.33" fill="#1a9369"/><polygon points="410,0 410,68.33 341.67,68.33" fill="#85c8a3"/><rect x="410" y="0" width="68.33" height="68.33" fill="#3e406c"/><rect x="410" y="0" width="68.33" height="68.33" fill="#50176e"/><rect x="478.33" y="0" width="68.33" height="68.33" fill="#237d6a"/><polygon points="478.33,0 546.66,68.33 478.33,68.33" fill="#403b6c"/><rect x="546.67" y="0" width="68.33" height="68.33" fill="#325b6b"/><polygon points="546.67,0 615,68.33 546.67,68.33" fill="#99ccad"/><rect x="615" y="0" width="68.33" height="68.33" fill="#4c206d"/><rect x="615" y="0" width="68.33" height="68.33" fill="#0faa68"/><rect x="683.33" y="0" width="68.33" height="68.33" fill="#77c59c"/><polygon points="683.33,0 751.6600000000001,0 751.6600000000001,68.33" fill="#13ae6b"/><rect x="751.67" y="0" width="68.33" height="68.33" fill="#18af6d"/><polygon points="751.67,0 820,0 820,68.33" fill="#9ecdb0"/><rect x="820" y="0" width="68.33" height="68.33" fill="#71c399"/><polygon points="820,0 888.33,68.33 820,68.33" fill="#4b226d"/><rect x="888.33" y="0" width="68.33" height="68.33" fill="#10ad69"/><path d="M 888.33 0 A 68.33 68.33 0 0 1 956.6600000000001 68.33 L 888.33 68.33" fill="#95cbab"/><rect x="956.67" y="0" width="68.33" height="68.33" fill="#44b983"/><path d="M 956.67 68.33 A 68.33 68.33 0 0 1  1025 0 L 956.67 68.33 A 68.33 68.33 0 0 0 1025 0" fill="#10a968"/><rect x="1025" y="0" width="68.33" height="68.33" fill="#32b57a"/><path d="M 1025 68.33 A 68.33 68.33 0 0 1  1093.33 0 L 1025 68.33 A 68.33 68.33 0 0 0 1093.33 0" fill="#93cbaa"/><rect x="0" y="68.33" width="68.33" height="68.33" fill="#5dbf8f"/><polygon points="68.33,68.33 68.33,136.66 0,136.66" fill="#2a6e6a"/><rect x="68.33" y="68.33" width="68.33" height="68.33" fill="#32b57a"/><rect x="68.33" y="68.33" width="68.33" height="68.33" fill="#2d656b"/><rect x="136.67" y="68.33" width="68.33" height="68.33" fill="#1f8569"/><path d="M 136.67 68.33 A 68.33 68.33 0 0 0 205 136.66 L 205 68.33" fill="#3b456c"/><rect x="205" y="68.33" width="68.33" height="68.33" fill="#2b6b6a"/><polygon points="205,68.33 273.33,68.33 273.33,136.66" fill="#0fad69"/><rect x="273.33" y="68.33" width="68.33" height="68.33" fill="#7cc69f"/><path d="M 273.33 68.33 A 68.33 68.33 0 0 1  341.65999999999997 136.66 L 273.33 68.33 A 68.33 68.33 0 0 0 341.65999999999997 136.66" fill="#9accae"/><rect x="341.67" y="68.33" width="68.33" height="68.33" fill="#8cc9a7"/><rect x="341.67" y="68.33" width="68.33" height="68.33" fill="#50bc89"/><rect x="410" y="68.33" width="68.33" height="68.33" fill="#4e1a6d"/><rect x="410" y="68.33" width="68.33" height="68.33" fill="#403c6c"/><rect x="478.33" y="68.33" width="68.33" height="68.33" fill="#27736a"/><polygon points="478.33,68.33 546.66,68.33 546.66,136.66" fill="#22b272"/><rect x="546.67" y="68.33" width="68.33" height="68.33" fill="#4f186e"/><polygon points="546.67,68.33 615,68.33 615,136.66" fill="#247a6a"/><rect x="615" y="68.33" width="68.33" height="68.33" fill="#2b6b6a"/><path d="M 615 136.66 A 68.33 68.33 0 0 0 683.33 68.33 L 615 68.33" fill="#1b8f69"/><rect x="683.33" y="68.33" width="68.33" height="68.33" fill="#80c6a0"/><path d="M 683.33 68.33 A 68.33 68.33 0 0 0 751.6600000000001 136.66 L 751.6600000000001 68.33" fill="#28726a"/><rect x="751.67" y="68.33" width="68.33" height="68.33" fill="#27b374"/><path d="M 751.67 136.66 A 68.33 68.33 0 0 1  820 68.33 L 751.67 136.66 A 68.33 68.33 0 0 0 820 68.33" fill="#48ba85"/><rect x="820" y="68.33" width="68.33" height="68.33" fill="#4bbb86"/><polygon points="820,68.33 888.33,68.33 820,136.66" fill="#26b274"/><rect x="888.33" y="68.33" width="68.33" height="68.33" fill="#179969"/><rect x="888.33" y="68.33" width="68.33" height="68.33" fill="#50176e"/><rect x="956.67" y="68.33" width="68.33" height="68.33" fill="#46ba84"/><path d="M 956.67 68.33 A 68.33 68.33 0 0 1 1025 136.66 L 956.67 136.66" fill="#3db77f"/><rect x="1025" y="68.33" width="68.33" height="68.33" fill="#199469"/><rect x="1025" y="68.33" width="68.33" height="68.33" fill="#3f3e6c"/><rect x="0" y="136.67" width="68.33" height="68.33" fill="#15ae6b"/><rect x="0" y="136.67" width="68.33" height="68.33" fill="#33b57b"/><rect x="68.33" y="136.67" width="68.33" height="68.33" fill="#84c7a3"/><path d="M 68.33 136.67 A 68.33 68.33 0 0 1 136.66 205 L 68.33 205" fill="#4dbb87"/><rect x="136.67" y="136.67" width="68.33" height="68.33" fill="#3f3c6c"/><rect x="136.67" y="136.67" width="68.33" height="68.33" fill="#9accad"/><rect x="205" y="136.67" width="68.33" height="68.33" fill="#29706a"/><path d="M 205 205 A 68.33 68.33 0 0 0 273.33 136.67 L 205 136.67" fill="#52116e"/><rect x="273.33" y="136.67" width="68.33" height="68.33" fill="#50bc89"/><rect x="273.33" y="136.67" width="68.33" height="68.33" fill="#4e1a6e"/><rect x="341.67" y="136.67" width="68.33" height="68.33" fill="#19b06e"/><rect x="341.67" y="136.67" width="68.33" height="68.33" fill="#6ec298"/><rect x="410" y="136.67" width="68.33" height="68.33" fill="#4ebb88"/><polygon points="410,136.67 478.33,136.67 410,205" fill="#42b982"/><rect x="478.33" y="136.67" width="68.33" height="68.33" fill="#4dbb87"/><rect x="478.33" y="136.67" width="68.33" height="68.33" fill="#3d426c"/><rect x="546.67" y="136.67" width="68.33" height="68.33" fill="#7ac59e"/><polygon points="615,136.67 615,205 546.67,205" fill="#27746a"/><rect x="615" y="136.67" width="68.33" height="68.33" fill="#3e3f6c"/><polygon points="683.33,136.67 683.33,205 615,205" fill="#1ab06e"/><rect x="683.33" y="136.67" width="68.33" height="68.33" fill="#149f69"/><path d="M 683.33 136.67 A 68.33 68.33 0 0 0 751.6600000000001 205 L 751.6600000000001 136.67" fill="#53bc8a"/><rect x="751.67" y="136.67" width="68.33" height="68.33" fill="#33b57b"/><path d="M 751.67 205 A 68.33 68.33 0 0 0 820 136.67 L 751.67 136.67" fill="#3c446c"/><rect x="820" y="136.67" width="68.33" height="68.33" fill="#77c59c"/><polygon points="820,136.67 888.33,205 820,205" fill="#93cbaa"/><rect x="888.33" y="136.67" width="68.33" height="68.33" fill="#a0ceb1"/><rect x="888.33" y="136.67" width="68.33" height="68.33" fill="#530e6e"/><rect x="956.67" y="136.67" width="68.33" height="68.33" fill="#20b171"/><rect x="956.67" y="136.67" width="68.33" height="68.33" fill="#22b272"/><rect x="1025" y="136.67" width="68.33" height="68.33" fill="#540e6e"/><path d="M 1025 136.67 A 68.33 68.33 0 0 0 1093.33 205 L 1093.33 136.67" fill="#42366c"/><rect x="0" y="205" width="68.33" height="68.33" fill="#65c193"/><path d="M 0 205 A 68.33 68.33 0 0 0 68.33 273.33 L 68.33 205" fill="#35b67c"/><rect x="68.33" y="205" width="68.33" height="68.33" fill="#2bb476"/><path d="M 68.33 273.33 A 68.33 68.33 0 0 1  136.66 205 L 68.33 273.33 A 68.33 68.33 0 0 0 136.66 205" fill="#5dbf8f"/><rect x="136.67" y="205" width="68.33" height="68.33" fill="#1fb170"/><polygon points="136.67,205 205,205 205,273.33" fill="#12a468"/><rect x="205" y="205" width="68.33" height="68.33" fill="#49ba85"/><path d="M 205 205 A 68.33 68.33 0 0 0 273.33 273.33 L 273.33 205" fill="#8ac9a6"/><rect x="273.33" y="205" width="68.33" height="68.33" fill="#3f3d6c"/><rect x="273.33" y="205" width="68.33" height="68.33" fill="#1e8969"/><rect x="341.67" y="205" width="68.33" height="68.33" fill="#159d69"/><polygon points="341.67,205 410,205 341.67,273.33" fill="#13ae6b"/><rect x="410" y="205" width="68.33" height="68.33" fill="#5fbf90"/><polygon points="478.33,205 478.33,273.33 410,273.33" fill="#44326d"/><rect x="478.33" y="205" width="68.33" height="68.33" fill="#3db87f"/><path d="M 478.33 273.33 A 68.33 68.33 0 0 1  546.66 205 L 546.66 273.33" fill="#13ae6b"/><rect x="546.67" y="205" width="68.33" height="68.33" fill="#87c8a4"/><polygon points="546.67,205 615,205 546.67,273.33" fill="#4a256d"/><rect x="615" y="205" width="68.33" height="68.33" fill="#44326d"/><polygon points="615,205 683.33,273.33 615,273.33" fill="#3eb880"/><rect x="683.33" y="205" width="68.33" height="68.33" fill="#1db070"/><polygon points="683.33,205 751.6600000000001,273.33 683.33,273.33" fill="#59be8d"/><rect x="751.67" y="205" width="68.33" height="68.33" fill="#12a368"/><rect x="751.67" y="205" width="68.33" height="68.33" fill="#2d656b"/><rect x="820" y="205" width="68.33" height="68.33" fill="#80c7a1"/><rect x="820" y="205" width="68.33" height="68.33" fill="#60bf91"/><rect x="888.33" y="205" width="68.33" height="68.33" fill="#325b6b"/><rect x="888.33" y="205" width="68.33" height="68.33" fill="#7ec6a0"/><rect x="956.67" y="205" width="68.33" height="68.33" fill="#5fbf90"/><polygon points="956.67,205 1025,205 956.67,273.33" fill="#1e8969"/><rect x="1025" y="205" width="68.33" height="68.33" fill="#4a246d"/><path d="M 1025 205 A 68.33 68.33 0 0 1 1093.33 273.33 L 1025 273.33" fill="#64c093"/><rect x="0" y="273.33" width="68.33" height="68.33" fill="#23b273"/><path d="M 0 341.65999999999997 A 68.33 68.33 0 0 1  68.33 273.33 L 0 341.65999999999997 A 68.33 68.33 0 0 0 68.33 273.33" fill="#43336d"/><rect x="68.33" y="273.33" width="68.33" height="68.33" fill="#2d676b"/><path d="M 68.33 341.65999999999997 A 68.33 68.33 0 0 1  136.66 273.33 L 68.33 341.65999999999997 A 68.33 68.33 0 0 0 136.66 273.33" fill="#3e3f6c"/><rect x="136.67" y="273.33" width="68.33" height="68.33" fill="#1c8d69"/><path d="M 136.67 341.65999999999997 A 68.33 68.33 0 0 1  205 273.33 L 205 341.65999999999997" fill="#14ae6b"/><rect x="205" y="273.33" width="68.33" height="68.33" fill="#20846a"/><path d="M 205 341.65999999999997 A 68.33 68.33 0 0 1  273.33 273.33 L 273.33 341.65999999999997" fill="#51136e"/><rect x="273.33" y="273.33" width="68.33" height="68.33" fill="#4a256d"/><path d="M 273.33 273.33 A 68.33 68.33 0 0 0 341.65999999999997 341.65999999999997 L 341.65999999999997 273.33" fill="#41386c"/><rect x="341.67" y="273.33" width="68.33" height="68.33" fill="#5dbf8f"/><polygon points="341.67,273.33 410,273.33 410,341.65999999999997" fill="#81c7a1"/><rect x="410" y="273.33" width="68.33" height="68.33" fill="#60bf91"/><path d="M 410 273.33 A 68.33 68.33 0 0 0 478.33 341.65999999999997 L 478.33 273.33" fill="#5bbe8e"/><rect x="478.33" y="273.33" width="68.33" height="68.33" fill="#6dc297"/><path d="M 478.33 273.33 A 68.33 68.33 0 0 1  546.66 341.65999999999997 L 478.33 273.33 A 68.33 68.33 0 0 0 546.66 341.65999999999997" fill="#374f6c"/><rect x="546.67" y="273.33" width="68.33" height="68.33" fill="#84c8a3"/><path d="M 546.67 273.33 A 68.33 68.33 0 0 1 615 341.65999999999997 L 546.67 341.65999999999997" fill="#7cc69e"/><rect x="615" y="273.33" width="68.33" height="68.33" fill="#1c8d69"/><rect x="615" y="273.33" width="68.33" height="68.33" fill="#13a268"/><rect x="683.33" y="273.33" width="68.33" height="68.33" fill="#199469"/><rect x="683.33" y="273.33" width="68.33" height="68.33" fill="#85c8a3"/><rect x="751.67" y="273.33" width="68.33" height="68.33" fill="#13a268"/><rect x="751.67" y="273.33" width="68.33" height="68.33" fill="#2b6a6b"/><rect x="820" y="273.33" width="68.33" height="68.33" fill="#70c399"/><rect x="820" y="273.33" width="68.33" height="68.33" fill="#1e8969"/><rect x="888.33" y="273.33" width="68.33" height="68.33" fill="#48286d"/><path d="M 888.33 341.65999999999997 A 68.33 68.33 0 0 0 956.6600000000001 273.33 L 888.33 273.33" fill="#13a368"/><rect x="956.67" y="273.33" width="68.33" height="68.33" fill="#384c6c"/><rect x="956.67" y="273.33" width="68.33" height="68.33" fill="#28706a"/><rect x="1025" y="273.33" width="68.33" height="68.33" fill="#2cb477"/><polygon points="1093.33,273.33 1093.33,341.65999999999997 1025,341.65999999999997" fill="#52116e"/><rect x="0" y="341.67" width="68.33" height="68.33" fill="#179869"/><polygon points="68.33,341.67 68.33,410 0,410" fill="#71c399"/><rect x="68.33" y="341.67" width="68.33" height="68.33" fill="#237d6a"/><rect x="68.33" y="341.67" width="68.33" height="68.33" fill="#83c7a2"/><rect x="136.67" y="341.67" width="68.33" height="68.33" fill="#189669"/><path d="M 136.67 410 A 68.33 68.33 0 0 0 205 341.67 L 136.67 341.67" fill="#34b67b"/><rect x="205" y="341.67" width="68.33" height="68.33" fill="#384d6c"/><polygon points="205,341.67 273.33,341.67 205,410" fill="#2eb478"/><rect x="273.33" y="341.67" width="68.33" height="68.33" fill="#21b171"/><rect x="273.33" y="341.67" width="68.33" height="68.33" fill="#42366c"/><rect x="341.67" y="341.67" width="68.33" height="68.33" fill="#199469"/><rect x="341.67" y="341.67" width="68.33" height="68.33" fill="#89c9a5"/><rect x="410" y="341.67" width="68.33" height="68.33" fill="#159d69"/><polygon points="410,341.67 478.33,410 410,410" fill="#452e6d"/><rect x="478.33" y="341.67" width="68.33" height="68.33" fill="#462d6d"/><polygon points="478.33,341.67 546.66,341.67 546.66,410" fill="#5fbf90"/><rect x="546.67" y="341.67" width="68.33" height="68.33" fill="#33b57a"/><path d="M 546.67 341.67 A 68.33 68.33 0 0 1 615 410 L 546.67 410" fill="#4d1c6d"/><rect x="615" y="341.67" width="68.33" height="68.33" fill="#34566b"/><path d="M 615 341.67 A 68.33 68.33 0 0 0 683.33 410 L 683.33 341.67" fill="#67c194"/><rect x="683.33" y="341.67" width="68.33" height="68.33" fill="#44326d"/><path d="M 683.33 341.67 A 68.33 68.33 0 0 1  751.6600000000001 410 L 683.33 341.67 A 68.33 68.33 0 0 0 751.6600000000001 410" fill="#394c6c"/><rect x="751.67" y="341.67" width="68.33" height="68.33" fill="#59be8d"/><polygon points="820,341.67 820,410 751.67,410" fill="#27746a"/><rect x="820" y="341.67" width="68.33" height="68.33" fill="#3f3d6c"/><path d="M 820 410 A 68.33 68.33 0 0 0 888.33 341.67 L 820 341.67" fill="#4b226d"/><rect x="888.33" y="341.67" width="68.33" height="68.33" fill="#51156e"/><rect x="888.33" y="341.67" width="68.33" height="68.33" fill="#0faa68"/><rect x="956.67" y="341.67" width="68.33" height="68.33" fill="#9fceb0"/><path d="M 956.67 410 A 68.33 68.33 0 0 1  1025 341.67 L 1025 410" fill="#6dc297"/><rect x="1025" y="341.67" width="68.33" height="68.33" fill="#48286d"/><path d="M 1025 341.67 A 68.33 68.33 0 0 0 1093.33 410 L 1093.33 341.67" fill="#28726a"/><rect x="0" y="410" width="68.33" height="68.33" fill="#20b171"/><path d="M 0 410 A 68.33 68.33 0 0 1 68.33 478.33 L 0 478.33" fill="#462c6d"/><rect x="68.33" y="410" width="68.33" height="68.33" fill="#60bf91"/><path d="M 68.33 410 A 68.33 68.33 0 0 1 136.66 478.33 L 68.33 478.33" fill="#83c7a2"/><rect x="136.67" y="410" width="68.33" height="68.33" fill="#149f69"/><polygon points="136.67,410 205,410 136.67,478.33" fill="#28716a"/><rect x="205" y="410" width="68.33" height="68.33" fill="#2a6d6a"/><polygon points="273.33,410 273.33,478.33 205,478.33" fill="#43b983"/><rect x="273.33" y="410" width="68.33" height="68.33" fill="#1e8969"/><path d="M 273.33 478.33 A 68.33 68.33 0 0 0 341.65999999999997 410 L 273.33 410" fill="#50bc89"/><rect x="341.67" y="410" width="68.33" height="68.33" fill="#97ccac"/><rect x="341.67" y="410" width="68.33" height="68.33" fill="#28b375"/><rect x="410" y="410" width="68.33" height="68.33" fill="#472b6d"/><rect x="410" y="410" width="68.33" height="68.33" fill="#4b216d"/><rect x="478.33" y="410" width="68.33" height="68.33" fill="#2eb478"/><path d="M 478.33 410 A 68.33 68.33 0 0 1 546.66 478.33 L 478.33 478.33" fill="#7bc59e"/><rect x="546.67" y="410" width="68.33" height="68.33" fill="#394c6c"/><polygon points="615,410 615,478.33 546.67,478.33" fill="#2e636b"/><rect x="615" y="410" width="68.33" height="68.33" fill="#6dc297"/><path d="M 615 478.33 A 68.33 68.33 0 0 0 683.33 410 L 615 410" fill="#49256d"/><rect x="683.33" y="410" width="68.33" height="68.33" fill="#0fad69"/><path d="M 683.33 410 A 68.33 68.33 0 0 1  751.6600000000001 478.33 L 683.33 410 A 68.33 68.33 0 0 0 751.6600000000001 478.33" fill="#21816a"/><rect x="751.67" y="410" width="68.33" height="68.33" fill="#3c436c"/><rect x="751.67" y="410" width="68.33" height="68.33" fill="#5fbf90"/><rect x="820" y="410" width="68.33" height="68.33" fill="#247c6a"/><polygon points="820,410 888.33,410 820,478.33" fill="#44316d"/><rect x="888.33" y="410" width="68.33" height="68.33" fill="#4e1a6e"/><polygon points="888.33,410 956.6600000000001,410 956.6600000000001,478.33" fill="#44326d"/><rect x="956.67" y="410" width="68.33" height="68.33" fill="#247b6a"/><polygon points="956.67,410 1025,410 1025,478.33" fill="#4c1e6d"/><rect x="1025" y="410" width="68.33" height="68.33" fill="#64c093"/><path d="M 1025 478.33 A 68.33 68.33 0 0 1  1093.33 410 L 1093.33 478.33" fill="#227e6a"/><rect x="0" y="478.33" width="68.33" height="68.33" fill="#4dbb87"/><path d="M 0 546.66 A 68.33 68.33 0 0 1  68.33 478.33 L 68.33 546.66" fill="#a0ceb0"/><rect x="68.33" y="478.33" width="68.33" height="68.33" fill="#28716a"/><polygon points="68.33,478.33 136.66,546.66 68.33,546.66" fill="#39b77d"/><rect x="136.67" y="478.33" width="68.33" height="68.33" fill="#88c8a5"/><path d="M 136.67 546.66 A 68.33 68.33 0 0 1  205 478.33 L 205 546.66" fill="#30b579"/><rect x="205" y="478.33" width="68.33" height="68.33" fill="#7fc6a0"/><path d="M 205 546.66 A 68.33 68.33 0 0 1  273.33 478.33 L 205 546.66 A 68.33 68.33 0 0 0 273.33 478.33" fill="#20b171"/><rect x="273.33" y="478.33" width="68.33" height="68.33" fill="#33586b"/><rect x="273.33" y="478.33" width="68.33" height="68.33" fill="#4a236d"/><rect x="341.67" y="478.33" width="68.33" height="68.33" fill="#22806a"/><rect x="341.67" y="478.33" width="68.33" height="68.33" fill="#530e6e"/><rect x="410" y="478.33" width="68.33" height="68.33" fill="#96ccac"/><path d="M 410 546.66 A 68.33 68.33 0 0 1  478.33 478.33 L 410 546.66 A 68.33 68.33 0 0 0 478.33 478.33" fill="#4c1f6d"/><rect x="478.33" y="478.33" width="68.33" height="68.33" fill="#35556b"/><path d="M 478.33 478.33 A 68.33 68.33 0 0 1 546.66 546.66 L 478.33 546.66" fill="#42b982"/><rect x="546.67" y="478.33" width="68.33" height="68.33" fill="#315c6b"/><rect x="546.67" y="478.33" width="68.33" height="68.33" fill="#32b57a"/><rect x="615" y="478.33" width="68.33" height="68.33" fill="#3c436c"/><path d="M 615 478.33 A 68.33 68.33 0 0 1 683.33 546.66 L 615 546.66" fill="#2d676b"/><rect x="683.33" y="478.33" width="68.33" height="68.33" fill="#57bd8c"/><path d="M 683.33 546.66 A 68.33 68.33 0 0 0 751.6600000000001 478.33 L 683.33 478.33" fill="#3f3d6c"/><rect x="751.67" y="478.33" width="68.33" height="68.33" fill="#36516b"/><polygon points="751.67,478.33 820,478.33 751.67,546.66" fill="#36526b"/><rect x="820" y="478.33" width="68.33" height="68.33" fill="#27b374"/><path d="M 820 546.66 A 68.33 68.33 0 0 1  888.33 478.33 L 888.33 546.66" fill="#46ba84"/><rect x="888.33" y="478.33" width="68.33" height="68.33" fill="#21b171"/><polygon points="888.33,478.33 956.6600000000001,546.66 888.33,546.66" fill="#2f626b"/><rect x="956.67" y="478.33" width="68.33" height="68.33" fill="#50166e"/><polygon points="1025,478.33 1025,546.66 956.67,546.66" fill="#36b67c"/><rect x="1025" y="478.33" width="68.33" height="68.33" fill="#9fceb0"/><rect x="1025" y="478.33" width="68.33" height="68.33" fill="#22b172"/><rect x="0" y="546.67" width="68.33" height="68.33" fill="#13a268"/><rect x="0" y="546.67" width="68.33" height="68.33" fill="#325a6b"/><rect x="68.33" y="546.67" width="68.33" height="68.33" fill="#67c194"/><rect x="68.33" y="546.67" width="68.33" height="68.33" fill="#1c8d69"/><rect x="136.67" y="546.67" width="68.33" height="68.33" fill="#30606b"/><polygon points="136.67,546.67 205,615 136.67,615" fill="#1eb170"/><rect x="205" y="546.67" width="68.33" height="68.33" fill="#3eb880"/><polygon points="205,546.67 273.33,546.67 205,615" fill="#384e6c"/><rect x="273.33" y="546.67" width="68.33" height="68.33" fill="#4ebb88"/><path d="M 273.33 546.67 A 68.33 68.33 0 0 1  341.65999999999997 615 L 273.33 546.67 A 68.33 68.33 0 0 0 341.65999999999997 615" fill="#48ba85"/><rect x="341.67" y="546.67" width="68.33" height="68.33" fill="#a0ceb1"/><polygon points="341.67,546.67 410,615 341.67,615" fill="#14a068"/><rect x="410" y="546.67" width="68.33" height="68.33" fill="#4ebb88"/><rect x="410" y="546.67" width="68.33" height="68.33" fill="#462e6d"/><rect x="478.33" y="546.67" width="68.33" height="68.33" fill="#4a236d"/><rect x="478.33" y="546.67" width="68.33" height="68.33" fill="#57bd8c"/><rect x="546.67" y="546.67" width="68.33" height="68.33" fill="#39b77d"/><polygon points="546.67,546.67 615,615 546.67,615" fill="#6bc296"/><rect x="615" y="546.67" width="68.33" height="68.33" fill="#159e69"/><polygon points="615,546.67 683.33,615 615,615" fill="#2e636b"/><rect x="683.33" y="546.67" width="68.33" height="68.33" fill="#28736a"/><path d="M 683.33 546.67 A 68.33 68.33 0 0 1 751.6600000000001 615 L 683.33 615" fill="#93cbaa"/><rect x="751.67" y="546.67" width="68.33" height="68.33" fill="#27746a"/><polygon points="751.67,546.67 820,546.67 820,615" fill="#52116e"/><rect x="820" y="546.67" width="68.33" height="68.33" fill="#39b77d"/><polygon points="820,546.67 888.33,615 820,615" fill="#38b67d"/><rect x="888.33" y="546.67" width="68.33" height="68.33" fill="#1f8769"/><rect x="888.33" y="546.67" width="68.33" height="68.33" fill="#10a768"/><rect x="956.67" y="546.67" width="68.33" height="68.33" fill="#29706a"/><rect x="956.67" y="546.67" width="68.33" height="68.33" fill="#33586b"/><rect x="1025" y="546.67" width="68.33" height="68.33" fill="#2e646b"/><polygon points="1025,546.67 1093.33,546.67 1093.33,615" fill="#21816a"/></g></svg>