<?xml version="1.0" standalone="no"?><svg xmlns:xlink="http://www.w3.org/1999/xlink" xmlns="http://www.w3.org/2000/svg" viewBox="0 0 1000 600" preserveAspectRatio="xMaxYMax slice"><g transform="scale(0.8928571428571429)"><rect x="0" y="0" width="1120" height="672" fill="#80a92d"/><rect x="0" y="74.66666666666667" width="74.66666666666667" height="74.66666666666667" fill="#80a92d"/><rect x="522.6666666666667" y="74.66666666666667" width="74.66666666666667" height="74.66666666666667" fill="#80a92d"/><rect x="597.3333333333334" y="74.66666666666667" width="74.66666666666667" height="74.66666666666667" fill="#80a92d"/><rect x="821.3333333333334" y="74.66666666666667" width="74.66666666666667" height="74.66666666666667" fill="#80a92d"/><rect x="0" y="149.33333333333334" width="74.66666666666667" height="74.66666666666667" fill="#80a92d"/><rect x="0" y="186.67" width="37.33" height="37.33" fill="#81a82e"/><rect x="37.33" y="186.67" width="37.33" height="37.33" fill="#c02295"/><rect x="448" y="149.33333333333334" width="74.66666666666667" height="74.66666666666667" fill="#80a92d"/><rect x="485.33" y="186.67" width="37.33" height="37.33" fill="#8fb967"/><rect x="746.6666666666667" y="149.33333333333334" width="74.66666666666667" height="74.66666666666667" fill="#80a92d"/><rect x="224" y="224" width="74.66666666666667" height="74.66666666666667" fill="#80a92d"/><rect x="261.33" y="261.33" width="37.33" height="37.33" fill="#a45c68"/><rect x="298.6666666666667" y="224" width="74.66666666666667" height="74.66666666666667" fill="#80a92d"/><rect x="336" y="224" width="37.33" height="37.33" fill="#a45c68"/><rect x="821.3333333333334" y="224" width="74.66666666666667" height="74.66666666666667" fill="#80a92d"/><rect x="858.67" y="224" width="37.33" height="37.33" fill="#8cb65d"/><rect x="858.67" y="261.33" width="37.33" height="37.33" fill="#8cb75e"/><rect x="970.6666666666667" y="224" width="74.66666666666667" height="74.66666666666667" fill="#80a92d"/><rect x="1008" y="224" width="37.33" height="37.33" fill="#a7566c"/><rect x="970.67" y="261.33" width="37.33" height="37.33" fill="#93be77"/><rect x="0" y="298.6666666666667" width="74.66666666666667" height="74.66666666666667" fill="#80a92d"/><rect x="0" y="298.67" width="37.33" height="37.33" fill="#88b24e"/><rect x="37.33" y="298.67" width="37.33" height="37.33" fill="#98c48d"/><rect x="0" y="336" width="37.33" height="37.33" fill="#b93189"/><rect x="37.33" y="336" width="37.33" height="37.33" fill="#9fcca8"/><rect x="74.66666666666667" y="298.6666666666667" width="74.66666666666667" height="74.66666666666667" fill="#80a92d"/><rect x="74.67" y="336" width="37.33" height="37.33" fill="#91bc70"/><rect x="224" y="298.6666666666667" width="74.66666666666667" height="74.66666666666667" fill="#80a92d"/><rect x="224" y="298.67" width="37.33" height="37.33" fill="#97c389"/><rect x="298.6666666666667" y="298.6666666666667" width="74.66666666666667" height="74.66666666666667" fill="#80a92d"/><rect x="336" y="336" width="37.33" height="37.33" fill="#a7566d"/><rect x="373.33333333333337" y="298.6666666666667" width="74.66666666666667" height="74.66666666666667" fill="#80a92d"/><rect x="410.67" y="298.67" width="37.33" height="37.33" fill="#97c287"/><rect x="448" y="298.6666666666667" width="74.66666666666667" height="74.66666666666667" fill="#80a92d"/><rect x="448" y="298.67" width="37.33" height="37.33" fill="#9dc9a0"/><rect x="448" y="336" width="37.33" height="37.33" fill="#96c183"/><rect x="485.33" y="336" width="37.33" height="37.33" fill="#9bc89a"/><rect x="522.6666666666667" y="298.6666666666667" width="74.66666666666667" height="74.66666666666667" fill="#80a92d"/><rect x="522.67" y="298.67" width="37.33" height="37.33" fill="#b1427c"/><rect x="560" y="336" width="37.33" height="37.33" fill="#85ae3f"/><rect x="597.3333333333334" y="298.6666666666667" width="74.66666666666667" height="74.66666666666667" fill="#80a92d"/><rect x="634.67" y="298.67" width="37.33" height="37.33" fill="#9fcca9"/><rect x="672" y="298.6666666666667" width="74.66666666666667" height="74.66666666666667" fill="#80a92d"/><rect x="709.33" y="336" width="37.33" height="37.33" fill="#9cc89c"/><rect x="746.6666666666667" y="298.6666666666667" width="74.66666666666667" height="74.66666666666667" fill="#80a92d"/><rect x="746.67" y="298.67" width="37.33" height="37.33" fill="#9e6a5d"/><rect x="821.3333333333334" y="298.6666666666667" width="74.66666666666667" height="74.66666666666667" fill="#80a92d"/><rect x="821.33" y="298.67" width="37.33" height="37.33" fill="#9f6760"/><rect x="821.33" y="336" width="37.33" height="37.33" fill="#ad4b75"/><rect x="1045.3333333333335" y="298.6666666666667" width="74.66666666666667" height="74.66666666666667" fill="#80a92d"/><rect x="1045.33" y="298.67" width="37.33" height="37.33" fill="#c6149f"/><rect x="149.33333333333334" y="373.33333333333337" width="74.66666666666667" height="74.66666666666667" fill="#80a92d"/><rect x="149.33" y="373.33" width="37.33" height="37.33" fill="#9ac695"/><rect x="186.67" y="373.33" width="37.33" height="37.33" fill="#967b50"/><rect x="186.67" y="410.67" width="37.33" height="37.33" fill="#85af42"/><rect x="224" y="373.33333333333337" width="74.66666666666667" height="74.66666666666667" fill="#80a92d"/><rect x="224" y="373.33" width="37.33" height="37.33" fill="#81aa31"/><rect x="261.33" y="373.33" width="37.33" height="37.33" fill="#c4199c"/><rect x="224" y="410.67" width="37.33" height="37.33" fill="#957d4f"/><rect x="448" y="373.33333333333337" width="74.66666666666667" height="74.66666666666667" fill="#80a92d"/><rect x="485.33" y="410.67" width="37.33" height="37.33" fill="#80a82d"/><rect x="522.6666666666667" y="373.33333333333337" width="74.66666666666667" height="74.66666666666667" fill="#80a92d"/><rect x="522.67" y="410.67" width="37.33" height="37.33" fill="#b73586"/><rect x="560" y="410.67" width="37.33" height="37.33" fill="#957d4e"/><rect x="597.3333333333334" y="373.33333333333337" width="74.66666666666667" height="74.66666666666667" fill="#80a92d"/><rect x="634.67" y="373.33" width="37.33" height="37.33" fill="#92834a"/><rect x="597.33" y="410.67" width="37.33" height="37.33" fill="#ba2d8c"/><rect x="746.6666666666667" y="373.33333333333337" width="74.66666666666667" height="74.66666666666667" fill="#80a92d"/><rect x="784" y="373.33" width="37.33" height="37.33" fill="#879939"/><rect x="746.67" y="410.67" width="37.33" height="37.33" fill="#93be79"/><rect x="784" y="410.67" width="37.33" height="37.33" fill="#a9536f"/><rect x="821.3333333333334" y="373.33333333333337" width="74.66666666666667" height="74.66666666666667" fill="#80a92d"/><rect x="821.33" y="373.33" width="37.33" height="37.33" fill="#9ecba6"/><rect x="821.33" y="410.67" width="37.33" height="37.33" fill="#84ad3c"/><rect x="896" y="373.33333333333337" width="74.66666666666667" height="74.66666666666667" fill="#80a92d"/><rect x="933.33" y="373.33" width="37.33" height="37.33" fill="#cf03ad"/><rect x="933.33" y="410.67" width="37.33" height="37.33" fill="#a8556d"/><rect x="970.6666666666667" y="373.33333333333337" width="74.66666666666667" height="74.66666666666667" fill="#80a92d"/><rect x="970.67" y="373.33" width="37.33" height="37.33" fill="#be2592"/><rect x="970.67" y="410.67" width="37.33" height="37.33" fill="#84ad3c"/><rect x="1008" y="410.67" width="37.33" height="37.33" fill="#a0cdaf"/><rect x="0" y="448" width="74.66666666666667" height="74.66666666666667" fill="#80a92d"/><rect x="0" y="448" width="37.33" height="37.33" fill="#b1427c"/><rect x="37.33" y="448" width="37.33" height="37.33" fill="#9ac695"/><rect x="37.33" y="485.33" width="37.33" height="37.33" fill="#82ab34"/><rect x="224" y="448" width="74.66666666666667" height="74.66666666666667" fill="#80a92d"/><rect x="224" y="448" width="37.33" height="37.33" fill="#8eb966"/><rect x="261.33" y="448" width="37.33" height="37.33" fill="#8c8f41"/><rect x="224" y="485.33" width="37.33" height="37.33" fill="#c5169d"/><rect x="261.33" y="485.33" width="37.33" height="37.33" fill="#8c8f41"/><rect x="298.6666666666667" y="448" width="74.66666666666667" height="74.66666666666667" fill="#80a92d"/><rect x="336" y="448" width="37.33" height="37.33" fill="#b53884"/><rect x="298.67" y="485.33" width="37.33" height="37.33" fill="#88983a"/><rect x="373.33333333333337" y="448" width="74.66666666666667" height="74.66666666666667" fill="#80a92d"/><rect x="373.33" y="448" width="37.33" height="37.33" fill="#92be76"/><rect x="410.67" y="448" width="37.33" height="37.33" fill="#88983a"/><rect x="373.33" y="485.33" width="37.33" height="37.33" fill="#869d36"/><rect x="410.67" y="485.33" width="37.33" height="37.33" fill="#ad4a76"/><rect x="448" y="448" width="74.66666666666667" height="74.66666666666667" fill="#80a92d"/><rect x="448" y="448" width="37.33" height="37.33" fill="#84ae3e"/><rect x="485.33" y="448" width="37.33" height="37.33" fill="#98c48f"/><rect x="448" y="485.33" width="37.33" height="37.33" fill="#9fcca9"/><rect x="485.33" y="485.33" width="37.33" height="37.33" fill="#908847"/><rect x="522.6666666666667" y="448" width="74.66666666666667" height="74.66666666666667" fill="#80a92d"/><rect x="522.67" y="448" width="37.33" height="37.33" fill="#8a933e"/><rect x="560" y="448" width="37.33" height="37.33" fill="#85ae40"/><rect x="522.67" y="485.33" width="37.33" height="37.33" fill="#8db861"/><rect x="597.3333333333334" y="448" width="74.66666666666667" height="74.66666666666667" fill="#80a92d"/><rect x="597.33" y="448" width="37.33" height="37.33" fill="#ca0da5"/><rect x="634.67" y="448" width="37.33" height="37.33" fill="#8f8945"/><rect x="672" y="448" width="74.66666666666667" height="74.66666666666667" fill="#80a92d"/><rect x="672" y="448" width="37.33" height="37.33" fill="#869c37"/><rect x="709.33" y="448" width="37.33" height="37.33" fill="#9b7158"/><rect x="672" y="485.33" width="37.33" height="37.33" fill="#908648"/><rect x="709.33" y="485.33" width="37.33" height="37.33" fill="#c4199c"/><rect x="746.6666666666667" y="448" width="74.66666666666667" height="74.66666666666667" fill="#80a92d"/><rect x="746.67" y="448" width="37.33" height="37.33" fill="#a06462"/><rect x="784" y="448" width="37.33" height="37.33" fill="#c21e97"/><rect x="746.67" y="485.33" width="37.33" height="37.33" fill="#b83288"/><rect x="784" y="485.33" width="37.33" height="37.33" fill="#9e695e"/><rect x="821.3333333333334" y="448" width="74.66666666666667" height="74.66666666666667" fill="#80a92d"/><rect x="821.33" y="448" width="37.33" height="37.33" fill="#8e8c44"/><rect x="858.67" y="448" width="37.33" height="37.33" fill="#98c48c"/><rect x="821.33" y="485.33" width="37.33" height="37.33" fill="#9ac695"/><rect x="858.67" y="485.33" width="37.33" height="37.33" fill="#81ab33"/><rect x="896" y="448" width="74.66666666666667" height="74.66666666666667" fill="#80a92d"/><rect x="933.33" y="448" width="37.33" height="37.33" fill="#af457a"/><rect x="896" y="485.33" width="37.33" height="37.33" fill="#92824b"/><rect x="933.33" y="485.33" width="37.33" height="37.33" fill="#918548"/><rect x="970.6666666666667" y="448" width="74.66666666666667" height="74.66666666666667" fill="#80a92d"/><rect x="1008" y="448" width="37.33" height="37.33" fill="#84a034"/><rect x="970.67" y="485.33" width="37.33" height="37.33" fill="#c31b9a"/><rect x="1008" y="485.33" width="37.33" height="37.33" fill="#9fcba7"/><rect x="1045.3333333333335" y="448" width="74.66666666666667" height="74.66666666666667" fill="#80a92d"/><rect x="1082.67" y="448" width="37.33" height="37.33" fill="#8eb864"/><rect x="1045.33" y="485.33" width="37.33" height="37.33" fill="#b9308a"/><rect x="1082.67" y="485.33" width="37.33" height="37.33" fill="#8eb966"/><rect x="0" y="522.6666666666667" width="74.66666666666667" height="74.66666666666667" fill="#80a92d"/><rect x="0" y="522.67" width="37.33" height="37.33" fill="#9a7357"/><rect x="37.33" y="522.67" width="37.33" height="37.33" fill="#83ac38"/><rect x="0" y="560" width="37.33" height="37.33" fill="#9d6b5d"/><rect x="74.66666666666667" y="522.6666666666667" width="74.66666666666667" height="74.66666666666667" fill="#80a92d"/><rect x="74.67" y="522.67" width="37.33" height="37.33" fill="#ab4d73"/><rect x="112" y="522.67" width="37.33" height="37.33" fill="#b0447b"/><rect x="74.67" y="560" width="37.33" height="37.33" fill="#967a51"/><rect x="112" y="560" width="37.33" height="37.33" fill="#a16363"/><rect x="149.33333333333334" y="522.6666666666667" width="74.66666666666667" height="74.66666666666667" fill="#80a92d"/><rect x="149.33" y="522.67" width="37.33" height="37.33" fill="#9e6a5d"/><rect x="186.67" y="522.67" width="37.33" height="37.33" fill="#8bb65a"/><rect x="186.67" y="560" width="37.33" height="37.33" fill="#a16363"/><rect x="224" y="522.6666666666667" width="74.66666666666667" height="74.66666666666667" fill="#80a92d"/><rect x="224" y="522.67" width="37.33" height="37.33" fill="#82ab34"/><rect x="261.33" y="522.67" width="37.33" height="37.33" fill="#81aa32"/><rect x="224" y="560" width="37.33" height="37.33" fill="#94bf7c"/><rect x="261.33" y="560" width="37.33" height="37.33" fill="#94bf7d"/><rect x="298.6666666666667" y="522.6666666666667" width="74.66666666666667" height="74.66666666666667" fill="#80a92d"/><rect x="298.67" y="522.67" width="37.33" height="37.33" fill="#9dc9a1"/><rect x="336" y="522.67" width="37.33" height="37.33" fill="#94c07e"/><rect x="298.67" y="560" width="37.33" height="37.33" fill="#8fba68"/><rect x="336" y="560" width="37.33" height="37.33" fill="#bb2d8c"/><rect x="373.33333333333337" y="522.6666666666667" width="74.66666666666667" height="74.66666666666667" fill="#80a92d"/><rect x="373.33" y="522.67" width="37.33" height="37.33" fill="#859e35"/><rect x="410.67" y="522.67" width="37.33" height="37.33" fill="#98c48d"/><rect x="373.33" y="560" width="37.33" height="37.33" fill="#c5189c"/><rect x="410.67" y="560" width="37.33" height="37.33" fill="#9a7357"/><rect x="448" y="522.6666666666667" width="74.66666666666667" height="74.66666666666667" fill="#80a92d"/><rect x="448" y="522.67" width="37.33" height="37.33" fill="#9ac695"/><rect x="485.33" y="522.67" width="37.33" height="37.33" fill="#9ac693"/><rect x="448" y="560" width="37.33" height="37.33" fill="#a1ceb1"/><rect x="485.33" y="560" width="37.33" height="37.33" fill="#a55c68"/><rect x="522.6666666666667" y="522.6666666666667" width="74.66666666666667" height="74.66666666666667" fill="#80a92d"/><rect x="522.67" y="522.67" width="37.33" height="37.33" fill="#88993a"/><rect x="560" y="522.67" width="37.33" height="37.33" fill="#9ecba5"/><rect x="522.67" y="560" width="37.33" height="37.33" fill="#88b24c"/><rect x="560" y="560" width="37.33" height="37.33" fill="#8bb55a"/><rect x="597.3333333333334" y="522.6666666666667" width="74.66666666666667" height="74.66666666666667" fill="#80a92d"/><rect x="597.33" y="522.67" width="37.33" height="37.33" fill="#9ecaa4"/><rect x="634.67" y="522.67" width="37.33" height="37.33" fill="#c11f97"/><rect x="597.33" y="560" width="37.33" height="37.33" fill="#81ab33"/><rect x="634.67" y="560" width="37.33" height="37.33" fill="#ab4e72"/><rect x="672" y="522.6666666666667" width="74.66666666666667" height="74.66666666666667" fill="#80a92d"/><rect x="672" y="522.67" width="37.33" height="37.33" fill="#80a82d"/><rect x="709.33" y="522.67" width="37.33" height="37.33" fill="#96c285"/><rect x="672" y="560" width="37.33" height="37.33" fill="#89b34f"/><rect x="746.6666666666667" y="522.6666666666667" width="74.66666666666667" height="74.66666666666667" fill="#80a92d"/><rect x="746.67" y="522.67" width="37.33" height="37.33" fill="#8d8d42"/><rect x="784" y="522.67" width="37.33" height="37.33" fill="#9c6d5b"/><rect x="746.67" y="560" width="37.33" height="37.33" fill="#a0ccac"/><rect x="784" y="560" width="37.33" height="37.33" fill="#c6169e"/><rect x="821.3333333333334" y="522.6666666666667" width="74.66666666666667" height="74.66666666666667" fill="#80a92d"/><rect x="821.33" y="522.67" width="37.33" height="37.33" fill="#82ab36"/><rect x="858.67" y="522.67" width="37.33" height="37.33" fill="#8a933e"/><rect x="858.67" y="560" width="37.33" height="37.33" fill="#81aa2f"/><rect x="896" y="522.6666666666667" width="74.66666666666667" height="74.66666666666667" fill="#80a92d"/><rect x="896" y="522.67" width="37.33" height="37.33" fill="#84a133"/><rect x="933.33" y="522.67" width="37.33" height="37.33" fill="#8e8c43"/><rect x="896" y="560" width="37.33" height="37.33" fill="#93be77"/><rect x="970.6666666666667" y="522.6666666666667" width="74.66666666666667" height="74.66666666666667" fill="#80a92d"/><rect x="970.67" y="522.67" width="37.33" height="37.33" fill="#8cb75d"/><rect x="1008" y="522.67" width="37.33" height="37.33" fill="#9b7158"/><rect x="970.67" y="560" width="37.33" height="37.33" fill="#95c080"/><rect x="1008" y="560" width="37.33" height="37.33" fill="#a6586b"/><rect x="1045.3333333333335" y="522.6666666666667" width="74.66666666666667" height="74.66666666666667" fill="#80a92d"/><rect x="1045.33" y="522.67" width="37.33" height="37.33" fill="#ac4c75"/><rect x="1082.67" y="522.67" width="37.33" height="37.33" fill="#9bc798"/><rect x="1045.33" y="560" width="37.33" height="37.33" fill="#bb2d8c"/><rect x="1082.67" y="560" width="37.33" height="37.33" fill="#9fcba8"/><rect x="0" y="597.3333333333334" width="74.66666666666667" height="74.66666666666667" fill="#80a92d"/><rect x="0" y="597.33" width="37.33" height="37.33" fill="#ce03ac"/><rect x="37.33" y="597.33" width="37.33" height="37.33" fill="#b73487"/><rect x="0" y="634.67" width="37.33" height="37.33" fill="#987753"/><rect x="37.33" y="634.67" width="37.33" height="37.33" fill="#8e8c43"/><rect x="74.66666666666667" y="597.3333333333334" width="74.66666666666667" height="74.66666666666667" fill="#80a92d"/><rect x="74.67" y="597.33" width="37.33" height="37.33" fill="#92bd75"/><rect x="112" y="597.33" width="37.33" height="37.33" fill="#88b24c"/><rect x="74.67" y="634.67" width="37.33" height="37.33" fill="#95c183"/><rect x="112" y="634.67" width="37.33" height="37.33" fill="#987654"/><rect x="149.33333333333334" y="597.3333333333334" width="74.66666666666667" height="74.66666666666667" fill="#80a92d"/><rect x="149.33" y="597.33" width="37.33" height="37.33" fill="#8db863"/><rect x="186.67" y="597.33" width="37.33" height="37.33" fill="#c5179d"/><rect x="149.33" y="634.67" width="37.33" height="37.33" fill="#8fba68"/><rect x="186.67" y="634.67" width="37.33" height="37.33" fill="#a16263"/><rect x="224" y="597.3333333333334" width="74.66666666666667" height="74.66666666666667" fill="#80a92d"/><rect x="224" y="597.33" width="37.33" height="37.33" fill="#8db760"/><rect x="261.33" y="597.33" width="37.33" height="37.33" fill="#8eb964"/><rect x="224" y="634.67" width="37.33" height="37.33" fill="#9ecba6"/><rect x="261.33" y="634.67" width="37.33" height="37.33" fill="#9bc89a"/><rect x="298.6666666666667" y="597.3333333333334" width="74.66666666666667" height="74.66666666666667" fill="#80a92d"/><rect x="298.67" y="597.33" width="37.33" height="37.33" fill="#8a943d"/><rect x="336" y="597.33" width="37.33" height="37.33" fill="#95c080"/><rect x="298.67" y="634.67" width="37.33" height="37.33" fill="#c11f97"/><rect x="336" y="634.67" width="37.33" height="37.33" fill="#91bc70"/><rect x="373.33333333333337" y="597.3333333333334" width="74.66666666666667" height="74.66666666666667" fill="#80a92d"/><rect x="373.33" y="597.33" width="37.33" height="37.33" fill="#86b047"/><rect x="410.67" y="597.33" width="37.33" height="37.33" fill="#9bc89b"/><rect x="373.33" y="634.67" width="37.33" height="37.33" fill="#c4199c"/><rect x="410.67" y="634.67" width="37.33" height="37.33" fill="#8a943d"/><rect x="448" y="597.3333333333334" width="74.66666666666667" height="74.66666666666667" fill="#80a92d"/><rect x="448" y="597.33" width="37.33" height="37.33" fill="#90bb6d"/><rect x="485.33" y="597.33" width="37.33" height="37.33" fill="#8d8d42"/><rect x="448" y="634.67" width="37.33" height="37.33" fill="#cb0aa7"/><rect x="485.33" y="634.67" width="37.33" height="37.33" fill="#86b046"/><rect x="522.6666666666667" y="597.3333333333334" width="74.66666666666667" height="74.66666666666667" fill="#80a92d"/><rect x="522.67" y="597.33" width="37.33" height="37.33" fill="#8e8b44"/><rect x="560" y="597.33" width="37.33" height="37.33" fill="#cd06aa"/><rect x="522.67" y="634.67" width="37.33" height="37.33" fill="#9bc79a"/><rect x="560" y="634.67" width="37.33" height="37.33" fill="#9ac694"/><rect x="597.3333333333334" y="597.3333333333334" width="74.66666666666667" height="74.66666666666667" fill="#80a92d"/><rect x="597.33" y="597.33" width="37.33" height="37.33" fill="#9ac695"/><rect x="634.67" y="597.33" width="37.33" height="37.33" fill="#87b14a"/><rect x="597.33" y="634.67" width="37.33" height="37.33" fill="#8eb966"/><rect x="634.67" y="634.67" width="37.33" height="37.33" fill="#ac4b75"/><rect x="672" y="597.3333333333334" width="74.66666666666667" height="74.66666666666667" fill="#80a92d"/><rect x="672" y="597.33" width="37.33" height="37.33" fill="#ca0ea4"/><rect x="709.33" y="597.33" width="37.33" height="37.33" fill="#88983a"/><rect x="672" y="634.67" width="37.33" height="37.33" fill="#88b24c"/><rect x="709.33" y="634.67" width="37.33" height="37.33" fill="#95c182"/><rect x="746.6666666666667" y="597.3333333333334" width="74.66666666666667" height="74.66666666666667" fill="#80a92d"/><rect x="746.67" y="597.33" width="37.33" height="37.33" fill="#9dcaa2"/><rect x="784" y="597.33" width="37.33" height="37.33" fill="#87b14a"/><rect x="746.67" y="634.67" width="37.33" height="37.33" fill="#96c183"/><rect x="784" y="634.67" width="37.33" height="37.33" fill="#c31b9a"/><rect x="821.3333333333334" y="597.3333333333334" width="74.66666666666667" height="74.66666666666667" fill="#80a92d"/><rect x="821.33" y="597.33" width="37.33" height="37.33" fill="#8eb966"/><rect x="858.67" y="597.33" width="37.33" height="37.33" fill="#cd06aa"/><rect x="821.33" y="634.67" width="37.33" height="37.33" fill="#89b351"/><rect x="858.67" y="634.67" width="37.33" height="37.33" fill="#88b24b"/><rect x="896" y="597.3333333333334" width="74.66666666666667" height="74.66666666666667" fill="#80a92d"/><rect x="896" y="597.33" width="37.33" height="37.33" fill="#ab4d73"/><rect x="933.33" y="597.33" width="37.33" height="37.33" fill="#a35f66"/><rect x="896" y="634.67" width="37.33" height="37.33" fill="#81aa31"/><rect x="933.33" y="634.67" width="37.33" height="37.33" fill="#ab4f72"/><rect x="970.6666666666667" y="597.3333333333334" width="74.66666666666667" height="74.66666666666667" fill="#80a92d"/><rect x="970.67" y="597.33" width="37.33" height="37.33" fill="#967b50"/><rect x="1008" y="597.33" width="37.33" height="37.33" fill="#9dcaa2"/><rect x="970.67" y="634.67" width="37.33" height="37.33" fill="#83a233"/><rect x="1008" y="634.67" width="37.33" height="37.33" fill="#81ab32"/><rect x="1045.3333333333335" y="597.3333333333334" width="74.66666666666667" height="74.66666666666667" fill="#80a92d"/><rect x="1045.33" y="597.33" width="37.33" height="37.33" fill="#c12096"/><rect x="1082.67" y="597.33" width="37.33" height="37.33" fill="#8d8e42"/><rect x="1045.33" y="634.67" width="37.33" height="37.33" fill="#8eb965"/><rect x="1082.67" y="634.67" width="37.33" height="37.33" fill="#9d6b5c"/></g></svg>